<svg xmlns="http://www.w3.org/2000/svg" xmlns:xlink="http://www.w3.org/1999/xlink" width="127" height="132.794" viewBox="0 0 127 132.794">
  <defs>
    <clipPath id="clip-path">
      <rect id="Rectángulo_346571" data-name="Rectángulo 346571" width="121.865" height="129.082" fill="none"/>
    </clipPath>
  </defs>
  <g id="Grupo_991487" data-name="Grupo 991487" transform="translate(-392 -682.206)">
    <circle id="Elipse_5888" data-name="Elipse 5888" cx="61" cy="61" r="61" transform="translate(392 693)" fill="#b20d0d"/>
    <g id="Grupo_988718" data-name="Grupo 988718" transform="translate(397.135 682.206)">
      <g id="Grupo_988717" data-name="Grupo 988717" clip-path="url(#clip-path)">
        <path id="Trazado_729687" data-name="Trazado 729687" d="M4.673,54.674c-1.54-.917-1.215-2.168-.648-3.489C11.9,32.839,25.461,21.258,44.936,16.63c2.007-.477,4.174-.279,6.027-1.514,1.087-.725,1.664-1.15.838-2.64a7.841,7.841,0,0,1,.874-9.157A8.058,8.058,0,0,1,61.167.226a8.406,8.406,0,0,1,6.612,6.512,7.822,7.822,0,0,1-.9,6.061c-.524.9-.528,1.224.341,1.935a17.332,17.332,0,0,0,6.14,3.122,55.811,55.811,0,0,1,30.389,22.3,2.157,2.157,0,0,0,2.94,1.031,8,8,0,0,1,9.019,2.774,8.066,8.066,0,0,1,1.037,9.173c-.608,1.24-.819,1.753.571,2.618a7.9,7.9,0,0,1,3.632,6.548c.21,3.01.591,6.009.871,9.016.258,2.784-.531,3.992-3.235,4.317-1.3.157-1.2.8-1.2,1.644.006,2.855.031,5.71-.008,8.565-.04,2.945-1.73,4.889-4.577,4.836-1.752-.032-2.373.6-3,2.139Q99.4,118.338,73.085,126.7c-1.548.49-2.93.777-3.977-.838-.126-1.862,1.186-2.382,2.611-2.8a52.848,52.848,0,0,0,29-21.112c2.044-2.91,2.015-2.943-1.023-4.551-1.32-.7-2.662-1.355-4-2.03Q76.385,84.956,57.083,74.523a4.254,4.254,0,0,0-2.178-.395Q30.352,74.121,5.8,74.1c-1.345,0-1.941.235-1.827,1.758a52.491,52.491,0,0,0,7.383,23.5c.834-1.668,1.247-3.447,2.679-4.4,1.854-1.233,2.656-2.37,1.21-4.556A5.393,5.393,0,0,1,14.8,86.49c.746-3.744,2.915-6.263,6.566-7.151a8.045,8.045,0,0,1,8.582,2.876,8.165,8.165,0,0,1,.891,9.606c-.582,1.082-.44,1.436.564,2.064a7.965,7.965,0,0,1,3.783,5.96c.418,3.41.716,6.837.963,10.264.151,2.091-.667,3.585-2.969,3.9-.515.072-1.135-.188-1.442.634a4.4,4.4,0,0,0,2.143,5.322,52.515,52.515,0,0,0,28.079,4.96,2.487,2.487,0,0,1,2.417,1.735c-.382,2.063-1.965,2.221-3.62,2.316a58.107,58.107,0,0,1-26.7-4.669c-.682-.294-1.36-.6-2.058-.9-.928,4.755-1.985,5.639-6.644,5.639-1.761,0-3.523.02-5.284,0-3.278-.045-4.967-1.691-5.01-4.929-.037-2.767-.041-5.536.007-8.3.02-1.145-.1-1.81-1.564-1.869a2.8,2.8,0,0,1-2.856-3.6c.892-3.6-.843-6.129-2.528-8.957A55.807,55.807,0,0,1,.932,62.042c.272-1.557.888-2.47,2.514-2.542a2.571,2.571,0,0,1,1.269,3.169,43.957,43.957,0,0,0-.7,4.717c-.347,2.134.186,2.983,2.666,2.955,12.759-.147,25.521-.058,38.282-.074,3.69,0,7.787.907,10.953-.4s5.421-4.839,8.022-7.45q12.433-12.482,24.825-25c.969-.9,1.882-1.877,2.92-2.692,1.3-1.02,1.067-1.7-.126-2.669a57.468,57.468,0,0,0-11.228-7.37A39.109,39.109,0,0,0,71.267,21.3c.131.985.227,1.717.325,2.45.161,2.586.333,5.172.479,7.76a2.81,2.81,0,0,1-2.4,3.286c-1.173.2-2.077.339-2.218,1.761-.083.832-1.065.644-1.527,1.084C63.022,37.2,64.052,34.916,64,33.267c-.06-1.83,1.317-2.108,2.795-1.989,1.192.1,1.609-.237,1.4-1.566-.359-2.229-.474-4.5-.659-6.753-.379-4.6-1.9-5.925-6.594-5.685-1.508-.027-3.017-.1-4.525-.072-3.09.049-4.773,1.63-5.071,4.688-.244,2.5-.388,5.016-.777,7.493-.226,1.439.026,2.058,1.572,1.894,2.11-.224,2.806.9,2.77,2.869-.063,3.439.008,6.879-.031,10.318-.013,1.08.2,1.774,1.472,1.792,1.429.02,1.072-1.011,1.079-1.763.029-3.44.018-6.879.01-10.319,0-1.3-.022-2.63,1.64-2.933,1.545-.282,2,.865,2.388,2.028-.041,3.77-.1,7.541-.107,11.312,0,.676-.305,1.638.909,1.683.91.033,1.69-.128,1.7-1.316a2.065,2.065,0,0,1,2-2.148c2.075.545,1.85,2.145,1.556,3.642A4.015,4.015,0,0,1,63.5,49.913c-2.341.122-4.693.043-7.04.033-3.707-.016-5.377-1.618-5.446-5.306-.05-2.681-.014-5.364-.011-8.047,0-.861.066-1.633-1.221-1.7-2.47-.122-3.235-1.693-3.054-3.952.227-2.838.254-5.706.7-8.508.361-2.283-.269-2.449-2.285-1.938Q18.535,27.251,7.666,52.4c-.609,1.4-1.12,2.661-2.993,2.27m17.97,28.51C20,83.718,18.6,85.285,18.6,87.7s1.4,3.975,4.037,4.528c3.242.195,5.516-1.674,5.513-4.534s-2.313-4.743-5.511-4.515M108.3,53.916c3.321.194,5.556-1.651,5.541-4.572s-2.334-4.805-5.544-4.484c-2.568.563-4.028,2.206-4.02,4.524s1.437,3.918,4.023,4.532M58.913,13.165c3.258.1,5.155-1.564,5.156-4.533s-1.9-4.646-5.159-4.538c-2.729.379-4.269,2.015-4.269,4.535s1.541,4.156,4.272,4.536m52.409,44.914c-1.925-.027-3.855-.142-5.776-.057a4.165,4.165,0,0,0-4.349,3.712c-.434,2.889-.627,5.815-.953,8.722-.135,1.2.311,1.71,1.534,1.574,2.326-.259,2.86,1.116,2.834,3.082-.04,3.016-.069,6.035.024,9.049.03.989-.731,2.578,1.26,2.665,2.107.092,1.3-1.564,1.322-2.525.089-3.265.037-6.536.033-9.8,0-1.016-.071-2.056,1.169-2.481a1.942,1.942,0,0,1,2.485,1.105c0,3.94,0,7.881.007,11.822,0,.89-.246,1.906,1.259,1.9,1.389,0,1.4-.883,1.406-1.849,0-3.438.014-6.876,0-10.315-.005-1.666.539-2.867,2.455-2.658,1.684.184,2-.609,1.84-2.052-.275-2.411-.365-4.847-.721-7.246-.53-3.576-2.148-4.795-5.832-4.646M24.673,96.37c-1.339-.025-2.679-.081-4.018-.069-3.19.028-4.884,1.355-5.338,4.45-.376,2.563-.487,5.164-.735,7.746-.11,1.14,0,2,1.515,1.822,2.131-.251,2.791.914,2.754,2.864-.06,3.183-.049,6.369.007,9.553.017.965-.531,2.351,1.276,2.438,1.939.093,1.284-1.374,1.3-2.3.061-3.435.025-6.872.03-10.308,0-1.075.225-2.075,1.459-2.312a1.837,1.837,0,0,1,2.343,1.645q-.029,5.77-.057,11.541c0,.825-.16,1.693,1.158,1.732,1.377.04,1.432-.772,1.42-1.781-.047-3.845-.07-7.692-.1-11.538l.094-.095-.055-.122a2.964,2.964,0,0,1,2.981-1.33c1.22.168,1.623-.367,1.485-1.566-.259-2.226-.362-4.471-.65-6.693-.619-4.771-2.035-5.91-6.868-5.681m71.975-5.079c1.65.947,3.287,1.917,4.954,2.832,3,1.647,2.97,1.618,4.251-1.584.43-1.075.862-1.656-.889-1.869-2.845-.346-4.16-2.107-4.218-4.978-.043-2.176-.059-4.353-.087-6.529.28-1.949.534-3.608-2.411-3.845-1.582-.128-2.1-1.953-1.955-3.6.157-1.829.223-3.673.51-5.482.463-2.929.146-6.047,1.955-8.674a9.539,9.539,0,0,1,1.861-1.64c1.566-.787,1.547-1.616.7-3.035a6.189,6.189,0,0,1-.4-5.812c1.345-2.571.293-4.112-1.115-6-4.143-5.544-4.1-5.581-8.67-.249q-15.049,14.96-30.112,29.9c-.91.9-.6,1.306.334,1.79,2.368,1.228,4.713,2.5,7.068,3.752L96.648,91.291" transform="translate(0 0)" fill="#0d0d0e"/>
        <path id="Trazado_729688" data-name="Trazado 729688" d="M8.062,74.59c1.873.391,2.384-.867,2.993-2.27q10.9-25.129,37.473-31.906c2.016-.512,2.646-.345,2.285,1.937-.444,2.8-.47,5.67-.7,8.508-.181,2.259.583,3.83,3.054,3.952,1.286.064,1.221.837,1.22,1.7,0,2.682-.039,5.366.011,8.047.069,3.687,1.739,5.29,5.446,5.305,2.347.01,4.7.089,7.04-.032a4.017,4.017,0,0,0,4.018-3.472c.294-1.5.519-3.1-1.556-3.641q-.015-2.579-.031-5.158c.46-.439,1.443-.252,1.526-1.083.141-1.423,1.045-1.563,2.218-1.761a2.811,2.811,0,0,0,2.4-3.287c-.145-2.587-.318-5.173-.479-7.76a54.3,54.3,0,0,1,10.461,7.084c2.472,2,4.26,4.609,6.712,6.573q-12.409,12.505-24.825,25c-2.6,2.611-4.861,6.143-8.022,7.45s-7.264.4-10.953.4c-12.761.016-25.522-.073-38.282.074-2.48.029-3.014-.822-2.666-2.955a43.947,43.947,0,0,1,.7-4.718,2.571,2.571,0,0,0-1.268-3.169Q7.447,77,8.062,74.59m31.909,2.752c1.919,0,3.837.023,5.755-.008,1.231-.02,2.186-.627,2.225-1.886.043-1.407-.933-2.042-2.293-2.045-3.67-.008-7.339,0-11.009-.008-1.329,0-2.432.483-2.481,1.88-.056,1.579,1.151,2.059,2.549,2.068,1.751.012,3.5,0,5.254,0M38.648,68.8a3.425,3.425,0,0,0,1.1-.646q3.318-3.944,6.544-7.964a1.64,1.64,0,0,0-.257-2.46,1.718,1.718,0,0,0-2.664.142c-2.219,2.622-4.434,5.255-6.486,8.007A1.918,1.918,0,0,0,38.648,68.8M42.8,79.931v.015c-1.083,0-2.168-.044-3.247.013a1.821,1.821,0,0,0-1.79,1.764,1.708,1.708,0,0,0,1.568,1.941,69.7,69.7,0,0,0,6.977.033,1.722,1.722,0,0,0,1.655-1.875,1.824,1.824,0,0,0-1.915-1.882c-1.082-.037-2.166-.008-3.248-.008M48,66.844c-.163-1.122-.8-1.915-1.929-1.892a1.785,1.785,0,0,0-1.861,1.924,1.811,1.811,0,0,0,1.9,1.894c1.164.011,1.735-.811,1.889-1.927M37.53,57.249c-1.519-.087-2.219.662-2.3,1.709a1.9,1.9,0,0,0,3.782.225,1.715,1.715,0,0,0-1.48-1.934" transform="translate(-3.388 -19.917)" fill="#7abbe9"/>
        <path id="Trazado_729689" data-name="Trazado 729689" d="M156.61,189.129c1.332.675,2.675,1.331,4,2.03,3.037,1.608,3.066,1.641,1.023,4.551a52.849,52.849,0,0,1-29,21.112c-1.425.419-2.737.937-2.611,2.8l-4.733.8a2.486,2.486,0,0,0-2.417-1.734c9.5-3.328,17.987-8.27,24.735-15.867a49.02,49.02,0,0,0,9-13.693" transform="translate(-60.912 -93.759)" fill="#dc276f"/>
        <path id="Trazado_729690" data-name="Trazado 729690" d="M99.588,168.217a49.01,49.01,0,0,1-9,13.693c-6.748,7.6-15.232,12.539-24.735,15.867a52.517,52.517,0,0,1-28.079-4.96,4.4,4.4,0,0,1-2.143-5.322c.307-.822.926-.562,1.442-.634,2.3-.32,3.119-1.814,2.968-3.9-.248-3.427-.545-6.855-.963-10.264a7.964,7.964,0,0,0-3.783-5.96c-1-.628-1.146-.982-.564-2.064a8.164,8.164,0,0,0-.891-9.605,8.046,8.046,0,0,0-8.582-2.877c-3.651.889-5.82,3.408-6.566,7.151a5.393,5.393,0,0,0,.445,3.916c1.446,2.186.644,3.323-1.21,4.556-1.433.953-1.845,2.732-2.679,4.4a52.5,52.5,0,0,1-7.384-23.5c-.113-1.523.483-1.762,1.828-1.758q24.553.058,49.106.029a4.251,4.251,0,0,1,2.177.395q19.291,10.455,38.615,20.846M54.753,178.263c2.684,0,5.367-.024,8.05.01,1.366.017,2.415-.478,2.42-1.905,0-1.286-.984-1.841-2.242-1.841q-8.178,0-16.354-.008c-1.263,0-2.255.534-2.287,1.8-.035,1.414.975,1.969,2.361,1.951,2.683-.034,5.368-.01,8.052-.01m1-18.194a1.774,1.774,0,0,0-1.217-1.746,1.728,1.728,0,0,0-2.189.7c-1.993,2.356-3.931,4.758-5.9,7.136-.821.994-1.312,2.115-.189,3.085,1.19,1.026,2.289.485,3.2-.645,1.827-2.276,3.687-4.526,5.527-6.791a2.236,2.236,0,0,0,.77-1.739m-6.441,24.693c1.086,0,2.172-.014,3.258,0a1.824,1.824,0,0,0,2-1.8,1.718,1.718,0,0,0-1.617-1.915c-2.329-.116-4.67-.115-7,0a1.722,1.722,0,0,0-1.637,1.9,1.823,1.823,0,0,0,1.984,1.817c1-.006,2,0,3.008,0M46.14,162.075a1.948,1.948,0,0,0,2-1.8,1.916,1.916,0,1,0-3.825-.206,1.952,1.952,0,0,0,1.826,2.008M57.2,167.9c-.268-1.031-.72-1.856-1.964-1.847a1.839,1.839,0,1,0-.032,3.676c1.236.031,1.711-.789,2-1.829" transform="translate(-3.891 -72.848)" fill="#df4382"/>
        <path id="Trazado_729691" data-name="Trazado 729691" d="M158.21,97.694c-1.809,2.628-1.492,5.746-1.955,8.675-.286,1.809-.352,3.653-.51,5.482-.142,1.65.372,3.475,1.955,3.6,2.945.238,2.691,1.9,2.411,3.845-.879,3.355-1.19,6.854-2.512,10.093-.317.776-.219,1.939-1.5,2.035l-28.229-15.018c-2.354-1.253-4.7-2.524-7.068-3.751-.934-.485-1.245-.89-.334-1.791q15.082-14.926,30.113-29.9c3.333,5.218,6.331,10.587,7.628,16.732m-12.7,16.238c1.843,0,3.685.012,5.528,0,1.2-.01,2.209-.353,2.213-1.8,0-1.36-.809-1.913-2.105-1.91-3.769.008-7.538.014-11.306,0-1.283-.006-2.182.582-2.258,1.828-.082,1.351.914,1.864,2.151,1.876,1.926.02,3.853.006,5.779.012m-1.636-8.44c.3-.133.891-.211,1.172-.548q3.44-4.118,6.772-8.325c.668-.841.2-1.648-.471-2.184a1.669,1.669,0,0,0-2.462.143c-2.2,2.6-4.428,5.2-6.47,7.923a1.824,1.824,0,0,0,1.459,2.991m4.51,11.271c-1.091,0-2.183-.014-3.274,0a1.769,1.769,0,0,0-1.921,1.866,1.693,1.693,0,0,0,1.791,1.731c2.182.021,4.364.016,6.546,0a1.571,1.571,0,0,0,1.727-1.726,1.649,1.649,0,0,0-1.847-1.875q-1.511,0-3.023,0m4.895-13.229c-.074-1.2-.756-1.922-1.908-1.812a1.815,1.815,0,0,0-1.734,2.045,1.7,1.7,0,0,0,1.812,1.679,1.717,1.717,0,0,0,1.829-1.912M144.4,95.768c-.274-1.093-.825-1.813-2.056-1.724a1.685,1.685,0,0,0-1.711,1.756,1.758,1.758,0,0,0,1.9,1.838c1.267.01,1.666-.839,1.866-1.87" transform="translate(-59.451 -40.136)" fill="#7bbd9e"/>
        <path id="Trazado_729692" data-name="Trazado 729692" d="M39.571,206.576a1.837,1.837,0,0,0-2.343-1.645c-1.234.236-1.458,1.237-1.459,2.312-.005,3.436.031,6.872-.03,10.307-.017.923.639,2.39-1.3,2.3-1.807-.086-1.259-1.473-1.276-2.438-.056-3.183-.067-6.369-.007-9.553.037-1.95-.623-3.115-2.754-2.864-1.517.179-1.625-.682-1.515-1.822.249-2.582.36-5.184.735-7.746.454-3.095,2.148-4.422,5.338-4.45,1.339-.012,2.679.043,4.018.069a6.443,6.443,0,0,1,1.943,3.67c.41,3.863.744,7.734,1.109,11.6l.055.122-.094.1c-.805.093-1.6.8-2.42.044" transform="translate(-14.305 -94.673)" fill="#dc276f"/>
        <path id="Trazado_729693" data-name="Trazado 729693" d="M111.1,50.176c-.386-1.162-.843-2.31-2.388-2.028-1.662.3-1.643,1.638-1.64,2.934.008,3.44.019,6.88-.01,10.319-.007.752.35,1.782-1.079,1.763-1.269-.018-1.484-.713-1.471-1.792.039-3.439-.032-6.88.031-10.318.036-1.967-.661-3.093-2.77-2.869-1.546.164-1.8-.455-1.572-1.894.389-2.477.534-4.993.777-7.493.3-3.058,1.981-4.64,5.071-4.689,1.507-.024,3.016.045,4.525.072,2.835,4.629,2.17,9.846,2.421,14.891.05,1-1,1.176-1.894,1.1" transform="translate(-49.638 -16.907)" fill="#2f8ecf"/>
        <path id="Trazado_729694" data-name="Trazado 729694" d="M209.437,130.13a1.941,1.941,0,0,0-2.485-1.1c-1.24.425-1.17,1.466-1.169,2.481,0,3.269.056,6.538-.033,9.8-.026.961.786,2.616-1.322,2.524-1.99-.087-1.229-1.675-1.26-2.664-.093-3.014-.064-6.033-.024-9.049.026-1.966-.509-3.341-2.834-3.082-1.224.137-1.669-.379-1.534-1.574.327-2.907.519-5.832.953-8.722a4.165,4.165,0,0,1,4.349-3.712c1.92-.084,3.85.031,5.775.057,1.588,4.155,1.2,8.613,1.978,12.894a2.6,2.6,0,0,1-.813,2.717c-.875.7-1.106-.242-1.581-.57" transform="translate(-98.53 -57.011)" fill="#4ca775"/>
        <path id="Trazado_729695" data-name="Trazado 729695" d="M121.368,50.225c.9.073,1.944-.106,1.894-1.1-.251-5.046.414-10.262-2.421-14.891,4.693-.241,6.215,1.081,6.594,5.685.185,2.255.3,4.524.659,6.752.214,1.33-.2,1.662-1.4,1.566-1.478-.119-2.855.159-2.795,1.989.054,1.648-.976,3.933,1.931,4.376q.017,2.579.032,5.158a2.064,2.064,0,0,0-2,2.147c-.006,1.188-.786,1.349-1.7,1.316-1.213-.044-.91-1.007-.908-1.682.01-3.771.067-7.541.107-11.312" transform="translate(-59.906 -16.956)" fill="#2178bd"/>
        <path id="Trazado_729696" data-name="Trazado 729696" d="M188.349,93.806c-1.3-6.145-4.3-11.515-7.628-16.732,4.574-5.331,4.526-5.3,8.669.249,1.408,1.884,2.46,3.425,1.115,6a6.188,6.188,0,0,0,.4,5.812c.849,1.418.869,2.248-.7,3.035a9.556,9.556,0,0,0-1.861,1.64" transform="translate(-89.591 -36.249)" fill="#60af7f"/>
        <path id="Trazado_729697" data-name="Trazado 729697" d="M219.934,130.2c.476.328.706,1.27,1.581.57a2.6,2.6,0,0,0,.813-2.717c-.775-4.281-.39-8.74-1.978-12.894,3.684-.149,5.3,1.07,5.832,4.647.355,2.4.446,4.834.721,7.246.164,1.443-.156,2.236-1.84,2.052-1.916-.209-2.46.991-2.454,2.658.011,3.438,0,6.877,0,10.315,0,.966-.017,1.845-1.406,1.849-1.5,0-1.257-1.012-1.259-1.9-.01-3.94-.006-7.881-.007-11.822" transform="translate(-109.027 -57.085)" fill="#40a26c"/>
        <path id="Trazado_729698" data-name="Trazado 729698" d="M158.829,58.353c-2.452-1.964-4.24-4.57-6.712-6.573A54.3,54.3,0,0,0,141.656,44.7c-.1-.732-.194-1.465-.325-2.449a39.09,39.09,0,0,1,9.065,3.375,57.465,57.465,0,0,1,11.228,7.37c1.193.965,1.424,1.649.126,2.669-1.038.815-1.952,1.789-2.921,2.692" transform="translate(-70.064 -20.944)" fill="#54a4db"/>
        <path id="Trazado_729699" data-name="Trazado 729699" d="M51.981,206.357c-.365-3.867-.7-7.738-1.109-11.6a6.449,6.449,0,0,0-1.943-3.669c4.833-.228,6.249.91,6.868,5.682.288,2.221.391,4.466.649,6.693.139,1.2-.264,1.735-1.484,1.567a2.962,2.962,0,0,0-2.981,1.33" transform="translate(-24.256 -94.716)" fill="#d90b54"/>
        <path id="Trazado_729700" data-name="Trazado 729700" d="M191.664,169.117c1.281-.1,1.183-1.259,1.5-2.035,1.322-3.239,1.633-6.738,2.512-10.093.028,2.175.044,4.352.087,6.529.058,2.871,1.373,4.632,4.218,4.978,1.751.213,1.319.794.889,1.869-1.282,3.2-1.25,3.232-4.251,1.584-1.667-.916-3.3-1.886-4.954-2.832" transform="translate(-95.016 -77.827)" fill="#60af7f"/>
        <path id="Trazado_729701" data-name="Trazado 729701" d="M112.634,17.189c-2.731-.381-4.271-2.017-4.272-4.537s1.54-4.156,4.269-4.536c1.818,3.024,1.992,6.048,0,9.073" transform="translate(-53.72 -4.023)" fill="#f5bdb1"/>
        <path id="Trazado_729702" data-name="Trazado 729702" d="M210.824,98.017c-2.586-.614-4.016-2.224-4.023-4.532s1.452-3.96,4.02-4.524c2.185,3.291,2.186,5.95,0,9.056" transform="translate(-102.52 -44.102)" fill="#f5bdb1"/>
        <path id="Trazado_729703" data-name="Trazado 729703" d="M40.933,174.011c-2.641-.553-4.037-2.118-4.037-4.528s1.4-3.985,4.039-4.521c2.2,3.016,1.948,6.033,0,9.049" transform="translate(-18.291 -81.779)" fill="#f5bdb1"/>
        <path id="Trazado_729704" data-name="Trazado 729704" d="M214.777,97.982c2.182-3.106,2.181-5.765,0-9.056,3.211-.321,5.529,1.554,5.544,4.484s-2.22,4.765-5.541,4.572" transform="translate(-106.472 -44.067)" fill="#ee9a8c"/>
        <path id="Trazado_729705" data-name="Trazado 729705" d="M50.043,221.872c.82.755,1.615.049,2.42-.044.032,3.845.054,7.691.1,11.537.013,1.009-.043,1.821-1.419,1.781-1.318-.038-1.161-.906-1.158-1.732q.023-5.77.057-11.541" transform="translate(-24.777 -109.97)" fill="#d90b54"/>
        <path id="Trazado_729706" data-name="Trazado 729706" d="M44.9,173.993c1.95-3.016,2.206-6.032,0-9.049,3.2-.228,5.509,1.665,5.511,4.515s-2.271,4.728-5.513,4.534" transform="translate(-22.259 -81.761)" fill="#ee9a8c"/>
        <path id="Trazado_729707" data-name="Trazado 729707" d="M116.83,17.184c1.989-3.025,1.815-6.049,0-9.073,3.258-.107,5.16,1.566,5.159,4.539s-1.9,4.638-5.156,4.534" transform="translate(-57.916 -4.019)" fill="#ee9a8c"/>
        <path id="Trazado_729708" data-name="Trazado 729708" d="M64.876,110.006c-1.751,0-3.5.012-5.254,0-1.4-.01-2.6-.49-2.549-2.069.049-1.4,1.153-1.884,2.481-1.88,3.67.013,7.34,0,11.01.008,1.359,0,2.336.638,2.292,2.045-.039,1.259-.994,1.866-2.225,1.886-1.918.03-3.836.008-5.755.011" transform="translate(-28.292 -52.577)" fill="#0c1116"/>
        <path id="Trazado_729709" data-name="Trazado 729709" d="M67.863,85.5A1.918,1.918,0,0,1,66.1,82.575c2.051-2.752,4.268-5.384,6.486-8.007a1.719,1.719,0,0,1,2.665-.142,1.64,1.64,0,0,1,.257,2.46Q72.276,80.9,68.959,84.85a3.43,3.43,0,0,1-1.1.646" transform="translate(-32.603 -36.617)" fill="#0d0d0e"/>
        <path id="Trazado_729710" data-name="Trazado 729710" d="M73.205,119.005c1.083,0,2.167-.029,3.249.008a1.824,1.824,0,0,1,1.915,1.882,1.723,1.723,0,0,1-1.655,1.875c-2.323.1-4.658.1-6.978-.033a1.707,1.707,0,0,1-1.568-1.94,1.821,1.821,0,0,1,1.79-1.764c1.08-.057,2.165-.013,3.248-.013v-.015" transform="translate(-33.79 -58.991)" fill="#0c1116"/>
        <path id="Trazado_729711" data-name="Trazado 729711" d="M84.749,91.2c-.154,1.113-.725,1.935-1.888,1.924a1.811,1.811,0,0,1-1.9-1.895A1.785,1.785,0,0,1,82.82,89.31c1.134-.023,1.766.77,1.929,1.895" transform="translate(-40.135 -44.274)" fill="#0c1116"/>
        <path id="Trazado_729712" data-name="Trazado 729712" d="M65.437,74.027a1.715,1.715,0,0,1,1.48,1.934,1.9,1.9,0,0,1-3.782-.225c.084-1.047.783-1.8,2.3-1.709" transform="translate(-31.295 -36.695)" fill="#0c1116"/>
        <path id="Trazado_729713" data-name="Trazado 729713" d="M90.628,205.371c-2.684,0-5.368-.024-8.051.01-1.386.018-2.4-.538-2.36-1.951.032-1.269,1.023-1.8,2.286-1.8q8.177.017,16.354.007c1.259,0,2.246.554,2.243,1.841,0,1.427-1.054,1.923-2.419,1.906-2.684-.034-5.368-.01-8.051-.01" transform="translate(-39.766 -99.955)" fill="#0d0d0e"/>
        <path id="Trazado_729714" data-name="Trazado 729714" d="M92.882,171.082a2.234,2.234,0,0,1-.77,1.739c-1.84,2.266-3.7,4.516-5.527,6.792-.907,1.13-2.006,1.67-3.2.644-1.123-.969-.632-2.091.189-3.084,1.966-2.379,3.9-4.781,5.9-7.136a1.726,1.726,0,0,1,2.189-.7,1.774,1.774,0,0,1,1.217,1.746" transform="translate(-41.015 -83.861)" fill="#0d0d0e"/>
        <path id="Trazado_729715" data-name="Trazado 729715" d="M85.172,218.208c-1,0-2-.005-3.007,0a1.823,1.823,0,0,1-1.985-1.816,1.721,1.721,0,0,1,1.637-1.9c2.329-.112,4.67-.112,7,0a1.717,1.717,0,0,1,1.617,1.914,1.823,1.823,0,0,1-2,1.8c-1.086-.017-2.172,0-3.258,0" transform="translate(-39.746 -106.293)" fill="#0d0d0e"/>
        <path id="Trazado_729716" data-name="Trazado 729716" d="M81.989,173.123a1.95,1.95,0,0,1-1.825-2.008,1.916,1.916,0,1,1,3.825.206,1.949,1.949,0,0,1-2,1.8" transform="translate(-39.74 -83.896)" fill="#0c1116"/>
        <path id="Trazado_729717" data-name="Trazado 729717" d="M101.892,186.678c-.284,1.04-.759,1.86-2,1.829a1.839,1.839,0,1,1,.032-3.676c1.244-.009,1.7.816,1.964,1.847" transform="translate(-48.587 -91.629)" fill="#0d0d0e"/>
        <path id="Trazado_729718" data-name="Trazado 729718" d="M162.86,142.689c-1.927,0-3.853.011-5.779-.008-1.237-.013-2.233-.525-2.15-1.877.076-1.246.974-1.834,2.258-1.828,3.769.018,7.538.012,11.307,0,1.3,0,2.109.55,2.1,1.91,0,1.445-1.01,1.789-2.213,1.8-1.843.016-3.685,0-5.527,0" transform="translate(-76.803 -68.896)" fill="#0d0d0e"/>
        <path id="Trazado_729719" data-name="Trazado 729719" d="M165.564,118.273a1.824,1.824,0,0,1-1.459-2.991c2.042-2.728,4.266-5.32,6.469-7.923a1.669,1.669,0,0,1,2.462-.143c.675.536,1.14,1.343.472,2.184q-3.337,4.2-6.772,8.326c-.281.336-.871.415-1.172.548" transform="translate(-81.144 -52.917)" fill="#0d0d0e"/>
        <path id="Trazado_729720" data-name="Trazado 729720" d="M171.252,151.956q1.511,0,3.022,0a1.649,1.649,0,0,1,1.847,1.875,1.571,1.571,0,0,1-1.727,1.726c-2.182.013-4.364.017-6.546,0a1.693,1.693,0,0,1-1.791-1.731,1.769,1.769,0,0,1,1.921-1.866c1.091-.018,2.183,0,3.274,0" transform="translate(-82.321 -75.328)" fill="#0d0d0e"/>
        <path id="Trazado_729721" data-name="Trazado 729721" d="M182.481,123.931a1.719,1.719,0,0,1-1.829,1.915,1.7,1.7,0,0,1-1.813-1.679,1.816,1.816,0,0,1,1.735-2.046c1.152-.11,1.833.612,1.908,1.81" transform="translate(-88.656 -60.535)" fill="#0d0d0e"/>
        <path id="Trazado_729722" data-name="Trazado 729722" d="M164.769,108.623c-.2,1.031-.6,1.88-1.866,1.87a1.758,1.758,0,0,1-1.9-1.838,1.685,1.685,0,0,1,1.711-1.756c1.23-.089,1.782.631,2.056,1.724" transform="translate(-79.815 -52.991)" fill="#0d0d0e"/>
      </g>
    </g>
  </g>
</svg>
