<svg id="Grupo_991477" data-name="Grupo 991477" xmlns="http://www.w3.org/2000/svg" xmlns:xlink="http://www.w3.org/1999/xlink" width="171.526" height="184.571" viewBox="0 0 171.526 184.571">
  <defs>
    <clipPath id="clip-path">
      <rect id="Rectángulo_347617" data-name="Rectángulo 347617" width="171.526" height="184.571" fill="none"/>
    </clipPath>
  </defs>
  <g id="Grupo_991476" data-name="Grupo 991476" clip-path="url(#clip-path)">
    <path id="Trazado_731142" data-name="Trazado 731142" d="M13.99,119.132V112.17c2.926-.558,2.8-2.8,2.8-5.01-.01-21.238.047-42.476-.07-63.714-.015-2.78.635-3.586,3.521-3.577,37.315.105,74.63.066,111.945.075,3.6,0,7.192.082,10.788.127l0,7.067a6.42,6.42,0,0,0-4.4-1.141q-30.945.03-61.892.014c-.6,0-1.2-.023-1.8.018-1.7.118-3.195.7-3.19,2.663,0,2.083,1.4,2.826,3.363,2.821q33.461-.09,66.922-.148c1.993,2.243.584,4.931.966,7.385a4.683,4.683,0,0,0-2.991-.963q-32.369.021-64.737,0c-1.873,0-3.516.448-3.5,2.627.012,2.113,1.555,2.69,3.475,2.684q33.445-.1,66.89-.154c1.511,1.208.867,2.9.87,4.371q.062,35.465.039,70.93c0,1.536-.32,3.141.657,4.545-1.8.048-3.609-.032-5.388.174-2.991.345-3.71-.174-2.755-3.521,9.812-34.39-20.814-66.085-55.609-57.791-5.362,1.278-10.152,3.806-15.228,6.436,0-12.807-.088-25.165.056-37.52.041-3.5-1.326-4.629-4.681-4.591-10.807.121-21.616.03-32.425.053-4.121.008-4.818.708-4.824,4.815q-.026,19.816-.006,39.632c0,5.961.3,6.259,6.316,6.26H55.289c-10.354,13.822-13.318,28.448-8.327,44.486.672,2.159-.908,1.7-2,1.7-8.527.019-17.055-.09-25.579.074-2.442.047-2.7-.934-2.656-2.942.11-5.522,0-11.049.056-16.572.021-2.129-.455-3.808-2.8-4.358M96.261,74.71h21.185c1.847,0,3.85.058,3.911-2.507.066-2.776-2.009-2.781-4.021-2.78q-20.827.015-41.654-.007c-1.927,0-3.876.159-3.954,2.539-.088,2.692,2.039,2.769,4.065,2.763,6.822-.019,13.645-.008,20.467-.009" transform="translate(-3.903 -11.123)" fill="#edf6fb"/>
    <path id="Trazado_731143" data-name="Trazado 731143" d="M10.086,121.5c2.342.55,2.818,2.229,2.8,4.359-.054,5.524.053,11.05-.056,16.572-.04,2.007.213,2.989,2.656,2.941,8.523-.164,17.052-.055,25.579-.074,1.088,0,2.668.458,2-1.7-4.991-16.038-2.028-30.665,8.326-44.486-9.051,0-17.62,0-26.189,0-6.015,0-6.316-.3-6.316-6.259q0-19.817.006-39.633c.005-4.106.7-4.806,4.824-4.815,10.808-.022,21.617.069,32.424-.052,3.356-.037,4.722,1.088,4.681,4.591-.144,12.355-.056,24.713-.056,37.52,5.077-2.63,9.867-5.157,15.228-6.435,34.8-8.295,65.422,23.4,55.609,57.79-.955,3.346-.236,3.866,2.755,3.521,1.779-.2,3.591-.125,5.389-.173h5.147c.468.174.619,0,.511-.464.06-1.312.172-2.624.172-3.937q.017-25.359-.017-50.719c-.006-2.245.3-4.074,2.894-4.576,2.8.7,2.735,2.893,2.733,5.118-.017,17.135.05,34.27-.071,51.4-.019,2.627.531,3.73,3.316,3.348,3.271-.449,4.071,1.511,4.05,4.378-.068,9.466.029,18.933-.067,28.4a6.055,6.055,0,0,0,2.02,5.016c3.167,2.922,6.139,6.056,9.178,9.117,1.382,1.392,2.948,2.878,1.02,4.855-1.9,1.95-3.423.554-4.857-.867a15.727,15.727,0,0,0-1.392-1.113q-9.071-9.209-18.144-18.414c-3.247-3.282-3.264-3.265-6.393.415-2.074,1.99-4.044,4.105-6.252,5.934-1.955,1.618-1.422,2.626.089,4.235,2.42,2.581,5.762,4.405,6.961,8.045-.518,2.728-2.553,2.676-4.687,2.674q-38.848-.037-77.7-.016-12.41,0-24.819.006c-1.707,0-3.437.141-4.17-1.922l.113-.105h-.155l-.315-.676c.627-.9.876-2.108,2.071-2.545h99.466l.6-1.24a34.7,34.7,0,0,1-3.158-2.351c-1.95-1.81-3.852-3.353-1.614-6.642,1.117-1.64-1.92-2.795-3.007-4.214-.593-.774-1.35-1.929-2.622-.794-2.293,2.045-3.895.627-5.488-1.04-1.161-1.214-2.5-2.281-3.533-3.591-1.792-2.27-3.512-2.743-6.331-1.353a39.048,39.048,0,0,1-19.511,3.864c-16.676-.907-29.737-8.308-38.534-22.7a4.027,4.027,0,0,0-4-2.2c-11.524.066-23.048-.027-34.573,0-.95,0-2.19-.65-2.862.7-.008,13.037.007,26.073-.053,39.109-.008,1.7.544,2.351,2.263,2.309,3.348-.083,6.7,0,10.051-.019,2.01-.013,3.5.64,3.945,2.8-.469,1.915-1.654,2.675-3.65,2.637-4.792-.092-9.588-.081-14.381-.009C1.538,198.051.5,196.93.478,194.562Q.265,171.731,0,148.9c-.032-2.6,1.194-3.926,3.714-3.555,3.2.47,3.72-.94,3.6-3.771-.226-5.263-.014-10.545-.089-15.818-.031-2.17.524-3.767,2.861-4.26m142.606,46.916q-.021-8.618-.04-17.235c-.115-.2-.228-.56-.343-.561q-11.73-.04-23.461-.024l-.469.839c2.157,2.017,4.307,4.041,6.471,6.049,1.561,1.448,2.48,3.1.828,4.953-1.73,1.945.335,2.636,1.18,3.248,1.3.94,1.829,4.059,4.379,2.154,1.941-1.451,3.234-.653,4.678.691,2.2,2.053,4.015,4.56,6.778,6.294v-6.408m-31.446-61.287c-7.709-13.546-25.509-21.514-41.1-18.4-19.052,3.809-32.126,17.539-33.781,36.96-1.278,15,4.382,27.44,16.934,36.33a19.954,19.954,0,0,0,1.932,1.548c20.309,12.614,46.649,5.955,57.758-15.247,7.205-13.75,6.943-27.807-1.745-41.194M24.491,73.686c0,5.752.085,11.507-.046,17.256-.047,2.062.6,2.63,2.629,2.605,8.627-.1,17.256-.087,25.884-.011,1.836.017,2.49-.492,2.477-2.418q-.119-17.435,0-34.872c.014-1.934-.65-2.425-2.481-2.41-8.628.077-17.257.094-25.884-.01-2.03-.025-2.672.544-2.625,2.6.131,5.749.045,11.5.046,17.256m105.09,86.768a11.785,11.785,0,0,0-3.641-3.862c-1.294-.937-1.911.549-2.481,1.292a39.716,39.716,0,0,1-7.822,7.79c-.852.635-2.4,1.467-.7,2.681,1.433,1.026,2.27,4.315,4.682,2.326,3.388-2.794,6.314-6.15,9.421-9.282a4.378,4.378,0,0,0,.541-.945m6.073,12.445c.026-.643-4.22-5.105-4.855-5.1s-5.075,4.6-4.8,5.1a14.329,14.329,0,0,0,4.679,4.8c.521.355,4.945-4,4.978-4.8" transform="translate(0 -13.488)" fill="#0c0c0e"/>
    <path id="Trazado_731144" data-name="Trazado 731144" d="M141.862,28.948c-3.6-.044-7.192-.125-10.788-.126-37.315-.009-74.63.03-111.944-.076-2.887-.008-3.536.8-3.521,3.578.116,21.237.059,42.476.069,63.714,0,2.213.131,4.452-2.8,5.009-2.2-.357-2.862-1.782-2.861-3.846q.035-33.485.006-66.969c0-1.488.113-3.213,1.221-4,2.878-2.054,2.453-4.9,2.407-7.718-.022-1.363.119-2.941,1.071-3.7,2.736-2.187,2.574-5.028,2.62-8.043.065-4.345,2.7-6.749,7.125-6.752q57.424-.028,114.85,0c4.829,0,7.238,2.359,7.311,7.29.039,2.641-.295,5.293,2.39,6.982a.449.449,0,0,1,.168.311c.467,5.733,4.16,10.726,4.575,16.213.751,9.9.2,19.906.22,29.868,0,2.058-.272,3.876-2.746,4.335-2.435-.359-2.909-1.991-2.9-4.147.052-8.621.021-17.243.021-25.864,0-6.413,0-6.413-6.5-6.051m-60.014-5.76h59.406c1.845,0,3.718.557,3.613-2.678-.087-2.693-.747-3.372-3.429-3.366q-59.406.134-118.81.025c-2.224,0-3.358.158-3.448,2.968-.1,3.139,1.36,3.09,3.623,3.083,19.682-.056,39.364-.032,59.045-.032M81.7,11.569q28.079,0,56.16-.037c1.066,0,2.482.741,3.214-.687,1.38-2.694-.34-5.327-3.451-5.328Q82,5.508,26.382,5.465c-2.506-.005-3.554.371-3.571,3.271-.017,2.939,1.33,2.871,3.449,2.865,18.48-.055,36.96-.032,55.441-.032" transform="translate(-2.796 0)" fill="#121415"/>
    <path id="Trazado_731145" data-name="Trazado 731145" d="M24.242,235.134c-.448-2.156-1.934-2.809-3.945-2.8-3.35.022-6.7-.064-10.051.018-1.718.043-2.27-.607-2.263-2.309.06-13.037.045-26.073.053-39.11,10.448-.01,20.9.116,31.343-.115,2.987-.066,4.754.985,5.969,3.454a36.585,36.585,0,0,0,5.942,8.51c14.279,15.6,36.125,21.4,56.762,13.352.9-.35,1.724-.921,2.621-.017,5.029,5.072,10.065,10.136,15.686,15.794h-4.312q-42.335,0-84.669.022c-1.394,0-2.9-.463-4.17.563-1.2.437-1.445,1.645-2.071,2.545l-6.894.088" transform="translate(-2.227 -53.237)" fill="#6a549b"/>
    <path id="Trazado_731146" data-name="Trazado 731146" d="M192.494,40.1c6.5-.363,6.5-.363,6.5,6.051,0,8.621.032,17.243-.02,25.863-.013,2.157.461,3.789,2.9,4.148l0,6.966c-2.59.5-2.9,2.331-2.893,4.576q.069,25.359.017,50.719c0,1.312-.112,2.624-.172,3.937a1,1,0,0,0-.512.464h-5.146c-.978-1.4-.657-3.009-.658-4.545q-.022-35.465-.039-70.93c0-1.472.642-3.163-.87-4.37a3.93,3.93,0,0,0,.867-4.2c-.382-2.454,1.027-5.142-.966-7.385a3.724,3.724,0,0,0,.995-4.229l0-7.067" transform="translate(-53.427 -11.152)" fill="#dcf0fc"/>
    <path id="Trazado_731147" data-name="Trazado 731147" d="M191.839,245.163c-1.2-3.64-4.541-5.464-6.961-8.044-1.51-1.61-2.043-2.617-.089-4.236,2.208-1.828,4.178-3.943,6.252-5.934,6.3,5.677,12.246,11.7,17.983,17.939l-17.185.275" transform="translate(-51.201 -63.316)" fill="#2c5c7f"/>
    <path id="Trazado_731148" data-name="Trazado 731148" d="M211.932,243.8c-5.737-6.237-11.686-12.263-17.983-17.939,3.129-3.679,3.147-3.7,6.394-.415q9.089,9.189,18.144,18.413a22.565,22.565,0,0,1-6.555-.059" transform="translate(-54.11 -62.225)" fill="#254c69"/>
    <path id="Trazado_731149" data-name="Trazado 731149" d="M40.482,253.1h.154l-.113.105s-.171,0-.171,0Z" transform="translate(-11.258 -70.61)" fill="#6a549b"/>
    <path id="Trazado_731150" data-name="Trazado 731150" d="M165.3,49.51a3.724,3.724,0,0,1-.995,4.229q-33.461.069-66.922.147c-1.966.006-3.358-.737-3.363-2.82-.005-1.965,1.487-2.546,3.19-2.664.6-.041,1.2-.018,1.8-.018q30.945,0,61.892-.014a6.42,6.42,0,0,1,4.4,1.14" transform="translate(-26.231 -13.495)" fill="#121415"/>
    <path id="Trazado_731151" data-name="Trazado 731151" d="M165.281,65.685a3.93,3.93,0,0,1-.867,4.2q-33.445.071-66.89.154c-1.92.006-3.464-.572-3.475-2.684-.012-2.18,1.63-2.629,3.5-2.628q32.369.018,64.737,0a4.676,4.676,0,0,1,2.991.963" transform="translate(-26.239 -18.057)" fill="#050607"/>
    <path id="Trazado_731152" data-name="Trazado 731152" d="M118.6,86.142c-6.822,0-13.645-.012-20.467.008-2.026.006-4.153-.071-4.065-2.763.078-2.38,2.027-2.543,3.954-2.539q20.827.036,41.654.007c2.012,0,4.087,0,4.021,2.779-.061,2.565-2.064,2.508-3.911,2.508H118.6" transform="translate(-26.243 -22.556)" fill="#050607"/>
    <path id="Trazado_731153" data-name="Trazado 731153" d="M33.948,75.806c0-5.752.086-11.507-.045-17.256-.048-2.06.594-2.629,2.625-2.6,8.626.1,17.256.087,25.883.01,1.831-.017,2.495.475,2.482,2.41q-.12,17.435,0,34.872c.013,1.927-.64,2.435-2.477,2.418-8.627-.076-17.257-.093-25.884.011-2.027.024-2.675-.543-2.628-2.605.131-5.749.045-11.5.045-17.256" transform="translate(-9.458 -15.608)" fill="#d14b5b"/>
    <path id="Trazado_731154" data-name="Trazado 731154" d="M81.174,177.383c-12.552-8.891-18.211-21.333-16.934-36.33C65.9,121.631,78.97,107.9,98.022,104.092c15.588-3.117,33.388,4.851,41.1,18.4-1.513,1.444,0,2.834.153,4.211.474,4.379,2.207,8.7.379,13.144-.251-1.046-.518-2.089-.751-3.14-3.252-14.641-16.535-26.119-31.27-27.069-20.828-1.343-36.266,14.853-37.542,32.736-1.219,17.081,11.768,33.637,29.908,36.5-.993.977-2.252.492-3.4.622-5.32.606-10.31-1.186-15.42-2.111" transform="translate(-17.873 -28.853)" fill="#2c5c7f"/>
    <path id="Trazado_731155" data-name="Trazado 731155" d="M33.229,232.216c1.274-1.025,2.777-.562,4.17-.563q42.335-.043,84.669-.022h4.312c-5.621-5.658-10.657-10.722-15.686-15.793-.9-.9-1.721-.334-2.621.017C87.436,223.9,65.59,218.1,51.312,202.5a36.55,36.55,0,0,1-5.943-8.51c-1.215-2.469-2.981-3.52-5.969-3.454-10.443.231-20.895.1-31.343.115.671-1.348,1.912-.7,2.862-.7,11.524-.026,23.049.066,34.573,0a4.028,4.028,0,0,1,4,2.2c8.8,14.389,21.857,21.79,38.533,22.7a39.049,39.049,0,0,0,19.511-3.864c2.818-1.391,4.539-.917,6.331,1.353,1.035,1.31,2.371,2.377,3.533,3.591,1.593,1.667,3.2,3.085,5.488,1.04,1.272-1.135,2.03.019,2.623.794,1.087,1.419,4.123,2.574,3.007,4.214-2.238,3.289-.336,4.832,1.613,6.642a34.573,34.573,0,0,0,3.159,2.351l-.6,1.24Z" transform="translate(-2.248 -52.952)" fill="#584289"/>
    <path id="Trazado_731156" data-name="Trazado 731156" d="M146.271,147.224c1.827-4.444.094-8.765-.38-13.144-.149-1.377-1.666-2.767-.152-4.211,8.688,13.388,8.951,27.443,1.746,41.194-11.109,21.2-37.449,27.861-57.758,15.247a20.06,20.06,0,0,1-1.932-1.548c5.109.925,10.1,2.717,15.42,2.111,1.148-.13,2.407.355,3.4-.622,12.31,1.586,22.684-2.312,30.983-11.4,7.119-7.8,9.4-17.282,8.673-27.627" transform="translate(-24.494 -36.232)" fill="#254c69"/>
    <path id="Trazado_731157" data-name="Trazado 731157" d="M202.367,207.976v6.408c-2.764-1.733-4.575-4.241-6.778-6.294-1.444-1.345-2.737-2.142-4.679-.691-2.549,1.9-3.082-1.213-4.378-2.154-.845-.612-2.911-1.3-1.18-3.248,1.652-1.857.733-3.5-.828-4.953-2.164-2.009-4.315-4.032-6.471-6.049l.469-.839q11.731,0,23.461.024c.115,0,.229.366.343.56H186.064l16.3,17.236" transform="translate(-49.675 -53.051)" fill="#5c4590"/>
    <path id="Trazado_731158" data-name="Trazado 731158" d="M205.467,208.2l-16.3-17.236h16.262q.019,8.619.04,17.236" transform="translate(-52.775 -53.277)" fill="#6a549b"/>
    <path id="Trazado_731159" data-name="Trazado 731159" d="M173.759,202.222a4.378,4.378,0,0,1-.541.945c-3.108,3.131-6.033,6.488-9.421,9.282-2.412,1.989-3.249-1.3-4.682-2.326-1.7-1.214-.152-2.046.7-2.68a39.763,39.763,0,0,0,7.823-7.791c.57-.743,1.186-2.229,2.48-1.292a11.785,11.785,0,0,1,3.641,3.862" transform="translate(-44.178 -55.256)" fill="#1d3c52"/>
    <path id="Trazado_731160" data-name="Trazado 731160" d="M184.4,219.12c-.032.8-4.457,5.151-4.978,4.8a14.328,14.328,0,0,1-4.679-4.8c-.273-.5,4.175-5.1,4.8-5.1s4.881,4.458,4.855,5.1" transform="translate(-48.748 -59.709)" fill="#316b97"/>
    <path id="Trazado_731161" data-name="Trazado 731161" d="M200.95,182.44a1,1,0,0,1,.511-.464c.109.463-.043.637-.511.464" transform="translate(-56.063 -50.769)" fill="#edf6fb"/>
    <path id="Trazado_731162" data-name="Trazado 731162" d="M85.39,29.821c-19.682,0-39.364-.024-59.046.032-2.263.006-3.723.055-3.623-3.084.089-2.811,1.223-2.971,3.448-2.968q59.406.076,118.811-.025c2.682-.006,3.343.673,3.429,3.366.1,3.235-1.768,2.679-3.614,2.679H85.39" transform="translate(-6.338 -6.633)" fill="#bedaf4"/>
    <path id="Trazado_731163" data-name="Trazado 731163" d="M86.65,13.683c-18.481,0-36.961-.023-55.441.032-2.12.006-3.466.074-3.449-2.865.017-2.9,1.066-3.276,3.571-3.271q55.619.1,111.241.052c3.111,0,4.831,2.633,3.451,5.328-.732,1.428-2.147.684-3.214.687q-28.079.077-56.16.037" transform="translate(-7.745 -2.115)" fill="#cae9f8"/>
    <path id="Trazado_731164" data-name="Trazado 731164" d="M141.951,142.219c.725,10.346-1.554,19.831-8.673,27.627-8.3,9.088-18.673,12.987-30.982,11.4-18.141-2.862-31.128-19.418-29.908-36.5,1.275-17.884,16.714-34.08,37.542-32.737,14.734.95,28.017,12.428,31.269,27.069.234,1.051.5,2.094.752,3.14m-9.521-10.085-.546-.788c-5.577-9.951-18.182-15.641-29.833-13.465-12.679,2.368-21.741,11.984-23.933,25.4-1.766,10.81,4.365,23.132,14.166,28.469,6.568,4.291,13.706,5.155,21.279,3.629,18.861-3.8,29.121-26.733,19.081-42.69a.461.461,0,0,0-.215-.551" transform="translate(-20.173 -31.228)" fill="#0c0c0e"/>
    <path id="Trazado_731165" data-name="Trazado 731165" d="M94.415,173.869c-9.8-5.337-15.933-17.659-14.166-28.468,2.192-13.412,11.254-23.028,23.933-25.4,11.65-2.176,24.256,3.513,29.833,13.465l.546.788a.462.462,0,0,1,.215.551c-.34,4.253.971,8.416.022,12.781-2.576,11.84-8.784,20.46-20.28,24.984-6.592,2.594-13.31,2.291-20.1,1.295" transform="translate(-22.304 -33.351)" fill="#dcf0fc"/>
    <path id="Trazado_731166" data-name="Trazado 731166" d="M100.014,179.776c6.792,1,13.51,1.3,20.1-1.295,11.5-4.524,17.7-13.144,20.28-24.984.95-4.365-.361-8.529-.022-12.781,10.04,15.957-.22,38.888-19.081,42.69-7.573,1.526-14.712.663-21.279-3.629" transform="translate(-27.903 -39.258)" fill="#cae9f8"/>
    <path id="Trazado_731167" data-name="Trazado 731167" d="M155.482,139.646l-.546-.788.546.788" transform="translate(-43.225 -38.74)" fill="#cae9f8"/>
  </g>
</svg>
