<svg id="Grupo_991485" data-name="Grupo 991485" xmlns="http://www.w3.org/2000/svg" xmlns:xlink="http://www.w3.org/1999/xlink" width="174.758" height="174.665" viewBox="0 0 174.758 174.665">
  <defs>
    <clipPath id="clip-path">
      <rect id="Rectángulo_347621" data-name="Rectángulo 347621" width="174.758" height="174.665" fill="none"/>
    </clipPath>
  </defs>
  <g id="Grupo_991484" data-name="Grupo 991484" clip-path="url(#clip-path)">
    <path id="Trazado_731254" data-name="Trazado 731254" d="M86.976,174.647H6.147c-.8,0-1.593.02-2.388-.01C1.487,174.553.012,173.41.079,171.1c.061-2.114,1.49-3.232,3.608-3.262,3.183-.043,6.371-.116,9.548.022,1.844.079,2.582-.342,2.505-2.373-.161-4.314-.113-8.639-.017-12.957.038-1.679-.324-2.309-2.211-2.382C3.871,149.776,0,145.592,0,135.836Q0,77.176,0,18.515C0,7.148,7.116,0,18.438,0Q87.332,0,156.225,0c11.313,0,18.421,7.15,18.422,18.525,0,39.335-.131,78.67.11,118,.05,8.172-5.811,14.451-13.29,13.665-1.82-.192-2.629.295-2.556,2.351.154,4.315.162,8.643,0,12.957-.079,2.054.695,2.446,2.52,2.357,2.836-.139,5.684.019,8.524-.054,2.435-.063,4.537.574,4.6,3.309.066,2.967-2.133,3.552-4.7,3.549q-41.438-.043-82.877-.018m46.746-47.153c2.675.634,3.47,2.4,3.441,5.031-.1,8.965-.077,17.932-.013,26.9.019,2.691-1.167,6.174.495,7.863s5.162.481,7.85.513c6.638.08,6.639.027,6.639-6.7,0-21.223-.045-42.447.059-63.669.012-2.521-.57-3.434-3.178-3.213a54.918,54.918,0,0,1-8.5.008c-2.554-.182-3.7.43-3.447,3.283.274,3.04-.069,6.13.1,9.185.149,2.685-.82,4.367-3.451,5.029-2.644-.654-3.541-2.352-3.454-5.03.155-4.768.026-9.545.049-14.319.019-3.84,1.15-4.948,5.139-4.968q9.035-.046,18.071,0c4.4.014,5.432,1.038,5.434,5.361.008,15.457-.028,30.913.056,46.369.007,1.376-1.012,3.326.88,4.135,2.465,1.054,5.909-.306,7.216-2.451.825-1.354.721-2.825.721-4.3,0-33.981-.038-67.963.072-101.944.009-2.777-.83-3.248-3.371-3.244q-77.228.11-154.454-.008c-2.644,0-3.324.626-3.316,3.3.1,33.867.064,67.736.069,101.6a15.337,15.337,0,0,0,.122,3.057c.623,3.023,3.326,4.559,7.2,4.034,3.026-.411,1.142-2.807,1.476-4.249a18.153,18.153,0,0,0,.065-4.416c-.068-2.966,1.341-4.374,4.322-4.358,6.592.036,13.184-.015,19.775.022,3.468.019,4.514,1.158,4.557,4.776.048,4.088.078,8.177.116,12.265-.038,4.432-.1,8.862-.107,13.294-.018,7.547-.008,7.486,7.5,7.222,1.634-.057,2.113-.475,2.079-2.107-.124-6.135-.11-12.272-.147-18.409q.057-25.017.121-50.035c.012-3.694.929-4.638,4.617-4.666,6.241-.046,12.483-.028,18.724-.008,4.584.015,5.292.747,5.3,5.356q.059,24.677.114,49.353c-.038,4.432-.1,8.862-.108,13.294-.018,7.548-.007,7.486,7.5,7.222,1.634-.057,2.113-.475,2.079-2.107-.124-6.135-.11-12.272-.147-18.409.038-7.135.124-14.271.092-21.406-.013-3.121,1.346-4.561,4.49-4.532,6.458.059,12.917,0,19.375.025,3.728.014,4.777,1.087,4.8,4.847q.076,10.533.117,21.066c-.038,4.432-.1,8.862-.108,13.294-.018,7.548-.007,7.486,7.5,7.222,1.634-.057,2.113-.475,2.079-2.107-.125-6.135-.11-12.272-.147-18.409.038-4.961.176-9.925.073-14.882-.055-2.641.833-4.34,3.459-4.979M87.2,24.561h56.248c7.159,0,14.321-.112,21.475.061,2.455.059,3.285-.705,2.921-3.042a13.5,13.5,0,0,1-.016-2.043c0-9.009-3.753-12.712-12.876-12.712q-42.272,0-84.543,0c-17.5,0-35-.029-52.5.015-6.751.017-10.983,4.325-11.082,11.08a23.973,23.973,0,0,1-.031,3.4c-.448,2.787.788,3.3,3.36,3.294,25.681-.092,51.362-.056,77.043-.056M75.726,134.06c0-10.679-.038-21.358.036-32.037.013-1.833-.368-2.624-2.4-2.532-3.515.161-7.044.119-10.563.013-1.634-.05-2.119.478-2.115,2.112q.072,32.038-.012,64.075c-.006,1.951.774,2.21,2.4,2.163,3.292-.1,6.6-.168,9.881.019,2.225.127,2.847-.554,2.821-2.8-.122-10.337-.053-20.677-.053-31.015m38.2,13.676c0-5.791-.05-11.584.032-17.374.023-1.575-.346-2.2-2.05-2.142-3.629.124-7.269.111-10.9,0-1.6-.047-2.136.389-2.126,2.065.069,11.81.085,23.621-.011,35.43-.016,1.979.8,2.176,2.406,2.132,3.4-.093,6.817-.132,10.218.012,1.89.08,2.52-.442,2.477-2.414-.13-5.9-.046-11.809-.046-17.715m-76.409,4.8c0-4.419-.051-8.839.028-13.257.027-1.529-.292-2.248-2.029-2.191-3.622.121-7.253.1-10.876.007-1.565-.04-2.178.362-2.163,2.057q.114,13.256.008,26.514c-.01,1.528.291,2.248,2.029,2.191,3.622-.121,7.256-.145,10.875.007,1.961.083,2.188-.8,2.157-2.411-.083-4.3-.028-8.611-.029-12.917" transform="translate(0 0)" fill="#060607"/>
    <path id="Trazado_731255" data-name="Trazado 731255" d="M47.6,161.918c-.038-4.088-.068-8.177-.116-12.265-.043-3.618-1.089-4.756-4.557-4.776-6.591-.036-13.183.015-19.775-.021-2.981-.016-4.391,1.392-4.322,4.358a18.153,18.153,0,0,1-.065,4.416c-.334,1.441,1.55,3.838-1.476,4.248-3.872.526-6.574-1.01-7.2-4.033a15.29,15.29,0,0,1-.122-3.057c0-33.868.03-67.736-.07-101.6-.008-2.674.673-3.3,3.317-3.3q77.227.125,154.453.008c2.541,0,3.38.468,3.371,3.244-.111,33.981-.072,67.964-.072,101.945,0,1.472.1,2.943-.721,4.3-1.307,2.145-4.751,3.505-7.216,2.452-1.892-.809-.873-2.759-.881-4.135-.083-15.456-.048-30.913-.055-46.37,0-4.323-1.037-5.347-5.434-5.361q-9.036-.029-18.071,0c-3.989.02-5.12,1.128-5.139,4.968-.023,4.773.106,9.55-.049,14.319-.087,2.677.81,4.376,3.453,5.029q.007,2.457.015,4.917c-1.852.7-3.606,1.554-3.39,3.955.178,1.978,1.556,2.843,3.377,3.15l.006,3.752c-2.626.639-3.513,2.338-3.459,4.979.1,4.959-.035,9.922-.073,14.883h-9.325q-.057-10.533-.117-21.066c-.027-3.761-1.076-4.833-4.8-4.847-6.459-.025-12.918.035-19.376-.025-3.143-.029-4.5,1.411-4.49,4.532.031,7.135-.054,14.271-.092,21.406H85.8q-.057-24.677-.115-49.354c-.011-4.608-.719-5.341-5.3-5.355-6.241-.02-12.483-.039-18.724.008-3.688.028-4.6.973-4.617,4.666q-.081,25.018-.121,50.035H47.6M20.733,110.573a11.9,11.9,0,0,0,7.072,11.1,11.553,11.553,0,0,0,12.768-1.591c3.943-3.208,5.662-7.507,4.139-12.422-.821-2.645-.061-4.079,1.7-5.78,5.073-4.891,10.04-9.894,14.967-14.932,1.657-1.695,3.043-2.992,5.757-1.751a7.646,7.646,0,0,0,6.31-.418c1.5-.712,2.384-.41,3.505.729Q87,95.719,97.212,105.766a2.687,2.687,0,0,1,.748,3.472,12.02,12.02,0,0,0,3.581,14.115,12.392,12.392,0,0,0,14.6.618,12.224,12.224,0,0,0,4.824-13.8c-.48-1.571-.664-2.578.655-3.87,6.821-6.68,13.546-13.461,20.262-20.246a3,3,0,0,1,3.263-.911,11.93,11.93,0,0,0,13.734-6.834,12.067,12.067,0,0,0-3.19-14.477,12.23,12.23,0,0,0-15.381-.363,11.808,11.808,0,0,0-3.691,14.607c1.033,2.133.478,3.115-.975,4.531q-8.794,8.566-17.37,17.354c-1.832,1.879-3.377,3.357-6.326,1.979a8.266,8.266,0,0,0-6.338.233c-1.522.588-2.259.05-3.206-.9q-10.336-10.4-20.759-20.714a2.609,2.609,0,0,1-.725-3.192A12.2,12.2,0,0,0,61.962,63.52a11.962,11.962,0,0,0-3.813,14.314c.7,1.8.105,2.614-1.01,3.714-5.5,5.43-10.992,10.873-16.382,16.412a3.342,3.342,0,0,1-4.068,1.008,12.1,12.1,0,0,0-15.956,11.6M30.47,57.551c-2.72,0-5.443-.083-8.157.027a3.385,3.385,0,1,0,.092,6.767c5.324.054,10.651.041,15.976.008,2.125-.013,3.516-1.171,3.576-3.269.064-2.3-1.412-3.475-3.668-3.524-2.6-.057-5.212-.013-7.818-.009m-.129,23.184c2.72,0,5.441.059,8.158-.019a3.384,3.384,0,1,0,.01-6.767c-5.324-.08-10.651-.067-15.976-.011-2.259.023-3.72,1.257-3.626,3.558.085,2.094,1.493,3.208,3.616,3.233,2.606.03,5.212.007,7.818.005M51.3,64.4c2.163-.225,3.442-1.47,3.384-3.522a3.14,3.14,0,0,0-3.515-3.295,3.048,3.048,0,0,0-3.134,3.29C48,63.062,49.245,64.136,51.3,64.4" transform="translate(-3.142 -14.562)" fill="#fefefe"/>
    <path id="Trazado_731256" data-name="Trazado 731256" d="M90.315,27.73c-25.681,0-51.362-.036-77.043.056-2.571.009-3.808-.507-3.361-3.294a23.871,23.871,0,0,0,.032-3.4c.1-6.755,4.331-11.063,11.082-11.08,17.5-.044,35-.015,52.5-.015q42.272,0,84.544,0c9.123,0,12.871,3.7,12.876,12.712a13.5,13.5,0,0,0,.016,2.043c.365,2.337-.465,3.1-2.92,3.042-7.155-.173-14.317-.061-21.475-.061H90.315m27.051-5.458c12.491,0,24.981-.02,37.472.016,2.48.007,4.434-.743,4.422-3.479-.012-2.511-1.811-3.373-4.184-3.371q-37.642.029-75.283.016a4.233,4.233,0,0,0-2.612.521c-1.363.939-2.1,2.178-1.579,3.767.657,2,2.256,2.563,4.294,2.554,12.49-.048,24.98-.024,37.471-.024M28.4,18.923c-.286-2.055-1.344-3.453-3.479-3.422a3.144,3.144,0,0,0-3.337,3.47,3.128,3.128,0,0,0,3.22,3.255c2.141.085,3.232-1.27,3.6-3.3m10.179,3.392c2.048-.315,3.408-1.387,3.378-3.526A3.128,3.128,0,0,0,38.773,15.5a3.144,3.144,0,0,0-3.539,3.265c-.081,2.135,1.3,3.217,3.348,3.548m17.145-3.662c-.446-1.731-1.377-3.219-3.561-3.163a3.146,3.146,0,0,0-3.288,3.192,3.144,3.144,0,0,0,3.265,3.539c2.135.081,3.217-1.3,3.584-3.568" transform="translate(-3.117 -3.169)" fill="#e3444b"/>
    <path id="Trazado_731257" data-name="Trazado 731257" d="M195.9,160.427q-.009-2.459-.016-4.918c2.632-.661,3.6-2.342,3.451-5.028-.169-3.055.173-6.146-.1-9.185-.257-2.853.892-3.465,3.447-3.283a54.927,54.927,0,0,0,8.5-.008c2.608-.22,3.19.693,3.178,3.213-.1,21.223-.059,42.446-.059,63.669,0,6.727,0,6.781-6.638,6.7-2.689-.033-6.181,1.183-7.85-.513s-.476-5.172-.5-7.863c-.064-8.966-.085-17.932.014-26.9.029-2.632-.767-4.4-3.442-5.031q0-1.876-.006-3.753c1.8-.317,3.221-1.124,3.38-3.135.188-2.373-1.464-3.306-3.366-3.969" transform="translate(-62.17 -43.79)" fill="#e3444b"/>
    <path id="Trazado_731258" data-name="Trazado 731258" d="M103.938,180.314c0,10.338-.068,20.677.054,31.014.026,2.244-.6,2.925-2.821,2.8-3.284-.187-6.589-.117-9.881-.02-1.628.048-2.408-.211-2.4-2.162q.1-32.037.012-64.075c0-1.634.483-2.162,2.115-2.113,3.519.106,7.048.148,10.563-.012,2.028-.093,2.409.7,2.4,2.532-.075,10.679-.037,21.358-.037,32.037" transform="translate(-28.211 -46.254)" fill="#f8bb58"/>
    <path id="Trazado_731259" data-name="Trazado 731259" d="M159.9,207.349c0,5.905-.083,11.812.046,17.715.044,1.972-.587,2.494-2.477,2.414-3.4-.144-6.814-.105-10.218-.012-1.6.044-2.421-.154-2.4-2.132.1-11.809.079-23.621.011-35.43-.01-1.676.527-2.112,2.126-2.065,3.631.106,7.27.119,10.9,0,1.7-.059,2.072.567,2.05,2.142-.081,5.79-.032,11.583-.032,17.374" transform="translate(-45.972 -59.614)" fill="#64c5f3"/>
    <path id="Trazado_731260" data-name="Trazado 731260" d="M47.974,216.276c0,4.306-.055,8.613.029,12.917.031,1.614-.2,2.494-2.158,2.411-3.619-.152-7.253-.128-10.875-.007-1.737.057-2.039-.663-2.029-2.191q.085-13.257-.008-26.514c-.014-1.7.6-2.1,2.163-2.057,3.624.094,7.254.114,10.876-.007,1.737-.057,2.057.661,2.03,2.191-.079,4.418-.028,8.838-.028,13.257" transform="translate(-10.452 -63.738)" fill="#a1c154"/>
    <path id="Trazado_731261" data-name="Trazado 731261" d="M65.078,215.868H74.4c.038,6.137.023,12.275.147,18.41.033,1.631-.445,2.05-2.079,2.107-7.507.263-7.518.324-7.5-7.223.011-4.432.07-8.862.108-13.294" transform="translate(-20.62 -68.513)" fill="#f7f9fa"/>
    <path id="Trazado_731262" data-name="Trazado 731262" d="M121.045,215.868h9.325c.038,6.137.023,12.275.147,18.41.033,1.631-.445,2.05-2.079,2.107-7.507.263-7.518.324-7.5-7.223.011-4.432.07-8.862.108-13.294" transform="translate(-38.383 -68.513)" fill="#f7f9fa"/>
    <path id="Trazado_731263" data-name="Trazado 731263" d="M177.012,215.868h9.325c.038,6.137.023,12.275.147,18.41.033,1.631-.445,2.05-2.079,2.107-7.507.263-7.518.324-7.5-7.223.011-4.432.07-8.862.108-13.294" transform="translate(-56.146 -68.513)" fill="#f7f9fa"/>
    <path id="Trazado_731264" data-name="Trazado 731264" d="M25.77,117.571a12.1,12.1,0,0,1,15.956-11.6,3.343,3.343,0,0,0,4.068-1.008c5.389-5.539,10.88-10.983,16.381-16.412,1.115-1.1,1.714-1.91,1.01-3.714A11.963,11.963,0,0,1,67,70.517,12.2,12.2,0,0,1,85.954,84.368a2.608,2.608,0,0,0,.724,3.191q10.451,10.285,20.759,20.715c.948.954,1.685,1.493,3.206.9a8.261,8.261,0,0,1,6.339-.233c2.949,1.378,4.494-.1,6.325-1.979q8.569-8.791,17.37-17.354c1.453-1.416,2.009-2.4.975-4.532a11.808,11.808,0,0,1,3.691-14.607,12.23,12.23,0,0,1,15.381.363,12.067,12.067,0,0,1,3.19,14.476,11.93,11.93,0,0,1-13.734,6.834,3,3,0,0,0-3.262.911c-6.717,6.787-13.441,13.566-20.262,20.246-1.32,1.292-1.135,2.3-.656,3.87a12.224,12.224,0,0,1-4.823,13.8,12.393,12.393,0,0,1-14.6-.618A12.02,12.02,0,0,1,103,116.237a2.686,2.686,0,0,0-.749-3.472q-10.2-10.056-20.256-20.255c-1.122-1.139-2-1.441-3.506-.729a7.643,7.643,0,0,1-6.31.417c-2.713-1.24-4.1.056-5.757,1.752-4.926,5.038-9.894,10.041-14.966,14.932-1.767,1.7-2.525,3.135-1.705,5.78,1.524,4.914-.2,9.213-4.138,12.421a11.551,11.551,0,0,1-12.768,1.592,11.9,11.9,0,0,1-7.073-11.1m127.084-31.9a5.7,5.7,0,0,0,5.4-5.5,5.448,5.448,0,0,0-10.9.089,5.687,5.687,0,0,0,5.493,5.415M74.478,85.65a5.435,5.435,0,0,0,.016-10.869,5.434,5.434,0,1,0-.016,10.869M37.906,112.241a5.126,5.126,0,0,0-5.234,5.408,5.311,5.311,0,0,0,5.376,5.373,5.633,5.633,0,0,0,5.376-5.536,5.353,5.353,0,0,0-5.518-5.245m81.746,8.572a5.352,5.352,0,1,0-5.356,5.361,5.257,5.257,0,0,0,5.356-5.361" transform="translate(-8.179 -21.56)" fill="#0d0d0d"/>
    <path id="Trazado_731265" data-name="Trazado 731265" d="M34.655,62.96c2.606,0,5.213-.046,7.818.011,2.257.049,3.733,1.221,3.668,3.524-.059,2.1-1.451,3.256-3.576,3.27-5.325.033-10.651.046-15.976-.008a3.385,3.385,0,1,1-.092-6.767c2.715-.109,5.438-.027,8.157-.029" transform="translate(-7.327 -19.973)" fill="#0b0b0b"/>
    <path id="Trazado_731266" data-name="Trazado 731266" d="M34.529,93.76c-2.606,0-5.212.024-7.818-.006-2.123-.025-3.531-1.139-3.617-3.234-.094-2.3,1.368-3.535,3.627-3.558,5.324-.056,10.652-.069,15.975.011a3.384,3.384,0,1,1-.01,6.767c-2.718.078-5.438.019-8.158.02" transform="translate(-7.328 -27.586)" fill="#0b0b0b"/>
    <path id="Trazado_731267" data-name="Trazado 731267" d="M69.033,69.837c-2.056-.263-3.3-1.338-3.265-3.526A3.048,3.048,0,0,1,68.9,63.02a3.14,3.14,0,0,1,3.515,3.295c.058,2.051-1.221,3.3-3.384,3.522" transform="translate(-20.873 -20)" fill="#151515"/>
    <path id="Trazado_731268" data-name="Trazado 731268" d="M194.323,170.867c1.9.664,3.554,1.6,3.366,3.969-.16,2.01-1.577,2.818-3.38,3.135-1.821-.306-3.2-1.171-3.376-3.149-.216-2.4,1.537-3.253,3.391-3.955" transform="translate(-60.593 -54.23)" fill="#170f0e"/>
    <path id="Trazado_731269" data-name="Trazado 731269" d="M147.872,24.809c-12.491,0-24.981-.025-37.472.025-2.038.008-3.637-.554-4.294-2.555-.522-1.589.216-2.827,1.58-3.767a4.231,4.231,0,0,1,2.611-.521q37.643-.006,75.284-.015c2.373,0,4.173.86,4.184,3.371.012,2.736-1.942,3.486-4.422,3.479-12.491-.035-24.981-.016-37.472-.016" transform="translate(-33.623 -5.705)" fill="#060607"/>
    <path id="Trazado_731270" data-name="Trazado 731270" d="M33.873,21.488c-.365,2.032-1.456,3.387-3.6,3.3a3.128,3.128,0,0,1-3.22-3.255,3.144,3.144,0,0,1,3.337-3.47c2.135-.031,3.193,1.367,3.479,3.422" transform="translate(-8.587 -5.734)" fill="#1a0907"/>
    <path id="Trazado_731271" data-name="Trazado 731271" d="M50.4,24.878c-2.044-.331-3.427-1.414-3.348-3.549a3.364,3.364,0,0,1,6.726.023c.03,2.139-1.33,3.21-3.378,3.526" transform="translate(-14.931 -5.732)" fill="#1a0907"/>
    <path id="Trazado_731272" data-name="Trazado 731272" d="M73.884,21.212c-.367,2.265-1.449,3.649-3.584,3.568a3.144,3.144,0,0,1-3.265-3.539,3.146,3.146,0,0,1,3.288-3.192c2.184-.056,3.115,1.431,3.561,3.163" transform="translate(-21.274 -5.728)" fill="#1a0907"/>
    <path id="Trazado_731273" data-name="Trazado 731273" d="M209.388,88.856a5.687,5.687,0,0,1-5.493-5.415,5.448,5.448,0,0,1,10.9-.089,5.7,5.7,0,0,1-5.4,5.5" transform="translate(-64.712 -24.745)" fill="#de4148"/>
    <path id="Trazado_731274" data-name="Trazado 731274" d="M94.6,88.836a5.434,5.434,0,1,1,.016-10.868A5.435,5.435,0,0,1,94.6,88.836" transform="translate(-28.298 -24.746)" fill="#f0b555"/>
    <path id="Trazado_731275" data-name="Trazado 731275" d="M41.115,132.843a5.353,5.353,0,0,1,5.518,5.246,5.631,5.631,0,0,1-5.375,5.535,5.313,5.313,0,0,1-5.377-5.373,5.127,5.127,0,0,1,5.234-5.408" transform="translate(-11.388 -42.162)" fill="#9cbb51"/>
    <path id="Trazado_731276" data-name="Trazado 731276" d="M158.326,142.917a5.352,5.352,0,1,1-5.375-5.344,5.257,5.257,0,0,1,5.375,5.344" transform="translate(-46.853 -43.663)" fill="#62c1ee"/>
  </g>
</svg>
