<svg xmlns="http://www.w3.org/2000/svg" xmlns:xlink="http://www.w3.org/1999/xlink" width="122" height="122" viewBox="0 0 122 122">
  <defs>
    <clipPath id="clip-path">
      <rect id="Rectángulo_346573" data-name="Rectángulo 346573" width="102.014" height="101.86" fill="none"/>
    </clipPath>
  </defs>
  <g id="Grupo_991489" data-name="Grupo 991489" transform="translate(-1093 -693)">
    <circle id="Elipse_5890" data-name="Elipse 5890" cx="61" cy="61" r="61" transform="translate(1093 693)" fill="#ffc403"/>
    <g id="Grupo_988722" data-name="Grupo 988722" transform="translate(1102.993 703.441)">
      <g id="Grupo_988721" data-name="Grupo 988721" clip-path="url(#clip-path)">
        <path id="Trazado_729730" data-name="Trazado 729730" d="M128.02.073Q142.935.042,157.849,0a3.283,3.283,0,0,1,2.481,1.03c5.833,5.885,11.686,11.75,17.5,17.657,1.619,1.646,1.6,3.212-.055,4.877C172.075,29.3,166.336,35,160.629,40.732a4.728,4.728,0,0,1-3.594,1.352c-6.694,0-13.387.047-20.081.077a40.364,40.364,0,0,0-9-.075,1.373,1.373,0,0,0-.012-.252q.038-20.88.074-41.76m28.263,16.492a2.9,2.9,0,0,0-1.926-2.734,2.651,2.651,0,0,0-3.2.892c-1.219,1.475-2.289,3.076-3.4,4.643-2.207,3.123-2.2,3.128-4.839.51-.188-.187-.37-.38-.562-.561-1.414-1.329-3.251-1.48-4.437-.367-1.249,1.172-1.162,3.115.26,4.571q2.566,2.629,5.2,5.2c1.9,1.861,3.753,1.713,5.313-.435,2.293-3.158,4.553-6.339,6.829-9.508a3.241,3.241,0,0,0,.766-2.205" transform="translate(-77.012 0.001)" fill="#94be64"/>
        <path id="Trazado_729731" data-name="Trazado 729731" d="M42.087,161.99c-.693-.566-1.52-.365-2.3-.367-5.827-.014-11.655-.045-17.482.014a5.665,5.665,0,0,1-4.4-1.82C12.525,154.341,7.062,148.941,1.637,143.5c-2.182-2.187-2.183-3.535,0-5.721,5.471-5.485,10.975-10.938,16.417-16.452a5.272,5.272,0,0,1,4.055-1.679c5.893.043,11.787.023,17.681.008.776,0,1.6.2,2.3-.367a3.534,3.534,0,0,0,2.089.3,61.109,61.109,0,0,1,6.831.16q0,20.885,0,41.77c-.842.053-1.684.1-2.525.161-2.128.166-4.288-.36-6.393.3M28.849,147.805a2.67,2.67,0,0,0,2.274-1.02c1.313-1.762,2.4-1.907,3.907-.077a2.814,2.814,0,0,0,4.362.217,2.844,2.844,0,0,0-.25-4.369c-1.617-1.392-1.787-2.336-.05-3.786a2.851,2.851,0,0,0,.349-4.366,2.893,2.893,0,0,0-4.512.256c-1.332,1.506-2.243,1.687-3.639.048a2.89,2.89,0,0,0-4.509-.35c-1.262,1.275-1.229,3.087.392,4.515,1.455,1.281,1.773,2.262.031,3.472a3.3,3.3,0,0,0-.959,1.235,2.92,2.92,0,0,0,2.6,4.225" transform="translate(0 -71.803)" fill="#e5586b"/>
        <path id="Trazado_729732" data-name="Trazado 729732" d="M128.117,161.889q0-20.885,0-41.77v-.172a84.9,84.9,0,0,0,8.93-.052q9.822.062,19.645.121c3.35.018,4.342,1.013,4.343,4.412q0,16.575,0,33.15c0,3.4-1,4.4-4.345,4.413q-9.824.051-19.647.115l-8.925-.045Z" transform="translate(-77.113 -72.165)" fill="#de3579"/>
        <path id="Trazado_729733" data-name="Trazado 729733" d="M78.305.093q-.037,20.88-.074,41.76c-2.964.331-5.96-.251-8.917.31q-9.633-.024-19.267-.049c-3.7-.01-4.694-1.01-4.7-4.742q-.006-16.485,0-32.97c0-3.4.973-4.376,4.35-4.37q14.3.024,28.6.061" transform="translate(-27.296 -0.019)" fill="#b1cc7b"/>
        <path id="Trazado_729734" data-name="Trazado 729734" d="M105.663,225.849c2.1-.663,4.264-.137,6.392-.3.841-.066,1.684-.108,2.525-.161l0,.172q0,5.949,0,11.9c-1.906.021-3.812.087-5.717.051-2-.037-3.108-1-3.183-2.988-.11-2.886-.02-5.78-.016-8.67" transform="translate(-63.576 -135.661)" fill="#972a5d"/>
        <path id="Trazado_729735" data-name="Trazado 729735" d="M128.117,237.715q0-5.949,0-11.9l8.925.045q-.005,4.689-.01,9.375a.139.139,0,0,0-.071.218,2.918,2.918,0,0,1-3.171,2.324q-2.837-.035-5.674-.065" transform="translate(-77.114 -135.921)" fill="#68244e"/>
        <path id="Trazado_729736" data-name="Trazado 729736" d="M105.549,105.4c2.956-.561,5.953.021,8.916-.311a1.444,1.444,0,0,1,.012.252l.055,5.7,0,.172a61.207,61.207,0,0,0-6.831-.16,3.534,3.534,0,0,1-2.089-.3q-.032-2.671-.065-5.345" transform="translate(-63.531 -63.251)" fill="#97305e"/>
        <path id="Trazado_729737" data-name="Trazado 729737" d="M128.031,111.09l-.055-5.7a40.344,40.344,0,0,1,9,.076q-.006,2.783-.012,5.567a85.006,85.006,0,0,1-8.93.052" transform="translate(-77.03 -63.309)" fill="#69294f"/>
        <path id="Trazado_729738" data-name="Trazado 729738" d="M150.294,249.7a.139.139,0,0,1,.071-.218c.01.069.021.135.031.2l-.1.017" transform="translate(-90.447 -150.165)" fill="#de3579"/>
        <path id="Trazado_729739" data-name="Trazado 729739" d="M170.039,37.147a3.241,3.241,0,0,1-.766,2.205c-2.276,3.17-4.537,6.351-6.829,9.508-1.56,2.149-3.414,2.3-5.313.435q-2.624-2.571-5.2-5.2c-1.421-1.456-1.508-3.4-.26-4.571,1.186-1.113,3.023-.962,4.437.367.193.181.375.374.563.561,2.64,2.618,2.632,2.613,4.839-.51,1.107-1.566,2.177-3.167,3.4-4.643a2.651,2.651,0,0,1,3.2-.892,2.9,2.9,0,0,1,1.926,2.734" transform="translate(-90.767 -20.581)" fill="#abdcef"/>
        <path id="Trazado_729740" data-name="Trazado 729740" d="M67.994,169.188a2.919,2.919,0,0,1-2.6-4.224,3.3,3.3,0,0,1,.959-1.235c1.742-1.21,1.424-2.191-.031-3.472-1.621-1.428-1.654-3.24-.392-4.515a2.891,2.891,0,0,1,4.509.351c1.4,1.639,2.306,1.458,3.639-.049a2.893,2.893,0,0,1,4.512-.256,2.851,2.851,0,0,1-.35,4.366c-1.737,1.45-1.567,2.394.05,3.786a2.845,2.845,0,0,1,.25,4.369,2.815,2.815,0,0,1-4.362-.218c-1.507-1.83-2.594-1.684-3.906.077a2.667,2.667,0,0,1-2.275,1.019" transform="translate(-39.145 -93.187)" fill="#def1f8"/>
      </g>
    </g>
  </g>
</svg>
