<svg id="Grupo_991458" data-name="Grupo 991458" xmlns="http://www.w3.org/2000/svg" xmlns:xlink="http://www.w3.org/1999/xlink" width="188.548" height="188.583" viewBox="0 0 188.548 188.583">
  <defs>
    <clipPath id="clip-path">
      <rect id="Rectángulo_347608" data-name="Rectángulo 347608" width="188.548" height="188.583" fill="none"/>
    </clipPath>
  </defs>
  <g id="Grupo_991457" data-name="Grupo 991457" clip-path="url(#clip-path)">
    <path id="Trazado_731020" data-name="Trazado 731020" d="M79.352.005q22.222,0,44.446.006c9.73.014,16.046,6.395,16.067,16.2.017,7.85.114,15.7-.062,23.549-.055,2.431.755,2.667,2.947,2.922,5.619.655,9.906-.936,13.479-5.439a90.665,90.665,0,0,1,8.806-8.906,13.771,13.771,0,0,1,19.531,19.419,69.76,69.76,0,0,1-5.922,5.888c-2.031,1.7-1.484,2.638.391,3.893,2.489,1.665,4.62,4,8.078,3.3,1.242-.253,1.415.588,1.413,1.6q-.023,13.485.006,26.97c0,1.171-.141,1.952-1.613,1.836-5.909-.466-11,2.454-16.338,4.193-9.465,3.087-18.375,2.365-26.973-2.635-3.37-1.96-3.726-1.753-3.73,2.18q-.029,26.021-.009,52.041c0,11.1-6.01,17.175-17,17.178-20.26,0-40.52.04-60.78-.047-2.563-.011-3.722.649-4.943,3.192-2.84,5.913-2.521,12.029-2.346,18.173.073,2.569-.758,3.084-3.157,3.061q-18.232-.178-36.467.01c-2.539.03-3.3-.708-3.043-3.144.788-7.573-.821-14.658-3.881-21.641C4.36,154.91,4.034,145.14,2.33,135.724,1.343,130.269.007,124.841,0,119.239c-.011-9.158,2.733-17.578,9.672-23.449,7.052-5.966,9.1-12.667,8.78-21.684-.687-19.221-.218-38.484-.206-57.731C18.251,6.337,24.536.02,34.527.01q22.413-.024,44.825,0m41.515,63.1c-2.865,2.614-6.025,4.979-7.9,8.48-1.086,2.026-.364,3.91,1.041,5.55.381.444.939,1.091,1.53.5,1.355-1.352,3.47-2.21,3.109-4.752-.492-3.477.919-6.371,2.988-9.024a12.213,12.213,0,0,1,9.038-3.037,2.69,2.69,0,0,0,2.45-.617c3.646-3.719,7.336-7.4,11.317-11.4-5.419-.577-9.741.546-13.237,3.819-3.578,3.351-6.9,6.974-10.336,10.477m.357,46.86c-4.4,1.715-8.8,3.5-13.249,5.141a7.438,7.438,0,0,1-8.052-1.792c-2.325-2.155-3.532-5.03-2.331-7.9,3.07-7.332,4.329-15.7,11.3-20.947,1.416-1.066,1.667-1.938.339-3.617-4.274-5.405-3.807-11.008,1.018-15.967,3-3.084,6-6.186,9.148-9.111a6.275,6.275,0,0,0,2.278-5.23c-.165-5.566-.237-11.149.021-16.707.135-2.893-.73-3.507-3.535-3.494q-39.122.176-78.245,0c-2.868-.014-3.508.716-3.5,3.528.118,26.334.07,52.669.071,79v2.82a36.778,36.778,0,0,0,2.151-5.578,9.888,9.888,0,0,1,9.913-6.73,10.266,10.266,0,0,1,9.351,7.545,19.9,19.9,0,0,1,.632,6.77c-.126,3.065.964,4.036,4.137,4,16.2-.168,32.412-.038,48.618-.11,3.367-.015,8.124,1.521,9.738-.659,1.7-2.293.452-6.764.485-10.284,0-.106-.087-.214-.291-.681m6.484-63.17c4.723-1.393,6.64-3.837,6.218-8.8-.577-6.791-.139-13.667-.145-20.507-.008-8.012-3.328-11.391-11.224-11.393q-43.509-.009-87.019,0C27.653,6.1,24.331,9.482,24.331,17.5q-.006,58.328,0,116.655c0,.886.014,1.773.008,2.66a2.8,2.8,0,0,0,2.034,2.885c1.467.454,2.425-.538,3.008-1.731.94-1.926,1.739-3.922,2.615-5.88,1.141-2.552,2.383-4.981-.634-7.319-1.211-.939-.966-2.773-.965-4.309q.018-44.457.017-88.916c0-5.016,2.152-7.2,7.1-7.208q41.61-.029,83.219,0c4.749,0,6.926,2.216,6.965,6.97.04,5.064.009,10.129.009,15.487m-109.463,49c-9.127,7.885-13.723,16.8-11.574,28.458.663,3.6,1.072,7.246,1.727,10.847,2,11.022,2.946,22.289,7.822,32.647.883,1.875,1.76,2.615,3.888,2.583,8.986-.135,17.975-.089,26.964-.029,1.7.011,2.656-.342,3.39-2.132a53.561,53.561,0,0,0,4.063-25.183c-.756-8.948-1.415-17.9-2.083-26.86-.21-2.822-.164-6.006-3.782-6.513-3.761-.527-4.361,2.634-5.077,5.361-.128.488-.184.994-.3,1.485-2,8.221-4.311,16.339-8.2,23.911-2.255,4.387-6.018,6.4-10.13,5.432-4.187-.988-6.675-4.421-6.693-9.338-.024-6.709-.006-13.418-.006-20.128V95.795m41.512,41.913,1.01.318c1.822-3.627,4.826-4.409,8.55-4.3,7.087.207,14.184.017,21.275.076,4.685.039,7.238,2.968,6.658,7.6a11.953,11.953,0,0,1-4.571,8.041c-4.746,3.806-22.5,3.761-27.278,0-1.833-1.444-2.923-3.513-4.414-5.844-.184,4.115.084,7.613-.608,10.911-.71,3.38.516,3.664,3.332,3.65,19.631-.094,39.261-.045,58.892-.052,7.732,0,11.171-3.4,11.178-11.057q.016-22.226-.014-44.452c0-1.053.326-2.2-.365-3.241-5.692,4.706-5.692,4.706-5.692,11.359,0,3.166.013,6.332,0,9.5-.027,5.451-2.077,7.489-7.6,7.493-16.971.011-33.942-.024-50.913.029-3.144.01-7.562-1.39-9.09.562-1.567,2-.348,6.183-.348,9.411M159.33,72.981a40.9,40.9,0,0,0,5.126-.036c2.54-.383,2.811.843,2.852,3,.046,2.387-.566,2.975-3.068,3.229-8.868.9-16.609-.711-22.887-7.634-2.6-2.864-6.357-4.036-10.2-4.553-2.765-.372-5.116.328-6.154,3.177-1.01,2.776.493,4.571,2.747,5.925,6.6,3.963,13.129,8.049,19.824,11.846,5.449,3.091,11.377,4.289,17.533,2.544,5.324-1.508,10.536-3.408,15.827-5.043a1.836,1.836,0,0,0,1.527-2.121c-.059-4.807-.014-9.615-.033-14.423,0-.821.091-1.5-.95-2.14-2.672-1.654-5.15-3.628-7.665-5.528-1.031-.779-1.764-.967-2.821.127-3.586,3.713-7.3,7.3-11.66,11.635m-20.009-10.24a64.484,64.484,0,0,1,10.449,7.583c1.123.945,2.016,1.716,3.475.237,8.96-9.084,18.083-18.009,26.981-27.154a7.265,7.265,0,0,0-.254-10.812,7.252,7.252,0,0,0-10.547.024c-10.088,9.91-20.007,19.993-30.1,30.122m-17.006,17.22a6.653,6.653,0,0,0-1.058.732c-3.148,3.122-6.24,6.3-9.432,9.378-1.336,1.287-.319,1.943.475,2.738,2.506,2.51,5.089,4.948,7.494,7.552,1.309,1.418,2.2,1.645,3.592.078,2.016-2.27,4.266-4.329,6.417-6.478,5.931-5.928,5.929-5.925-1.449-10.333-1.95-1.165-3.882-2.357-6.038-3.667m-89.18,102.47c4.291,0,8.586-.12,12.869.049,2.21.087,2.893-.682,2.668-2.779-.176-1.641.594-3.473-2.424-3.408-8.577.183-17.162.164-25.74.006-2.757-.05-2.205,1.587-2.273,3.161-.075,1.74-.183,3.162,2.41,3.027,4.153-.215,8.326-.058,12.49-.057m45.92-42.568c-2.9,0-5.8-.087-8.684.043-1.118.05-2.817-.878-3.275.668-.389,1.309.669,2.625,1.68,3.6a6.132,6.132,0,0,0,4.425,1.787c3.9-.026,7.8.011,11.707-.014a6,6,0,0,0,5.537-3.277c.995-1.788,1.222-2.986-1.573-2.842-3.265.167-6.544.04-9.817.04m28.481-43.006c-1.384,3.424-2.731,6.391-3.778,9.46-.793,2.322.416,3.534,2.687,2.781,3.075-1.02,7.281-1.718,8.588-3.96.972-1.667-3.545-4.114-5.426-6.383a23.772,23.772,0,0,0-2.071-1.9" transform="translate(0 0)" fill="#080909"/>
    <path id="Trazado_731021" data-name="Trazado 731021" d="M132.684,119.515c.2.467.292.574.291.681-.033,3.519,1.212,7.991-.485,10.284-1.614,2.18-6.371.644-9.738.659-16.205.072-32.413-.059-48.618.11-3.173.033-4.263-.938-4.137-4a19.9,19.9,0,0,0-.632-6.77,10.266,10.266,0,0,0-9.351-7.545,9.888,9.888,0,0,0-9.913,6.73,36.778,36.778,0,0,1-2.151,5.578v-2.82c0-26.335.047-52.669-.071-79-.012-2.813.628-3.542,3.5-3.528q39.122.188,78.245,0c2.8-.013,3.669.6,3.535,3.494-.259,5.559-.186,11.142-.021,16.707a6.272,6.272,0,0,1-2.278,5.229c-3.153,2.926-6.146,6.027-9.148,9.112C116.883,79.394,116.417,85,120.691,90.4c1.327,1.679,1.077,2.55-.339,3.617-6.97,5.245-8.229,13.615-11.3,20.947-1.2,2.868.005,5.743,2.331,7.9a7.438,7.438,0,0,0,8.052,1.792c4.45-1.644,8.85-3.426,13.249-5.141M90.913,46.042c-11.391,0-22.783.051-34.173-.046-2.1-.018-2.844.5-2.76,2.7.169,4.423.131,8.859.011,13.286-.049,1.82.507,2.346,2.334,2.341q34.173-.086,68.346,0c1.778,0,2.427-.434,2.37-2.3-.129-4.3-.189-8.612.017-12.906.119-2.484-.623-3.157-3.113-3.125-11.009.139-22.022.06-33.033.06m1.042,30.4c5.691,0,11.388-.146,17.072.067,2.517.1,2.94-.845,2.825-3.028-.1-1.883.12-3.237-2.661-3.193-11.38.181-22.766.161-34.147.008-2.508-.033-2.818.858-2.849,3.024-.033,2.364.457,3.291,3.068,3.189,5.556-.218,11.127-.067,16.693-.067m.091,24.324c5.818,0,11.642-.155,17.452.067,2.788.106,2.28-1.536,2.3-3.117.022-1.622.412-3.132-2.321-3.1q-17.451.235-34.906,0c-2.78-.038-2.279,1.537-2.3,3.118-.022,1.622-.418,3.2,2.322,3.094,5.811-.216,11.634-.065,17.451-.065M88.609,112.93c4.931,0,9.871-.166,14.791.065,2.753.129,2.331-1.485,2.318-3.1-.014-1.586.473-3.165-2.3-3.114q-14.409.265-28.827,0c-2.744-.049-2.33,1.487-2.316,3.1.014,1.586-.481,3.252,2.3,3.111,4.667-.237,9.354-.065,14.032-.065m.214,12.162c4.8,0,9.617-.151,14.413.062,2.484.111,2.61-1.063,2.509-2.931-.094-1.746.395-3.353-2.544-3.287-9.479.209-18.967.171-28.448.014-2.474-.041-2.609,1.062-2.507,2.932.1,1.745-.407,3.458,2.546,3.284,4.662-.275,9.353-.073,14.031-.073M85.582,88.606c3.918,0,7.848-.184,11.751.062,2.785.176,2.293-1.521,2.3-3.107.011-1.607.437-3.171-2.314-3.1q-11.367.292-22.748,0c-2.777-.072-2.29,1.527-2.3,3.113-.012,1.607-.446,3.279,2.315,3.094,3.649-.245,7.327-.06,10.993-.06m26.1-2.911c.526-2.106.212-3.505-2.676-3.237-2,.186-3.686-.119-3.363,2.862.216,1.991-.108,3.713,2.869,3.351,1.936-.235,4.02.242,3.17-2.976" transform="translate(-11.461 -9.548)" fill="#5ec0e5"/>
    <path id="Trazado_731022" data-name="Trazado 731022" d="M135.363,48.713c0-5.358.032-10.422-.009-15.487-.039-4.755-2.217-6.967-6.964-6.971q-41.61-.033-83.219,0c-4.952,0-7.1,2.193-7.1,7.208q-.023,44.457-.017,88.916c0,1.535-.246,3.37.965,4.308,3.017,2.338,1.776,4.768.634,7.319-.876,1.959-1.674,3.955-2.615,5.88-.583,1.193-1.541,2.186-3.008,1.731a2.8,2.8,0,0,1-2.034-2.885c.007-.887-.007-1.773-.007-2.66q0-58.328,0-116.655c0-8.018,3.323-11.4,11.207-11.405Q86.7,8,130.213,8.012c7.9,0,11.216,3.382,11.223,11.393.006,6.84-.431,13.717.145,20.507.422,4.965-1.495,7.409-6.218,8.8M86.869,20.166c3.166,0,6.343-.164,9.494.052,2.478.17,2.572-1.092,2.55-2.963-.024-1.912.109-3.335-2.673-3.237-6.324.222-12.665.213-18.991,0-2.671-.089-2.7,1.16-2.761,3.167-.07,2.217.4,3.214,2.887,3.034,3.149-.228,6.328-.056,9.494-.056m30.222-3.244c.119,1.924,1.041,3.163,2.985,3.206a2.782,2.782,0,0,0,3.087-3.017,2.755,2.755,0,0,0-2.742-2.986c-1.936-.159-2.988.961-3.329,2.8m15.257-2.865c-1.887.214-3.059,1.181-3.037,3.133a2.753,2.753,0,0,0,2.791,2.938,2.787,2.787,0,0,0,3.218-2.882c.092-1.946-1.1-2.937-2.972-3.189" transform="translate(-7.656 -1.917)" fill="#848e9a"/>
    <path id="Trazado_731023" data-name="Trazado 731023" d="M20.178,125.94v20.539c0,6.71-.018,13.419.006,20.128.019,4.918,2.506,8.35,6.693,9.338,4.113.971,7.875-1.045,10.13-5.431,3.894-7.574,6.2-15.691,8.2-23.912.119-.491.176-1,.3-1.485.716-2.727,1.316-5.888,5.078-5.361,3.617.507,3.571,3.691,3.781,6.513.668,8.956,1.327,17.912,2.083,26.86A53.551,53.551,0,0,1,52.4,198.314c-.734,1.791-1.692,2.143-3.39,2.132-8.988-.06-17.978-.106-26.964.029-2.128.032-3-.708-3.888-2.583-4.876-10.358-5.818-21.625-7.822-32.647C9.677,161.644,9.268,158,8.6,154.4c-2.15-11.658,2.447-20.573,11.574-28.458" transform="translate(-1.934 -30.145)" fill="#edc3a4"/>
    <path id="Trazado_731024" data-name="Trazado 731024" d="M78.418,168.973c0-3.227-1.219-7.41.348-9.41,1.529-1.953,5.947-.553,9.09-.563,16.971-.053,33.942-.017,50.913-.029,5.52,0,7.57-2.042,7.6-7.493.016-3.165,0-6.332,0-9.5,0-6.653,0-6.653,5.692-11.36.691,1.044.364,2.188.366,3.242q.039,22.225.014,44.452c-.005,7.653-3.445,11.054-11.177,11.057-19.631.008-39.261-.042-58.892.053-2.817.014-4.042-.271-3.332-3.651.692-3.3.423-6.8.608-10.91,1.491,2.331,2.58,4.4,4.414,5.843,4.782,3.766,22.532,3.812,27.277.005a11.953,11.953,0,0,0,4.572-8.041c.58-4.635-1.974-7.565-6.658-7.6-7.091-.059-14.189.131-21.275-.077-3.724-.109-6.728.674-8.55,4.3l-1.01-.319" transform="translate(-18.662 -31.265)" fill="#838e9a"/>
    <path id="Trazado_731025" data-name="Trazado 731025" d="M198.565,92.045c4.362-4.33,8.074-7.921,11.66-11.634,1.057-1.095,1.79-.907,2.821-.128,2.515,1.9,4.992,3.874,7.664,5.528,1.041.645.948,1.32.951,2.14.018,4.808-.026,9.616.033,14.423a1.837,1.837,0,0,1-1.527,2.122c-5.29,1.634-10.5,3.534-15.826,5.043-6.157,1.744-12.085.546-17.533-2.545-6.694-3.8-13.224-7.882-19.824-11.846-2.255-1.354-3.758-3.149-2.747-5.925,1.038-2.849,3.388-3.549,6.154-3.177,3.841.517,7.6,1.689,10.2,4.553,6.278,6.923,14.019,8.536,22.887,7.635,2.5-.255,3.115-.843,3.068-3.229-.042-2.153-.312-3.378-2.852-3a40.9,40.9,0,0,1-5.126.036" transform="translate(-39.235 -19.064)" fill="#ebc2a2"/>
    <path id="Trazado_731026" data-name="Trazado 731026" d="M183.163,72.288c10.1-10.129,20.016-20.212,30.1-30.122a7.252,7.252,0,0,1,10.547-.024,7.264,7.264,0,0,1,.254,10.812c-8.9,9.145-18.021,18.07-26.981,27.154-1.458,1.479-2.351.707-3.475-.237a64.405,64.405,0,0,0-10.449-7.583" transform="translate(-43.842 -9.546)" fill="#acc668"/>
    <path id="Trazado_731027" data-name="Trazado 731027" d="M157.3,105.124c2.156,1.31,4.088,2.5,6.037,3.667,7.378,4.408,7.38,4.4,1.449,10.333-2.15,2.15-4.4,4.209-6.416,6.478-1.393,1.568-2.283,1.341-3.592-.078-2.4-2.6-4.988-5.042-7.493-7.552-.795-.8-1.81-1.451-.475-2.738,3.192-3.077,6.283-6.256,9.431-9.377a6.649,6.649,0,0,1,1.059-.732" transform="translate(-34.986 -25.163)" fill="#aac467"/>
    <path id="Trazado_731028" data-name="Trazado 731028" d="M38.864,237.908c-4.164,0-8.337-.157-12.49.058-2.592.134-2.485-1.288-2.41-3.028.068-1.573-.484-3.211,2.274-3.16,8.578.157,17.163.176,25.74-.007,3.018-.065,2.248,1.768,2.424,3.409.225,2.1-.459,2.865-2.668,2.778-4.284-.169-8.578-.049-12.869-.049" transform="translate(-5.73 -55.477)" fill="#e65b73"/>
    <path id="Trazado_731029" data-name="Trazado 731029" d="M100.143,183.818c3.272,0,6.553.129,9.817-.039,2.794-.144,2.568,1.053,1.573,2.842A6,6,0,0,1,106,189.9c-3.9.025-7.8-.011-11.708.015a6.135,6.135,0,0,1-4.423-1.788c-1.012-.971-2.069-2.286-1.681-3.6.459-1.545,2.157-.617,3.275-.668,2.889-.13,5.788-.043,8.684-.043" transform="translate(-21.088 -43.954)" fill="#dadee4"/>
    <path id="Trazado_731030" data-name="Trazado 731030" d="M158.9,78.422c3.434-3.5,6.758-7.126,10.336-10.476,3.5-3.274,7.818-4.4,13.236-3.82-3.98,4-7.669,7.679-11.316,11.4a2.692,2.692,0,0,1-2.451.618,12.209,12.209,0,0,0-9.038,3.038l-.767-.756" transform="translate(-38.035 -15.315)" fill="#e3bb9d"/>
    <path id="Trazado_731031" data-name="Trazado 731031" d="M140.11,127.337a23.771,23.771,0,0,1,2.071,1.9c1.881,2.27,6.4,4.717,5.426,6.383-1.308,2.242-5.513,2.94-8.588,3.96-2.271.753-3.48-.459-2.687-2.781,1.047-3.069,2.394-6.036,3.778-9.46" transform="translate(-32.574 -30.48)" fill="#bd855d"/>
    <path id="Trazado_731032" data-name="Trazado 731032" d="M156.25,82.966l.767.756c-2.069,2.652-3.478,5.546-2.987,9.023.36,2.543-1.755,3.4-3.109,4.752-.592.59-1.15-.056-1.53-.5-1.406-1.639-2.127-3.526-1.041-5.55,1.876-3.5,5.036-5.867,7.9-8.48" transform="translate(-35.383 -19.859)" fill="#e0b89b"/>
    <path id="Trazado_731033" data-name="Trazado 731033" d="M92.831,47.959c11.011,0,22.024.079,33.033-.06,2.49-.031,3.232.641,3.113,3.125-.206,4.294-.146,8.607-.016,12.906.056,1.87-.593,2.309-2.371,2.3q-34.173-.08-68.346,0c-1.826,0-2.383-.521-2.334-2.341.119-4.427.157-8.863-.011-13.286-.084-2.2.659-2.715,2.76-2.7,11.391.1,22.782.046,34.173.046M92.394,60.12c9.1,0,18.209-.074,27.311.05,2.359.033,3.276-.446,3.233-3.052-.04-2.451-.657-3.151-3.154-3.137q-27.311.162-54.623.009c-2.357-.011-3.276.446-3.233,3.052.04,2.451.654,3.18,3.155,3.138,9.1-.152,18.207-.06,27.311-.06" transform="translate(-13.378 -11.465)" fill="#040506"/>
    <path id="Trazado_731034" data-name="Trazado 731034" d="M99.606,86.011c-5.566,0-11.136-.151-16.692.067-2.612.1-3.1-.825-3.069-3.189.03-2.166.342-3.059,2.849-3.024,11.381.153,22.767.173,34.147-.008,2.782-.044,2.563,1.31,2.661,3.193.115,2.182-.307,3.122-2.825,3.028-5.683-.212-11.38-.067-17.071-.067" transform="translate(-19.111 -19.114)" fill="#040506"/>
    <path id="Trazado_731035" data-name="Trazado 731035" d="M99.712,117.992c-5.818,0-11.642-.15-17.451.066-2.741.1-2.345-1.473-2.323-3.1.021-1.581-.48-3.156,2.3-3.117q17.45.241,34.906,0c2.732-.037,2.343,1.474,2.321,3.1-.021,1.581.487,3.224-2.3,3.117-5.81-.221-11.633-.067-17.451-.067" transform="translate(-19.126 -26.771)" fill="#040506"/>
    <path id="Trazado_731036" data-name="Trazado 731036" d="M96.276,133.98c-4.679,0-9.366-.173-14.032.065-2.785.141-2.29-1.525-2.3-3.111-.014-1.612-.428-3.149,2.316-3.1q14.41.26,28.827,0c2.776-.051,2.289,1.529,2.3,3.115.014,1.612.435,3.225-2.318,3.1-4.921-.23-9.859-.065-14.791-.065" transform="translate(-19.127 -30.598)" fill="#040506"/>
    <path id="Trazado_731037" data-name="Trazado 731037" d="M96.483,149.966c-4.679,0-9.369-.2-14.031.073-2.952.174-2.45-1.539-2.546-3.284-.1-1.87.033-2.973,2.507-2.931,9.481.157,18.969.195,28.448-.014,2.939-.065,2.45,1.541,2.544,3.287.1,1.869-.025,3.042-2.509,2.932-4.8-.214-9.608-.062-14.413-.062" transform="translate(-19.121 -34.422)" fill="#040506"/>
    <path id="Trazado_731038" data-name="Trazado 731038" d="M93.248,102c-3.666,0-7.343-.185-10.993.06-2.76.186-2.327-1.486-2.315-3.094.011-1.586-.475-3.186,2.3-3.113q11.369.3,22.748,0c2.751-.071,2.325,1.494,2.313,3.1-.011,1.585.481,3.282-2.3,3.107-3.9-.246-7.833-.062-11.751-.062" transform="translate(-19.127 -22.944)" fill="#040506"/>
    <path id="Trazado_731039" data-name="Trazado 731039" d="M129.848,99.081c.85,3.218-1.234,2.741-3.17,2.976-2.977.361-2.653-1.36-2.869-3.351-.323-2.982,1.365-2.677,3.363-2.862,2.888-.268,3.2,1.131,2.676,3.237" transform="translate(-29.626 -22.933)" fill="#040506"/>
    <path id="Trazado_731040" data-name="Trazado 731040" d="M100.242,22.056c-3.166,0-6.344-.173-9.494.056-2.488.18-2.957-.817-2.887-3.034.064-2.007.091-3.256,2.761-3.167,6.325.211,12.667.22,18.991,0,2.782-.1,2.649,1.325,2.672,3.237.024,1.87-.071,3.132-2.549,2.963-3.151-.215-6.329-.052-9.494-.052" transform="translate(-21.029 -3.807)" fill="#040506"/>
    <path id="Trazado_731041" data-name="Trazado 731041" d="M143.873,18.842c.341-1.835,1.393-2.956,3.329-2.8a2.755,2.755,0,0,1,2.742,2.986,2.782,2.782,0,0,1-3.087,3.017c-1.945-.043-2.865-1.282-2.985-3.206" transform="translate(-34.438 -3.837)" fill="#0c0d0e"/>
    <path id="Trazado_731042" data-name="Trazado 731042" d="M162.975,15.961c1.876.253,3.064,1.244,2.972,3.189a2.787,2.787,0,0,1-3.218,2.882,2.753,2.753,0,0,1-2.791-2.938c-.022-1.953,1.15-2.919,3.037-3.133" transform="translate(-38.283 -3.82)" fill="#0c0d0e"/>
    <path id="Trazado_731043" data-name="Trazado 731043" d="M94.293,62.034c-9.1,0-18.21-.092-27.311.06-2.5.042-3.115-.688-3.155-3.138-.043-2.605.876-3.063,3.233-3.052q27.311.133,54.623-.009c2.5-.014,3.114.686,3.154,3.137.043,2.606-.874,3.085-3.233,3.053-9.1-.125-18.207-.051-27.311-.051" transform="translate(-15.278 -13.379)" fill="#e65b73"/>
  </g>
</svg>
