<svg id="Grupo_991470" data-name="Grupo 991470" xmlns="http://www.w3.org/2000/svg" xmlns:xlink="http://www.w3.org/1999/xlink" width="195.367" height="195.363" viewBox="0 0 195.367 195.363">
  <defs>
    <clipPath id="clip-path">
      <rect id="Rectángulo_346585" data-name="Rectángulo 346585" width="195.367" height="195.363" fill="none"/>
    </clipPath>
  </defs>
  <g id="Grupo_988742" data-name="Grupo 988742" clip-path="url(#clip-path)">
    <path id="Trazado_729824" data-name="Trazado 729824" d="M56.638,0Q76.716,0,96.8.006c11.321.006,18.017,7.679,16.454,18.835-.891,6.364-.891,6.364,5.538,6.364q30.118,0,60.237,0c10.842.007,17.44,7.582,16.193,18.39q-2.412,20.9-4.654,41.811c-1.092,10.127-6.914,15.4-17.19,15.406-14.042,0-28.086.093-42.126-.076a8.635,8.635,0,0,0-6.8,2.885c-3.221,3.213-5.906,7.06-10.1,9.221-1.232.635-.857,1.8-.865,2.795-.032,3.675.13,7.358-.066,11.023-.118,2.206.75,2.62,2.69,2.537,3.144-.135,6.325.221,9.44-.106,3.278-.345,3.842,1,3.735,3.9-.206,5.613-.052,5.618,5.748,5.618,5.512,0,11.026-.089,16.535.045,2.106.052,2.913-.371,2.915-2.725,0-6.771.128-6.771,6.955-6.771,9.318,0,18.637.062,27.953-.046,2.136-.025,2.939.426,2.882,2.752-.163,6.559-.142,13.127-.009,19.686.044,2.154-.448,3-2.763,2.868-3.532-.2-7.088.042-10.626-.091-1.845-.069-2.388.444-2.465,2.37-.411,10.268-.477,10.265,9.89,10.265,5.915,0,5.915,0,5.915,5.912,0,5.643-.077,11.289.043,16.93.04,1.9-.537,2.421-2.419,2.406-11.024-.084-22.049-.129-33.07.026-2.468.035-2.348-1.158-2.376-2.846-.112-6.672-.143-6.672-6.706-6.672-5.249,0-10.5.121-15.747-.055-2.3-.077-2.773.711-2.774,2.865,0,6.641-.1,6.641-6.7,6.641-9.186,0-18.377-.158-27.557.088-3.1.084-3.653-.9-3.551-3.711.218-6.029.278-12.084-.02-18.107-.154-3.126.923-3.757,3.722-3.531,3,.243,6.04-.078,9.049.1,2.25.132,3.145-.286,3.146-2.9,0-9.739.125-9.739-9.649-9.739-6.141,0-6.289,0-6.111-6.038.079-2.679-.512-3.549-3.366-3.488-9.444.2-18.9.158-28.344.018-2.362-.035-3.1.467-3.067,2.981.159,10.63-.01,21.264.126,31.894.031,2.389-.5,3.172-3,3.05-4.582-.225-9.185.007-13.776-.1-1.713-.04-2.306.453-2.219,2.2.136,2.75-.063,5.516.072,8.266.085,1.741-.5,2.217-2.213,2.206q-16.732-.106-33.465,0c-1.748.012-2.208-.525-2.194-2.227q.113-13.584,0-27.17c-.017-1.764.552-2.193,2.237-2.183q16.733.1,33.465,0c1.776-.013,2.249.57,2.171,2.248-.123,2.62.118,5.26-.079,7.871-.164,2.168.7,2.529,2.66,2.57,9.981.21,9.98.267,9.98-9.772,0-6.169-.1-12.34.048-18.507.055-2.371-.3-3.677-3.1-3.308-3.075.406-7.2-1.308-9.006.7-1.524,1.689-.63,5.725-.483,8.707.12,2.436-.412,3.355-3.135,3.309-10.626-.178-21.259-.127-31.888-.026-2.126.02-2.926-.411-2.889-2.744.143-8.793.1-17.589.02-26.382-.017-1.809.373-2.49,2.35-2.473q16.535.143,33.071.008c1.823-.013,2.741.4,2.426,2.362a5.134,5.134,0,0,0,0,1.18c.221,2.963-1.318,7.479.623,8.537,2.744,1.495,6.85.448,10.37.578,1.559.058,1.61-.826,1.607-1.98-.02-9.188-.042-18.377.018-27.564.01-1.542-.481-2.186-2.009-1.973a2.113,2.113,0,0,1-.393,0c-10.091-.492-10.2-.492-10.147,9.482.014,2.642-.769,3.211-3.268,3.179-10.5-.138-21-.109-31.5-.017-2.16.019-3.248-.154-3.185-2.855.2-8.658.161-17.326.019-25.987C-.017,88.6.761,88.144,2.9,88.164c10.76.1,21.523.119,32.283-.009,2.333-.028,3.034.765,2.7,2.889a2.338,2.338,0,0,0,0,.393c.107,10.485.1,10.459,10.723,9.409,1.222-.121,1.907-.245,1.9-1.717-.057-7.218-.1-14.439.013-21.657.039-2.547-1.656-1.831-2.92-1.837-8.53-.038-17.061-.017-25.591-.02-10.117,0-15.95-5.13-17.073-15.081Q2.521,39.241.2,17.939C-.939,7.338,5.747.017,16.479.006Q36.558-.011,56.638,0M30.364,40a16.71,16.71,0,0,1-5.02-9.789A15.785,15.785,0,0,1,53.134,18.259c4.681,5.729,5.046,13.282.53,19.212-1.728,2.269-1.408,3.062.944,4.4a23.293,23.293,0,0,1,8.9,9.726c2.763,5.192,2.862,10.786,2.737,16.449-.031,1.373-.407,2.826.86,4.039,3.028,2.9,5.933,5.93,8.941,8.854,1.607,1.562,2.614.935,2.733-1.094a46.524,46.524,0,0,0-.009-7.077c-.251-2.633.4-3.788,3.32-3.515,2.99.281,6.026.066,9.043.061,7.374-.012,10.447-2.83,11.239-10.123q2.27-20.9,4.644-41.783c.773-6.807-2.92-11.08-9.855-11.087q-40.327-.039-80.653,0c-7.161.006-10.848,4.3-9.95,11.349.53,4.156.959,8.326,1.421,12.491,1.11,10.024,2.171,20.054,3.344,30.07.347,2.961,1.142,5.8,4.581,7.629C14.853,55.317,19.385,46.015,30.364,40M179.509,93.226c4.142-2.719,4.431-6.353,4.829-9.987,1.452-13.286,2.852-26.579,4.471-39.845.923-7.571-2.559-11.873-10.161-11.879-21.124-.017-42.248.084-63.37-.106-3.074-.028-3.74,1.128-3.989,3.671-.8,8.216-1.816,16.412-2.564,24.632C107.863,69.2,103.462,74.1,93.951,75.56c-1.344.207-1.86.49-1.661,1.865.489,3.37.779,6.773,1.394,10.119.757,4.124,3.6,6.255,7.562,6.9,2.93.475,7.119-1.286,8.56.762,1.495,2.125.454,6.038.509,9.169.017.916-.137,1.933.866,2.427,1.1.538,1.68-.429,2.294-1.035,3.173-3.135,6.292-6.325,9.474-9.45.8-.79,1.462-2.057,2.859-1.776,3.751.754,3.544-1.6,3.422-4.1-.488-9.967,3.242-17.973,11.667-23.387,2.415-1.552,2.367-2.31.8-4.447a15.387,15.387,0,0,1,4.55-22.515,15.629,15.629,0,0,1,22,5.958c3.19,6.029,2.534,11.862-1.562,17.309-.717.953-2.1,1.673-.01,2.895,10.04,5.87,13.753,14.969,12.833,26.974M85.687,75.988l-.418.025a30.351,30.351,0,0,0-.13,3.08c.214,3.9-1.008,6.978-4.83,8.549-3.883,1.6-6.78-.1-9.405-2.854-2.529-2.658-5.3-5.09-7.724-7.838-1.627-1.846-3.628-1.559-5.409-1.214-1.964.379-.938,2.384-.943,3.6-.074,18.486.009,36.972-.115,55.457-.02,2.9.482,4.011,3.731,3.913,8.775-.263,17.575-.373,26.338.033,4.2.195,5.3-1.239,4.632-4.944-.645-3.6.438-5.144,4.444-4.726,3.6.375,8.57,1.34,10.582-.514,2.337-2.152.622-7.144.671-10.9.026-2.02.91-4.365-.59-6.048a9.732,9.732,0,0,1-2.484-7.957c.227-2.094-.336-2.826-2.674-2.923-7.354-.309-12.691-5.109-14.026-12.439-.741-4.067-1.111-8.2-1.648-12.3m35.362,90.874c2.594.116,5.83-.663,7.6.605,1.689,1.213.5,4.633.523,7.074.015,1.657.7,1.912,2.117,1.9,7.078-.051,14.158-.069,21.236.009,1.649.018,1.857-.676,1.934-2.09.132-2.425-1.227-5.733.64-7.037,1.685-1.178,4.795-.325,7.277-.353a24.675,24.675,0,0,1,4.319.036c3.136.528,3.578-.91,3.533-3.676-.146-8.958-.035-8.959-8.82-8.959-6.794,0-6.814,0-6.979-6.786-.036-1.476.234-2.762-2.085-2.716-7.076.142-14.157.1-21.235.018-1.65-.018-1.856.678-1.934,2.09-.132,2.425,1.227,5.733-.64,7.037-1.685,1.178-4.795.321-7.277.354-.917.013-1.835,0-2.752,0-5.033,0-5.033,0-5.033,5.208,0,7.387,0,7.387,7.579,7.281M40.8,69.31h12.96c6.366,0,6.366,0,6.161-6.461-.4-12.517-11.936-21.32-23.873-17.926-10.611,3.017-14.837,12.1-13.933,22.971.166,2,1.565,1.381,2.584,1.392,5.367.05,10.734.024,16.1.024m113.618,25.2h12.572c6.537,0,6.537,0,6.316-6.72a18.868,18.868,0,0,0-23.337-17.823c-9.408,2.337-15.6,10.641-14.484,22.94.171,1.882,1.3,1.594,2.432,1.6,5.5.013,11,.006,16.5.006m-135.487,18.9c3.4,0,6.8-.083,10.191.034,1.808.061,2.546-.419,2.493-2.376-.126-4.7-.111-9.409,0-14.112.041-1.824-.456-2.509-2.391-2.48-6.792.1-13.588.092-20.381.006-1.8-.023-2.545.42-2.493,2.376.127,4.7.111,9.409.006,14.112-.041,1.824.452,2.557,2.391,2.477,3.391-.139,6.792-.039,10.189-.039m-.6,37.8c3.985,0,7.259-.141,10.515.048,2.313.135,2.845-.761,2.775-2.9-.144-4.439-.171-8.89.008-13.326.095-2.332-.8-2.811-2.915-2.76-5.354.13-10.713.043-16.07.043-6.256,0-6.288,0-6.245,6.378.027,4.026-1.38,9.448.662,11.709,2.351,2.6,7.865.45,11.27.807m.6,37.8c3.4,0,6.8-.083,10.191.033,1.808.062,2.546-.419,2.493-2.375-.126-4.7-.111-9.41,0-14.112.041-1.825-.456-2.51-2.391-2.48-6.792.1-13.588.091-20.381.006-1.8-.023-2.545.42-2.493,2.376.127,4.7.111,9.41.006,14.112-.041,1.824.452,2.558,2.391,2.478,3.391-.139,6.792-.039,10.189-.039m91-40.953h3.531c10.511,0,10.47,0,9.5-10.62-.138-1.507-.54-2.012-2.049-2q-10.591.089-21.185,0c-1.514-.013-1.909.5-2.046,2-.965,10.62-1.006,10.616,9.5,10.616h2.747m63.5-12.595h-3.138c-10.028,0-10.028,0-9.569,10.109a2.039,2.039,0,0,1,0,.392c-.274,1.83.7,2.147,2.285,2.12,4.445-.078,8.892-.027,13.339-.027,10.027,0,10.027,0,9.569-10.11a2.032,2.032,0,0,1,0-.392c.275-1.832-.7-2.16-2.285-2.12-3.4.087-6.8.027-10.2.026m-62.812,50.4h2.747c10.025,0,9.941,0,9.622-10.124-.069-2.2-.85-2.558-2.755-2.507-4.312.115-8.631.035-12.946.035-10.026,0-9.941,0-9.622,10.124.069,2.2.849,2.576,2.755,2.506,3.4-.126,6.8-.035,10.2-.035m63.094-12.595h-3.532c-10.509,0-10.468,0-9.5,10.617.136,1.5.533,2.015,2.046,2q10.593-.089,21.186,0c1.51.013,1.911-.492,2.049-2,.969-10.622,1.011-10.619-9.5-10.619h-2.746M40.986,18.92a9.643,9.643,0,0,0-9.4,9.572,9.665,9.665,0,0,0,9.275,9.3,9.657,9.657,0,0,0,9.594-9.378,9.643,9.643,0,0,0-9.474-9.5m113.542,25.2a9.44,9.44,0,1,0,9.319,9.651,9.646,9.646,0,0,0-9.319-9.651" transform="translate(0 0)" fill="#080809"/>
    <path id="Trazado_729825" data-name="Trazado 729825" d="M32.094,41.69C21.115,47.71,16.582,57.013,17.638,69.549c-3.44-1.826-4.235-4.667-4.582-7.629C11.884,51.9,10.822,41.875,9.712,31.85c-.461-4.164-.89-8.333-1.42-12.49-.9-7.051,2.789-11.343,9.95-11.349q40.327-.034,80.653,0c6.935.006,10.628,4.28,9.854,11.087q-2.373,20.885-4.644,41.782c-.792,7.293-3.865,10.112-11.239,10.123-3.016,0-6.053.219-9.043-.061-2.918-.273-3.569.883-3.319,3.515a46.423,46.423,0,0,1,.009,7.077c-.117,2.028-1.125,2.655-2.732,1.094-3.008-2.923-5.914-5.952-8.942-8.854-1.267-1.214-.89-2.666-.86-4.04.125-5.662.026-11.257-2.737-16.448a23.3,23.3,0,0,0-8.9-9.727c-2.352-1.332-2.673-2.127-.945-4.4,4.517-5.93,4.153-13.483-.529-19.212A15.786,15.786,0,0,0,27.073,31.9a16.714,16.714,0,0,0,5.021,9.788M87,14.3c-4.587,0-9.181.132-13.761-.046-3.1-.121-1.99,2.007-2.1,3.442-.121,1.526-.473,3.024,2.2,2.969,9.04-.184,18.088-.16,27.13-.02,3.092.048,1.991-2.01,2.1-3.445.121-1.527.478-3.114-2.206-2.966-4.443.245-8.909.066-13.365.066m-.466,18.9c4.457,0,8.919-.136,13.367.054,2.332.1,2.978-.739,2.722-2.886-.2-1.661.711-3.607-2.475-3.535-8.908.2-17.826.182-26.735.006-2.923-.058-2.233,1.7-2.312,3.285-.088,1.772-.274,3.288,2.461,3.138,4.312-.238,8.647-.064,12.972-.063M74.012,45.693c2.085.4,3.818.405,3.452-2.727-.232-1.979.311-3.946-2.9-3.528-1.971.256-3.978-.3-3.513,2.908.276,1.909-.47,4.272,2.964,3.347m13.17-6.117c-2.276-.375-3.87-.228-3.553,2.823.214,2.059-.145,3.834,2.967,3.481,2.054-.233,3.86.136,3.471-2.97-.251-2,.273-4.18-2.885-3.335m12.3.013c-2.646-.652-3.276.484-3.274,3.038,0,2.506.6,3.31,3.216,3.276,2.5-.032,3.336-.6,3.268-3.224-.064-2.439-.467-3.793-3.209-3.09" transform="translate(-1.73 -1.695)" fill="#dee2e7"/>
    <path id="Trazado_729826" data-name="Trazado 729826" d="M204.333,101.678c.92-12.005-2.793-21.1-12.833-26.974-2.09-1.222-.707-1.941.01-2.895,4.1-5.447,4.751-11.279,1.562-17.308a15.628,15.628,0,0,0-22-5.958,15.386,15.386,0,0,0-4.55,22.515c1.565,2.137,1.613,2.894-.8,4.446-8.425,5.415-12.154,13.421-11.667,23.387.122,2.5.329,4.855-3.422,4.1-1.4-.281-2.054.986-2.859,1.776-3.183,3.124-6.3,6.315-9.474,9.449-.614.607-1.2,1.574-2.294,1.035-1-.493-.849-1.51-.866-2.426-.055-3.131.985-7.045-.51-9.17-1.44-2.048-5.63-.287-8.56-.762-3.967-.643-6.8-2.774-7.563-6.9-.614-3.345-.9-6.749-1.393-10.119-.2-1.375.317-1.658,1.661-1.864,9.511-1.464,13.911-6.365,14.773-15.847.748-8.221,1.759-16.417,2.564-24.633.249-2.542.914-3.7,3.989-3.671,21.122.19,42.246.089,63.37.106,7.6.006,11.084,4.308,10.16,11.88-1.618,13.265-3.018,26.559-4.47,39.845-.4,3.632-.686,7.267-4.829,9.986" transform="translate(-24.824 -8.452)" fill="#bec5cf"/>
    <path id="Trazado_729827" data-name="Trazado 729827" d="M46.717,81.2c-5.367,0-10.734.027-16.1-.024-1.019-.009-2.417.611-2.584-1.392-.9-10.868,3.322-19.954,13.933-22.971C53.9,53.422,65.441,62.225,65.838,74.742c.2,6.46.2,6.46-6.162,6.46H46.717" transform="translate(-5.919 -11.892)" fill="#ffcc58"/>
    <path id="Trazado_729828" data-name="Trazado 729828" d="M190.84,113.191c-5.5,0-11,.006-16.5-.006-1.128,0-2.261.286-2.432-1.6-1.119-12.3,5.077-20.6,14.485-22.941a18.869,18.869,0,0,1,23.337,17.823c.22,6.72.22,6.72-6.316,6.721H190.84" transform="translate(-36.424 -18.678)" fill="#aec86a"/>
    <path id="Trazado_729829" data-name="Trazado 729829" d="M20.636,138.835c-3.4,0-6.8-.1-10.19.039-1.939.079-2.432-.654-2.391-2.478.106-4.7.121-9.411-.006-14.112-.052-1.956.689-2.4,2.493-2.376,6.793.086,13.589.1,20.381-.006,1.934-.03,2.432.655,2.391,2.479-.106,4.7-.121,9.411,0,14.112.053,1.956-.686,2.438-2.493,2.376-3.394-.116-6.793-.033-10.19-.034m-.31-6.3a25.65,25.65,0,0,1,3.508.027c2.584.361,3.219-.689,3.25-3.207.032-2.637-.834-3.389-3.313-3.16a32.126,32.126,0,0,1-6.234,0c-2.591-.269-3.219.705-3.25,3.224-.032,2.637.84,3.478,3.311,3.139a20.326,20.326,0,0,1,2.729-.02" transform="translate(-1.706 -25.424)" fill="#ea695c"/>
    <path id="Trazado_729830" data-name="Trazado 729830" d="M19.928,186.81c-3.406-.357-8.919,1.8-11.269-.807-2.042-2.261-.636-7.683-.663-11.709-.043-6.378-.012-6.379,6.245-6.379,5.357,0,10.716.087,16.07-.043,2.117-.051,3.01.428,2.915,2.76-.179,4.436-.152,8.887-.008,13.326.069,2.138-.461,3.034-2.775,2.9-3.255-.189-6.53-.048-10.515-.048m.341-6.3a24.209,24.209,0,0,1,3.507.028c2.672.395,3.223-.812,3.182-3.26-.037-2.228-.362-3.4-2.953-3.117a31.37,31.37,0,0,1-6.622,0c-2.681-.285-3.124.849-3.2,3.276-.086,2.733.97,3.389,3.358,3.09a22.188,22.188,0,0,1,2.729-.018" transform="translate(-1.601 -35.595)" fill="#ea695c"/>
    <path id="Trazado_729831" data-name="Trazado 729831" d="M20.635,234.788c-3.4,0-6.8-.1-10.19.039-1.938.08-2.432-.653-2.391-2.478.106-4.7.121-9.41-.006-14.112-.053-1.956.689-2.4,2.493-2.376,6.793.086,13.588.1,20.381-.006,1.934-.03,2.432.656,2.391,2.48-.106,4.7-.121,9.411.006,14.112.054,1.956-.686,2.437-2.494,2.376-3.393-.117-6.793-.034-10.19-.034m-.231-6.3a31.357,31.357,0,0,1,3.9.029c2.358.3,2.671-.831,2.762-2.9.117-2.644-.525-3.826-3.376-3.477a26.155,26.155,0,0,1-5.843,0c-2.6-.272-3.592.416-3.577,3.3.014,2.771,1.07,3.329,3.408,3.056a23.881,23.881,0,0,1,2.729-.017" transform="translate(-1.706 -45.77)" fill="#ea695c"/>
    <path id="Trazado_729832" data-name="Trazado 729832" d="M136.105,184.514h-2.746c-10.51,0-10.469,0-9.5-10.616.137-1.5.533-2.016,2.046-2q10.591.089,21.186,0c1.508-.013,1.911.492,2.048,2,.972,10.624,1.013,10.62-9.5,10.62h-3.53" transform="translate(-26.177 -36.449)" fill="#ffcd58"/>
    <path id="Trazado_729833" data-name="Trazado 729833" d="M216.633,171.919c3.4,0,6.8.061,10.2-.026,1.584-.041,2.56.287,2.285,2.119a2.1,2.1,0,0,0,0,.392c.458,10.11.458,10.11-9.569,10.11-4.446,0-8.894-.051-13.339.027-1.584.028-2.559-.288-2.285-2.12a2.031,2.031,0,0,0,0-.392c-.459-10.109-.459-10.109,9.569-10.109h3.138" transform="translate(-43.209 -36.448)" fill="#ffcd58"/>
    <path id="Trazado_729834" data-name="Trazado 729834" d="M136.865,232.486c-3.4,0-6.8-.091-10.2.035-1.906.07-2.685-.3-2.755-2.506-.318-10.127-.4-10.124,9.623-10.124,4.316,0,8.634.08,12.946-.035,1.9-.051,2.685.3,2.755,2.507.318,10.127.4,10.124-9.623,10.124h-2.746" transform="translate(-26.254 -46.618)" fill="#ffcd58"/>
    <path id="Trazado_729835" data-name="Trazado 729835" d="M216.833,219.9h2.746c10.511,0,10.47,0,9.5,10.619-.137,1.507-.539,2.012-2.049,2q-10.593-.089-21.185,0c-1.513.013-1.909-.5-2.046-2-.966-10.621-1.007-10.617,9.5-10.617h3.531" transform="translate(-43.129 -46.629)" fill="#ffcd58"/>
    <path id="Trazado_729836" data-name="Trazado 729836" d="M49.487,24.011a9.643,9.643,0,0,1,9.474,9.5,9.435,9.435,0,0,1-18.869.076,9.643,9.643,0,0,1,9.4-9.573" transform="translate(-8.501 -5.091)" fill="#ebc1a2"/>
    <path id="Trazado_729837" data-name="Trazado 729837" d="M193.542,55.995a9.44,9.44,0,1,1-9.55,9.418,9.652,9.652,0,0,1,9.55-9.418" transform="translate(-39.014 -11.873)" fill="#ebc1a2"/>
    <path id="Trazado_729838" data-name="Trazado 729838" d="M103.916,15.982c4.457,0,8.923.179,13.366-.067,2.685-.148,2.326,1.439,2.205,2.966-.113,1.436.988,3.494-2.1,3.446-9.042-.14-18.09-.164-27.13.02-2.674.054-2.323-1.443-2.2-2.969.113-1.435-.994-3.562,2.1-3.442,4.58.177,9.173.046,13.761.046" transform="translate(-18.649 -3.373)" fill="#040506"/>
    <path id="Trazado_729839" data-name="Trazado 729839" d="M103.457,38.27c-4.325,0-8.66-.175-12.972.063-2.735.151-2.549-1.365-2.461-3.138.079-1.589-.611-3.342,2.311-3.284,8.909.176,17.828.2,26.735-.007,3.186-.072,2.277,1.874,2.475,3.536.256,2.146-.39,2.985-2.722,2.886-4.449-.19-8.91-.055-13.367-.055" transform="translate(-18.656 -6.765)" fill="#040506"/>
    <path id="Trazado_729840" data-name="Trazado 729840" d="M90.917,54.14c-3.433.924-2.688-1.438-2.964-3.347-.464-3.211,1.542-2.651,3.513-2.908,3.214-.418,2.672,1.549,2.9,3.528.366,3.131-1.367,3.129-3.452,2.727" transform="translate(-18.636 -10.142)" fill="#040506"/>
    <path id="Trazado_729841" data-name="Trazado 729841" d="M107.481,48.024c3.157-.845,2.633,1.336,2.884,3.335.389,3.105-1.416,2.737-3.471,2.971-3.112.353-2.752-1.423-2.966-3.481-.317-3.052,1.276-3.2,3.553-2.824" transform="translate(-22.029 -10.143)" fill="#040506"/>
    <path id="Trazado_729842" data-name="Trazado 729842" d="M123.175,48.041c2.742-.7,3.146.652,3.209,3.09.069,2.621-.767,3.191-3.268,3.224-2.616.035-3.214-.769-3.216-3.276,0-2.555.628-3.691,3.274-3.038" transform="translate(-25.424 -10.147)" fill="#040506"/>
    <path id="Trazado_729843" data-name="Trazado 729843" d="M22,134.221a20.326,20.326,0,0,0-2.729.02c-2.471.339-3.343-.5-3.311-3.139.032-2.518.66-3.492,3.25-3.224a32.127,32.127,0,0,0,6.234,0c2.479-.229,3.345.522,3.313,3.16-.031,2.518-.666,3.568-3.25,3.207A25.65,25.65,0,0,0,22,134.221" transform="translate(-3.385 -27.106)" fill="#040506"/>
    <path id="Trazado_729844" data-name="Trazado 729844" d="M22.053,182.2a22.185,22.185,0,0,0-2.729.018c-2.388.3-3.444-.358-3.358-3.09.076-2.427.519-3.561,3.2-3.276a31.369,31.369,0,0,0,6.622,0c2.591-.278,2.916.889,2.953,3.116.041,2.448-.51,3.655-3.182,3.261a24.209,24.209,0,0,0-3.507-.028" transform="translate(-3.384 -37.278)" fill="#040506"/>
    <path id="Trazado_729845" data-name="Trazado 729845" d="M22.078,230.169a23.7,23.7,0,0,0-2.729.017c-2.338.273-3.394-.285-3.408-3.056-.015-2.886.975-3.573,3.577-3.3a26.155,26.155,0,0,0,5.843,0c2.852-.349,3.493.833,3.376,3.477-.091,2.065-.4,3.194-2.762,2.9a31.361,31.361,0,0,0-3.9-.028" transform="translate(-3.38 -47.447)" fill="#040506"/>
  </g>
</svg>
