<svg id="Grupo_991471" data-name="Grupo 991471" xmlns="http://www.w3.org/2000/svg" xmlns:xlink="http://www.w3.org/1999/xlink" width="179.742" height="179.723" viewBox="0 0 179.742 179.723">
  <defs>
    <clipPath id="clip-path">
      <rect id="Rectángulo_346587" data-name="Rectángulo 346587" width="179.742" height="179.723" fill="none"/>
    </clipPath>
  </defs>
  <g id="Grupo_988745" data-name="Grupo 988745" clip-path="url(#clip-path)">
    <path id="Trazado_729846" data-name="Trazado 729846" d="M37.554,65.684C26.572,54.722,15.975,44.169,5.405,33.588c-7.246-7.254-7.2-14.8.091-22.115q2.638-2.651,5.289-5.292C19-2.019,26.109-2.06,34.228,6.06c2.38,2.38,4.736,4.785,7.795,7.878,0-3.392-.006-6.029,0-8.665.013-4.719.42-5.14,5.125-5.14Q107.56.126,167.973.13c2.493,0,4.991.089,7.479-.022,2.992-.134,4.378,1.1,4.286,4.167-.111,3.737-.025,7.48-.025,11.221q0,73.69,0,147.38c0,10.9-5.931,16.845-16.805,16.846q-58.169,0-116.335,0c-10.407,0-16.508-6.059-16.519-16.384-.007-7.357.019-14.713-.025-22.069-.007-1.028.562-2.314-.794-3-1.477-.751-2.006.646-2.689,1.361-5.89,6.155-5.706,5.184-10.98-.088-2.558-2.556-5.061-5.17-7.7-7.645-2.156-2.026-2.317-3.789-.156-6.005,1.479-1.518,4.648-2.816,3.809-4.916-.973-2.439-4.189-.948-6.4-1.055-4.5-.217-4.99-.544-5-4.947-.015-4.862.1-9.728-.039-14.587-.088-3.144,1.07-4.464,4.335-4.567,2.432-.076,5.95,1.657,7.094-1.068.887-2.107-2.574-3.486-4.081-5.175-1.83-2.052-1.633-3.638.219-5.444,3.569-3.483,7.107-7,10.573-10.584,1.98-2.051,3.791-2.129,5.682.011a1.2,1.2,0,0,0,.27.257c1.819,1.052,2.556,4.588,5.012,3.473,2.029-.92.743-3.832.81-5.831.17-5.056.061-5.06,7.559-5.77M48.238,76.747a7.8,7.8,0,0,0-.217,1.2c-.01,21.073.046,42.146-.081,63.22-.016,2.619,1.082,2.68,3.068,2.668,11.472-.067,22.944-.032,34.416-.032,7.364,0,7.485,0,7.428-7.5-.025-3.478,1.422-4.7,4.728-4.5,2.734.158,5.488-.059,8.227.066,1.651.076,2.171-.468,2.094-2.107-.234-4.944,1.058-9.857-4.119-13.906a7.836,7.836,0,0,0-6.822-1.8c-2.142.393-.726,2.886-1.018,4.418a14.335,14.335,0,0,0-.031,3.358c.144,2.847-1.173,4.058-4.021,4.038-9.228-.063-18.456-.079-27.682.008-3.013.029-4.3-1.154-4.257-4.205.1-7.107.115-14.217-.007-21.322-.055-3.169,1.116-4.532,4.372-4.477,7.354.124,14.714.007,22.07.046,9.9.053,9.7-1.342,9.519,9.349-.008.5,0,1,.013,1.5.01.522.179,1.142.741,1.051,2.327-.38,4.87,1.242,6.877-1.879,3.507-5.452,10.972-5.654,14.413-.308,1.965,3.053,4.461,2.533,6.7,2.1,2.487-.483.712-3.089,1.146-4.691a7.589,7.589,0,0,0,.027-2.607c-.314-3.44,1.3-4.613,4.64-4.563,8.977.134,17.957.12,26.935.007,3.234-.041,4.454,1.265,4.4,4.454-.124,6.981-.144,13.967.008,20.947.074,3.4-1.238,4.682-4.625,4.617-7.6-.146-15.212-.076-22.819-.038-8.972.045-8.588.561-8.573-8.489,0-1.144.957-3.262-.96-3.338-2.064-.082-4.743-1.481-6.262,1.436a6.125,6.125,0,0,1-2.836,2.892c-1.67.728-2,1.9-1.884,3.527.107,1.489.022,2.991.022,4.487,0,5.462,0,5.438,5.408,5.466,10.027.052,9.765-1.268,9.515,9.309-.048,2.076.481,2.757,2.644,2.711,6.6-.142,13.219.06,19.824-.1,3.447-.082,4.657,1.34,4.557,4.681-.161,5.357-.084,10.723-.028,16.084a8.687,8.687,0,0,0,5.623,8.47c6.363,2.708,12.314-2.028,12.315-9.78q.015-76.687.085-153.374c.008-3.167-.813-3.8-3.865-3.794-37.533.115-75.067.07-112.6.084-2.973,0-6.936-1.018-8.66.482-2.036,1.771-.559,5.841-.612,8.907-.033,1.871-.655,3.839,1.125,5.575C56.33,28.054,63.328,35.164,70.4,42.2c.562.56,1.082,1.7,2.1,1.068,4.295-2.66,8.978-.6,13.437-1.2,2.115-.287,3.881.517,3.915,2.883.038,2.627-1.873,3.148-4.125,3.095-2.934-.068-5.87-.016-9.02-.016,3.867,5.985,3.867,5.985,10.166,5.985h22.071q3.74,0,7.482,0c2.075,0,3.416.976,3.369,3.092-.042,1.9-1.286,2.866-3.2,2.889-.873.011-1.746,0-2.619,0-9.477,0-18.954-.019-28.43.033-.824,0-2.038-.635-2.448.765-.634,2.163,1.674,5.177,3.981,5.181,9.476.014,18.953.032,28.43-.013,2.2-.01,4.222.311,4.271,2.948s-1.9,3.1-4.141,3.078c-6.733-.052-13.468-.1-20.2.018-3.046.052-7.163-1.391-8.792.672-1.126,1.426,1.244,5.45,1.736,8.365.426,2.524,1.713,2.979,4.061,2.954,11.844-.124,23.695-.229,35.535.049,3.518.082,3.934-1.088,3.913-4.142-.137-19.077-.019-38.156-.115-57.234-.017-3.383,1.21-4.7,4.611-4.625,7.1.152,14.216.1,21.322.022,2.827-.029,4.076,1.134,4.07,4q-.07,26,0,52c.007,2.925-1.388,3.968-4.159,3.912-4.362-.088-8.728-.023-13.092-.023-6.692,0-6.692,0-6.715,6.773-.016,4.767-.416,5.194-5.072,5.2-13.343.008-26.686-.069-40.027.046a35.768,35.768,0,0,1-12.115-1.6c-10.8-3.715-22.717-4.253-32.354-11.627M152.56,173.733a17.948,17.948,0,0,1-2.818-10.071c.157-3.856-.047-7.726.073-11.586.053-1.764-.437-2.405-2.275-2.325-3.232.141-6.478.039-9.717.039q-49.158,0-98.317-.058c-2.627-.007-3.816.369-3.538,3.361.31,3.336.061,6.722.073,10.087.026,7.048,3.5,10.54,10.545,10.547q21.495.024,42.991.005H152.56M137.809,48.017c0,7.1.076,14.2-.049,21.3-.037,2.1.532,2.776,2.67,2.7,4.355-.163,8.72-.131,13.077-.01,1.8.05,2.3-.516,2.293-2.3q-.1-21.674,0-43.351c.008-1.775-.467-2.363-2.284-2.312-4.356.124-8.722.152-13.076-.008-2.126-.078-2.717.578-2.68,2.687.127,7.1.049,14.2.049,21.3M42.026,78.244a21.979,21.979,0,0,1,.028-3.362c.416-2.657-.919-2.96-3.168-3-2.293-.04-3.348.6-2.837,2.906,1.218,5.5-1.816,7.806-6.49,9.287a3.873,3.873,0,0,1-4.354-.788c-4.383-3.915-4.418-3.875-8.486.194a11.569,11.569,0,0,1-1.333,1.31c-2.037,1.457-1.871,2.7-.025,4.33,1.429,1.259,3.452,2.362,3.357,4.684a8.212,8.212,0,0,1-8.445,8.09,14.789,14.789,0,0,1-1.867-.012c-1.769-.227-2.532.449-2.323,2.274a26.37,26.37,0,0,1,.019,2.991c0,6.442,0,6.621,6.442,6.666,4.609.032,3.873,4.163,5.523,6.45,1.254,1.738.548,3.166-.8,4.617-3.837,4.118-3.792,4.159.264,8.215a13.348,13.348,0,0,1,1.571,1.6c1.422,2.016,2.568,1.59,4.067-.055,1.29-1.417,2.37-3.439,4.646-3.455a8.428,8.428,0,0,1,8.225,8.308,18.672,18.672,0,0,1-.014,2.243c-.2,1.67.567,1.98,2.123,2.133,2.967.291,4.424-.434,3.931-3.748a23.748,23.748,0,0,1-.013-5.6c.189-2.058-.53-2.56-2.6-2.839C27.3,130.043,18.414,120.483,18.084,109c-.358-12.459,7.686-22.6,20.3-24.672,3.42-.56,4.028-1.768,3.655-4.586a11.445,11.445,0,0,1-.009-1.5m34.967,41.611c3.86,0,7.1-.083,10.337.032,1.829.064,2.7-.322,2.628-2.422-.153-4.356-.138-8.722-.005-13.079.061-1.969-.559-2.576-2.526-2.528-5.105.125-10.215.041-15.323.041-6.132,0-6.158,0-6.123,6.314.021,3.72-1.288,8.672.583,10.835,2.159,2.495,7.252.438,10.43.806m66.68,0c3.242,0,6.486-.074,9.724.03,1.7.055,2.455-.358,2.4-2.249q-.182-6.728,0-13.463c.046-1.821-.587-2.329-2.35-2.305-6.482.087-12.966.07-19.448.009-1.533-.013-2.246.341-2.21,2.057q.145,6.916,0,13.837c-.034,1.661.557,2.159,2.159,2.112,3.238-.1,6.481-.028,9.723-.028M54.277,73.4c3.484,2.8,7.646,3.573,11.694,4.641A2.179,2.179,0,0,0,68.3,77.38c2.961-3.009,5.956-5.984,8.954-8.956a2.164,2.164,0,0,0,.814-2.284c-1.12-4.155-1.819-8.474-4.665-11.8C67.029,60.695,60.723,66.98,54.277,73.4m7.08-15.872c-.147-1.494-1.113-1.993-1.785-2.668-8.6-8.638-17.3-17.182-25.794-25.924-1.972-2.029-2.954-1.554-4.645.178-1.635,1.674-2.325,2.62-.234,4.647,8.751,8.485,17.282,17.2,25.939,25.778.708.7,1.314,2.35,2.568,1.563a27.618,27.618,0,0,0,3.951-3.575M24.062,107.895a17.9,17.9,0,0,0,13.691,17.327c4.476,1.131,4.6.948,4.334-3.587-.089-1.533-.681-1.73-1.958-1.915a11.06,11.06,0,0,1-5.692-2.574c-3.59-3.1-5.154-7.065-4.146-11.673a11.508,11.508,0,0,1,9.863-9.418c3.807-.66,1.575-3.324,1.739-4.943.22-2.177-1.79-1.089-2.722-.926a18.065,18.065,0,0,0-15.109,17.71M6.1,22.756a8.513,8.513,0,0,0,.25,1.508c.487,1.541.948,3.435,2.489,3.938,1.4.458,2.16-1.377,3.089-2.287,4.872-4.779,9.682-9.624,14.5-14.458C29,8.876,28.832,8.119,25.339,6.772a8.226,8.226,0,0,0-2.872-.625C17.851,6.149,6.21,17.794,6.1,22.756m32.221-3.074c-.448.522-1.22,1.324-1.877,2.212-.938,1.267.389,1.766.994,2.374,8.945,9,17.945,17.94,26.871,26.956,1.211,1.223,1.951,1.429,3.277.1,1.347-1.347,1.485-2.126.04-3.549-9.037-8.9-17.972-17.912-26.956-26.869a2.664,2.664,0,0,0-2.349-1.226M52.677,66.008c-.514-.589-.881-1.063-1.3-1.484-9.142-9.15-18.314-18.271-27.411-27.466-1.283-1.3-1.978-.8-2.991.213-1.07,1.074-1.785,1.8-.3,3.262,9.209,9.083,18.322,18.262,27.477,27.4.577.575,1.143,1.52,2.129.57.786-.759,1.518-1.575,2.4-2.5M110.668,143.8c3.354,0,6.717-.145,10.061.048,2.461.142,2.2-1.355,2.094-2.838-.1-1.41.811-3.308-2.067-3.241q-9.87.231-19.752,0c-2.452-.058-2.2,1.359-2.094,2.844.1,1.411-.812,3.393,2.07,3.232,3.22-.18,6.458-.041,9.688-.041M15.046,34.559a8.185,8.185,0,0,0,1.024-.724Q25.021,24.9,33.958,15.953a1.02,1.02,0,0,0,.1-1.6c-.569-.623-1.141-.9-1.865-.174q-9.06,9.087-18.133,18.163a.862.862,0,0,0-.086,1.306,13.607,13.607,0,0,0,1.077.91m26.989,67.288c-3.791.686-5.734,2.562-5.948,5.8a5.608,5.608,0,0,0,3.527,5.628c1.6.777,2.52.806,2.448-1.417-.106-3.222-.027-6.449-.027-10.008m40.3-19.538c-.414-1.759-.693-3.071-1.035-4.367-1.072-4.068-1.129-4.112-3.94-1.182-.973,1.015-2.931,1.763-2.474,3.35.4,1.375,2.429.8,3.657,1.386a18.231,18.231,0,0,0,3.792.813M113.9,110.962c-.234-1.818-1.154-3.019-3.04-3.038a2.949,2.949,0,0,0-.157,5.894c1.888.137,2.851-1.079,3.2-2.856" transform="translate(0 0)" fill="#060708"/>
    <path id="Trazado_729847" data-name="Trazado 729847" d="M64.208,78.689c9.637,7.374,21.558,7.911,32.355,11.627a35.765,35.765,0,0,0,12.115,1.6c13.341-.115,26.685-.037,40.027-.046,4.655,0,5.056-.43,5.072-5.2.022-6.773.022-6.773,6.714-6.773,4.365,0,8.73-.065,13.093.023,2.77.056,4.165-.988,4.159-3.912q-.062-26,0-52c.007-2.869-1.241-4.031-4.069-4-7.107.073-14.218.13-21.322-.022-3.4-.073-4.628,1.243-4.612,4.626.1,19.078-.022,38.157.115,57.234.022,3.053-.4,4.225-3.912,4.142-11.84-.278-23.691-.173-35.536-.049-2.347.025-3.634-.43-4.061-2.955-.492-2.916-2.863-6.938-1.736-8.364,1.629-2.064,5.746-.62,8.793-.672,6.731-.118,13.467-.07,20.2-.018,2.246.018,4.19-.451,4.141-3.078s-2.071-2.958-4.271-2.948c-9.476.046-18.953.028-28.431.013-2.307,0-4.615-3.018-3.981-5.181.41-1.4,1.623-.761,2.448-.765,9.476-.052,18.953-.033,28.431-.033.873,0,1.746.007,2.618,0,1.914-.023,3.16-.994,3.2-2.889.046-2.117-1.295-3.094-3.369-3.092q-3.741,0-7.482,0H102.839c-6.3,0-6.3,0-10.166-5.985,3.149,0,6.085-.052,9.019.016,2.252.052,4.163-.468,4.125-3.095-.034-2.367-1.8-3.17-3.915-2.883-4.459.6-9.142-1.455-13.437,1.2-1.013.627-1.533-.508-2.1-1.068C79.3,37.106,72.3,30,65.161,23.032c-1.78-1.736-1.157-3.7-1.125-5.575.054-3.065-1.423-7.136.612-8.907,1.725-1.5,5.688-.481,8.661-.483,37.533-.013,75.067.032,112.6-.083,3.051-.01,3.873.627,3.866,3.794q-.173,76.687-.086,153.374c0,7.753-5.952,12.487-12.316,9.78a8.687,8.687,0,0,1-5.622-8.47c-.055-5.361-.133-10.727.028-16.084.1-3.34-1.11-4.763-4.557-4.681-6.606.157-13.219-.045-19.825.1-2.162.047-2.692-.634-2.642-2.71.249-10.578.511-9.258-9.516-9.309-5.408-.028-5.408,0-5.408-5.466,0-1.5.085-3-.022-4.487-.118-1.624.213-2.8,1.884-3.527a6.12,6.12,0,0,0,2.836-2.892c1.519-2.917,4.2-1.518,6.263-1.436,1.917.076.961,2.193.96,3.338-.013,9.049-.4,8.534,8.573,8.489,7.607-.037,15.215-.108,22.819.038,3.389.065,4.7-1.22,4.626-4.617-.152-6.98-.131-13.967-.007-20.947.057-3.188-1.162-4.495-4.4-4.454-8.977.113-17.958.127-26.934-.007-3.342-.05-4.954,1.124-4.64,4.564a7.608,7.608,0,0,1-.026,2.607c-.435,1.6,1.34,4.208-1.147,4.691-2.237.434-4.734.955-6.7-2.1-3.441-5.346-10.906-5.146-14.413.308-2.007,3.121-4.549,1.5-6.878,1.878-.561.091-.73-.528-.741-1.05-.01-.5-.021-1-.013-1.5.182-10.692.383-9.3-9.518-9.349-7.357-.039-14.715.078-22.071-.046-3.256-.055-4.427,1.308-4.372,4.477.124,7.105.106,14.215.007,21.321-.042,3.051,1.244,4.234,4.257,4.206,9.227-.088,18.455-.071,27.682-.008,2.848.019,4.165-1.191,4.022-4.038a14.343,14.343,0,0,1,.031-3.359c.293-1.53-1.125-4.024,1.018-4.418a7.839,7.839,0,0,1,6.822,1.8c5.176,4.049,3.884,8.962,4.119,13.906.078,1.639-.443,2.182-2.094,2.107-2.737-.125-5.493.092-8.227-.067-3.307-.191-4.754,1.027-4.728,4.505.056,7.5-.065,7.5-7.429,7.5-11.472,0-22.944-.034-34.416.032-1.986.012-3.083-.049-3.068-2.668.127-21.073.071-42.146.081-63.22a7.89,7.89,0,0,1,.217-1.2M112.154,32c-6.717,0-13.434.032-20.151-.017-2.282-.017-4.122.584-4.009,3.19.1,2.361,1.9,2.84,4,2.834q19.777-.056,39.556,0c2.219.007,4.191-.39,4.195-3.01s-1.965-3.035-4.187-3.016c-6.468.055-12.936.019-19.4.019m12.039,11.97c-2.856,0-5.712.033-8.567-.01-2.183-.034-3.757.777-3.7,3.119.054,2.1,1.519,2.907,3.555,2.895q8.38-.051,16.76,0c2.043.01,3.488-.836,3.512-2.936.028-2.345-1.572-3.119-3.744-3.077-2.606.05-5.214.012-7.821.012M102.864,26.02q2.79,0,5.58,0c2.059,0,3.4-.963,3.375-3.063-.017-1.885-1.235-2.9-3.137-2.918-3.843-.028-7.688-.017-11.532,0-1.9.006-3.135.988-3.186,2.87-.057,2.1,1.255,3.1,3.32,3.113,1.86.01,3.72,0,5.58,0m23.616,0c1.984,0,3.968.006,5.952,0,2.063-.007,3.381-1,3.333-3.1-.044-1.882-1.275-2.872-3.178-2.88-3.843-.016-7.688-.022-11.531,0-1.9.012-3.122,1.022-3.146,2.908-.027,2.1,1.3,3.074,3.363,3.073h5.208" transform="translate(-15.971 -1.943)" fill="#e2e9ef"/>
    <path id="Trazado_729848" data-name="Trazado 729848" d="M164.615,223.973H101.63q-21.5,0-42.991,0c-7.045-.008-10.519-3.5-10.545-10.547-.012-3.365.237-6.752-.073-10.087-.279-2.992.91-3.368,3.537-3.361q49.159.133,98.318.058c3.24,0,6.484.1,9.718-.039,1.837-.079,2.329.561,2.274,2.325-.12,3.859.084,7.729-.073,11.586a17.947,17.947,0,0,0,2.818,10.07" transform="translate(-12.055 -50.24)" fill="#d2d4d6"/>
    <path id="Trazado_729849" data-name="Trazado 729849" d="M184.03,56.077c0-7.1.079-14.2-.049-21.3-.037-2.109.554-2.765,2.679-2.687,4.355.16,8.721.132,13.078.008,1.816-.052,2.293.538,2.284,2.312q-.1,21.676,0,43.351c.008,1.787-.49,2.353-2.294,2.3-4.356-.121-8.723-.153-13.077.009-2.139.08-2.707-.6-2.67-2.7.125-7.1.048-14.2.048-21.3" transform="translate(-46.222 -8.061)" fill="#d2d4d6"/>
    <path id="Trazado_729850" data-name="Trazado 729850" d="M44.055,102.363a11.577,11.577,0,0,0,.009,1.5c.373,2.818-.236,4.025-3.655,4.586-12.608,2.067-20.653,12.212-20.294,24.672.33,11.485,9.214,21.045,21.375,22.685,2.072.279,2.79.781,2.6,2.839a23.748,23.748,0,0,0,.013,5.6c.493,3.314-.964,4.039-3.93,3.748-1.557-.152-2.324-.463-2.123-2.133a18.818,18.818,0,0,0,.013-2.243,8.429,8.429,0,0,0-8.225-8.309c-2.276.016-3.355,2.039-4.646,3.455-1.5,1.645-2.645,2.071-4.066.055a13.291,13.291,0,0,0-1.572-1.6c-4.056-4.056-4.1-4.1-.263-8.215,1.352-1.451,2.058-2.879.8-4.617-1.65-2.287-.913-6.418-5.523-6.45-6.442-.046-6.442-.224-6.441-6.665a26.546,26.546,0,0,0-.019-2.991c-.209-1.825.553-2.5,2.322-2.274a14.676,14.676,0,0,0,1.869.011,8.21,8.21,0,0,0,8.444-8.09c.094-2.321-1.927-3.425-3.357-4.684-1.846-1.626-2.013-2.873.025-4.331a11.557,11.557,0,0,0,1.332-1.309c4.07-4.07,4.1-4.108,8.487-.194a3.871,3.871,0,0,0,4.353.788c4.675-1.48,7.709-3.786,6.491-9.286-.511-2.308.543-2.946,2.837-2.906,2.249.039,3.584.342,3.168,3a21.987,21.987,0,0,0-.028,3.363" transform="translate(-2.029 -24.119)" fill="#207ec3"/>
    <path id="Trazado_729851" data-name="Trazado 729851" d="M98.988,154.031c-3.178-.368-8.271,1.689-10.429-.806-1.872-2.164-.563-7.115-.584-10.836-.034-6.313-.01-6.314,6.123-6.314,5.108,0,10.218.084,15.323-.04,1.967-.048,2.588.558,2.528,2.527-.134,4.356-.147,8.723,0,13.079.073,2.1-.8,2.487-2.627,2.422-3.235-.115-6.478-.032-10.337-.032" transform="translate(-21.996 -34.176)" fill="#e02930"/>
    <path id="Trazado_729852" data-name="Trazado 729852" d="M187.892,154.034c-3.241,0-6.485-.067-9.723.028-1.6.047-2.192-.451-2.159-2.112q.14-6.916,0-13.837c-.036-1.716.678-2.071,2.21-2.057,6.483.06,12.966.078,19.448-.009,1.763-.024,2.4.484,2.35,2.305-.112,4.485-.12,8.978,0,13.462.051,1.891-.706,2.3-2.405,2.25-3.238-.1-6.482-.031-9.723-.031" transform="translate(-44.22 -34.18)" fill="#4ca76e"/>
    <path id="Trazado_729853" data-name="Trazado 729853" d="M72.488,91.637,91.613,72.578c2.846,3.322,3.545,7.64,4.666,11.8a2.164,2.164,0,0,1-.814,2.284c-3,2.972-5.993,5.947-8.953,8.956a2.18,2.18,0,0,1-2.33.664c-4.048-1.068-8.209-1.841-11.693-4.641" transform="translate(-18.212 -18.234)" fill="#f5ddca"/>
    <path id="Trazado_729854" data-name="Trazado 729854" d="M70.615,66.794a27.662,27.662,0,0,1-3.951,3.575c-1.254.786-1.861-.862-2.568-1.564-8.657-8.582-17.189-17.293-25.939-25.778-2.091-2.028-1.4-2.973.234-4.647,1.691-1.733,2.673-2.208,4.645-.178,8.495,8.741,17.192,17.286,25.794,25.924.672.675,1.638,1.174,1.785,2.668" transform="translate(-9.259 -9.263)" fill="#0063a5"/>
    <path id="Trazado_729855" data-name="Trazado 729855" d="M32.136,138.015A18.064,18.064,0,0,1,47.245,120.3c.931-.162,2.941-1.25,2.722.926-.163,1.619,2.068,4.283-1.739,4.943a11.51,11.51,0,0,0-9.863,9.418c-1.008,4.608.556,8.573,4.146,11.673a11.054,11.054,0,0,0,5.692,2.574c1.277.186,1.869.383,1.958,1.915.263,4.536.142,4.719-4.334,3.588a17.9,17.9,0,0,1-13.691-17.328" transform="translate(-8.074 -30.121)" fill="#dde3e8"/>
    <path id="Trazado_729856" data-name="Trazado 729856" d="M8.141,24.818C8.255,19.855,19.9,8.21,24.512,8.208a8.222,8.222,0,0,1,2.872.625c3.494,1.347,3.657,2.1,1.084,4.686-4.818,4.834-9.628,9.679-14.5,14.459-.928.91-1.688,2.745-3.089,2.287-1.54-.5-2-2.4-2.489-3.939a8.568,8.568,0,0,1-.249-1.508" transform="translate(-2.045 -2.062)" fill="#d8282e"/>
    <path id="Trazado_729857" data-name="Trazado 729857" d="M50.433,26.285a2.664,2.664,0,0,1,2.349,1.226c8.984,8.958,17.919,17.966,26.956,26.87,1.444,1.423,1.307,2.2-.04,3.548-1.325,1.326-2.066,1.121-3.277-.1C67.494,48.811,58.5,39.868,49.55,30.872c-.6-.609-1.933-1.108-.994-2.375.657-.887,1.429-1.69,1.877-2.212" transform="translate(-12.117 -6.604)" fill="#1b7abf"/>
    <path id="Trazado_729858" data-name="Trazado 729858" d="M59.329,78.179c-.881.921-1.614,1.736-2.4,2.5-.985.95-1.552.005-2.129-.57-9.155-9.138-18.268-18.318-27.477-27.4-1.483-1.462-.768-2.188.3-3.262,1.014-1.017,1.708-1.511,2.991-.213,9.1,9.195,18.269,18.316,27.411,27.466.42.421.788.895,1.3,1.484" transform="translate(-6.653 -12.172)" fill="#1b7abf"/>
    <path id="Trazado_729859" data-name="Trazado 729859" d="M143.836,190.025c-3.23,0-6.468-.139-9.688.041-2.881.161-1.97-1.821-2.07-3.232-.1-1.485-.358-2.9,2.094-2.843q9.871.232,19.751,0c2.879-.067,1.968,1.831,2.067,3.241.1,1.483.368,2.979-2.094,2.837-3.343-.193-6.706-.048-10.06-.048" transform="translate(-33.167 -46.225)" fill="#ffc826"/>
    <path id="Trazado_729860" data-name="Trazado 729860" d="M19.645,39.17a13.636,13.636,0,0,1-1.077-.909.861.861,0,0,1,.086-1.306q9.058-9.09,18.133-18.163c.724-.727,1.3-.45,1.864.173a1.021,1.021,0,0,1-.094,1.6Q29.612,29.5,20.668,38.447a8.289,8.289,0,0,1-1.023.723" transform="translate(-4.599 -4.612)" fill="#eab120"/>
    <path id="Trazado_729861" data-name="Trazado 729861" d="M54.137,136.02c0,3.559-.079,6.786.027,10.007.073,2.224-.851,2.2-2.448,1.418a5.609,5.609,0,0,1-3.527-5.628c.214-3.235,2.157-5.112,5.948-5.8" transform="translate(-12.103 -34.173)" fill="#0063a5"/>
    <path id="Trazado_729862" data-name="Trazado 729862" d="M107.437,107.375a18.251,18.251,0,0,1-3.79-.813c-1.229-.585-3.262-.01-3.658-1.386-.457-1.587,1.5-2.336,2.474-3.35,2.812-2.93,2.869-2.886,3.941,1.182.341,1.3.619,2.608,1.033,4.367" transform="translate(-25.104 -25.066)" fill="#2f3336"/>
    <path id="Trazado_729863" data-name="Trazado 729863" d="M150.1,147.175c-.347,1.777-1.309,2.993-3.2,2.856a2.949,2.949,0,0,1,.157-5.894c1.886.019,2.806,1.22,3.04,3.038" transform="translate(-36.208 -36.212)" fill="#1b7abf"/>
    <path id="Trazado_729864" data-name="Trazado 729864" d="M120.348,40.141c6.469,0,12.937.036,19.4-.019,2.222-.019,4.191.393,4.187,3.016s-1.975,3.017-4.195,3.01q-19.779-.058-39.557,0c-2.1.006-3.9-.473-4-2.834-.113-2.606,1.727-3.207,4.009-3.19,6.717.049,13.434.017,20.151.017" transform="translate(-24.165 -10.08)" fill="#060708"/>
    <path id="Trazado_729865" data-name="Trazado 729865" d="M140.42,56.13c2.607,0,5.215.038,7.822-.012,2.171-.042,3.772.732,3.744,3.077-.025,2.1-1.469,2.946-3.513,2.936q-8.38-.039-16.76,0c-2.037.012-3.5-.791-3.556-2.895-.06-2.342,1.514-3.153,3.7-3.119,2.854.043,5.71.01,8.566.01" transform="translate(-32.197 -14.099)" fill="#090a0a"/>
    <path id="Trazado_729866" data-name="Trazado 729866" d="M113.062,30.144c-1.86,0-3.72.007-5.58,0-2.065-.01-3.377-1.014-3.32-3.113.051-1.882,1.282-2.864,3.186-2.87,3.844-.013,7.688-.023,11.532,0,1.9.013,3.119,1.033,3.137,2.918.019,2.1-1.316,3.066-3.375,3.063q-2.79,0-5.58,0" transform="translate(-26.169 -6.066)" fill="#090a0a"/>
    <path id="Trazado_729867" data-name="Trazado 729867" d="M144.713,30.144h-5.208c-2.06,0-3.39-.971-3.363-3.073.025-1.886,1.244-2.9,3.146-2.908,3.843-.025,7.688-.019,11.531,0,1.9.008,3.134,1,3.178,2.88.049,2.1-1.27,3.094-3.333,3.1-1.984.007-3.968,0-5.952,0" transform="translate(-34.204 -6.066)" fill="#090a0a"/>
  </g>
</svg>
