<svg id="Grupo_988787" data-name="Grupo 988787" xmlns="http://www.w3.org/2000/svg" xmlns:xlink="http://www.w3.org/1999/xlink" width="87.061" height="87.024" viewBox="0 0 87.061 87.024">
  <defs>
    <clipPath id="clip-path">
      <rect id="Rectángulo_346623" data-name="Rectángulo 346623" width="87.061" height="87.024" fill="none"/>
    </clipPath>
  </defs>
  <g id="Grupo_988786" data-name="Grupo 988786" clip-path="url(#clip-path)">
    <path id="Trazado_729907" data-name="Trazado 729907" d="M81.054,40.455c1.115-.48,1.751.074,2.368.96C91.992,53.733,84.6,71.676,69.816,74.463a17.031,17.031,0,0,1-5.4.316c-1.743-.233-2.189.4-1.936,1.97a4.339,4.339,0,0,1-.032,1.354,3.111,3.111,0,0,1-3.126,2.781,35.093,35.093,0,0,1-3.564-.006c-.884-.053-1.227.217-1.134,1.124a9.683,9.683,0,0,1-.018,2.034,3.051,3.051,0,0,1-3.261,2.977q-24.025.022-48.051,0c-2.115,0-3.278-1.247-3.279-3.443Q.007,52.244,0,20.917c0-1.025.2-1.794,1.369-1.944,1.493.345,1.24,1.549,1.241,2.591q.012,30.554-.007,61.108c0,1.066-.01,1.781,1.461,1.776q23.255-.076,46.509,0c1.862.007,1.326-1.129,1.454-2.11.158-1.211-.295-1.489-1.475-1.475-5.431.067-10.863.02-16.295.039-.9,0-1.706-.067-2.078-1.054.056-1.514,1.091-1.6,2.253-1.6q11.509-.021,23.018-.077c.8-.083,1.894.658,2.338-.458.836-2.1-.1-3.693-2.337-4.294a14.6,14.6,0,0,0-9.2-2.467c-8.092.2-16.194.065-24.291.065-2.378,0-4.757-.014-7.135.007-.909.008-1.661-.3-1.7-1.242-.049-1.053.736-1.424,1.708-1.419.4,0,.793,0,1.189,0H50.057a9.749,9.749,0,0,1-1.3-1.568c-.8-1.66-2.1-1.938-3.844-1.921-9.116.089-18.233.042-27.35.04a8.694,8.694,0,0,1-1.356-.038,1.229,1.229,0,0,1-1.1-1.3,1.209,1.209,0,0,1,1.009-1.209,7.361,7.361,0,0,1,1.517-.086q13.166-.007,26.331-.011a3.779,3.779,0,0,0,1.863-.168,6.481,6.481,0,0,1-.526-1.417c-.2-1.606-1.063-1.942-2.613-1.925-8.323.089-16.648.042-24.972.042-.453,0-.906,0-1.359-.009a1.2,1.2,0,0,1-1.239-1.159,1.237,1.237,0,0,1,1.185-1.39,10.245,10.245,0,0,1,1.524-.051c8.268,0,16.535.01,24.8-.029.548,0,1.778.564,1.475-.806-.218-.981.879-2.725-1.538-2.7-8.323.086-16.648.033-24.972.033-.453,0-.908.017-1.358-.019a1.172,1.172,0,0,1-1.126-1.249,1.132,1.132,0,0,1,.99-1.2,11.183,11.183,0,0,1,1.688-.1q11.976-.009,23.953,0c2.525,0,2.5-.006,3.057-2.366.2-.834.147-1.222-.885-1.179-1.922.08-3.85.023-5.775.023q-10.448,0-20.9.005c-1,0-2.139.054-2.116-1.285s1.191-1.261,2.172-1.246c.34.005.679,0,1.02,0q13.166,0,26.331-.014c.57,0,1.266.309,1.682-.422.572-1.005,1.157-2,1.815-3.139H17.861c-.51,0-1.019-.007-1.529-.014a1.151,1.151,0,0,1-1.215-1.161,1.169,1.169,0,0,1,1.227-1.316c.508-.026,1.019-.02,1.528-.02q15.629,0,31.258-.01c.544,0,1.119.167,1.631-.238,1.446-1.143,2.91-2.262,4.367-3.391l-.038.039a7,7,0,0,0,2.364-1.066c1.933-.124,2.47-1.1,2.441-3.048-.123-8.463-.053-16.928-.053-25.393,0-2.4,0-2.4-2.388-2.184a2.773,2.773,0,0,0-.5-.09c-15.058-.007-30.117.008-45.175-.04-1.456,0-1.314.8-1.314,1.732q.01,36.089-.024,72.179c0,1.372.295,1.839,1.753,1.813,5.15-.092,10.3-.02,15.454-.049,1.054-.006,1.908.18,2.289,1.29A1.667,1.667,0,0,1,28.1,80.912c-5.663-.031-11.327.006-16.99-.027a3.09,3.09,0,0,1-3.27-3.321c-.033-1.528-.007-3.058-.007-4.587q0-31.262.038-62.523c0-1.478-.426-1.757-1.786-1.708-3.821.136-3.409-.365-3.463,1.777-.036,1.415-.019,2.832,0,4.248.01.935-.241,1.677-1.248,1.949A1.547,1.547,0,0,1,0,14.924c.045-1.866-.017-3.735.021-5.6A3.077,3.077,0,0,1,3.068,6.139c.394-.027.792,0,1.188-.007,1.125-.02,2.508.344,3.3-.18s.169-1.989.283-3.036a3.123,3.123,0,0,1,3.333-2.9c2.716-.025,5.432-.006,8.149-.006H58.372c3.115,0,4.122,1.02,4.124,4.19,0,8.658.035,17.317-.032,25.975-.011,1.424.213,1.925,1.8,1.8a20.551,20.551,0,0,1,14.4,4.375c.758.575,1.649,1.16.947,2.351-.956.847-1.742.307-2.535-.3a15.663,15.663,0,0,0-7.391-3.369,14.154,14.154,0,0,0-8.005-.182C53.967,36.7,48.892,41.481,47.106,49.2c-1.743,7.528.611,14,6.589,18.878A17.263,17.263,0,0,0,69.68,71.718a8.217,8.217,0,0,0,1.156-.176A18.932,18.932,0,0,0,81.465,43.173c-.546-.863-1.251-1.663-.411-2.718" transform="translate(0 0)" fill="#131313"/>
    <path id="Trazado_729908" data-name="Trazado 729908" d="M34.844,96.814c.372.987,1.173,1.057,2.078,1.054,5.432-.02,10.864.028,16.295-.039,1.18-.015,1.633.263,1.475,1.475-.128.981.408,2.117-1.453,2.11q-23.255-.092-46.51,0c-1.471,0-1.462-.71-1.461-1.776q.026-30.554.007-61.108c0-1.041.252-2.246-1.241-2.591l0-2.254c1.007-.272,1.258-1.014,1.248-1.949-.016-1.416-.033-2.832,0-4.248.054-2.142-.357-1.641,3.463-1.777,1.36-.049,1.791.231,1.786,1.708q-.085,31.261-.038,62.523c0,1.529-.026,3.059.007,4.587a3.091,3.091,0,0,0,3.27,3.321c5.663.033,11.327,0,16.99.027A1.668,1.668,0,0,0,32.6,96.5c.752.075,1.553-.2,2.243.317" transform="translate(-2.661 -16.961)" fill="#e0dadf"/>
    <path id="Trazado_729909" data-name="Trazado 729909" d="M216.269,108.437c-.84,1.055-.134,1.854.411,2.718a18.932,18.932,0,0,1-10.629,28.369,8.219,8.219,0,0,1-1.156.176c2.535-1.748,5.219-3.28,7.091-5.869,4.941-6.836,5.605-14.071,2.067-21.662-1.923-4.126-5.31-6.9-9.156-9.154a15.663,15.663,0,0,1,7.391,3.369c.794.6,1.579,1.145,2.535.3l1.446,1.754" transform="translate(-135.215 -67.983)" fill="#4ba981"/>
    <path id="Trazado_729910" data-name="Trazado 729910" d="M52.448,84.844c-.691-.512-1.492-.242-2.244-.317-.381-1.11-1.235-1.3-2.289-1.29-5.151.029-10.3-.044-15.454.049-1.458.026-1.755-.441-1.752-1.813q.061-36.089.024-72.179c0-.937-.142-1.736,1.314-1.731,15.058.048,30.117.033,45.175.04a2.774,2.774,0,0,1,.5.09V38.318a6.981,6.981,0,0,1-2.364,1.065c.019-2.483.019-2.484-2.7-2.484q-17.309,0-34.617,0c-.509,0-1.019,0-1.526.028a1.223,1.223,0,0,0,.046,2.44c.508.016,1.018.022,1.527.021q18.657-.021,37.315-.045c-1.457,1.129-2.921,2.248-4.367,3.391-.512.405-1.086.238-1.631.238q-15.629.018-31.258.01c-.509,0-1.02-.006-1.528.02a1.169,1.169,0,0,0-1.227,1.316A1.15,1.15,0,0,0,36.6,45.48c.509.007,1.019.014,1.528.014H68.412c-.657,1.136-1.243,2.134-1.815,3.139-.416.73-1.112.42-1.682.422q-13.166.031-26.331.014c-.34,0-.679,0-1.019,0-.981-.015-2.149-.09-2.172,1.246S36.512,51.6,37.509,51.6q10.448-.015,20.9-.005c1.925,0,3.853.057,5.775-.023,1.032-.043,1.082.345.885,1.179-.556,2.36-.532,2.366-3.057,2.366q-11.976,0-23.953,0a11.1,11.1,0,0,0-1.688.1,1.131,1.131,0,0,0-.99,1.2A1.172,1.172,0,0,0,36.5,57.672c.45.037.905.019,1.358.019,8.324,0,16.649.053,24.972-.032,2.417-.025,1.321,1.718,1.538,2.7.3,1.37-.927.8-1.475.806-8.267.039-16.535.026-24.8.029a10.251,10.251,0,0,0-1.525.051,1.237,1.237,0,0,0-1.185,1.39,1.2,1.2,0,0,0,1.239,1.159c.453.014.906.009,1.359.009,8.324,0,16.649.047,24.972-.042,1.551-.017,2.414.319,2.613,1.925a6.5,6.5,0,0,0,.526,1.417,3.778,3.778,0,0,1-1.862.168q-13.166.018-26.331.011a7.366,7.366,0,0,0-1.518.086,1.21,1.21,0,0,0-1.009,1.209,1.23,1.23,0,0,0,1.1,1.3,8.694,8.694,0,0,0,1.356.038c9.117,0,18.234.049,27.35-.04,1.74-.017,3.039.262,3.844,1.921a9.762,9.762,0,0,0,1.3,1.568H38.286c-.4,0-.793,0-1.189,0-.972-.005-1.756.366-1.708,1.419.043.943.8,1.25,1.7,1.242,2.378-.021,4.757-.007,7.135-.007,8.1,0,16.2.137,24.291-.065a14.593,14.593,0,0,1,9.2,2.466q0,2.377,0,4.753-11.509.042-23.017.077c-1.162,0-2.2.086-2.253,1.6M55.282,20.9c4.356,0,8.712.023,13.068-.009,2.372-.018,3.534-1.211,3.574-3.545.015-.9,0-1.81,0-2.716-.006-3.04-1.023-4.069-4.064-4.073q-8.061-.011-16.123,0c-3.111,0-6.223-.032-9.334.012-2.334.033-3.414,1.158-3.441,3.448-.012,1.018-.005,2.037,0,3.055.01,2.738,1.049,3.814,3.762,3.825,4.186.017,8.372,0,12.559,0m0,12.419q8.91,0,17.821,0a7.894,7.894,0,0,0,1.517-.1,1.034,1.034,0,0,0,.793-1.153,1.09,1.09,0,0,0-.788-1.172,4.578,4.578,0,0,0-1.18-.071q-17.991,0-35.981,0c-.339,0-.68-.005-1.017.024a1.223,1.223,0,0,0,0,2.424,12.641,12.641,0,0,0,1.524.056q8.656.005,17.311,0m.17-8.61q-8.825,0-17.651,0c-.452,0-.907-.014-1.357.027a1.141,1.141,0,0,0-1.053,1.138,1.113,1.113,0,0,0,.895,1.258,6.069,6.069,0,0,0,1.346.108q17.821.008,35.642,0a9.271,9.271,0,0,0,1.015-.045,1.121,1.121,0,0,0,1.121-1.234,1.134,1.134,0,0,0-1.119-1.24c-.393-.034-.792-.014-1.188-.015H55.452" transform="translate(-20.266 -4.991)" fill="#f4f0f2"/>
    <path id="Trazado_729911" data-name="Trazado 729911" d="M160,101.716c3.846,2.258,7.233,5.027,9.156,9.153,3.538,7.591,2.874,14.826-2.067,21.662-1.871,2.589-4.556,4.121-7.091,5.869a17.264,17.264,0,0,1-15.985-3.643c-5.977-4.882-8.331-11.35-6.589-18.878,1.786-7.716,6.861-12.5,14.57-14.345a14.155,14.155,0,0,1,8.006.182m9.223,12.253a3.783,3.783,0,0,0-2.37-3.89,3.968,3.968,0,0,0-4.673.879c-2.1,2.061-4.16,4.164-6.254,6.233-1.078,1.065-2.075,2.675-3.332,2.927-.794.159-1.987-1.747-3.025-2.7-1.907-1.751-4.233-1.814-5.917-.185-1.735,1.678-1.727,4.127.108,6.038q2.821,2.94,5.759,5.766c1.965,1.895,4.232,1.933,6.158.038,4.116-4.048,8.175-8.154,12.255-12.239a3.616,3.616,0,0,0,1.291-2.868" transform="translate(-90.322 -66.683)" fill="#76b67a"/>
    <path id="Trazado_729912" data-name="Trazado 729912" d="M168.943,38.4V7.779c2.388-.211,2.388-.211,2.388,2.184,0,8.465-.07,16.93.053,25.393.028,1.948-.508,2.924-2.441,3.048" transform="translate(-111.489 -5.077)" fill="#ece9ec"/>
    <path id="Trazado_729913" data-name="Trazado 729913" d="M168.941,220.653q0-2.377,0-4.753c2.239.6,3.174,2.191,2.338,4.295-.444,1.117-1.536.375-2.338.458" transform="translate(-111.488 -142.477)" fill="#eae8ea"/>
    <path id="Trazado_729914" data-name="Trazado 729914" d="M71.287,26.677c-4.186,0-8.373.013-12.559,0-2.713-.011-3.752-1.087-3.762-3.825,0-1.018-.011-2.037,0-3.055.027-2.29,1.107-3.415,3.441-3.448,3.111-.044,6.223-.012,9.334-.012q8.061,0,16.123,0c3.042,0,4.058,1.032,4.064,4.073,0,.905.013,1.811,0,2.716-.039,2.334-1.2,3.527-3.573,3.544-4.356.033-8.712.01-13.068.009M83.188,19q-11.025-.027-22.05-.053c-3.834-.007-3.807,0-3.646,3.815.039.918.284,1.3,1.271,1.289C66.9,24,75.046,24,83.187,23.981c1.691.386,2.212-.235,2.124-1.984C85.157,18.909,85.27,18.9,83.188,19" transform="translate(-36.271 -10.771)" fill="#131414"/>
    <path id="Trazado_729915" data-name="Trazado 729915" d="M84.468,96.271q-18.657.023-37.315.045c-.509,0-1.018-.005-1.527-.021a1.223,1.223,0,0,1-.046-2.44c.508-.03,1.018-.028,1.526-.028q17.309,0,34.617,0c2.724,0,2.724,0,2.7,2.484l.039-.038" transform="translate(-29.34 -61.918)" fill="#060607"/>
    <path id="Trazado_729916" data-name="Trazado 729916" d="M64.363,78.423q-8.656,0-17.311,0a12.711,12.711,0,0,1-1.524-.056,1.224,1.224,0,0,1,0-2.424c.337-.029.678-.024,1.018-.024q17.99,0,35.98,0a4.582,4.582,0,0,1,1.18.071,1.091,1.091,0,0,1,.788,1.172,1.035,1.035,0,0,1-.793,1.153,7.921,7.921,0,0,1-1.517.1q-8.911.009-17.821,0" transform="translate(-29.347 -50.098)" fill="#060607"/>
    <path id="Trazado_729917" data-name="Trazado 729917" d="M64.524,57.962H82.175c.4,0,.794-.02,1.188.015a1.134,1.134,0,0,1,1.119,1.24,1.121,1.121,0,0,1-1.121,1.234,9.27,9.27,0,0,1-1.015.045q-17.821,0-35.642,0a6.089,6.089,0,0,1-1.346-.108,1.114,1.114,0,0,1-.895-1.258,1.141,1.141,0,0,1,1.053-1.138c.45-.04.9-.027,1.357-.027q8.826,0,17.651,0" transform="translate(-29.338 -38.247)" fill="#060607"/>
    <path id="Trazado_729918" data-name="Trazado 729918" d="M179.9,130.712a3.616,3.616,0,0,1-1.291,2.868c-4.08,4.085-8.139,8.191-12.255,12.239-1.927,1.895-4.193,1.857-6.158-.038s-3.879-3.806-5.759-5.766c-1.835-1.912-1.843-4.361-.108-6.039,1.685-1.629,4.01-1.566,5.917.185,1.038.953,2.231,2.86,3.025,2.7,1.257-.252,2.254-1.862,3.332-2.927,2.094-2.068,4.153-4.172,6.254-6.233a3.968,3.968,0,0,1,4.673-.879,3.783,3.783,0,0,1,2.37,3.89m-22.717,4.71a1.328,1.328,0,0,0-1.353.838,1.567,1.567,0,0,0,.355,1.863q1.984,1.971,3.961,3.95c3.325,3.335,2.913,3.515,6.356.039,3.341-3.373,6.721-6.707,10.063-10.079,1.141-1.151,1.075-2.367-.093-2.908-.9-.417-1.495.1-2.074.683-3.193,3.2-6.4,6.385-9.576,9.605-.957.972-1.8,1.238-2.841.112-1.072-1.162-2.233-2.241-3.349-3.362a1.8,1.8,0,0,0-1.448-.741" transform="translate(-101 -83.426)" fill="#080e0a"/>
    <path id="Trazado_729919" data-name="Trazado 729919" d="M88,29.08c-8.141.019-16.283.024-24.425.073-.986.006-1.231-.371-1.271-1.289-.162-3.817-.188-3.822,3.646-3.815q11.025.02,22.05.052,0,2.489,0,4.978" transform="translate(-41.079 -15.871)" fill="#77b67a"/>
    <path id="Trazado_729920" data-name="Trazado 729920" d="M137.959,29.129q0-2.489,0-4.978c2.082-.1,1.969-.094,2.124,2.994.087,1.749-.434,2.37-2.124,1.984" transform="translate(-91.042 -15.919)" fill="#4dab83"/>
    <path id="Trazado_729921" data-name="Trazado 729921" d="M162.276,140.383a1.793,1.793,0,0,1,1.45.739c1.116,1.121,2.277,2.2,3.348,3.362,1.038,1.126,1.884.859,2.841-.112,3.173-3.221,6.383-6.4,9.577-9.605.579-.581,1.176-1.1,2.074-.683,1.167.542,1.234,1.757.093,2.908-3.342,3.372-6.722,6.707-10.063,10.079-3.444,3.476-3.031,3.3-6.356-.039q-1.975-1.981-3.96-3.95a1.567,1.567,0,0,1-.355-1.863,1.324,1.324,0,0,1,1.351-.836" transform="translate(-106.091 -88.386)" fill="#f2eef0"/>
  </g>
</svg>
