<svg xmlns="http://www.w3.org/2000/svg" xmlns:xlink="http://www.w3.org/1999/xlink" width="197.605" height="199" viewBox="0 0 197.605 199">
  <defs>
    <clipPath id="clip-path">
      <rect id="Rectángulo_346591" data-name="Rectángulo 346591" width="197.605" height="199" fill="none"/>
    </clipPath>
  </defs>
  <g id="Grupo_991475" data-name="Grupo 991475" transform="translate(3)">
    <g id="Grupo_988753" data-name="Grupo 988753" transform="translate(-3)" clip-path="url(#clip-path)">
      <path id="Trazado_729875" data-name="Trazado 729875" d="M125.3,194.249c.3,2.593-.75,3.325-3.412,3.317-36.066-.1-72.132-.048-108.2-.082C5.611,197.477.317,191.87.05,183.718-.3,173,.937,170.677,12.529,171.114c7.3.275,7.307.051,7.307-7.053q0-75.9,0-151.808C19.838,3.489,23.274,0,31.922,0q75.286,0,150.572,0c10.039,0,15.081,5.077,15.09,15.169q0,7.611,0,15.222c0,7.2-1.955,9.105-9.31,9.108-2.605,0-5.224.161-7.812-.048-2.282-.185-2.678.744-2.667,2.789.076,14.672.1,29.347-.016,44.019-.017,2.287.776,2.777,2.809,2.646,2.322-.147,4.662-.083,6.992-.023,5.733.148,9.956,4.132,9.973,9.8q.11,36.2,0,72.408a9.686,9.686,0,0,1-9.841,9.935c-4.383.12-8.77.105-13.155.152-5.341-.045-10.686-.006-16.024-.179a3.618,3.618,0,0,0-3.778,2.442,88.464,88.464,0,0,0-8.435,10.61l-4.7,4.949-4.7-4.946c-2.666-3.464-5.411-6.87-7.968-10.414a5.937,5.937,0,0,0-5.5-2.66c-9.87.148-19.744.051-29.616.067-4.233.007-8.535.5-12.006-2.864-.931-.9-2.378-.417-3.588-.419q-19.744-.033-39.489-.014c-9.735,0-19.47-.024-29.2.036-1.029.007-2.4-.72-2.916,1.238-1.867,7.071,1.766,11.889,9.15,11.89q52.856.006,105.714-.062c2.678-.007,4.168.418,3.786,3.4M172.763,6.728c-.9-.058-1.562-.137-2.226-.137q-69.493-.009-138.986-.055c-4.028-.007-5.182,1.71-5.178,5.477q.1,77.924-.014,155.847c0,2.686.689,3.392,3.371,3.369,15.213-.133,30.43-.162,45.642.017,3.091.036,3.811-.745,3.79-3.807-.144-22.341-.082-44.684-.075-67.025,0-7.835,3.7-11.534,11.542-11.537,25.632-.007,51.263-.062,76.894.074,3.06.016,3.826-.7,3.806-3.788-.147-22.753-.072-45.506-.088-68.26,0-3.42-.187-6.848,1.522-10.176M138.318,95.459c-15.755,0-31.51.064-47.264-.047-3.82-.027-5.448,1.327-5.432,5.274q.142,34.319.008,68.637c-.012,3.662,1.394,5.23,5.107,5.173,8.081-.124,16.257.73,24.226-.224,11.112-1.329,19.33,1.793,24.554,11.89.124.239.355.421.493.655,1.093,1.853,2.008,1.7,3.271.009,2.54-3.4,5.377-6.574,7.883-9.994a5.631,5.631,0,0,1,5.2-2.422c9.589.111,19.18.057,28.77.043,5.176-.007,5.859-.7,5.861-5.982q.011-33.5,0-66.994c0-5.406-.641-6.015-6.236-6.017q-23.221-.009-46.443,0M191,22.035V14.242c0-.273.01-.548-.008-.82-.274-4.073-3.08-6.912-6.73-6.816a6.557,6.557,0,0,0-6.388,6.7c-.147,5.738,0,11.484-.072,17.225-.022,1.679.392,2.306,2.245,2.442,10.958.812,10.954.87,10.954-10.121q0-.41,0-.82" transform="translate(0 0)" fill="#060607"/>
      <path id="Trazado_729876" data-name="Trazado 729876" d="M126.62,232.346c.382-2.979-1.108-3.4-3.786-3.4q-52.857.144-105.714.062c-7.383,0-11.017-4.819-9.15-11.89.517-1.958,1.886-1.231,2.916-1.238,9.734-.06,19.469-.036,29.2-.036q19.744,0,39.489.014c1.21,0,2.656-.484,3.588.419,3.471,3.368,7.773,2.87,12.006,2.864,9.873-.016,19.746.082,29.615-.067a5.94,5.94,0,0,1,5.5,2.66c2.557,3.543,5.3,6.95,7.968,10.414l-11.633.2" transform="translate(-1.322 -38.098)" fill="#b4b4b3"/>
      <path id="Trazado_729877" data-name="Trazado 729877" d="M187.941,222.259a3.62,3.62,0,0,1,3.778-2.443c5.338.174,10.683.134,16.024.179-.074,9.954-3.4,13.2-13.277,12.967-4.17-2.351-6.95-5.549-6.525-10.7" transform="translate(-33.182 -38.819)" fill="#ded9d3"/>
      <path id="Trazado_729878" data-name="Trazado 729878" d="M186.141,222.784c-.426,5.154,2.355,8.352,6.525,10.7l-14.96-.094a88.455,88.455,0,0,1,8.435-10.609" transform="translate(-31.383 -39.343)" fill="#b1b1b0"/>
      <path id="Trazado_729879" data-name="Trazado 729879" d="M178.416,8.129c-1.709,3.327-1.524,6.756-1.522,10.176.016,22.754-.06,45.508.088,68.26.02,3.089-.747,3.8-3.807,3.788-25.631-.136-51.263-.082-76.894-.074-7.837,0-11.538,3.7-11.541,11.537-.008,22.341-.07,44.684.075,67.025.02,3.062-.7,3.844-3.791,3.807-15.212-.18-30.429-.15-45.642-.017-2.682.023-3.375-.683-3.371-3.369q.124-77.924.015-155.847c0-3.767,1.149-5.484,5.177-5.477q69.493.117,138.987.055c.663,0,1.326.079,2.226.137M137.281,83.7a32.922,32.922,0,1,0-32.8-32.942,32.868,32.868,0,0,0,32.8,32.942m-69.14-.006c8.774,0,17.548-.072,26.321.047,2.435.033,3.7-.251,3.546-3.219-.129-2.455-.4-3.979-3.294-3.411-3.069.6-3.483-.93-3.455-3.628.138-13.023,0-26.048.117-39.07.022-2.537-.437-3.569-3.283-3.491-2.579.072-3.457.582-3.424,3.361.158,13.16,0,26.323.129,39.482.026,2.6-.553,3.49-3.323,3.455-2.647-.034-3.434-.679-3.387-3.4.17-9.868-.03-19.742.132-29.61.044-2.677-.674-3.406-3.364-3.418-2.732-.012-3.384.8-3.344,3.438.154,10.005-.071,20.018.143,30.021.063,2.96-1.319,2.852-3.421,2.916-2.287.07-3.422-.217-3.321-3.016.238-6.572-.051-13.162.138-19.737.077-2.692-.375-3.715-3.442-3.779-3.423-.072-3.269,1.593-3.234,3.963.1,6.58-.091,13.165.1,19.739.072,2.526-.907,3.015-3.083,2.8-1.8-.178-3.88.625-3.631-2.665.288-3.817-.1-7.682.123-11.508.158-2.732-1.493-2.423-3.117-2.295-1.529.121-3.757-.966-3.565,2.25.2,3.415-.193,6.874.114,10.274.294,3.266-.825,4.5-4,3.913-3.282-.6-2.5,1.743-2.677,3.545-.205,2.147.225,3.15,2.78,3.1,8.908-.165,17.821-.063,26.732-.063M58.062,27.735c5.753,0,11.51-.121,17.257.058,2.416.075,3.135-.751,2.858-3.009-.212-1.729.751-3.758-2.583-3.7-11.5.19-23.012.171-34.515.007-3.033-.044-2.356,1.748-2.431,3.424-.083,1.849-.293,3.41,2.569,3.292,5.607-.232,11.229-.068,16.845-.068m6.85,72.416c3.56,0,7.133-.193,10.674.061,2.854.205,2.667-1.421,2.576-3.275-.081-1.666.627-3.519-2.421-3.432q-10.669.306-21.352,0c-2.845-.085-2.665,1.429-2.575,3.284.082,1.665-.632,3.63,2.423,3.422,3.543-.24,7.115-.056,10.674-.055m.069,19.749c3.422,0,6.863-.221,10.261.068,2.879.244,2.982-1.149,2.972-3.351-.011-2.172-.057-3.488-2.954-3.378-6.561.251-13.141.17-19.709.033-2.508-.053-3.878.071-3.873,3.329,0,3.231,1.32,3.485,3.859,3.341,3.139-.177,6.295-.043,9.444-.043m.411,13.169c-3.56,0-7.137.221-10.672-.069-2.907-.24-2.945,1.2-2.956,3.367-.011,2.2.1,3.47,2.968,3.362,6.562-.247,13.141-.174,19.709-.03,2.534.055,3.854-.116,3.858-3.347,0-3.258-1.362-3.465-3.875-3.323-3,.17-6.022.04-9.033.04m-.48,26.331c3.56,0,7.133-.193,10.674.061,2.854.205,2.667-1.42,2.576-3.275-.081-1.665.627-3.519-2.421-3.432q-10.669.306-21.352,0c-2.845-.084-2.665,1.429-2.575,3.284.082,1.665-.632,3.63,2.423,3.423,3.543-.24,7.115-.056,10.674-.056M45.167,97.206c.385-2.376.238-4.045-2.952-3.716-2.156.222-4-.137-3.64,3.1.237,2.153-.128,4.027,3.106,3.629,2.093-.259,4.362.274,3.486-3.015m-3.415,16.256c-2.92-1.126-3.092.62-3.178,3.117-.09,2.631.613,3.462,3.344,3.426,2.613-.034,3.487-.633,3.416-3.369-.065-2.548-.493-3.961-3.583-3.173M45.167,136.7c.391-2.38.229-4.04-2.953-3.714-2.154.221-4-.143-3.639,3.1.24,2.15-.133,4.03,3.105,3.629,2.091-.259,4.362.276,3.486-3.017m-3.253,22.611c2.762.677,3.425-.507,3.424-3.177,0-2.618-.632-3.458-3.363-3.425-2.614.033-3.484.636-3.415,3.371.065,2.549.492,3.959,3.355,3.23" transform="translate(-5.653 -1.402)" fill="#ded9d3"/>
      <path id="Trazado_729880" data-name="Trazado 729880" d="M156.682,115.921q23.222,0,46.443,0c5.594,0,6.234.612,6.236,6.017q.011,33.5,0,66.994c0,5.279-.685,5.975-5.861,5.982-9.59.014-19.181.068-28.77-.043a5.631,5.631,0,0,0-5.2,2.422c-2.506,3.42-5.343,6.6-7.883,9.993-1.262,1.687-2.178,1.844-3.271-.008-.138-.234-.369-.416-.493-.655-5.224-10.1-13.442-13.218-24.554-11.889-7.969.953-16.145.1-24.226.223-3.713.057-5.119-1.512-5.107-5.173q.114-34.319-.008-68.637c-.016-3.947,1.612-5.3,5.432-5.274,15.754.111,31.509.047,47.264.046m-32.971,72.417c2.463,0,4.931-.1,7.387.033,1.918.1,2.416-.543,2.641-2.5.744-6.469-2.689-13.66,3.159-19.283-.077-6.42-.033-12.846-.313-19.258a5.89,5.89,0,0,0-2.706-4.451c-2.067-1.334-1.85-2.618-1-4.7,2.908-7.117-1.4-14.515-8.418-14.854-7.8-.377-12.942,7.111-9.8,14.727.967,2.342.687,3.5-1.15,5.024a8.511,8.511,0,0,0-2.907,6.949c.045,4.926,0,9.853.022,14.778,0,.812-.162,2.072.268,2.365,4.44,3.017,2.906,7.553,2.967,11.573.143,9.594.046,9.6,9.852,9.594m32.857,0c2.326,0,4.66-.123,6.976.036,2.2.15,2.894-.457,3.136-2.853.636-6.341-2.646-13.391,3.128-18.873-.12-6.548.6-13.118-.408-19.636a5.68,5.68,0,0,0-2.273-3.806c-2.166-1.484-2.265-2.973-1.215-5.359a10.691,10.691,0,0,0-2.565-12.046,9.46,9.46,0,0,0-10.684-1.648c-4.366,1.975-6.708,5.707-5.682,10.26s.886,8.251-2.58,11.637c-.939.918-.892,2.518-.882,3.918.034,4.926,0,9.852.021,14.778,0,.812-.176,2.075.25,2.366,4.414,3.019,2.94,7.537,2.991,11.57.124,9.654.04,9.655,9.787,9.654m33.1,0c2.326,0,4.666-.156,6.975.043,2.448.211,2.972-.834,2.894-3.052-.149-4.236-.059-8.483-.031-12.724.007-1.062-.379-2.4.722-3.041,3.142-1.826,2.568-4.786,2.561-7.611-.012-3.968-.041-7.937.008-11.9.032-2.6-.662-5.041-2.62-6.646-2.112-1.732-2.46-3.112-1.3-5.733A10.492,10.492,0,0,0,195.5,125.16a10.055,10.055,0,0,0-12.176.332c-3.584,2.881-4.688,8.146-2.735,13.1.461,1.17,1.653,2.2-.131,3.455-3.5,2.461-4.213,6.1-4.045,10.156.169,4.1.021,8.208.049,12.314.007.946-.183,2.43.313,2.753,4.432,2.887,2.857,7.305,2.916,11.184.151,9.884.05,9.886,9.977,9.885" transform="translate(-18.364 -20.463)" fill="#53a870"/>
      <path id="Trazado_729881" data-name="Trazado 729881" d="M229.136,23.451v.82c0,10.992,0,10.933-10.953,10.121-1.853-.137-2.268-.763-2.246-2.442.076-5.741-.075-11.486.072-17.225a6.558,6.558,0,0,1,6.388-6.7c3.651-.1,6.456,2.744,6.73,6.816.018.273.007.547.007.82q0,3.9,0,7.793" transform="translate(-38.134 -1.416)" fill="#9e9f9e"/>
      <path id="Trazado_729882" data-name="Trazado 729882" d="M152.825,85.826a32.922,32.922,0,1,1,33.044-32.7,32.869,32.869,0,0,1-33.044,32.7m-3.173-46.857a73.984,73.984,0,0,1,.059-8.19c.408-3.649-1.048-4.007-4.091-3.119A26.567,26.567,0,0,0,127.695,60.32c.926,3.166,2.079,3.518,4.636,1.568a38.521,38.521,0,0,1,7.267-4.56c8.02-3.648,12.914-8.833,10.055-18.359m6.6-11.729c0,7.4.036,14.787-.03,22.172-.014,1.53.878,2.113,1.961,2.784q8.206,5.08,16.354,10.252c1.532.978,2.333,1.283,3.215-.916,5.939-14.8-5.364-33.189-21.5-34.291M153.131,79.27a27.9,27.9,0,0,0,18.081-7.477c1.516-1.4,1.941-2.374-.2-3.66-5.5-3.305-10.926-6.73-16.312-10.216a2.981,2.981,0,0,0-3.7.133c-5.3,3.373-10.584,6.764-15.976,9.98-2.335,1.393-1.837,2.432-.185,3.924a28.008,28.008,0,0,0,18.287,7.317" transform="translate(-21.196 -3.529)" fill="#0f0c08"/>
      <path id="Trazado_729883" data-name="Trazado 729883" d="M69.55,88.621c-8.911,0-17.824-.1-26.732.064-2.554.047-2.985-.955-2.78-3.1.172-1.8-.605-4.147,2.677-3.545,3.178.584,4.3-.647,4-3.913-.306-3.4.09-6.858-.114-10.274-.192-3.216,2.037-2.129,3.565-2.25,1.625-.128,3.275-.437,3.117,2.295-.221,3.826.166,7.691-.123,11.508C52.916,82.693,55,81.89,56.8,82.068c2.175.215,3.154-.274,3.082-2.8-.186-6.575,0-13.16-.1-19.739-.035-2.37-.189-4.035,3.234-3.963,3.067.064,3.519,1.089,3.443,3.779-.189,6.575.1,13.165-.138,19.737-.1,2.8,1.034,3.086,3.322,3.016,2.1-.064,3.485.044,3.421-2.916-.215-10,.011-20.015-.144-30.021-.04-2.64.613-3.449,3.344-3.438,2.691.012,3.409.741,3.364,3.418-.162,9.868.039,19.743-.132,29.61-.047,2.717.74,3.363,3.388,3.4,2.77.035,3.348-.851,3.322-3.455-.128-13.16.029-26.323-.129-39.482-.034-2.779.845-3.289,3.424-3.361,2.846-.078,3.305.954,3.283,3.491-.117,13.023.021,26.048-.116,39.07-.029,2.7.385,4.232,3.454,3.629,2.892-.569,3.164.954,3.294,3.41.156,2.968-1.11,3.252-3.546,3.219-8.772-.119-17.547-.047-26.321-.047" transform="translate(-7.063 -6.33)" fill="#040506"/>
      <path id="Trazado_729884" data-name="Trazado 729884" d="M59.477,30.554c-5.616,0-11.239-.164-16.845.068-2.861.118-2.652-1.443-2.569-3.292.076-1.676-.6-3.467,2.431-3.424,11.5.164,23.013.183,34.516-.007,3.333-.055,2.371,1.974,2.582,3.7.277,2.257-.442,3.083-2.858,3.008-5.747-.179-11.5-.058-17.257-.058" transform="translate(-7.068 -4.22)" fill="#040506"/>
      <path id="Trazado_729885" data-name="Trazado 729885" d="M69.151,118.5c-3.56,0-7.131-.184-10.674.056-3.056.207-2.342-1.758-2.423-3.423-.091-1.855-.27-3.368,2.574-3.284q10.669.316,21.352,0c3.048-.087,2.339,1.767,2.421,3.432.091,1.855.277,3.481-2.576,3.275-3.541-.254-7.114-.061-10.674-.061" transform="translate(-9.892 -19.752)" fill="#040506"/>
      <path id="Trazado_729886" data-name="Trazado 729886" d="M69.2,142.484c-3.149,0-6.3-.135-9.444.043-2.539.143-3.854-.11-3.859-3.341,0-3.258,1.365-3.382,3.873-3.329,6.568.137,13.148.217,19.71-.033,2.9-.11,2.942,1.205,2.953,3.377.011,2.2-.091,3.6-2.972,3.351-3.4-.288-6.839-.068-10.261-.068" transform="translate(-9.871 -23.985)" fill="#040506"/>
      <path id="Trazado_729887" data-name="Trazado 729887" d="M69.628,159.886c3.012,0,6.031.129,9.033-.04,2.514-.142,3.88.065,3.875,3.323,0,3.231-1.324,3.4-3.858,3.347-6.568-.144-13.147-.217-19.709.03-2.87.108-2.98-1.159-2.969-3.361.011-2.172.049-3.607,2.956-3.368,3.535.291,7.113.069,10.672.069" transform="translate(-9.889 -28.219)" fill="#040506"/>
      <path id="Trazado_729888" data-name="Trazado 729888" d="M69.151,190.457c-3.56,0-7.131-.184-10.674.056-3.056.207-2.342-1.758-2.423-3.423-.091-1.855-.27-3.368,2.574-3.284q10.669.316,21.352,0c3.048-.087,2.339,1.767,2.421,3.432.091,1.855.277,3.481-2.576,3.275-3.541-.254-7.114-.061-10.674-.061" transform="translate(-9.892 -32.459)" fill="#040506"/>
      <path id="Trazado_729889" data-name="Trazado 729889" d="M46.566,115.546c.876,3.289-1.393,2.757-3.485,3.015-3.234.4-2.869-1.476-3.107-3.629-.357-3.239,1.485-2.88,3.641-3.1,3.189-.329,3.336,1.34,2.951,3.716" transform="translate(-7.051 -19.742)" fill="#040506"/>
      <path id="Trazado_729890" data-name="Trazado 729890" d="M43.16,136.019c3.089-.786,3.517.625,3.583,3.173.07,2.736-.8,3.336-3.416,3.37-2.732.035-3.434-.8-3.344-3.427.085-2.5.258-4.242,3.178-3.117" transform="translate(-7.059 -23.959)" fill="#040506"/>
      <path id="Trazado_729891" data-name="Trazado 729891" d="M46.564,163.517c.876,3.293-1.395,2.758-3.486,3.017-3.238.4-2.865-1.479-3.105-3.63-.364-3.244,1.485-2.88,3.639-3.1,3.182-.326,3.344,1.334,2.953,3.714" transform="translate(-7.051 -28.214)" fill="#040506"/>
      <path id="Trazado_729892" data-name="Trazado 729892" d="M43.317,190.365c-2.862.729-3.289-.681-3.355-3.23-.068-2.735.8-3.338,3.415-3.371,2.73-.034,3.361.807,3.363,3.425,0,2.669-.662,3.854-3.424,3.177" transform="translate(-7.057 -32.452)" fill="#040506"/>
      <path id="Trazado_729893" data-name="Trazado 729893" d="M125.128,189.934c-9.806,0-9.708,0-9.852-9.6-.06-4.02,1.474-8.556-2.966-11.573-.43-.292-.265-1.553-.268-2.365-.021-4.926.023-9.852-.022-14.778a8.513,8.513,0,0,1,2.907-6.949c1.837-1.521,2.117-2.682,1.151-5.024-3.143-7.616,2-15.1,9.8-14.727,7.014.339,11.327,7.738,8.418,14.854-.85,2.08-1.065,3.364,1,4.7A5.89,5.89,0,0,1,138,148.927c.28,6.412.235,12.838.313,19.258-5.848,5.623-2.415,12.814-3.159,19.283-.225,1.955-.723,2.6-2.64,2.5-2.456-.133-4.925-.033-7.388-.032m-6.516-31.959c.212,3.687-1.065,7.72,2.733,10.546.924.688.546,2.051.557,3.127.026,2.6.118,5.2-.023,7.791-.138,2.539.222,4.045,3.429,4.01,3.024-.034,3.113-1.48,3.244-3.81.272-4.833-1.764-10.192,2.94-14.177.446-.378.27-1.563.277-2.374.026-3.281.064-6.563,0-9.844-.077-3.712-2.826-6.164-6.676-6.078-3.961.089-6.376,2.427-6.465,6.294-.035,1.5-.006,3.008-.012,4.513m3.282-22.753c.121,2.216.993,4.1,3.2,4.13,2.458.038,3.4-1.928,3.373-4.215-.024-2.036-1.1-3.478-3.156-3.527-2.311-.054-3.285,1.533-3.413,3.611" transform="translate(-19.781 -22.059)" fill="#040907"/>
      <path id="Trazado_729894" data-name="Trazado 729894" d="M165.044,189.908c-9.747,0-9.664,0-9.787-9.655-.051-4.034,1.423-8.551-2.991-11.57-.427-.291-.247-1.555-.25-2.367-.019-4.926.012-9.852-.021-14.778-.01-1.4-.058-3,.882-3.918,3.466-3.386,3.607-7.077,2.579-11.637s1.317-8.285,5.683-10.26a9.46,9.46,0,0,1,10.684,1.648,10.691,10.691,0,0,1,2.565,12.046c-1.05,2.385-.951,3.875,1.215,5.359a5.68,5.68,0,0,1,2.273,3.806c1.008,6.518.288,13.088.408,19.635-5.775,5.483-2.492,12.533-3.128,18.874-.241,2.4-.94,3-3.136,2.852-2.315-.158-4.65-.035-6.976-.035m6.711-32.323c0-.624.014-2.129,0-3.632-.049-4.352-2.714-7.323-6.76-6.717-4.289.641-6.8,1.787-6.441,6.7.221,2.991.053,6.012.036,9.02-.008,1.382-.109,2.827,1.163,3.743,2.217,1.6,2.231,3.86,2.152,6.24-.082,2.459.1,4.928-.049,7.38-.142,2.362.844,3,3.1,3.069,2.639.078,3.595-.711,3.579-3.457-.021-3.79-1.57-8.349.643-11.2,2.632-3.393,2.514-6.66,2.576-11.145m-3.318-21.64c.144-2.365-.674-4.094-2.921-4.344-2.273-.254-3.485,1.229-3.606,3.455-.116,2.132.772,3.973,2.927,4.255,2.288.3,3.241-1.505,3.6-3.366" transform="translate(-26.839 -22.032)" fill="#040907"/>
      <path id="Trazado_729895" data-name="Trazado 729895" d="M205.191,189.924c-9.926,0-9.826,0-9.976-9.885-.059-3.879,1.515-8.3-2.916-11.184-.5-.323-.307-1.807-.314-2.753-.029-4.1.119-8.215-.049-12.313-.167-4.055.544-7.695,4.045-10.157,1.784-1.253.592-2.284.131-3.454-1.952-4.955-.849-10.22,2.735-13.1a10.055,10.055,0,0,1,12.176-.331,10.492,10.492,0,0,1,3.374,12.511c-1.158,2.621-.809,4,1.3,5.733,1.958,1.606,2.653,4.046,2.62,6.646-.049,3.968-.02,7.936-.008,11.9.008,2.825.582,5.784-2.561,7.61-1.1.64-.716,1.979-.722,3.041-.027,4.242-.118,8.488.032,12.725.078,2.217-.447,3.262-2.9,3.052-2.309-.2-4.649-.043-6.975-.043M211.723,158c0-1.231.007-2.461,0-3.691q-.046-6.985-6.441-7.148c-4.285-.115-6.7,2.492-6.718,7.28-.012,2.87.017,5.742-.01,8.612-.013,1.394-.04,2.809,1.215,3.726,2.048,1.5,2.192,3.579,2.107,5.848-.1,2.594.058,5.2-.046,7.791-.081,2.029.559,2.851,2.758,3,3.119.208,4.074-.9,3.911-3.951-.189-3.527-1.217-8.106.527-10.389,2.8-3.67,2.6-7.211,2.7-11.075m-6.637-26.547c-1.893.416-3.229,1.5-3.222,3.793.007,2.138.923,3.957,3.1,4.1,2.24.147,3.276-1.619,3.434-3.742.166-2.217-.888-3.589-3.315-4.152" transform="translate(-33.892 -22.049)" fill="#040907"/>
      <path id="Trazado_729896" data-name="Trazado 729896" d="M151.075,40.527c2.859,9.526-2.035,14.712-10.055,18.359a38.583,38.583,0,0,0-7.266,4.56c-2.557,1.951-3.71,1.6-4.636-1.568a26.567,26.567,0,0,1,17.925-32.659c3.043-.888,4.5-.529,4.091,3.12a73.968,73.968,0,0,0-.059,8.189" transform="translate(-22.62 -5.088)" fill="#f08824"/>
      <path id="Trazado_729897" data-name="Trazado 729897" d="M164.01,28.8c16.138,1.1,27.442,19.492,21.5,34.292-.882,2.2-1.682,1.895-3.215.916q-8.136-5.191-16.354-10.252c-1.084-.67-1.975-1.253-1.961-2.784.066-7.384.03-14.769.03-22.172" transform="translate(-28.958 -5.085)" fill="#df7b23"/>
      <path id="Trazado_729898" data-name="Trazado 729898" d="M156.008,87.28a28.008,28.008,0,0,1-18.287-7.317c-1.652-1.492-2.15-2.53.185-3.924,5.392-3.215,10.68-6.606,15.976-9.98a2.981,2.981,0,0,1,3.7-.133c5.387,3.485,10.815,6.911,16.312,10.216,2.139,1.286,1.714,2.257.2,3.66a27.9,27.9,0,0,1-18.081,7.477" transform="translate(-24.073 -11.54)" fill="#cf6f25"/>
      <path id="Trazado_729899" data-name="Trazado 729899" d="M120.022,162.748c0-1.5-.026-3.01.009-4.512.088-3.868,2.5-6.205,6.464-6.294,3.85-.086,6.6,2.366,6.677,6.078.068,3.28.03,6.563,0,9.844-.006.811.17,2-.277,2.374-4.7,3.984-2.669,9.344-2.94,14.177-.131,2.329-.221,3.776-3.244,3.81-3.207.035-3.568-1.471-3.429-4.01.141-2.59.048-5.194.022-7.791-.011-1.077.368-2.44-.557-3.127-3.8-2.826-2.52-6.859-2.729-10.547" transform="translate(-21.187 -26.832)" fill="#102d43"/>
      <path id="Trazado_729900" data-name="Trazado 729900" d="M124.013,136.659c.128-2.078,1.1-3.666,3.413-3.611,2.056.049,3.132,1.49,3.156,3.527.026,2.287-.915,4.253-3.373,4.215-2.2-.035-3.075-1.914-3.2-4.13" transform="translate(-21.9 -23.496)" fill="#102c40"/>
      <path id="Trazado_729901" data-name="Trazado 729901" d="M173.157,162.39c-.062,4.484.057,7.751-2.576,11.144-2.213,2.853-.664,7.412-.643,11.2.016,2.747-.94,3.536-3.579,3.458-2.259-.067-3.246-.708-3.1-3.07.147-2.451-.032-4.921.049-7.379.079-2.38.066-4.642-2.152-6.239-1.271-.917-1.171-2.363-1.163-3.745.017-3.007.184-6.028-.035-9.019-.361-4.916,2.151-6.06,6.44-6.7,4.046-.6,6.712,2.365,6.76,6.717.016,1.5,0,3.008,0,3.632" transform="translate(-28.242 -26.836)" fill="#102d43"/>
      <path id="Trazado_729902" data-name="Trazado 729902" d="M170.564,137.407c-.359,1.861-1.312,3.666-3.6,3.366-2.156-.282-3.043-2.124-2.927-4.255.121-2.226,1.332-3.709,3.606-3.455,2.247.25,3.066,1.979,2.921,4.344" transform="translate(-28.967 -23.494)" fill="#102c40"/>
      <path id="Trazado_729903" data-name="Trazado 729903" d="M213.147,162.78c-.1,3.864.105,7.4-2.7,11.075-1.744,2.283-.716,6.862-.528,10.39.164,3.055-.791,4.157-3.91,3.95-2.2-.147-2.839-.968-2.758-3,.1-2.593-.051-5.2.045-7.79.085-2.269-.058-4.353-2.106-5.849-1.256-.917-1.229-2.331-1.215-3.725.027-2.871,0-5.742.01-8.613.019-4.786,2.433-7.395,6.718-7.279q6.4.173,6.441,7.147c.008,1.23,0,2.461,0,3.691" transform="translate(-35.315 -26.832)" fill="#102d43"/>
      <path id="Trazado_729904" data-name="Trazado 729904" d="M207.22,132.864c2.427.562,3.481,1.935,3.315,4.152-.158,2.123-1.194,3.889-3.434,3.742-2.18-.143-3.1-1.962-3.1-4.1-.007-2.3,1.329-3.377,3.222-3.793" transform="translate(-36.026 -23.464)" fill="#102c40"/>
    </g>
  </g>
</svg>
