<svg id="Grupo_988737" data-name="Grupo 988737" xmlns="http://www.w3.org/2000/svg" xmlns:xlink="http://www.w3.org/1999/xlink" width="175.547" height="197.05" viewBox="0 0 175.547 197.05">
  <defs>
    <clipPath id="clip-path">
      <rect id="Rectángulo_346580" data-name="Rectángulo 346580" width="175.547" height="197.05" fill="none"/>
    </clipPath>
  </defs>
  <g id="Grupo_988736" data-name="Grupo 988736" clip-path="url(#clip-path)">
    <path id="Trazado_729788" data-name="Trazado 729788" d="M125.376,44.428c2.049.406,2.518,1.832,2.512,3.689-.028,8.588.046,17.177-.038,25.765-.038,3.977-1.767,5.646-6.227,5.272-3.918-.33-4.721.939-4.775,4.732a51.1,51.1,0,0,1-8.793,27.747c-1.533,2.32-1.311,3.5.643,5.257,3.333,2.993,6.378,6.306,9.564,9.465,2.468,2.447,4.481,5.5,8.9,4.584,1.673-.348,3.228,1.268,4.52,2.567,5.6,5.636,11.2,11.278,16.87,16.847,1.518,1.491,2.386,2.977,1.376,5.067-2,1.429-3.717,1.051-5.372-.679-1.4-1.458-2.942-2.77-4.422-4.148-.4-.486-.84-.945-1.191-1.464-2.016-2.981-3.877-3.25-6.245-.162a43.371,43.371,0,0,1-6.207,6.241c-1.762,1.518-1.759,2.4-.039,4.09,9.764,9.57,19.377,19.293,29.05,28.956,3.842,3.838,4.85,3.782,8.478-.389.942-.838,1.926-1.633,2.818-2.52,3.726-3.707,3.728-4.644.058-8.331-3.586-3.6-7.141-7.243-10.8-10.767-1.668-1.6-2.331-3.246-1.191-5.382,1.956-1.219,3.527-.71,5.079.88,4.2,4.306,8.558,8.457,12.723,12.8,3.813,3.974,3.845,9.063.162,13.06-2.166,2.351-4.431,4.623-6.79,6.779C162.17,197.907,157,198,153.26,194.3c-14.01-13.862-27.9-27.842-41.826-41.792-1.4-1.4-2.49-3.162-2.094-5.136.509-2.53-.669-3.973-2.31-5.551-4.243-4.079-8.382-8.268-12.486-12.488-1.15-1.182-1.895-1.382-3.43-.363a56.493,56.493,0,0,1-36.367,9.37c-2.126-.159-2.594.444-2.541,2.416.121,4.476.086,8.959.023,13.437-.058,4.1-1.453,5.476-5.576,5.58-2.558.065-5.12-.038-7.678.027a3.992,3.992,0,0,1-4.367-2.941c.618-2.7,2.535-3.062,4.948-3.048,6.678.038,6.678-.033,6.678-6.779,0-8.7-.635-17.459.189-26.079.743-7.79-2.029-13.169-7.85-17.671a5.536,5.536,0,0,0-3.7-1.584c-6.007.126-12.017.127-18.025.175-2.548-.052-5.113.054-7.643-.2-2.75-.272-3.428.81-3.4,3.442.119,13.16.055,26.321.055,39.482,0,9.659,0,9.659,9.654,9.119,2.55.044,5.1.173,7.648.1,2.237-.06,3.7.7,4.082,3.033-.394,2.16-1.859,2.918-3.869,2.921-6.151.008-12.3.055-18.454-.017C1.735,159.72-.011,158.223,0,154.77q.087-26.913.011-53.825c0-1.465,0-3.285,1.3-3.778,2.945-1.114,2.083-3.144,1.708-5.1a57.191,57.191,0,0,1,42.01-66.731c2.793-.729,3.852-1.782,3.641-4.814-.338-4.848-.149-9.735-.071-14.6C48.664,1.829,50.445.026,54.444.021q33.832-.042,67.664,0c4.153,0,5.731,1.6,5.755,5.842.05,8.842-.031,17.686.051,26.527.019,2.144-.446,3.776-2.6,4.574-2.476-.481-3.148-2.076-3.118-4.454.095-7.671-.087-15.347.1-23.014.068-2.8-.581-3.836-3.569-3.706-5.616.243-11.249.045-16.875.075q-18.59.1-37.181.235c-2.037-.063-4.1.035-6.107-.228-3.105-.406-4.082.559-4.048,3.869.182,18.136.087,36.274.087,54.411,0,9.8,0,9.8,10.068,9,10.288-.779,8.374,6.95,8.519,14.175,4.03-4.2,7.287-7.436,10.354-10.843A9.123,9.123,0,0,1,91,73.355c9.355.118,18.714-.047,28.068.1,2.581.04,3.271-.778,3.219-3.277-.152-7.174-.01-14.354-.076-21.53-.021-2.319.388-4.1,3.164-4.22m2.456,93.831c-.982-1.717-2.11-2.06-3.612-.519-2.679,2.75-5.4,5.458-8.134,8.154a1.851,1.851,0,0,0-.325,2.677c2.866,4.564,4.677,4.743,8.171.7,1.391-1.307,2.811-2.583,4.167-3.925,3.7-3.662,3.687-3.673-.269-7.083m-12.329-.4c2.834-1.553,3.3-3.061.556-5.464a124.239,124.239,0,0,1-10.48-10.461c-2.276-2.536-3.963-3.168-5.68.31-1.69.9-2.616,1.723-.676,3.555q6.519,6.159,12.683,12.685c1.8,1.9,2.657,1.054,3.6-.626m-67.068-88.6v-5.7C28.272,48.025,15.508,71.834,21.908,92.512c.869,2.81,2.126,3.839,5.076,3.6,3.812-.3,7.663-.113,11.5-.135,6.5,5.72,15.392,9.874,13.759,20.938-.317,2.152.661,3.008,2.764,3.054a56.837,56.837,0,0,0,12.981-.718C85.05,115.711,98.5,99.53,98.543,82.266c0-1,.734-2.331-.8-2.986-2.315-.984-9.132.419-11,2.281-3.532,3.526-7.11,7.009-10.576,10.6a5.258,5.258,0,0,1-5.893,1.618c-2.22-.777-2.83-2.717-3.081-4.871-.372-3.2,1.6-7.61-.967-9.295-2.33-1.532-6.444-.35-9.771-.363-.384,0-.768,0-1.152,0-5.045-.027-6.675-1.6-6.717-6.579-.066-7.8-.1-15.607-.149-23.411m10.856,83.626c1.81-.18,3.462-.376,5.12-.5,24.444-1.9,46.148-22.593,46.992-50.694.067-2.223-.934-2.766-2.72-2.4-1.518.309-4.064-1.474-4.148,2.116a50.9,50.9,0,0,1-1.029,8.725c-4.215,21.153-24.8,38.451-49.092,35.421-.809-.1-1.69-.467-2.159.828-1.181,3.265.281,5.754,3.75,6.14l3.285.369M16.9,95.993c-4.284-14.685-2.914-28.166,5.562-40.606A43.662,43.662,0,0,1,45.33,38.26c2.913-.974,4.588-4.07,3.124-6.658-1.34-2.371-3.45-.382-4.975.1C18.547,39.581,3.187,66.148,8.628,91.6c.712,3.328,1.922,5.417,5.757,4.55a16.474,16.474,0,0,1,2.511-.152" transform="translate(0 0)" fill="#0b100f"/>
    <path id="Trazado_729789" data-name="Trazado 729789" d="M84.04,7.83q18.59-.12,37.181-.235c5.626-.029,11.26.169,16.875-.075,2.987-.129,3.636.91,3.569,3.706-.187,7.667,0,15.343-.1,23.014-.029,2.377.642,3.973,3.118,4.453q.029,3.734.058,7.466c-2.776.119-3.184,1.9-3.164,4.219.066,7.177-.075,14.357.075,21.531.053,2.5-.637,3.317-3.218,3.276-9.354-.147-18.713.017-28.068-.1a9.123,9.123,0,0,0-7.453,3.134c-3.067,3.407-6.324,6.644-10.354,10.843-.145-7.225,1.768-14.954-8.519-14.175V7.83m32.145,40.659c0-3.588.045-7.177-.017-10.764-.038-2.217-.782-4.3-3.306-4.407-4.861-.21-9.736-.092-14.6-.068a2.542,2.542,0,0,0-2.641,2.3c-.256,1.431.369,2.836,1.75,2.974,2.4.241,2.032,1.78,2.033,3.274q0,8.458,0,16.916c0,1.513.317,2.969-2.052,3.251a2.329,2.329,0,0,0-1.628,3.056,2.8,2.8,0,0,0,2.805,2.195c6.15-.012,12.3,0,18.451-.007a2.541,2.541,0,0,0,2.685-2.224c.279-1.261-.178-2.746-1.236-2.907-2.726-.418-2.23-2.26-2.236-3.978-.009-3.2,0-6.407-.008-9.611M99.415,21.8c-.014,8.375.162,8.613,6.41,8.633,10.744.035,10.706.037,10.389-11.344-.095-3.393-1.312-5.344-5.031-5.158-2.686.133-5.383.013-8.074.054-2.325.035-3.511,1.36-3.673,3.586-.1,1.4-.019,2.819-.019,4.229" transform="translate(-19.365 -1.73)" fill="#3cb2ca"/>
    <path id="Trazado_729790" data-name="Trazado 729790" d="M21.441,132.318c6.009-.048,12.019-.048,18.027-.175a5.536,5.536,0,0,1,3.7,1.584c5.82,4.5,8.593,9.881,7.849,17.671-.823,8.621-.188,17.38-.188,26.079,0,6.746,0,6.818-6.678,6.778-2.413-.014-4.331.349-4.948,3.048l-7.371,0c-.378-2.336-1.844-3.093-4.082-3.033-2.547.068-5.1-.062-7.648-.1q.015-5.013.032-10.026c6.27.038,12.54.054,18.809.13,2.06.025,3.749-.716,3.853-2.829.116-2.366-1.628-3.253-3.841-3.233l-18.805.171q-.024-3.605-.048-7.211c6.018.022,12.038,0,18.056.087,2.2.03,4.527-.133,4.632-2.767.115-2.854-2.238-3.267-4.623-3.259-5.762.018-11.524-.038-17.285-.064-1.585-2.188-.521-4.676-.794-7.012,3.706.01,7.411,0,11.117.035,1.885.018,3.333-.566,3.479-2.67.166-2.379-1.422-3.085-3.423-3.151-3.188-.1-6.379-.134-9.568-.2-2.226-2.064-2.356-7.143-.252-9.853" transform="translate(-4.595 -30.449)" fill="#ffd75e"/>
    <path id="Trazado_729791" data-name="Trazado 729791" d="M174.768,55.5c0-6.144.05-12.288-.018-18.431-.039-3.545,1.595-5.125,5.12-5.094q10.751.1,21.5-.013a7.132,7.132,0,0,1,4.8,1.893c5.613,4.507,8.671,9.729,7.836,17.451-.794,7.338-.135,14.829-.185,22.252-.031,4.643-1.321,5.921-5.961,5.94q-13.631.053-27.262,0c-4.651-.019-5.812-1.234-5.83-5.95-.024-6.015-.006-12.032-.005-18.047m14.008-17.389c-1.525-.069-3.064-.031-4.572-.232-2.915-.388-3.963.558-3.868,3.7.242,8.041.08,16.095.08,24.143,0,8.158,0,8.158,8.36,7.7,5.506.038,11.014-.022,16.514.165,2.2.075,2.771-.616,2.74-2.768-.122-8.2-.027-16.394-.06-24.593-.013-3.18-4.9-8.233-8.067-8.269-3.708-.042-7.417.095-11.127.154" transform="translate(-40.266 -7.364)" fill="#111213"/>
    <path id="Trazado_729792" data-name="Trazado 729792" d="M160.647,126.9c0-3.837-.047-7.675.01-11.511.06-4,1.335-5.325,5.251-5.35,7.929-.051,15.859-.015,23.788-.015,3.456,0,5.125,1.628,5.092,5.181q-.114,12.084,0,24.171c.035,3.434-1.725,4.974-4.9,5q-12.277.107-24.556-.008c-3.022-.03-4.721-1.616-4.7-4.808.033-4.22.008-8.441.006-12.661m16.263,11.548c.867,0,1.122,0,1.378,0,3.443-.076,8,1.157,10.037-.574,2.383-2.024.7-6.731.748-10.262.051-3.679,1.6-8.485-.573-10.758-2.366-2.473-7.249-.684-11.028-.8-3.556-.105-8.305-1.212-10.375.593-2.407,2.1-.637,6.967-.746,10.626-.105,3.556-1.24,8.294.556,10.375,2.091,2.423,6.966.421,10,.8" transform="translate(-37.013 -25.348)" fill="#0b100f"/>
    <path id="Trazado_729793" data-name="Trazado 729793" d="M93.224,189.887c2.683,0,5.365,0,8.047,0,2.8,0,4.311,1.428,4.339,4.207q.085,8.429.008,16.859c-.027,3-1.748,4.34-4.653,4.338q-8.046,0-16.093,0c-2.987,0-4.576-1.636-4.647-4.452q-.21-8.233-.005-16.475c.076-3.027,1.78-4.611,4.959-4.5,2.679.092,5.364.019,8.046.021M91.6,195.992c-5.42-.429-5.42-.429-5.421,4.85q0,1.722,0,3.445c0,5.246,0,5.246,5.42,4.858.76.063,1.52.171,2.281.182,6.079.087,6.079.082,6.079-5.991,0-8.062,0-8.062-8.359-7.345" transform="translate(-18.461 -43.749)" fill="#0b100f"/>
    <path id="Trazado_729794" data-name="Trazado 729794" d="M195.42,205.956c-1.14,2.136-.477,3.778,1.191,5.382,3.665,3.524,7.219,7.163,10.806,10.767,3.669,3.687,3.668,4.624-.058,8.331-.893.887-1.877,1.683-2.819,2.52-7.239-8.3-15.364-15.744-23.126-23.534-7.55-7.576-6.45-7.245-.886-13.392a1.4,1.4,0,0,0,.166-.345c1.479,1.377,3.026,2.69,4.421,4.147,1.656,1.73,3.372,2.108,5.373.679q2.465,2.723,4.931,5.446" transform="translate(-40.567 -45.09)" fill="#3cb2ca"/>
    <path id="Trazado_729795" data-name="Trazado 729795" d="M23.5,30.806c-11.37,0-11.293,0-11.391-11.247C12.008,7.678,11.9,8,23.664,8.085c11.177.085,11.177.018,11.177,11.058,0,2.043.048,4.087-.012,6.129-.125,4.237-1.308,5.4-5.58,5.526-1.914.055-3.83.009-5.746.009m-.639-5.987c6.11.289,6.11.289,6.11-4.9,0-5.985,0-5.985-6.119-5.646-2.8-.441-5.015-.743-4.8,3.575.362,7.2.079,7.213,4.807,6.974" transform="translate(-2.787 -1.858)" fill="#111213"/>
    <path id="Trazado_729796" data-name="Trazado 729796" d="M58.57,64.008c.048,7.8.082,15.608.149,23.411.042,4.976,1.672,6.552,6.717,6.578.384,0,.768,0,1.152,0,3.328.014,7.441-1.169,9.771.362,2.568,1.687.595,6.1.967,9.3.25,2.154.86,4.094,3.081,4.872A5.261,5.261,0,0,0,86.3,106.91c3.466-3.591,7.044-7.073,10.577-10.6,1.865-1.862,8.682-3.265,11-2.28,1.539.654.807,1.986.8,2.986C108.634,114.279,95.183,130.46,78.12,134a56.844,56.844,0,0,1-12.982.718c-2.1-.047-3.081-.9-2.763-3.054,1.632-11.064-7.258-15.218-13.76-20.938-2.272-.549-3.091-2.27-3.69-4.314-1.174-4-.937-8.087-.9-12.159.112-12.349,5-22.422,14.544-30.249" transform="translate(-10.134 -14.749)" fill="#cee7f9"/>
    <path id="Trazado_729797" data-name="Trazado 729797" d="M81,7.832V74.889c-10.068.8-10.068.8-10.068-9.006,0-18.137.1-36.276-.087-54.411-.034-3.31.943-4.276,4.048-3.87,2.011.263,4.07.165,6.107.229" transform="translate(-16.324 -1.732)" fill="#18adca"/>
    <path id="Trazado_729798" data-name="Trazado 729798" d="M54.5,62.3c-9.542,7.827-14.432,17.9-14.544,30.249-.038,4.071-.274,8.157.9,12.159.6,2.044,1.418,3.765,3.69,4.314-3.834.022-7.686-.169-11.5.136-2.95.235-4.207-.795-5.076-3.6C21.569,84.876,34.334,61.068,54.5,56.6Z" transform="translate(-6.062 -13.043)" fill="#a2ceef"/>
    <path id="Trazado_729799" data-name="Trazado 729799" d="M74.818,156.572c-1-.112-2.142-.242-3.285-.369-3.469-.386-4.931-2.875-3.75-6.14.469-1.3,1.35-.929,2.159-.828,24.3,3.03,44.877-14.269,49.092-35.421a50.9,50.9,0,0,0,1.029-8.725c.083-3.59,2.63-1.809,4.148-2.116,1.785-.362,2.787.18,2.72,2.4-.843,28.1-22.548,48.793-46.992,50.693-1.658.129-3.31.325-5.12.5" transform="translate(-15.526 -23.686)" fill="#5bac7b"/>
    <path id="Trazado_729800" data-name="Trazado 729800" d="M19.152,105.114a16.473,16.473,0,0,0-2.511.152c-3.836.867-5.045-1.222-5.757-4.55C5.443,75.269,20.8,48.7,45.734,40.823c1.525-.483,3.635-2.472,4.975-.1,1.464,2.588-.212,5.684-3.124,6.658A43.662,43.662,0,0,0,24.714,64.508c-8.476,12.439-9.847,25.921-5.562,40.606" transform="translate(-2.256 -9.121)" fill="#5bac7b"/>
    <path id="Trazado_729801" data-name="Trazado 729801" d="M17.245,161.149q.024,3.605.046,7.211c-2.263,1.915-2.166,3.835-.015,5.76l-.032,10.026c-9.652.539-9.652.539-9.652-9.119,0-13.161.065-26.323-.055-39.482-.024-2.63.655-3.712,3.4-3.441,2.53.25,5.094.145,7.643.2-2.106,2.71-1.975,7.788.252,9.853-3.827,1.676-4.091,2.66-1.606,5.98.275,2.336-.791,4.824.8,7.012-3.005,1.643-3.128,3.662-.78,6" transform="translate(-1.737 -30.431)" fill="#faaf2f"/>
    <path id="Trazado_729802" data-name="Trazado 729802" d="M177.6,194.539a1.338,1.338,0,0,1-.166.345c-5.563,6.147-6.664,5.816.886,13.393,7.762,7.79,15.887,15.229,23.127,23.534-3.629,4.171-4.637,4.227-8.478.389-9.673-9.663-19.286-19.386-29.05-28.956-1.72-1.685-1.722-2.571.039-4.09a43.378,43.378,0,0,0,6.207-6.242c2.368-3.087,4.23-2.818,6.246.163.351.519.791.977,1.19,1.464" transform="translate(-37.475 -43.945)" fill="#18adca"/>
    <path id="Trazado_729803" data-name="Trazado 729803" d="M129.81,158.131c1.717-3.479,3.4-2.847,5.679-.311a124.363,124.363,0,0,0,10.48,10.462c2.741,2.4,2.279,3.91-.556,5.464a147.684,147.684,0,0,0-15.6-15.615" transform="translate(-29.911 -35.881)" fill="#73acca"/>
    <path id="Trazado_729804" data-name="Trazado 729804" d="M158.467,190.214c-3.494,4.047-5.305,3.869-8.172-.7a1.852,1.852,0,0,1,.326-2.677c2.733-2.7,5.455-5.4,8.134-8.154,1.5-1.54,2.63-1.2,3.611.519-1.034,1.96-2.965,3.121-4.3,4.806-1.692,2.14-2.154,4.292.4,6.2" transform="translate(-34.533 -40.947)" fill="#a2ceef"/>
    <path id="Trazado_729805" data-name="Trazado 729805" d="M129.282,158.853a147.684,147.684,0,0,1,15.6,15.615c-.94,1.678-1.8,2.529-3.6.625q-6.16-6.516-12.683-12.684c-1.939-1.832-1.014-2.652.676-3.555" transform="translate(-29.383 -36.604)" fill="#559abc"/>
    <path id="Trazado_729806" data-name="Trazado 729806" d="M160.505,190.664c-2.553-1.91-2.092-4.062-.4-6.2,1.332-1.685,3.263-2.846,4.3-4.806,3.956,3.411,3.967,3.422.269,7.083-1.356,1.342-2.777,2.619-4.167,3.925" transform="translate(-36.571 -41.397)" fill="#cee7f9"/>
    <path id="Trazado_729807" data-name="Trazado 729807" d="M119.637,56.18c0,3.2,0,6.407.005,9.611.005,1.718-.49,3.56,2.236,3.978,1.058.162,1.516,1.647,1.236,2.907a2.541,2.541,0,0,1-2.684,2.224c-6.15,0-12.3,0-18.452.007a2.8,2.8,0,0,1-2.8-2.195,2.328,2.328,0,0,1,1.628-3.056c2.369-.282,2.053-1.738,2.051-3.251q-.012-8.458,0-16.916c0-1.494.366-3.033-2.032-3.274-1.381-.139-2.006-1.543-1.751-2.974a2.542,2.542,0,0,1,2.641-2.3c4.869-.023,9.744-.142,14.6.068,2.525.109,3.268,2.189,3.306,4.407.062,3.587.017,7.176.02,10.764m-5.979,1.979c0-3.072-.079-6.147.031-9.216.062-1.758-.4-2.479-2.326-2.472-1.965.006-2.72.536-2.682,2.592q.16,8.831,0,17.666c-.033,1.972.566,2.612,2.6,2.66,2.275.054,2.455-1.014,2.4-2.78-.093-2.814-.025-5.632-.025-8.448" transform="translate(-22.814 -9.421)" fill="#0b100f"/>
    <path id="Trazado_729808" data-name="Trazado 729808" d="M104.008,23.717c0-1.411-.083-2.827.019-4.229.162-2.227,1.348-3.551,3.673-3.586,2.691-.041,5.389.079,8.074-.055,3.719-.185,4.937,1.766,5.031,5.158.317,11.381.356,11.38-10.389,11.344-6.247-.021-6.424-.258-6.41-8.633m10.713.392c.332-1.625.146-2.782-2.22-2.679-1.9.082-2.8.434-2.689,2.542.089,1.7.1,2.9,2.416,2.78,1.849-.1,3.031-.295,2.493-2.643" transform="translate(-23.959 -3.649)" fill="#0b100f"/>
    <path id="Trazado_729809" data-name="Trazado 729809" d="M19.7,184.937c-2.152-1.925-2.247-3.846.015-5.76q9.4-.087,18.806-.172c2.213-.02,3.958.867,3.841,3.233-.1,2.113-1.792,2.854-3.853,2.829-6.27-.076-12.54-.092-18.81-.13" transform="translate(-4.16 -41.247)" fill="#17140a"/>
    <path id="Trazado_729810" data-name="Trazado 729810" d="M19.664,168.061c-2.347-2.34-2.225-4.36.78-6,5.761.026,11.523.082,17.284.063,2.386-.008,4.738.406,4.624,3.26-.105,2.633-2.43,2.8-4.633,2.766-6.018-.082-12.037-.065-18.055-.086" transform="translate(-4.155 -37.342)" fill="#17140a"/>
    <path id="Trazado_729811" data-name="Trazado 729811" d="M19.649,151.155c-2.486-3.32-2.222-4.3,1.606-5.98,3.188.061,6.378.09,9.567.195,2,.066,3.589.773,3.424,3.151-.147,2.1-1.595,2.687-3.48,2.67-3.706-.034-7.411-.026-11.117-.035" transform="translate(-4.155 -33.452)" fill="#0b100f"/>
    <path id="Trazado_729812" data-name="Trazado 729812" d="M192.96,39.9c3.709-.059,7.419-.2,11.127-.154,3.164.036,8.054,5.089,8.067,8.269.033,8.2-.062,16.4.06,24.593.032,2.152-.539,2.843-2.74,2.768-5.5-.188-11.009-.127-16.514-.165q0-2.615,0-5.229c3.7-.048,7.393-.1,11.089-.141,2.183-.022,3.933-.8,3.822-3.222-.1-2.183-1.794-2.812-3.82-2.806-3.7.01-7.394-.07-11.091-.113q0-1.516,0-3.033c3.695-.059,7.389-.134,11.083-.173,2.184-.022,3.954-.782,3.842-3.2-.1-2.184-1.792-2.782-3.834-2.76-3.7.04-7.395-.054-11.093-.092-.272-2.023.417-2.981,2.652-2.921,1.674.046,3.515.646,5.044-.665,1.34-1.03,2.04-2.306,1.2-3.946-.73-1.429-2.072-1.662-3.567-1.621-1.772.049-3.549-.053-5.325-.09q0-2.648,0-5.3" transform="translate(-44.449 -9.157)" fill="#cee7f9"/>
    <path id="Trazado_729813" data-name="Trazado 729813" d="M190.447,60.62q0,1.517,0,3.033c-1.935.256-3.915.54-3.925,3.121-.01,2.6,2.048,2.809,3.925,3.161q0,2.615,0,5.229c-8.36.461-8.36.461-8.36-7.7,0-8.048.161-16.1-.081-24.143-.095-3.144.953-4.09,3.868-3.7,1.508.2,3.047.162,4.572.232q0,2.647,0,5.295c-1.975.152-3.953.4-3.922,3.033.032,2.707,2.072,2.811,4.034,2.8,2.526-.009,5.052-.115,7.578-.18-1.528,1.312-3.369.712-5.043.666-2.236-.061-2.924.9-2.652,2.921-1.969.182-3.888.489-3.929,3.071-.043,2.674,2.147,2.689,3.929,3.158" transform="translate(-41.937 -9.111)" fill="#abcde7"/>
    <path id="Trazado_729814" data-name="Trazado 729814" d="M178.467,140.1c-3.037-.376-7.912,1.627-10-.8-1.8-2.081-.662-6.819-.556-10.375.108-3.659-1.662-8.528.746-10.626,2.07-1.805,6.819-.7,10.375-.593,3.779.112,8.662-1.676,11.028.8,2.175,2.273.623,7.079.573,10.758-.048,3.532,1.635,8.238-.748,10.262-2.038,1.731-6.594.5-10.037.574-.255.005-.511,0-1.378,0" transform="translate(-38.569 -27.002)" fill="#5bac7b"/>
    <path id="Trazado_729815" data-name="Trazado 729815" d="M95.04,197.741c8.359-.717,8.359-.717,8.359,7.345,0,6.073,0,6.078-6.079,5.991-.761-.012-1.521-.119-2.281-.182q0-6.576,0-13.154" transform="translate(-21.899 -45.497)" fill="#e14a5c"/>
    <path id="Trazado_729816" data-name="Trazado 729816" d="M93.417,197.777q0,6.576,0,13.154c-5.419.388-5.419.388-5.42-4.858q0-1.723,0-3.445c0-5.279,0-5.279,5.421-4.85" transform="translate(-20.276 -45.534)" fill="#e03247"/>
    <path id="Trazado_729817" data-name="Trazado 729817" d="M26.078,16.095c6.12-.339,6.12-.339,6.119,5.646,0,5.192,0,5.192-6.11,4.9l-.009-10.549" transform="translate(-6.009 -3.681)" fill="#ffd75e"/>
    <path id="Trazado_729818" data-name="Trazado 729818" d="M24.637,16.058l.009,10.549c-4.728.239-4.444.225-4.806-6.974-.218-4.318,1.992-4.016,4.8-3.575" transform="translate(-4.568 -3.645)" fill="#faaf2f"/>
    <path id="Trazado_729819" data-name="Trazado 729819" d="M116.554,59.83c0,2.817-.068,5.635.025,8.448.058,1.766-.122,2.834-2.4,2.78-2.038-.048-2.637-.687-2.6-2.66q.148-8.831,0-17.666c-.038-2.056.716-2.586,2.681-2.592,1.932-.007,2.39.713,2.326,2.472-.109,3.069-.03,6.144-.03,9.216" transform="translate(-25.71 -11.093)" fill="#f7f9fa"/>
    <path id="Trazado_729820" data-name="Trazado 729820" d="M116.466,25.782c.539,2.348-.643,2.547-2.493,2.643-2.316.119-2.327-1.075-2.416-2.78-.111-2.108.791-2.46,2.689-2.542,2.366-.1,2.553,1.054,2.22,2.679" transform="translate(-25.703 -5.322)" fill="#f7f9fa"/>
    <path id="Trazado_729821" data-name="Trazado 729821" d="M191.8,77.155c-1.878-.352-3.936-.561-3.926-3.161.01-2.581,1.989-2.866,3.925-3.121,3.7.043,7.395.123,11.091.113,2.026-.006,3.72.623,3.821,2.806.112,2.42-1.64,3.2-3.822,3.222-3.7.037-7.393.093-11.089.141" transform="translate(-43.292 -16.331)" fill="#111213"/>
    <path id="Trazado_729822" data-name="Trazado 729822" d="M191.8,65.067c-1.782-.469-3.973-.483-3.929-3.158.041-2.583,1.959-2.889,3.929-3.071,3.7.038,7.4.132,11.093.092,2.042-.022,3.733.576,3.834,2.76.112,2.423-1.658,3.182-3.842,3.2-3.695.038-7.389.114-11.083.173" transform="translate(-43.29 -13.558)" fill="#111213"/>
    <path id="Trazado_729823" data-name="Trazado 729823" d="M199.5,52.485c-2.527.065-5.052.171-7.58.18-1.962.007-4-.1-4.034-2.8-.032-2.638,1.947-2.881,3.922-3.033,1.775.037,3.552.139,5.325.091,1.5-.042,2.837.192,3.568,1.62.839,1.64.138,2.915-1.2,3.946" transform="translate(-43.293 -10.791)" fill="#0b100f"/>
  </g>
</svg>
