<svg id="Grupo_991474" data-name="Grupo 991474" xmlns="http://www.w3.org/2000/svg" xmlns:xlink="http://www.w3.org/1999/xlink" width="204.742" height="204.696" viewBox="0 0 204.742 204.696">
  <defs>
    <clipPath id="clip-path">
      <rect id="Rectángulo_346589" data-name="Rectángulo 346589" width="204.742" height="204.696" fill="none"/>
    </clipPath>
  </defs>
  <g id="Grupo_988749" data-name="Grupo 988749" clip-path="url(#clip-path)">
    <path id="Trazado_729868" data-name="Trazado 729868" d="M25.14,109.629c2.237,3.08,3.784,5.3,3.07,8.346-1.215,5.19-7.251,7.543-11.267,3.92-5.3-4.785-10.312-9.922-15.17-15.165-2.695-2.908-2.231-6.458.806-9.6Q9.036,90.459,15.7,83.986c3.411-3.334,7.186-3.612,10.306-.931,2.857,2.454,3.057,6.115.551,10.007-.283.44-.549.892-1.062,1.731,4.328.782,8.375.279,12.388.341,1.482.023,1.558-1.129,1.784-2.271q8.795-44.255,53.047-53.125c1.957-.392,2.5-1.156,2.46-2.951-.074-3.565-.021-7.133-.021-10.643-1.75-.661-2.359.831-3.38,1.323a7.12,7.12,0,0,1-8.916-1.874c-2.159-2.878-2.35-6.085.084-8.7,4.873-5.229,9.937-10.3,15.177-15.159,2.785-2.583,6.324-2.21,9.29.63,4.57,4.375,9.039,8.861,13.434,13.412,3.264,3.379,3.477,7.358.807,10.377-2.447,2.766-6.256,2.924-10.029.417-.426-.283-.862-.554-2-1.287,0,4.5.017,8.394-.008,12.291-.011,1.68,1.056,1.86,2.4,2.128q44.24,8.844,53.043,53.131c.336,1.691.907,2.391,2.606,2.364,3.7-.058,7.394-.018,11.048-.018.487-1.768-1-2.344-1.485-3.405-1.478-3.253-1.2-6.255,1.467-8.651,2.806-2.521,6.219-2.849,9-.307,5.268,4.827,10.316,9.916,15.2,15.139,2.743,2.935,2.39,6.492-.6,9.611-4.286,4.465-8.694,8.815-13.111,13.152-3.476,3.414-7.139,3.784-10.286,1.182-2.814-2.326-3.1-6.208-.737-10.05.346-.563.952-1.024.5-2.222H164.078c-10.8,0-11.84-.965-12.781-11.824a48.879,48.879,0,0,0-35.685-42.867c-29.53-8.3-59.55,12.4-62.163,42.862-.117,1.371-.278,2.737-.409,4.107-.506,5.256-2.936,7.62-8.239,7.7-6.28.092-12.561.021-19.661.021" transform="translate(0 0)" fill="#67af6a"/>
    <path id="Trazado_729869" data-name="Trazado 729869" d="M154.391,153.464l.057,5.357c-1.722,3.033-3.743,5.663-7.391,6.621-1.6.419-2.183,1.8-2.424,3.456-1.636,11.246-7.97,18.921-18.16,23.605-7.127,2.2-14.254,2.588-21.381,0-10.18-4.693-16.531-12.353-18.165-23.6-.24-1.653-.82-3.04-2.421-3.459-3.649-.955-5.675-3.581-7.387-6.623l.055-5.365c.38-.724.572-1.793,1.169-2.119,6.976-3.809,8.861-11.31,12.973-17.237,4.859-7.007,12.814-9.032,20.929-9.977a3.2,3.2,0,0,1,3.585,2.206c1.722,4.91,5.688,6.758,10.286,7.854,3.335.794,6.681,1.556,9.977,2.49,4,1.132,7.377,3.091,8.552,7.482a3.837,3.837,0,0,0,2.883,2.67c3.41,1.078,5.469,3.5,6.863,6.641" transform="translate(-13.407 -21.574)" fill="#e6ae91"/>
    <path id="Trazado_729870" data-name="Trazado 729870" d="M152.276,221.855c4.69,3.6,8.315,7.964,9.954,13.775,1.459,5.172.223,6.9-5.139,6.907q-33.4.032-66.807.01c-6.873,0-13.746.036-20.619-.014-4.848-.036-6.083-1.767-4.853-6.458,1.572-6,5.238-10.49,10.041-14.187,4.756-2.562,9.683-4.327,15.236-4.06,4.235.2,8.486.043,12.731.045.866,4.732,2.906,8.582,7.925,9.947,6.685,1.818,11.447-1.718,13.565-9.948,9.465.317,19.253-1.631,27.965,3.983" transform="translate(-11.191 -37.864)" fill="#4a944e"/>
    <path id="Trazado_729871" data-name="Trazado 729871" d="M154.359,149.017c-1.394-3.138-3.453-5.563-6.863-6.641a3.837,3.837,0,0,1-2.883-2.67c-1.175-4.391-4.556-6.351-8.552-7.482-3.3-.934-6.642-1.7-9.977-2.49-4.6-1.1-8.565-2.944-10.286-7.854a3.2,3.2,0,0,0-3.585-2.206c-8.114.944-16.069,2.97-20.929,9.977-4.112,5.927-6,13.427-12.973,17.237-.6.326-.789,1.4-1.169,2.119-.17-7.546-.772-15.1,1.374-22.526,5.435-18.806,23.151-30.162,43.193-27.607,18.125,2.311,32.542,18.885,32.8,37.774.055,4.122-.091,8.247-.145,12.371" transform="translate(-13.375 -17.127)" fill="#783e35"/>
    <path id="Trazado_729872" data-name="Trazado 729872" d="M105.027,208.89c-4.244,0-8.5.159-12.73-.045-5.553-.268-10.48,1.5-15.236,4.06q.024-23.39.048-46.781c1.713,3.042,3.738,5.667,7.387,6.623,1.6.419,2.18,1.805,2.421,3.458,1.634,11.25,7.986,18.911,18.165,23.6q-.028,4.54-.055,9.08" transform="translate(-13.397 -28.881)" fill="#773d35"/>
    <path id="Trazado_729873" data-name="Trazado 729873" d="M164.879,212.873c-8.712-5.614-18.5-3.666-27.965-3.983l-.055-9.079c10.191-4.685,16.525-12.36,18.16-23.605.24-1.656.828-3.037,2.424-3.456,3.647-.958,5.669-3.589,7.391-6.622q.022,23.372.045,46.744" transform="translate(-23.793 -28.882)" fill="#773d35"/>
    <path id="Trazado_729874" data-name="Trazado 729874" d="M132.348,206.9q.027,4.539.055,9.079c-2.117,8.23-6.88,11.766-13.565,9.948-5.02-1.364-7.059-5.215-7.925-9.947q.027-4.541.055-9.08c7.127,2.587,14.254,2.2,21.381,0" transform="translate(-19.282 -35.97)" fill="#d19981"/>
  </g>
</svg>
