<svg xmlns="http://www.w3.org/2000/svg" xmlns:xlink="http://www.w3.org/1999/xlink" width="122" height="122" viewBox="0 0 122 122">
  <defs>
    <clipPath id="clip-path">
      <rect id="Rectángulo_346574" data-name="Rectángulo 346574" width="100.979" height="91.722" fill="none"/>
    </clipPath>
  </defs>
  <g id="Grupo_991490" data-name="Grupo 991490" transform="translate(7128 11025)">
    <circle id="Elipse_5908" data-name="Elipse 5908" cx="61" cy="61" r="61" transform="translate(-7128 -11025)" fill="#b20d0d"/>
    <g id="Grupo_988724" data-name="Grupo 988724" transform="translate(-7117.91 -11009.861)">
      <g id="Grupo_988723" data-name="Grupo 988723" clip-path="url(#clip-path)">
        <path id="Trazado_729741" data-name="Trazado 729741" d="M24.664,101.184h-3.89a2.174,2.174,0,0,0-2.381-1.3c-3.023.052-6.049-.049-9.07.048-1.369.044-1.773-.359-1.771-1.748q.059-38.351,0-76.7c0-1.184.272-1.572,1.517-1.55,4.4.079,8.807.031,13.211.032a2.741,2.741,0,0,1,1.483.332C26.2,21.7,28.7,23.006,31.135,24.414a10.855,10.855,0,0,0,5.62,1.47q23.268-.048,46.537-.02c2.775,0,4.062-1.052,3.9-3.723-.129-2.109.743-2.4,2.46-2.2,1.218.143,2.451.11,2.6-1.588l3.8.007a1.864,1.864,0,0,0,2.278,1.611c.85-.064,1.715.057,2.56-.028,1.228-.124,1.679.222,1.677,1.58q-.065,38.341,0,76.682c0,1.423-.462,1.732-1.794,1.723-8.148-.056-16.3-.028-24.445-.028q-24.445,0-48.89-.01c-1.16,0-2.264-.028-2.774,1.3m41.43-17.038A16.407,16.407,0,0,0,66.06,80c1.325-.719,1.077-1.73.6-2.858a12.563,12.563,0,0,0-12.229-7.588A12.71,12.71,0,0,0,42.45,80.8a12.918,12.918,0,0,0,9.8,14,12.773,12.773,0,0,0,14.7-8.056c.436-1.206.306-2.021-.854-2.6m29.715-1.584a12.675,12.675,0,1,0-25.342-.639,12.676,12.676,0,1,0,25.342.639M26.985,69.546A12.611,12.611,0,0,0,14.3,82.311,12.676,12.676,0,1,0,26.985,69.546M21.8,30.953c-1.946,0-3.521.024-5.094-.007-1.66-.032-2.4.813-2.406,2.4-.005,3.214,0,6.429,0,9.643a2.092,2.092,0,0,0,2.262,2.378q4.919.06,9.839,0a2.059,2.059,0,0,0,2.265-2.356c-.028-1.574-.05-3.15.009-4.723s-.377-3.208.85-4.66c.616-.729-.069-1.41-.805-1.874-2.307-1.451-4.865-.511-6.92-.8M72.06,38.277c0-1.638-.015-3.276,0-4.914a2.087,2.087,0,0,0-2.379-2.415q-4.816.018-9.632,0a2.026,2.026,0,0,0-2.332,2.257c-.013,3.276,0,6.552-.007,9.828A2.073,2.073,0,0,0,60,45.372c3.275.037,6.552.043,9.828-.006a2.053,2.053,0,0,0,2.239-2.373c-.033-1.572-.007-3.145-.005-4.717m0,18.725c0-1.638-.028-3.277.008-4.914a2.069,2.069,0,0,0-2.242-2.382c-3.275-.06-6.553-.055-9.828-.006a2.089,2.089,0,0,0-2.283,2.352c.013,3.276-.005,6.553.008,9.828a2.025,2.025,0,0,0,2.333,2.255q4.816-.024,9.633,0a2.087,2.087,0,0,0,2.376-2.417c-.017-1.573,0-3.145-.006-4.718m-50.71,7.131c1.638,0,3.277-.011,4.915,0a2.1,2.1,0,0,0,2.4-2.4c-.011-3.211-.028-6.422.006-9.633a2.081,2.081,0,0,0-2.227-2.4q-5.011-.09-10.024.011a1.963,1.963,0,0,0-2.1,2.116c-.024,3.407-.036,6.815.01,10.221.019,1.438.877,2.1,2.3,2.079,1.573-.019,3.145,0,4.718,0M85.635,34.186c-2.749,0-5.5.011-8.247-.006-1.088-.007-2.1.262-2.129,1.486-.033,1.361,1.03,1.616,2.2,1.612q8.051-.022,16.1,0c1.134,0,2.228-.145,2.2-1.577s-1.16-1.519-2.269-1.515c-2.618.007-5.236,0-7.854,0M42.159,37.272q4.124,0,8.247,0c1.111,0,2-.335,1.954-1.63-.045-1.182-.928-1.454-1.936-1.455q-8.247,0-16.493,0c-1.094,0-2.069.3-2.073,1.539s.948,1.562,2.056,1.556c2.749-.016,5.5-.005,8.247-.006m.08,15.784c-2.818,0-5.637.023-8.455-.012-1.07-.013-1.9.337-1.925,1.451-.028,1.157.879,1.5,1.9,1.5q8.357.009,16.715,0c.986,0,1.905-.215,1.89-1.469-.017-1.362-.978-1.488-2.058-1.478-2.687.024-5.375.008-8.062.008m43.184,0c-2.687,0-5.375.027-8.062-.013-1.111-.017-2.076.223-2.1,1.471-.021,1.137.9,1.486,1.92,1.487q8.357,0,16.714,0c1.005,0,1.891-.266,1.871-1.5-.02-1.2-.838-1.463-1.89-1.453-2.818.027-5.637.009-8.455.009M38.449,60.9c1.5,0,3.009.018,4.513-.006,1.017-.017,1.856-.372,1.838-1.557s-.836-1.518-1.869-1.519q-4.611,0-9.223,0c-1.06,0-1.86.442-1.856,1.551,0,1.124.858,1.523,1.887,1.531,1.57.012,3.14,0,4.71,0m43.327-3.082q-2.355,0-4.709,0c-1.069,0-1.837.488-1.817,1.591.018,1,.784,1.472,1.739,1.479q4.708.035,9.417,0c1.022-.007,1.84-.409,1.79-1.6s-.885-1.479-1.908-1.478q-2.256,0-4.512,0M38.4,42.037c1.508,0,3.015-.018,4.523.006,1.052.017,1.846-.3,1.876-1.482.028-1.113-.761-1.447-1.7-1.453q-4.719-.034-9.438-.007c-1.033,0-1.885.413-1.8,1.582.075.992.811,1.387,1.813,1.363,1.572-.037,3.146-.01,4.719-.009m43.3,0c1.573,0,3.146-.012,4.718,0,.973.01,1.694-.305,1.774-1.379.082-1.1-.63-1.538-1.59-1.547-3.21-.03-6.422-.021-9.632-.008-.974,0-1.733.466-1.712,1.483.02.978.7,1.469,1.724,1.452,1.573-.025,3.146-.006,4.718-.005" transform="translate(-4.572 -11.11)" fill="#dde1e6"/>
        <path id="Trazado_729742" data-name="Trazado 729742" d="M87.679,7.242c-.15,1.7-1.383,1.732-2.6,1.588-1.717-.2-2.589.092-2.46,2.2.164,2.672-1.124,3.723-3.9,3.723q-23.268.007-46.537.02a10.858,10.858,0,0,1-5.62-1.47c-2.436-1.408-4.933-2.712-7.367-4.122a2.739,2.739,0,0,0-1.482-.333c-4.4,0-8.809.048-13.211-.031-1.245-.022-1.518.365-1.517,1.55q.049,38.351,0,76.7c0,1.39.4,1.792,1.771,1.749,3.021-.1,6.047,0,9.07-.048a2.173,2.173,0,0,1,2.381,1.3c-.228,1.262-1.005,1.665-2.247,1.647-3.678-.052-7.356,0-11.034-.028C.8,91.677.006,90.844.005,88.664q-.011-39.8,0-79.6C0,6.691.78,5.91,3.215,5.9Q10.308,5.856,17.4,5.9a4.2,4.2,0,0,0,2.6-.7C25.835,1.05,32.261-.213,39.442.028,52.367.461,65.317.15,78.257.151c3.406,0,4.358.85,4.385,4.255.01,1.265.439,1.511,1.594,1.522,1.253.012,2.894-.66,3.442,1.314M51.474,6c5.586,0,11.173-.015,16.76.013,1.028.005,1.712-.016,1.718-1.407.006-1.354-.6-1.445-1.666-1.442q-16.563.038-33.126,0c-1.006,0-1.715-.033-1.7,1.391.015,1.328.547,1.47,1.647,1.461C40.563,5.976,46.019,6,51.474,6m.112,5.744c5.586,0,11.173-.011,16.759.011.943,0,1.614-.006,1.6-1.3-.015-1.2-.364-1.562-1.574-1.558q-16.661.063-33.321,0c-1.2,0-1.571.3-1.578,1.532-.007,1.261.569,1.341,1.554,1.335,5.521-.031,11.041-.015,16.562-.015M72.971,7.364c0,4.364,0,4.364,4.377,4.359a8.432,8.432,0,0,1,.984.005c1.009.118,1.4-.267,1.351-1.319a28.172,28.172,0,0,1,.017-4.72c.253-2.1-.538-2.614-2.556-2.537-4.169.158-4.173.047-4.173,4.212M30.44,7.449c0-.587.038-1.177-.009-1.76-.062-.755.393-1.874-.234-2.184-.817-.4-1.626.542-2.448.888-.642.271-.554.8-.558,1.309-.007,1.109-.016,2.217,0,3.325.017,1.081,1.606,2.673,2.661,2.458,1.269-.258.391-1.379.556-2.087a8.789,8.789,0,0,0,.03-1.949" transform="translate(0 0)" fill="#14110c"/>
        <path id="Trazado_729743" data-name="Trazado 729743" d="M50.912,98.95c.51-1.323,1.614-1.3,2.774-1.3q24.445.022,48.89.01c8.148,0,16.3-.028,24.445.028,1.332.009,1.8-.3,1.794-1.723q-.063-38.341,0-76.682c0-1.357-.449-1.7-1.677-1.579-.846.085-1.711-.036-2.56.028a1.864,1.864,0,0,1-2.278-1.611,2.3,2.3,0,0,1,.192-.343c1.177-1.455,7.594-1.506,8.76-.077a3,3,0,0,1,.546,2.036q-.011,39.911-.011,79.822c0,2.16-.813,3.006-2.942,3.007q-37.844.018-75.687.026c-1.241,0-2.02-.384-2.247-1.646" transform="translate(-30.82 -8.876)" fill="#0f1010"/>
        <path id="Trazado_729744" data-name="Trazado 729744" d="M124.115,163.012a16.407,16.407,0,0,1,.034,4.142c-1.482-.1-1.747,1.049-2.2,2.078a9.5,9.5,0,0,1-12.246,5.19,9.754,9.754,0,1,1,12.1-13.354c.491,1.024.846,2.122,2.314,1.943m-11.088,7.4c1.109,0,2.218.02,3.326-.006a1.348,1.348,0,0,0,1.476-1.457c.008-.978-.615-1.41-1.5-1.422q-3.228-.044-6.457,0a1.319,1.319,0,0,0-1.476,1.446,1.355,1.355,0,0,0,1.5,1.433c1.043.022,2.087.005,3.131,0m-6.216-7.29c-.049,1.146.414,2.038,1.619,1.973s1.521-1.049,1.491-2.144-.41-2.04-1.652-1.971-1.524,1.047-1.458,2.142m12.606-.079c.043-1.106-.3-2.056-1.538-2.063s-1.566.951-1.575,2.049.359,2.062,1.564,2.067,1.618-.92,1.549-2.053" transform="translate(-62.628 -94.119)" fill="#ffb200"/>
        <path id="Trazado_729745" data-name="Trazado 729745" d="M192.31,161.09a12.675,12.675,0,1,1-12.229-13.013A12.746,12.746,0,0,1,192.31,161.09m-12.721,9.545A9.816,9.816,0,0,0,179.663,151a9.819,9.819,0,0,0-.073,19.631" transform="translate(-101.074 -89.638)" fill="#0c0c0d"/>
        <path id="Trazado_729746" data-name="Trazado 729746" d="M37.339,148.078a12.777,12.777,0,1,1-12.682,12.764,12.73,12.73,0,0,1,12.682-12.764m9.578,12.828a9.722,9.722,0,0,0-9.586-9.92,9.828,9.828,0,0,0-.166,19.653,9.7,9.7,0,0,0,9.752-9.733" transform="translate(-14.926 -89.641)" fill="#0c0c0d"/>
        <path id="Trazado_729747" data-name="Trazado 729747" d="M119.509,158.538c-1.469.18-1.823-.919-2.314-1.943a9.683,9.683,0,1,0-12.1,13.354,9.5,9.5,0,0,0,12.246-5.19c.453-1.029.719-2.174,2.2-2.078,1.16.581,1.291,1.4.854,2.6a12.772,12.772,0,0,1-14.7,8.056,12.919,12.919,0,0,1-9.8-14,12.71,12.71,0,0,1,11.976-11.245,12.563,12.563,0,0,1,12.229,7.588c.482,1.127.73,2.139-.6,2.858" transform="translate(-58.021 -89.645)" fill="#14110c"/>
        <path id="Trazado_729748" data-name="Trazado 729748" d="M32.145,50.23c2.055.293,4.613-.647,6.92.8.736.463,1.421,1.145.805,1.874-1.227,1.451-.789,3.081-.85,4.66s-.037,3.148-.009,4.722a2.058,2.058,0,0,1-2.264,2.356q-4.919.069-9.84,0a2.092,2.092,0,0,1-2.262-2.378c0-3.214-.006-6.429,0-9.643,0-1.592.747-2.436,2.406-2.4,1.574.03,3.149.006,5.094.006m3.528,3.607-.536-.693c-2.15,0-4.3.022-6.451-.011-.842-.013-1.158.3-1.142,1.148.04,2.1.043,4.2,0,6.294-.018.84.241,1.163,1.113,1.143,2.1-.049,4.2-.044,6.294,0,.841.017,1.187-.268,1.146-1.126-.049-1.016-.011-2.036-.011-3.189a6.724,6.724,0,0,0-2.259,1.881c-1.155,1.1-2.268,1.186-3.416.025-.461-.466-.92-.934-1.387-1.394-.7-.684-.985-1.462-.229-2.23a1.39,1.39,0,0,1,2.234.118c.953,1.215,1.535.567,2.308-.183a23.075,23.075,0,0,1,2.338-1.782" transform="translate(-14.918 -30.387)" fill="#0c0c0d"/>
        <path id="Trazado_729749" data-name="Trazado 729749" d="M149,57.6c0,1.573-.026,3.146.006,4.717a2.053,2.053,0,0,1-2.239,2.373c-3.275.049-6.552.043-9.828.006a2.073,2.073,0,0,1-2.285-2.339c.01-3.276-.005-6.552.007-9.828A2.026,2.026,0,0,1,137,50.272q4.816.021,9.632,0a2.086,2.086,0,0,1,2.379,2.415c-.019,1.638,0,3.276-.005,4.914m-7.2,4.14c4.291,0,4.291,0,4.291-4.225,0-4.311,0-4.311-4.257-4.311s-4.267,0-4.267,4.273,0,4.264,4.234,4.264" transform="translate(-81.518 -30.432)" fill="#0c0c0d"/>
        <path id="Trazado_729750" data-name="Trazado 729750" d="M149,105.031c0,1.573-.013,3.146,0,4.718a2.087,2.087,0,0,1-2.376,2.417q-4.817-.019-9.633,0a2.025,2.025,0,0,1-2.333-2.255c-.013-3.276,0-6.553-.009-9.829a2.089,2.089,0,0,1,2.283-2.352c3.275-.049,6.553-.055,9.828.006a2.069,2.069,0,0,1,2.242,2.382c-.036,1.637-.008,3.276-.007,4.914m-7.021-4.334c-4.417,0-4.417,0-4.417,4.32v.2c0,4.007,0,4.007,3.987,4.007,4.537,0,4.537,0,4.537-4.471,0-4.053,0-4.053-4.108-4.053" transform="translate(-81.517 -59.139)" fill="#0c0c0d"/>
        <path id="Trazado_729751" data-name="Trazado 729751" d="M31.695,112.17c-1.573,0-3.146-.015-4.718,0-1.424.017-2.282-.64-2.3-2.079-.045-3.406-.034-6.814-.009-10.221a1.963,1.963,0,0,1,2.1-2.116q5.01-.1,10.024-.011a2.08,2.08,0,0,1,2.227,2.4c-.034,3.211-.017,6.422-.006,9.633a2.094,2.094,0,0,1-2.4,2.4c-1.638-.013-3.277,0-4.915,0m4.376-7.139c0-4.326,0-4.326-4.223-4.326-4.28,0-4.28,0-4.28,4.244,0,4.28,0,4.28,4.29,4.28,4.213,0,4.213,0,4.213-4.2" transform="translate(-14.919 -59.147)" fill="#0c0c0d"/>
        <path id="Trazado_729752" data-name="Trazado 729752" d="M189.494,58.465c2.618,0,5.236,0,7.854,0,1.109,0,2.243.076,2.269,1.515s-1.068,1.579-2.2,1.577q-8.051-.013-16.1,0c-1.166,0-2.229-.252-2.2-1.612.03-1.224,1.041-1.493,2.129-1.487,2.749.017,5.5.006,8.247.006" transform="translate(-108.431 -35.389)" fill="#131313"/>
        <path id="Trazado_729753" data-name="Trazado 729753" d="M79.441,61.556c-2.749,0-5.5-.01-8.247.006-1.108.006-2.059-.32-2.055-1.556s.979-1.541,2.073-1.539q8.246.011,16.493,0c1.008,0,1.891.273,1.936,1.455.05,1.295-.844,1.631-1.954,1.63q-4.124,0-8.247,0" transform="translate(-41.854 -35.394)" fill="#131313"/>
        <path id="Trazado_729754" data-name="Trazado 729754" d="M79.523,106.27c2.687,0,5.375.016,8.062-.008,1.079-.01,2.041.116,2.058,1.478.015,1.253-.9,1.467-1.89,1.469q-8.358.017-16.715,0c-1.017,0-1.925-.345-1.9-1.5.027-1.114.854-1.464,1.925-1.451,2.818.036,5.637.012,8.455.012" transform="translate(-41.856 -64.325)" fill="#070808"/>
        <path id="Trazado_729755" data-name="Trazado 729755" d="M189.288,106.267c2.818,0,5.637.018,8.455-.009,1.051-.01,1.87.25,1.89,1.453.021,1.23-.867,1.495-1.872,1.5q-8.357.012-16.714,0c-1.021,0-1.941-.349-1.92-1.487.023-1.248.988-1.487,2.1-1.471,2.687.041,5.374.013,8.062.013" transform="translate(-108.437 -64.322)" fill="#070808"/>
        <path id="Trazado_729756" data-name="Trazado 729756" d="M75.723,121.448c-1.57,0-3.14.009-4.71,0-1.029-.008-1.882-.407-1.887-1.531s.8-1.552,1.856-1.551q4.612,0,9.223,0c1.032,0,1.851.347,1.869,1.519s-.821,1.541-1.838,1.557c-1.5.024-3.009.006-4.513.007" transform="translate(-41.847 -71.653)" fill="#131313"/>
        <path id="Trazado_729757" data-name="Trazado 729757" d="M185.619,118.365q2.257,0,4.513,0c1.022,0,1.858.3,1.907,1.478s-.768,1.59-1.79,1.6q-4.708.036-9.417,0c-.955-.007-1.721-.481-1.739-1.479-.02-1.1.748-1.589,1.817-1.591q2.354,0,4.709,0" transform="translate(-108.417 -71.653)" fill="#131313"/>
        <path id="Trazado_729758" data-name="Trazado 729758" d="M75.683,73.848c-1.573,0-3.147-.027-4.719.01-1,.023-1.737-.372-1.813-1.363-.089-1.169.763-1.577,1.8-1.582q4.719-.023,9.438.007c.936.007,1.725.341,1.7,1.453-.03,1.185-.824,1.5-1.876,1.482-1.507-.024-3.015-.006-4.523-.006" transform="translate(-41.858 -42.921)" fill="#070808"/>
        <path id="Trazado_729759" data-name="Trazado 729759" d="M185.555,73.854c-1.573,0-3.146-.019-4.718.006-1.024.016-1.7-.475-1.724-1.452-.021-1.017.739-1.479,1.712-1.483,3.211-.013,6.422-.022,9.632.008.96.009,1.672.442,1.59,1.547-.08,1.074-.8,1.389-1.774,1.378-1.573-.016-3.146,0-4.718,0" transform="translate(-108.429 -42.928)" fill="#070808"/>
        <path id="Trazado_729760" data-name="Trazado 729760" d="M102.8,10.852c-5.455,0-10.91-.024-16.366.02-1.1.009-1.631-.133-1.647-1.461-.017-1.424.693-1.392,1.7-1.391q16.563.027,33.126,0c1.066,0,1.672.089,1.666,1.442-.006,1.391-.69,1.413-1.718,1.408-5.586-.028-11.173-.013-16.76-.013" transform="translate(-51.33 -4.852)" fill="#f9af00"/>
        <path id="Trazado_729761" data-name="Trazado 729761" d="M102.929,25.382c-5.521,0-11.042-.016-16.562.015-.984.006-1.561-.074-1.554-1.335.007-1.229.378-1.537,1.577-1.532q16.661.066,33.321,0c1.21,0,1.56.356,1.575,1.557.016,1.3-.655,1.309-1.6,1.305-5.586-.022-11.173-.011-16.759-.011" transform="translate(-51.343 -13.638)" fill="#f9af00"/>
        <path id="Trazado_729762" data-name="Trazado 729762" d="M184.909,12.187c0-4.166,0-4.054,4.173-4.212,2.018-.077,2.809.436,2.556,2.537a28.174,28.174,0,0,0-.017,4.72c.052,1.052-.342,1.436-1.351,1.319a8.432,8.432,0,0,0-.984-.005c-4.377.005-4.377.005-4.377-4.359" transform="translate(-111.937 -4.823)" fill="#ea6963"/>
        <path id="Trazado_729763" data-name="Trazado 729763" d="M72.138,12.676a8.788,8.788,0,0,1-.03,1.949c-.165.708.713,1.829-.556,2.087-1.055.215-2.644-1.377-2.661-2.458-.017-1.108-.008-2.217,0-3.325,0-.508-.084-1.038.558-1.309.821-.346,1.631-1.292,2.448-.888.628.311.172,1.429.234,2.184.048.583.009,1.173.009,1.76" transform="translate(-41.698 -5.226)" fill="#fcc8a2"/>
        <path id="Trazado_729764" data-name="Trazado 729764" d="M120.6,188.876c-1.044,0-2.088.017-3.131,0a1.355,1.355,0,0,1-1.5-1.432,1.319,1.319,0,0,1,1.476-1.446q3.228-.047,6.457,0c.889.012,1.512.444,1.5,1.422a1.347,1.347,0,0,1-1.476,1.457c-1.109.026-2.218.006-3.327.007" transform="translate(-70.203 -112.579)" fill="#070808"/>
        <path id="Trazado_729765" data-name="Trazado 729765" d="M111.951,171.571c-.069-1.1.222-2.074,1.456-2.143s1.621.865,1.652,1.971-.294,2.079-1.491,2.144-1.668-.827-1.617-1.972" transform="translate(-67.765 -102.564)" fill="#201906"/>
        <path id="Trazado_729766" data-name="Trazado 729766" d="M139.125,171.5c.071,1.133-.341,2.058-1.547,2.054s-1.574-.958-1.564-2.067.337-2.056,1.575-2.049,1.581.957,1.536,2.062" transform="translate(-82.338 -102.569)" fill="#201906"/>
        <path id="Trazado_729767" data-name="Trazado 729767" d="M184.342,175.13a9.819,9.819,0,0,1,.073-19.631,9.816,9.816,0,0,1-.073,19.631m.025-9.217a4.913,4.913,0,0,0-4.972,4.128c-.109.943.107,1.73,1.154,1.941a1.325,1.325,0,0,0,1.75-1.124,2.047,2.047,0,0,1,2.081-1.949,1.987,1.987,0,0,1,2.135,1.861,1.4,1.4,0,0,0,1.886,1.2c.97-.228,1.082-1,1.037-1.846-.125-2.331-2.405-4.229-5.072-4.208m-3.21-2.813c.077-1.13-.236-2.081-1.484-2.1s-1.56.972-1.581,2.04c-.022,1.1.367,2.065,1.559,2.082,1.214.017,1.609-.914,1.506-2.021m9.489.014c.088-1.079-.164-2.061-1.412-2.118-1.266-.058-1.562.942-1.594,2-.033,1.074.288,2.073,1.49,2.121,1.225.049,1.607-.878,1.516-2" transform="translate(-105.826 -94.134)" fill="#de373e"/>
        <path id="Trazado_729768" data-name="Trazado 729768" d="M51.4,165.367a9.7,9.7,0,0,1-9.752,9.733,9.828,9.828,0,0,1,.166-19.653,9.722,9.722,0,0,1,9.586,9.92m-9.561,7.351a4.984,4.984,0,0,0,4.912-4c.19-1.056-.035-1.9-1.1-2.171-1-.252-1.612.374-1.773,1.349a1.864,1.864,0,0,1-2.02,1.718,1.884,1.884,0,0,1-2.1-1.622c-.239-.983-.792-1.783-1.927-1.425-1.194.376-1.2,1.447-.985,2.459a5.19,5.19,0,0,0,5,3.691m6.286-9.759c-.069-.968-.3-2-1.567-1.991-1.228.01-1.526.936-1.536,2.049s.292,2.067,1.506,2.07c1.195,0,1.57-.969,1.6-2.128m-9.587.085c-.039-1.05-.262-2.1-1.544-2.065-1.258.036-1.429,1.043-1.442,2.127-.012,1.058.3,1.939,1.394,1.973,1.229.038,1.586-.938,1.592-2.036" transform="translate(-19.41 -94.102)" fill="#84b035"/>
        <path id="Trazado_729769" data-name="Trazado 729769" d="M40.12,58.34a23.075,23.075,0,0,0-2.338,1.782c-.773.751-1.355,1.4-2.308.183a1.39,1.39,0,0,0-2.234-.118c-.756.768-.466,1.546.229,2.23.467.46.926.928,1.387,1.394,1.148,1.161,2.26,1.079,3.416-.025A6.724,6.724,0,0,1,40.531,61.9c0,1.153-.038,2.173.011,3.189.041.858-.3,1.142-1.146,1.126-2.1-.042-4.2-.047-6.294,0-.873.02-1.131-.3-1.113-1.143.045-2.1.042-4.2,0-6.294-.016-.849.3-1.162,1.142-1.148,2.15.034,4.3.011,6.451.011l.536.693" transform="translate(-19.365 -34.891)" fill="#ebbe48"/>
        <path id="Trazado_729770" data-name="Trazado 729770" d="M146.263,66.237c-4.234,0-4.234,0-4.234-4.264s0-4.273,4.267-4.273,4.257,0,4.257,4.311c0,4.225,0,4.225-4.291,4.225" transform="translate(-85.979 -34.93)" fill="#f7c84c"/>
        <path id="Trazado_729771" data-name="Trazado 729771" d="M146.446,105.308c4.108,0,4.108,0,4.108,4.053,0,4.471,0,4.471-4.537,4.471-3.987,0-3.987,0-3.987-4.007v-.2c0-4.32,0-4.32,4.417-4.32" transform="translate(-85.979 -63.75)" fill="#f7c84c"/>
        <path id="Trazado_729772" data-name="Trazado 729772" d="M40.555,109.634c0,4.2,0,4.2-4.213,4.2-4.29,0-4.29,0-4.29-4.28,0-4.244,0-4.244,4.28-4.244,4.224,0,4.224,0,4.223,4.326" transform="translate(-19.403 -63.75)" fill="#f7c84c"/>
        <path id="Trazado_729773" data-name="Trazado 729773" d="M191.357,181.888c2.667-.021,4.947,1.876,5.072,4.208.045.845-.067,1.618-1.037,1.846a1.4,1.4,0,0,1-1.886-1.2,1.987,1.987,0,0,0-2.135-1.861,2.047,2.047,0,0,0-2.081,1.948,1.324,1.324,0,0,1-1.75,1.124c-1.047-.212-1.263-1-1.154-1.941a4.913,4.913,0,0,1,4.972-4.128" transform="translate(-112.816 -110.108)" fill="#0c0c0d"/>
        <path id="Trazado_729774" data-name="Trazado 729774" d="M186.183,171.539c.1,1.106-.292,2.037-1.506,2.02-1.193-.016-1.581-.985-1.56-2.082.022-1.067.324-2.06,1.581-2.039s1.562.971,1.484,2.1" transform="translate(-110.853 -102.571)" fill="#14110c"/>
        <path id="Trazado_729775" data-name="Trazado 729775" d="M210.316,171.544c.091,1.126-.291,2.053-1.516,2-1.2-.049-1.523-1.047-1.49-2.121.032-1.058.328-2.059,1.594-2,1.248.057,1.5,1.039,1.412,2.118" transform="translate(-125.497 -102.563)" fill="#14110c"/>
        <path id="Trazado_729776" data-name="Trazado 729776" d="M49,189.64a5.19,5.19,0,0,1-5-3.691c-.218-1.012-.209-2.083.985-2.459,1.136-.358,1.689.443,1.927,1.425a1.884,1.884,0,0,0,2.1,1.623,1.864,1.864,0,0,0,2.02-1.718c.161-.976.77-1.6,1.774-1.35,1.069.269,1.295,1.115,1.1,2.171a4.984,4.984,0,0,1-4.912,4" transform="translate(-26.567 -111.026)" fill="#14110c"/>
        <path id="Trazado_729777" data-name="Trazado 729777" d="M68.007,171.425c-.027,1.159-.4,2.131-1.6,2.127-1.213,0-1.515-.952-1.506-2.069s.308-2.039,1.536-2.049c1.263-.01,1.5,1.023,1.567,1.991" transform="translate(-39.29 -102.569)" fill="#201906"/>
        <path id="Trazado_729778" data-name="Trazado 729778" d="M43.888,171.526c0,1.1-.361,2.074-1.589,2.036-1.1-.034-1.407-.915-1.395-1.973.013-1.084.184-2.091,1.442-2.127,1.283-.037,1.506,1.015,1.542,2.064" transform="translate(-24.762 -102.585)" fill="#0c0c0d"/>
      </g>
    </g>
  </g>
</svg>
