<svg id="Grupo_991450" data-name="Grupo 991450" xmlns="http://www.w3.org/2000/svg" xmlns:xlink="http://www.w3.org/1999/xlink" width="172.5" height="172.721" viewBox="0 0 172.5 172.721">
  <defs>
    <clipPath id="clip-path">
      <rect id="Rectángulo_347604" data-name="Rectángulo 347604" width="172.5" height="172.721" fill="none"/>
    </clipPath>
  </defs>
  <g id="Grupo_991449" data-name="Grupo 991449" clip-path="url(#clip-path)">
    <path id="Trazado_730971" data-name="Trazado 730971" d="M163.632,133.315c1.724.816,1.906,2.124,1.642,3.915-.694,4.7.321,8.9,2.36,13.408,2.539,5.611,3.488,11.98,4.791,18.092.449,2.1-1.172,3.544-3.332,3.9a18.645,18.645,0,0,1-3.029.048q-79.9,0-159.805,0c-6.015,0-7.147-1.432-5.683-7.3,1.055-4.233,2.471-8.4,3.16-12.69.4-2.494,2.426-3.8,3.034-6.2,1.843-7.264-.9-13.974-1.786-20.893-.554-4.326-1.572-8.592-2.36-12.889a13.107,13.107,0,0,1,.418-6.279c1.8-6,3.167-12.125,5.049-18.093,2.41-7.639,7.286-14.071,10.89-21.13a1.9,1.9,0,0,1,.966-.91c4.988-1.531,4.984-5.354,4.817-9.6-.248-6.284-.013-12.585-.094-18.878-.024-1.86.331-3.322,2.176-4.095,2.691.379,2.848,2.265,2.844,4.459Q29.631,70.8,29.7,103.41c0,1.483-.878,3.8,1.844,3.84,2.593.036,2.427-2.184,2.493-3.942.148-3.919.087-7.849.333-11.761.283-4.5,2-8.193,6.552-9.949l.723-.311L43.1,81.1c.6.817,1.458.513,2.245.514.924,1.219,2.786,1.7,3.015,3.413.237,1.774,1.374,1.738,2.668,1.738q35.162-.013,70.325-.014c.963,0,2.292.307,2.464-1.074.26-2.091,2.135-2.727,3.218-4.063.788,0,1.647.3,2.246-.518l1.458.186.723.314c1.593-.122,2.1,1.5,3.277,2.041a12.8,12.8,0,0,1,3.359,9.218c-.012,4.038.206,8.079.4,12.114a2.184,2.184,0,0,0,2.357,2.316c1.726-.02,1.89-1.242,1.851-2.582-.02-.674,0-1.348,0-2.021q0-37.9.017-75.79c0-2.253.491-4.581-3.064-4.415-1.259.059-1.728-1.268-2.243-2.266.281-1.129.808-2.542,1.945-2.458,4.43.328,3.274-2.782,3.29-5.082.053-7.779.02-7.779-7.9-7.272-1.344-.047-2.689-.134-4.034-.134q-46.346-.012-92.692-.006c-8.3,0-8.114.006-8.389,8.423-.111,3.4,1,3.959,4.119,3.947,31.234-.12,62.469-.066,93.7-.089,2.112,0,4.145-.1,4.661,2.627-.571,1.919-1.941,2.609-3.839,2.527-.784-.034-1.57,0-2.355,0q-46.438,0-92.876-.024c-2.066,0-3.824-.1-3.439,2.847.249,1.914-1.413,2.291-2.774,2.8-2.205-.229-2.1-1.981-2.108-3.456-.058-7.189,0-14.378-.043-21.566C24.669.8,25.885-.016,28.242,0c8.873.063,17.747.025,26.621.025q44.143,0,88.287,0c4.324,0,4.531.209,4.533,4.634.006,18.534.037,37.068-.042,55.6-.009,2.248.36,3.857,2.66,4.742,2.178.838,3.332,2.732,4.6,4.65,7.645,11.589,11.713,24.587,14.7,37.916,1.395,6.234-1.384,12.34-2.47,18.473-.234,1.317-1.544,1.459-2.687,1.57-2.562-1.016-2.07-3.01-1.76-5.084.674-4.5,2.86-9.014,1.915-13.47-2.788-13.147-6.911-25.875-14.436-37.228-.557-.842-.814-2.225-2.33-1.681V82.3c-.043,7.737-.058,15.475-.138,23.212-.043,4.183-2.867,7.059-6.847,7.109a7.7,7.7,0,0,1-7.456-7.14c-.2-4.706-.466-9.411-.591-14.12a6.152,6.152,0,0,0-1.8-4.2c-1.019-1.08-2.132-1.149-2.291.6-.877,9.617-3.774,18.948-2.661,28.9a26.478,26.478,0,0,0,6.7,15.511c3.266,3.681,6.121,7.728,9.146,11.622a10.576,10.576,0,0,1,1.852,3.152c2.029,6.079,2.062,6.067,8.59,4.276.431-.119.87-.208,1.305-.31a40.5,40.5,0,0,1,4.53-1.074c2.2-.275,3.022-.964,2.361-3.427a19.312,19.312,0,0,1-.276-10.234c.541-2,1.414-2.9,3.388-2.849m-4.588,34.01c7.815.051,7.815.051,6-7.34-.026-.108-.036-.22-.063-.328-1.441-5.721-1.442-5.726-7.155-4.42a2.968,2.968,0,0,0-.827.528c-6.119.831-12.015,2.658-17.948,4.243-3.049.815-1.292,3.806-1.519,5.806-.223,1.966,1.51,1.541,2.643,1.544,6.29.018,12.579-.017,18.867-.034M27.495,158.585c-5.613-1.413-11.244-2.759-16.827-4.283-1.49-.406-1.9-.071-2.218,1.348-.672,3.042-1.5,6.052-2.351,9.05-.62,2.182.279,2.737,2.324,2.7,6.365-.106,12.732-.09,19.1-.121,1,.02,2.007.053,3.011.055,4.76.01,4.7.01,4.431-4.911-.088-1.621-.624-2.414-2.284-2.649-1.749-.248-3.459-.781-5.185-1.19m-8.08-7.6c1.725.474,3.46.916,5.172,1.43,1.815.545,2.883.312,3.137-1.944.387-3.436,2.256-6.2,4.424-8.854,3.974-4.861,7.774-9.864,11.624-14.824a7.921,7.921,0,0,0,1.846-3.5c2.143-11.908.084-23.577-1.869-35.258-.222-1.331-.608-2.186-2.033-1A5.118,5.118,0,0,0,39.6,91.348c-.164,4.492-.419,8.98-.584,13.472-.162,4.407-3.469,7.871-7.517,7.8-4.2-.078-6.805-3.043-6.813-7.843-.017-10.79.007-21.58-.032-32.369,0-.793.468-1.76-.445-2.442-.352.122-.832.138-.952.353-3.52,6.344-7.822,12.312-10.105,19.264-1.952,5.946-3.494,12.029-5.123,18.077a7.237,7.237,0,0,0-.46,3.594c1.061,5.041,2.033,10.109,2.785,15.2.767,5.2,2.492,10.26,2.3,15.592-.086,2.369-2.114,5.341-.512,6.874s4.783,1.444,7.272,2.064m115.395,4.239c5.7-.307,5.906-.614,4.214-5.877-.773-2.407-2.525-4.1-4.122-5.911-2.93-3.824-5.707-7.777-8.834-11.432-2.807-3.28-4.615-6.782-4.64-11.172-.028-5.154-1.8-10.322-.744-15.394.669-3.2-.447-3.1-2.771-3.1-20.339.055-40.677.028-61.015.04-1.788,0-3.957-.485-5.249.346-1.145.736.619,2.745.449,4.276-.062.558-.121,1.116-.172,1.676-.445,4.8-1.032,9.6-1.275,14.42a11.152,11.152,0,0,1-2.682,6.692c-4.275,5.346-8.414,10.8-12.666,16.168A17.986,17.986,0,0,0,32.824,151c-1.064,2.788-.1,3.82,2.535,4.1,3.594.377,5.05,2.487,4.824,5.98-.072,1.119.121,2.266-.038,3.367-.358,2.483.509,3.181,3.079,3.172q42.98-.152,85.96,0c2.614.009,3.218-.755,3.085-3.2-.179-3.284-.789-6.824,2.54-9.194M86.316,91.779c-11.329,0-22.659-.017-33.989.027-1.1,0-2.948-.806-2.585,1.7.261,1.8-.266,3.729,2.842,3.713q33.651-.17,67.3,0c3.216.016,2.495-2.07,2.739-3.8.362-2.566-1.624-1.585-2.658-1.591-11.217-.064-22.435-.04-33.652-.04" transform="translate(0 0)" fill="#100e0f"/>
    <path id="Trazado_730972" data-name="Trazado 730972" d="M53.848,91.316c-4.551,1.755-6.269,5.449-6.551,9.949-.246,3.911-.185,7.841-.333,11.761-.067,1.758.1,3.978-2.493,3.942-2.722-.038-1.841-2.358-1.844-3.84q-.068-32.613-.008-65.225c0-2.193-.153-4.08-2.844-4.459q-.005-2.706-.01-5.41c1.36-.511,3.023-.889,2.774-2.8-.385-2.95,1.373-2.849,3.439-2.846q46.438.052,92.876.024c.786,0,1.572-.03,2.355,0,1.9.082,3.268-.607,3.839-2.526l2.689.119q-.033,31.675-.065,63.352c-1.177-.544-1.684-2.164-3.277-2.041L143.67,91l-1.458-.186c1.543-3.543.807-4.862-2.871-4.864q-40.223-.031-80.446,0c-3.677,0-4.41,1.323-2.863,4.868L54.572,91l-.723.311M99.122,80.577q19.892,0,39.784,0c1.948,0,4.131.19,4.1-2.634-.03-2.589-2.118-2.516-3.933-2.517q-39.952-.02-79.9,0c-1.815,0-3.9-.072-3.93,2.519-.03,2.824,2.153,2.633,4.1,2.632q19.891-.006,39.783,0M77.9,43.433c-3.145,0-6.292.08-9.434-.027-2.242-.076-3.452.846-3.465,3.074q-.059,9.6-.007,19.207a2.859,2.859,0,0,0,3.143,3.164c6.4.036,12.8.045,19.206-.01,1.954-.016,3.092-.96,3.074-3.135-.055-6.4-.034-12.8-.013-19.207.006-2.094-.966-3.09-3.068-3.071-3.145.029-6.29.007-9.435.005" transform="translate(-12.929 -9.717)" fill="#d6edf8"/>
    <path id="Trazado_730973" data-name="Trazado 730973" d="M234.855,167.054c-1.974-.047-2.847.845-3.388,2.849a19.312,19.312,0,0,0,.276,10.234c.661,2.463-.165,3.152-2.361,3.426a40.512,40.512,0,0,0-4.53,1.074,19.292,19.292,0,0,0-.437-4.319c-.69-2.815-1.336-5.709-.823-8.631.946-5.378,2.24-10.7,2.964-16.109.6-4.486,2.78-8.894,1.66-13.459-1.809-7.376-3.984-14.667-6.178-21.941-.482-1.6-.851-3.6-2.992-4.142V103.89c1.516-.543,1.773.84,2.331,1.682,7.525,11.353,11.647,24.081,14.436,37.227.945,4.457-1.241,8.971-1.915,13.471-.31,2.073-.8,4.067,1.76,5.083q-.4,2.852-.8,5.7" transform="translate(-71.223 -33.74)" fill="#ed9a8f"/>
    <path id="Trazado_730974" data-name="Trazado 730974" d="M150.419,204.487c-3.33,2.369-2.719,5.91-2.541,9.193.133,2.442-.471,3.207-3.085,3.2q-42.98-.159-85.96,0c-2.57.009-3.437-.688-3.079-3.172.159-1.1-.035-2.247.038-3.367.226-3.493-1.23-5.6-4.824-5.98-2.639-.277-3.6-1.309-2.535-4.1a18,18,0,0,1,2.48-5.038c4.251-5.366,8.39-10.821,12.666-16.168a11.152,11.152,0,0,0,2.682-6.692c.243-4.816.829-9.614,1.274-14.42.052-.559.111-1.118.173-1.676.169-1.53-1.594-3.54-.45-4.276,1.292-.83,3.461-.344,5.25-.346,20.338-.012,40.677.016,61.015-.04,2.325-.006,3.44-.109,2.772,3.1-1.057,5.072.715,10.24.744,15.394.024,4.391,1.833,7.892,4.64,11.173,3.127,3.654,5.9,7.608,8.834,11.431q-.046,5.894-.092,11.788m-71.881-9.651c5.609,0,11.218-.023,16.827.011,2.07.013,4.147-.265,4.081-2.8-.061-2.324-2.064-2.494-4-2.488q-16.827.052-33.654.011c-1.9,0-3.827.092-3.873,2.582-.047,2.515,1.894,2.68,3.79,2.681q8.414.006,16.827,0m-.35,10.2c5.722,0,11.444-.022,17.166.011,2.057.012,4.142-.22,4.085-2.773-.053-2.314-2.029-2.546-3.971-2.541q-16.829.046-33.659.011c-1.892,0-3.84.088-3.885,2.582s1.846,2.714,3.771,2.711q8.247-.01,16.493,0" transform="translate(-15.61 -49.262)" fill="#d7eef9"/>
    <path id="Trazado_730975" data-name="Trazado 730975" d="M23.019,184.693c-2.489-.621-5.663-.524-7.272-2.064s.425-4.5.512-6.874c.194-5.331-1.531-10.394-2.3-15.591-.752-5.1-1.724-10.164-2.785-15.205a7.239,7.239,0,0,1,.46-3.594c1.629-6.048,3.171-12.131,5.123-18.077,2.283-6.952,6.585-12.92,10.105-19.264.119-.216.6-.231.952-.354.914.682.443,1.65.446,2.442.038,10.79.015,21.58.031,32.369.007,4.8,2.611,7.766,6.813,7.843,4.049.074,7.355-3.39,7.517-7.8.165-4.491.42-8.98.584-13.471a5.118,5.118,0,0,1,2.113-4.315c1.356,4.641.42,9.474,1.208,14.2a24.764,24.764,0,0,1-.269,8.329c-1.491,8.37-6.244,14.867-11.347,21.3-4.868,6.139-10.866,11.685-11.894,20.122" transform="translate(-3.604 -33.708)" fill="#f4b8ae"/>
    <path id="Trazado_730976" data-name="Trazado 730976" d="M149.083,22.822l-2.689-.119c-.516-2.723-2.55-2.629-4.661-2.627-31.234.023-62.469-.031-93.7.089-3.12.011-4.229-.543-4.119-3.947.274-8.417.084-8.423,8.389-8.423q46.346,0,92.692.006c1.344,0,2.689.088,4.034.134q.045,7.308.088,14.615Z" transform="translate(-14.275 -2.534)" fill="#da1b54"/>
    <path id="Trazado_730977" data-name="Trazado 730977" d="M208.43,121.948c2.14.544,2.509,2.544,2.991,4.142,2.194,7.274,4.369,14.565,6.178,21.941,1.12,4.565-1.059,8.973-1.66,13.459-.724,5.4-2.018,10.731-2.964,16.109-.514,2.923.133,5.817.822,8.631a19.263,19.263,0,0,1,.437,4.32c-.435.1-.874.192-1.3.31-6.528,1.791-6.561,1.8-8.59-4.276a10.584,10.584,0,0,0-1.852-3.152c-3.025-3.894-5.88-7.94-9.146-11.622a26.48,26.48,0,0,1-6.7-15.511c-1.112-9.947,1.784-19.278,2.662-28.9.159-1.747,1.272-1.678,2.291-.6a6.153,6.153,0,0,1,1.8,4.2c.126,4.708.387,9.414.591,14.12a7.7,7.7,0,0,0,7.456,7.141c3.98-.05,6.8-2.927,6.847-7.109.079-7.737.1-15.475.138-23.213" transform="translate(-60.605 -39.651)" fill="#f5b9af"/>
    <path id="Trazado_730978" data-name="Trazado 730978" d="M199.661,93.283q.032-31.676.065-63.352l.03-.271,2.582.2c.516,1,.985,2.325,2.244,2.266,3.555-.165,3.067,2.162,3.064,4.415q-.04,37.9-.017,75.79c0,.674-.018,1.348,0,2.021.038,1.34-.126,2.562-1.851,2.582a2.184,2.184,0,0,1-2.357-2.315c-.2-4.036-.414-8.077-.4-12.115a12.806,12.806,0,0,0-3.359-9.218" transform="translate(-64.92 -9.644)" fill="#93acbe"/>
    <path id="Trazado_730979" data-name="Trazado 730979" d="M63.5,117.825c-1.547-3.545-.813-4.866,2.863-4.868q40.223-.031,80.446,0c3.679,0,4.415,1.322,2.871,4.864-.6.821-1.458.516-2.246.518-.776-.075-1.553-.215-2.329-.216q-38.516-.017-77.031,0c-.777,0-1.553.141-2.33.216-.787,0-1.644.3-2.245-.514" transform="translate(-20.4 -36.723)" fill="#141718"/>
    <path id="Trazado_730980" data-name="Trazado 730980" d="M67.2,120.83c.776-.075,1.553-.215,2.329-.216q38.516-.016,77.032,0c.776,0,1.553.141,2.329.216-1.084,1.337-2.957,1.973-3.218,4.064-.172,1.38-1.5,1.072-2.464,1.073q-35.162.015-70.326.015c-1.293,0-2.431.036-2.667-1.738-.229-1.715-2.091-2.193-3.015-3.414" transform="translate(-21.849 -39.215)" fill="#c9dee9"/>
    <path id="Trazado_730981" data-name="Trazado 730981" d="M28.769,192.646c1.028-8.437,7.027-13.983,11.894-20.122,5.1-6.436,9.856-12.934,11.347-21.3a24.764,24.764,0,0,0,.269-8.329c-.788-4.723.148-9.557-1.208-14.2,1.425-1.187,1.811-.332,2.033,1,1.952,11.682,4.011,23.35,1.869,35.258a7.924,7.924,0,0,1-1.846,3.5c-3.851,4.96-7.651,9.963-11.624,14.824-2.169,2.653-4.038,5.418-4.425,8.855-.254,2.257-1.322,2.49-3.137,1.944-1.713-.515-3.447-.957-5.172-1.431" transform="translate(-9.354 -41.661)" fill="#ed9a8f"/>
    <path id="Trazado_730982" data-name="Trazado 730982" d="M110.26,135.932c11.217,0,22.435-.024,33.652.04,1.034.006,3.021-.974,2.658,1.591-.244,1.732.477,3.818-2.739,3.8q-33.651-.165-67.3,0c-3.108.016-2.581-1.916-2.842-3.713-.364-2.5,1.481-1.691,2.585-1.7,11.329-.044,22.659-.027,33.989-.027" transform="translate(-23.944 -44.153)" fill="#d6edf8"/>
    <path id="Trazado_730983" data-name="Trazado 730983" d="M30.367,241.547c-6.366.032-12.733.016-19.1.121-2.045.034-2.944-.52-2.324-2.7.852-3,1.679-6.008,2.351-9.05.314-1.419.727-1.754,2.218-1.347,5.582,1.523,11.214,2.87,16.827,4.283q.014,4.348.027,8.7m-11.6-5.076c-.372-1.427-1.115-2.413-2.729-2.4a2.416,2.416,0,1,0,.043,4.827c1.612-.007,2.342-1,2.687-2.432" transform="translate(-2.846 -74.267)" fill="#48525d"/>
    <path id="Trazado_730984" data-name="Trazado 730984" d="M225.163,242.374c-6.289.017-12.579.052-18.867.034-1.134,0-2.866.421-2.643-1.544.227-2-1.53-4.992,1.519-5.806,5.933-1.585,11.829-3.412,17.948-4.243-.229,1.454.44,2.757.693,4.131-1.827,2.228-1.577,3.913,1.284,4.916l.067,2.512" transform="translate(-66.12 -75.049)" fill="#48525d"/>
    <path id="Trazado_730985" data-name="Trazado 730985" d="M202.343,22.725l-2.583-.2q-.041-7.308-.086-14.615c7.924-.507,7.956-.507,7.9,7.272-.016,2.3,1.141,5.41-3.29,5.082-1.136-.084-1.664,1.329-1.945,2.458" transform="translate(-64.924 -2.512)" fill="#bc154e"/>
    <path id="Trazado_730986" data-name="Trazado 730986" d="M234.665,241.778l-.067-2.514c1.766-.248,3.05-1,2.694-3.042-.421-2.407-2.326-1.933-3.978-1.873-.253-1.373-.923-2.676-.693-4.131a2.968,2.968,0,0,1,.827-.528c5.713-1.306,5.714-1.3,7.155,4.42.027.108.036.22.063.328,1.813,7.391,1.813,7.391-6,7.34" transform="translate(-75.621 -74.454)" fill="#39424a"/>
    <path id="Trazado_730987" data-name="Trazado 730987" d="M40.769,243.688q-.013-4.348-.027-8.7c1.726.409,3.435.942,5.185,1.19,1.659.236,2.2,1.028,2.284,2.649.268,4.921.329,4.921-4.431,4.911-1,0-2.007-.036-3.011-.055" transform="translate(-13.247 -76.408)" fill="#39424a"/>
    <path id="Trazado_730988" data-name="Trazado 730988" d="M199.762,224.333q.047-5.894.092-11.788c1.6,1.814,3.349,3.5,4.122,5.911,1.69,5.263,1.486,5.57-4.214,5.877" transform="translate(-64.952 -69.109)" fill="#93acbe"/>
    <path id="Trazado_730989" data-name="Trazado 730989" d="M60.634,120.763l.723-.311-.723.311" transform="translate(-19.715 -39.165)" fill="#141718"/>
    <path id="Trazado_730990" data-name="Trazado 730990" d="M193.733,120.447l.723.314-.723-.314" transform="translate(-62.992 -39.163)" fill="#141718"/>
    <path id="Trazado_730991" data-name="Trazado 730991" d="M106.577,102.516q-19.891,0-39.783,0c-1.948,0-4.131.192-4.1-2.632.027-2.591,2.114-2.518,3.929-2.519q39.953-.019,79.9,0c1.815,0,3.9-.073,3.932,2.516.033,2.825-2.151,2.635-4.1,2.635q-19.891-.006-39.783,0" transform="translate(-20.384 -31.655)" fill="#141718"/>
    <path id="Trazado_730992" data-name="Trazado 730992" d="M90.048,49.946c3.145,0,6.29.023,9.435-.006,2.1-.02,3.074.977,3.068,3.071-.02,6.4-.042,12.805.014,19.207.018,2.176-1.12,3.119-3.074,3.135-6.4.055-12.8.047-19.206.01A2.859,2.859,0,0,1,77.141,72.2q-.036-9.6.007-19.206c.013-2.228,1.224-3.15,3.465-3.075,3.141.107,6.289.027,9.434.028M89.581,70.2c7.874,0,7.874,0,7.874-7.752,0-7.345,0-7.345-7.4-7.345-7.771,0-7.771,0-7.771,7.844,0,7.253,0,7.253,7.3,7.253" transform="translate(-25.076 -16.229)" fill="#121414"/>
    <path id="Trazado_730993" data-name="Trazado 730993" d="M83.314,213.169q-8.413,0-16.827,0c-1.9,0-3.837-.166-3.791-2.681.046-2.49,1.972-2.585,3.873-2.582q16.827.019,33.654-.011c1.934-.006,3.938.165,4,2.488.066,2.535-2.011,2.813-4.081,2.8-5.609-.034-11.218-.011-16.827-.012" transform="translate(-20.385 -67.596)" fill="#121414"/>
    <path id="Trazado_730994" data-name="Trazado 730994" d="M82.965,228.265q-8.247,0-16.493,0c-1.925,0-3.816-.232-3.771-2.711s1.994-2.583,3.885-2.582q16.829.011,33.659-.011c1.943,0,3.919.227,3.971,2.541.057,2.553-2.028,2.786-4.085,2.774-5.722-.034-11.444-.012-17.166-.012" transform="translate(-20.387 -72.496)" fill="#121414"/>
    <path id="Trazado_730995" data-name="Trazado 730995" d="M21.067,239.2c-.345,1.428-1.074,2.425-2.687,2.432a2.416,2.416,0,1,1-.043-4.827c1.614-.018,2.357.968,2.729,2.4" transform="translate(-5.15 -76.997)" fill="#100e0f"/>
    <path id="Trazado_730996" data-name="Trazado 730996" d="M233.11,236.9c1.652-.06,3.556-.534,3.978,1.873.356,2.038-.928,2.794-2.694,3.042-2.861-1-3.111-2.687-1.284-4.915" transform="translate(-75.417 -77.002)" fill="#100e0f"/>
    <path id="Trazado_730997" data-name="Trazado 730997" d="M92.066,72.707c-7.3,0-7.3,0-7.3-7.253,0-7.844,0-7.844,7.771-7.844,7.4,0,7.4,0,7.4,7.345,0,7.752,0,7.752-7.874,7.752" transform="translate(-27.561 -18.732)" fill="#f9b342"/>
  </g>
</svg>
