<svg id="Grupo_991483" data-name="Grupo 991483" xmlns="http://www.w3.org/2000/svg" xmlns:xlink="http://www.w3.org/1999/xlink" width="185.053" height="201.193" viewBox="0 0 185.053 201.193">
  <defs>
    <clipPath id="clip-path">
      <rect id="Rectángulo_347620" data-name="Rectángulo 347620" width="185.052" height="201.193" fill="none"/>
    </clipPath>
  </defs>
  <g id="Grupo_991482" data-name="Grupo 991482" clip-path="url(#clip-path)">
    <path id="Trazado_731239" data-name="Trazado 731239" d="M166.951,64.19a34.076,34.076,0,0,1,.231-3.626c.751-4.495,5.156-6.633,8.758-3.935,7.552,5.658,14.955,11.523,22.279,17.475a5.223,5.223,0,0,1,.011,8.443c-7.32,5.958-14.7,11.85-22.279,17.474-3.943,2.927-8.774.36-8.712-4.733.045-3.672-1.333-4.049-4.425-4-10.644.178-21.293.069-32.191.069.665,1.708,2.069,1.592,3.04,1.96a74.709,74.709,0,0,1,48.014,77.571c-.267,2.658.408,3.874,2.987,4.544,2.679.7,5.054,2.079,5.377,5.293.342,3.418-1.984,5-4.513,6.494-6.95,4.109-13.847,8.306-20.8,12.414-4.944,2.922-8.149,1.72-9.862-3.668q-3.662-11.518-7.234-23.064c-2.166-6.988.234-9.86,7.592-9.146,1.415-16.561-10.113-35.662-26.937-43.431-4.509-2.082-5.964-4.538-5.636-9.176a135.94,135.94,0,0,0,.012-14.978c-.078-1.935,1.7-3.71,1.067-5.16-2.87-6.562-3.87-14.029-9.172-19.446-1.343-1.373-2.614-2.854-1.476-4.981.778-1.453-.693-1.464-1.274-1.99a33.7,33.7,0,0,0-16.293-8.452c-3.759-.735-5.542-2.6-5.266-6.666.3-4.435-.017-8.909.107-13.36.056-2-.34-3.021-2.621-2.812-2.785.255-5.139-.792-6.31-3.426-1.19-2.678.071-4.9,1.767-7.013C88.334,16.45,93.354,9.93,98.5,3.516c3.742-4.661,6.781-4.689,10.5-.07,5.325,6.619,10.52,13.344,15.811,19.989,1.537,1.931,2.35,4.031,1.358,6.362a5.46,5.46,0,0,1-5.845,3.484c-3.018-.313-3.163,1.226-3.13,3.552.1,7.424.03,14.851.045,22.276a11.8,11.8,0,0,1-.723,5.164c-.071.2-.141.392-.211.588a5,5,0,0,0,1.129.266q23.526-.036,47.054-.116c.88,0,1.928.3,2.464-.82m15.2,117.336c-2.03-.775-3.281-1.254-4.534-1.731-2.469-.941-3.417-2.444-2.973-5.3,3.1-19.954-1.686-37.956-14.153-53.789A65.628,65.628,0,0,0,129.5,98.923c0,3.912.177,7.4-.057,10.851-.18,2.653.77,3.983,3.124,5.286,19.522,10.8,29.165,27.6,29.5,49.791.106,7.008-.885,7.718-7.885,6.57,2.16,6.991,4.295,13.86,6.4,20.74.392,1.279.866,1.8,2.243.962,6.18-3.765,12.406-7.457,19.324-11.6M173.986,63.351c-.841,7.676-.841,7.676-8.173,7.676H122.7c1.7,3.895,3.847,7.032,4.632,10.708.5,2.329,1.722,3.105,4.184,3.074,11.461-.146,22.924-.065,34.386-.065,7.566,0,7.564,0,7.773,7.513,0,.177.281.345.679.8L193.079,78.33,173.986,63.351M88.61,26.65c8.364.413,8.364.413,8.365,8.019,0,4.048-.028,8.1.019,12.143.014,1.119-.411,2.473,1.345,2.92,4.13,1.053,7.878,3.124,12.212,5.136,0-7.262,0-13.984,0-20.705,0-7.071,0-7.067,7.084-7.424.187-.01.361-.3.834-.717-4.55-5.752-9.138-11.507-13.663-17.312-.864-1.109-1.33-.917-2.1.07-4.521,5.789-9.092,11.538-14.1,17.87" transform="translate(-15.32 0)" fill="#11100f"/>
    <path id="Trazado_731240" data-name="Trazado 731240" d="M99.378,144.134A42.168,42.168,0,1,1,57.11,186.066a42.022,42.022,0,0,1,42.268-41.932m12.046,52.726,0,0-.839-.593a23.8,23.8,0,0,0-34.177,13.86c-.709,2.237-.277,3.352,1.454,4.706a35.166,35.166,0,0,0,41.617.621c1.556-1.052,3.906-1.547,3.006-4.315-1.847-5.677-4.6-10.679-10.116-13.632l.028.039-.975-.688m10.617-37.4a10.051,10.051,0,0,0-1.079-1.194c-20.047-16.184-51.282-4.966-56.486,20.259-2.093,10.143-.176,19.4,5.671,28.2,6.1-10.259,8.2-12.9,13.851-15.862,2.692-1.411,3.343-2.269,1.3-5.083A16.512,16.512,0,0,1,86.786,164.6a17.256,17.256,0,0,1,20.771-3.244c9.092,5.131,11.442,16.122,5.362,25.131-.842,1.246-2.542,2.323.168,3.572,6.108,2.817,10.274,7.706,13.625,13.38a5.675,5.675,0,0,0,1.765,3.182c5.9-9.184,8.122-18.816,5.165-29.312-2-7.1-5.161-13.574-11.6-17.85m-22.854,6.479a10.42,10.42,0,0,0-10.422,10.515,10.5,10.5,0,0,0,21-.156,10.416,10.416,0,0,0-10.578-10.359" transform="translate(-10.807 -27.275)" fill="#0b0c0d"/>
    <path id="Trazado_731241" data-name="Trazado 731241" d="M53.109,104.32c-5.529,0-11.06.081-16.587-.041-2.224-.049-3.6.179-3.317,2.96.277,2.711-.592,5.122-3.295,6.354s-4.874.062-7-1.643c-6.519-5.221-13.13-10.326-19.672-15.52-4.282-3.4-4.314-6.91-.087-10.256C9.8,80.906,16.51,75.705,23.177,70.453c1.981-1.561,3.931-2.763,6.612-1.519a5.559,5.559,0,0,1,3.4,5.863c-.2,2.707,1.259,2.651,3.19,2.642,11.193-.054,22.387-.039,33.58-.023,19.418.028,31.883,12.418,31.957,31.751.015,3.776-.027,7.552.01,11.329.033,3.427-1.5,5.109-4.993,4.449a44.778,44.778,0,0,0-16.868-.01c-3.434.654-5.1-.869-5.08-4.355.027-4.046-.072-8.094.028-12.137.072-2.924-1.219-4.171-4.1-4.142-5.933.061-11.868.019-17.8.018m-26.748,1.893c.148-1.467.229-1.984.246-2.5.2-5.708.6-6.1,6.412-6.1,12.551-.008,25.1-.036,37.654.012,7.217.028,10.894,3.744,11.036,10.975.027,1.349.006,2.7.006,4.049,0,5.08,0,5.08,5.157,4.994,8.378-.141,8.378-.141,8.324-8.705-.1-15.525-9.375-24.741-25.024-24.788-12.417-.038-24.834-.071-37.25.028-3.829.03-6.845-.389-6.342-5.363.186-1.84-.657-2.168-2.108-1.017-5.643,4.476-11.3,8.939-17.1,13.528l18.991,14.893" transform="translate(0 -12.947)" fill="#171610"/>
    <path id="Trazado_731242" data-name="Trazado 731242" d="M175.2,79.172c-.536,1.122-1.583.817-2.463.82q-23.528.084-47.054.115a4.952,4.952,0,0,1-1.129-.265l.211-.588,50.435-.083" transform="translate(-23.57 -14.982)" fill="#5c5d5d"/>
    <path id="Trazado_731243" data-name="Trazado 731243" d="M193.463,204.614c-6.917,4.142-13.143,7.834-19.324,11.6-1.377.839-1.852.317-2.243-.962-2.1-6.879-4.238-13.749-6.4-20.74,7,1.148,7.992.438,7.885-6.57-.336-22.187-9.98-38.988-29.5-49.791-2.354-1.3-3.3-2.633-3.124-5.286.233-3.455.057-6.939.057-10.851A65.634,65.634,0,0,1,171.8,143.791c12.467,15.833,17.249,33.836,14.153,53.79-.443,2.858.5,4.362,2.973,5.3l4.534,1.731" transform="translate(-26.632 -23.089)" fill="#e24a5c"/>
    <path id="Trazado_731244" data-name="Trazado 731244" d="M183.728,78.137l19.094,14.979-18.728,14.732c-.4-.459-.674-.628-.679-.8-.21-7.512-.207-7.512-7.774-7.513-11.462,0-22.925-.081-34.385.065-2.463.031-3.687-.745-4.184-3.074-.786-3.676-2.933-6.813-4.633-10.708h43.116c7.333,0,7.333,0,8.173-7.676" transform="translate(-25.062 -14.786)" fill="#73b4e2"/>
    <path id="Trazado_731245" data-name="Trazado 731245" d="M90.4,28.507c5-6.332,9.575-12.081,14.1-17.87.77-.987,1.236-1.179,2.1-.07,4.525,5.805,9.113,11.56,13.663,17.312-.473.418-.647.707-.834.717-7.08.357-7.081.353-7.084,7.424,0,6.721,0,13.443,0,20.705-4.334-2.012-8.082-4.083-12.212-5.136-1.756-.448-1.331-1.8-1.345-2.92-.048-4.047-.019-8.095-.019-12.143,0-7.606,0-7.606-8.365-8.019" transform="translate(-17.106 -1.857)" fill="#bbc73d"/>
    <path id="Trazado_731246" data-name="Trazado 731246" d="M128.239,204.973c-3.351-5.674-7.517-10.563-13.625-13.38-2.71-1.249-1.009-2.326-.169-3.573,6.081-9.008,3.731-20-5.362-25.131a17.257,17.257,0,0,0-20.77,3.244,16.513,16.513,0,0,0-1.487,21.186c2.042,2.814,1.39,3.673-1.3,5.083-5.653,2.962-7.753,5.6-13.851,15.861-5.847-8.806-7.763-18.061-5.67-28.2,5.2-25.226,36.439-36.444,56.486-20.259a9.871,9.871,0,0,1,1.078,1.2c-.1,1.612.845,2.757,1.735,3.941,7.166,9.534,8.447,20.285,6.449,31.673-.532,3.028-1.247,6.037-3.513,8.364" transform="translate(-12.335 -28.809)" fill="#6d616f"/>
    <path id="Trazado_731247" data-name="Trazado 731247" d="M123.908,226.944a35.164,35.164,0,0,1-41.616-.621c-1.731-1.354-2.164-2.469-1.454-4.706a23.8,23.8,0,0,1,34.178-13.859l.838.592h0l.974.687L116.8,209a2.786,2.786,0,0,0,.723,2.206c3.724,4.6,5.393,10.033,6.387,15.741" transform="translate(-15.236 -38.763)" fill="#77b9e7"/>
    <path id="Trazado_731248" data-name="Trazado 731248" d="M106.575,171.027a10.416,10.416,0,0,1,10.578,10.359,10.5,10.5,0,0,1-21,.156,10.42,10.42,0,0,1,10.422-10.515" transform="translate(-18.195 -32.364)" fill="#f1d1bf"/>
    <path id="Trazado_731249" data-name="Trazado 731249" d="M141.864,207.016c2.266-2.327,2.981-5.336,3.513-8.364,2-11.389.717-22.14-6.449-31.673-.89-1.184-1.832-2.329-1.735-3.941,6.44,4.275,9.6,10.754,11.6,17.849,2.957,10.495.732,20.127-5.166,29.312a5.673,5.673,0,0,1-1.764-3.182" transform="translate(-25.96 -30.852)" fill="#544b55"/>
    <path id="Trazado_731250" data-name="Trazado 731250" d="M132.372,227.913c-.994-5.708-2.663-11.146-6.387-15.741a2.786,2.786,0,0,1-.723-2.206c5.516,2.954,8.269,7.955,10.116,13.632.9,2.769-1.45,3.263-3.006,4.315" transform="translate(-23.7 -39.733)" fill="#4f9cd4"/>
    <path id="Trazado_731251" data-name="Trazado 731251" d="M123.908,209.03l-.839-.593.839.593" transform="translate(-23.289 -39.444)" fill="#4f9cd4"/>
    <path id="Trazado_731252" data-name="Trazado 731252" d="M125.076,209.854l-.975-.688.975.688" transform="translate(-23.484 -39.581)" fill="#4f9cd4"/>
    <path id="Trazado_731253" data-name="Trazado 731253" d="M28.082,108.244,9.091,93.351c5.805-4.589,11.46-9.051,17.1-13.528C27.645,78.672,28.489,79,28.3,80.84c-.5,4.974,2.513,5.393,6.342,5.363,12.416-.1,24.833-.066,37.25-.028,15.649.047,24.926,9.264,25.024,24.788.054,8.564.054,8.564-8.324,8.705-5.155.086-5.155.086-5.157-4.994,0-1.35.021-2.7-.006-4.049-.142-7.231-3.819-10.948-11.036-10.975-12.551-.049-25.1-.02-37.654-.012-5.817,0-6.212.394-6.412,6.1-.018.521-.1,1.038-.246,2.5" transform="translate(-1.72 -14.979)" fill="#ffd55e"/>
  </g>
</svg>
