<svg id="Grupo_991481" data-name="Grupo 991481" xmlns="http://www.w3.org/2000/svg" xmlns:xlink="http://www.w3.org/1999/xlink" width="199.052" height="199" viewBox="0 0 199.052 199">
  <defs>
    <clipPath id="clip-path">
      <rect id="Rectángulo_347619" data-name="Rectángulo 347619" width="199.051" height="199" fill="none"/>
    </clipPath>
  </defs>
  <g id="Grupo_991480" data-name="Grupo 991480" clip-path="url(#clip-path)">
    <path id="Trazado_731202" data-name="Trazado 731202" d="M71.23,94.2c3.937,5.155,8.86,9.353,13.45,13.871,1.475,1.49,1.552,3.34,1.552,5.31,0,15.844.066,31.687.113,47.53q-.067,19.24-.134,38.48c-.032,9.208-5.389,14.545-14.657,14.551q-28.558.02-57.117,0C5.452,213.93.016,208.525.012,199.578q-.022-48.629,0-97.259C.016,93.36,5.438,88,14.435,87.954c4.551-.025,9.1-.087,13.651-.132,8.41.046,16.831.37,25.227.05,6.811-.26,13.148-.022,17.528,6.208.061.088.256.081.389.119M6.638,151.015q0,24.218.013,48.437c.011,4.968,2.457,7.8,7.062,7.824q29.394.121,58.789,0c4.322-.017,7.031-2.7,7.041-7,.065-27.738,0-55.475.09-83.212.007-2.373-.933-2.674-2.91-2.619-4.276.116-8.556-.012-12.833.051-2.968.044-4.274-1.33-4.221-4.271.069-3.863-.173-7.74.075-11.588.2-3.079-.517-4.2-3.938-4.143-13.382.229-26.771.088-40.158.1-6.878,0-9.008,2.189-9.01,9.229q-.007,23.6,0,47.2m67.147-43.274a20.945,20.945,0,0,0-7.194-7.449c-.61,9.725-1.185,7.392,7.194,7.449" transform="translate(0 -14.98)" fill="#060607"/>
    <path id="Trazado_731203" data-name="Trazado 731203" d="M31.756,66.494c-2.726.432-3.728-.486-3.839-3.477C26.569,26.679,55.386-1.8,91.748.089,118.881,1.5,142.91,23.625,146.574,50.6c.333,2.453.507,4.931.756,7.4.382,3.78-1.364,5.118-5.088,5.092-16.015-.117-32.033.074-48.045-.147-3.5-.048-5.7.775-6.95,4.1-.575,1.526-1.759,2.815-2.394,4.326C83.748,74,82.241,74.93,79.709,73.1c-2.015-1.089-2.741-2.35-1.178-4.531,1.518-2.118,2.654-4.508,4-6.755.736-1.232,1.125-2.286.257-3.773-8.18-14.028-16.269-28.107-24.553-42.463C42.094,27.348,34.3,42.9,34.732,62.526c.053,2.388.044,4.152-2.976,3.968m82.824-10.1q11.589,0,23.178,0c1.488,0,2.94.382,2.642-2.233a53.179,53.179,0,0,0-73.654-43.2c-2.3.967-2.284,1.95-1.132,3.916Q76.985,34.3,88.122,53.859a4.4,4.4,0,0,0,4.523,2.593c7.309-.151,14.623-.056,21.935-.058" transform="translate(-4.755 0)" fill="#0d0c09"/>
    <path id="Trazado_731204" data-name="Trazado 731204" d="M32.555,69.7c3.02.184,3.029-1.58,2.976-3.968C35.1,46.1,42.892,30.553,59.032,18.787c8.283,14.355,16.373,28.434,24.553,42.462.867,1.487.479,2.54-.257,3.773-1.343,2.248-2.479,4.637-4,6.755-1.563,2.181-.836,3.443,1.179,4.531-1.043,2.158-1.973,4.387-3.724,6.115-.133-.037-.328-.031-.39-.118-4.381-6.23-10.717-6.468-17.528-6.209-8.4.32-16.817,0-25.227-.05Q33.1,72.873,32.555,69.7" transform="translate(-5.554 -3.205)" fill="#da2831"/>
    <path id="Trazado_731205" data-name="Trazado 731205" d="M169.7,231.694c-5.524,0-11.048.072-16.571-.016a13.131,13.131,0,0,1-13.2-13.095c-.089-4.555-.1-9.115,0-13.67a13.021,13.021,0,0,1,12.886-12.971q16.983-.184,33.97,0A13.005,13.005,0,0,1,199.561,204.6c.145,4.829.157,9.67,0,14.5a13.089,13.089,0,0,1-12.87,12.571c-5.659.123-11.323.025-16.985.027m-.269-6.632c5.248,0,10.5.041,15.745-.012,5.12-.052,7.683-2.545,7.769-7.548.066-3.866.08-7.736,0-11.6-.1-4.764-2.688-7.316-7.544-7.343q-15.744-.088-31.491,0c-4.758.033-7.27,2.682-7.353,7.531-.062,3.728-.052,7.459,0,11.187.069,5.261,2.594,7.728,7.962,7.772,4.972.041,9.944.008,14.917.008" transform="translate(-23.86 -32.73)" fill="#080909"/>
    <path id="Trazado_731206" data-name="Trazado 731206" d="M103.763,164.625c-.046-15.843-.111-31.686-.113-47.529,0-1.97-.076-3.82-1.552-5.311,3.307-4.332,5.8-1.3,8.384.926-2.627,2.005-2.006,3.59.2,5.718,7.821,7.558,15.432,15.335,23.124,23.028,7.2,7.2,7.275,7.333-1.777,12.439-2.686,1.514-3.451,2.932-1.859,5.525a3.093,3.093,0,0,0-2.543,1c-3.143-3.045-6.45-5.941-9.368-9.188-1.919-2.134-2.967-1.682-4.825.062-2.077,1.948-1.793,3.09.147,4.816,2.338,2.082,4.389,4.486,6.564,6.75l-6.405,1.007c-.35-1.628-.082-3.525-3-2.988-2.383.439-4.543.435-3.937,3.738l-3.035,0" transform="translate(-17.418 -18.696)" fill="#74c1df"/>
    <path id="Trazado_731207" data-name="Trazado 731207" d="M202.82,24.022c4.143,0,8.286-.034,12.429.007,7.97.08,13.574,5.58,13.683,13.456q.088,6.418,0,12.842c-.1,7.709-5.627,13.383-13.253,13.463q-13.255.139-26.513,0a13.1,13.1,0,0,1-13.258-13.035q-.143-6.83,0-13.669a13.125,13.125,0,0,1,13.243-13.051c4.556-.075,9.113-.014,13.67-.014M202.3,57.177c4,0,8,.036,12-.007,5.349-.058,7.913-2.541,8-7.768.058-3.723.07-7.448,0-11.169-.1-4.975-2.7-7.526-7.771-7.56q-12.206-.08-24.411,0c-4.975.042-7.5,2.682-7.576,7.748-.052,3.585-.041,7.172,0,10.757.059,5.489,2.573,7.942,8.185,7.99,3.862.032,7.723,0,11.585,0" transform="translate(-29.998 -4.094)" fill="#080909"/>
    <path id="Trazado_731208" data-name="Trazado 731208" d="M168.84,91.221c-.265-2.549.651-3.74,3.418-3.35,2.683.378,6.581-1,6.59,3.482.03,16.332-5.88,30.335-17.354,41.957-1.667,1.689-3.463,1.386-5.085-.236q-19.619-19.613-39.24-39.226a3.314,3.314,0,0,1-1.062-3.734,3.5,3.5,0,0,1,3.6-2.22c6.9.048,13.806.132,20.7-.04,3.017-.075,1.694,2.1,2.176,3.367.228,2.512-.619,3.631-3.423,3.415-3.625-.28-7.289-.068-11.816-.068C137.875,105.1,147.731,114.9,157.5,124.79c1.553,1.573,2.186.69,3.142-.5A52.921,52.921,0,0,0,171.973,96.8c.1-.891.615-2.222-.95-2.147-2.944.139-1.723-2.127-2.182-3.427" transform="translate(-19.769 -14.979)" fill="#0a0b0a"/>
    <path id="Trazado_731209" data-name="Trazado 731209" d="M171.2,91.795c.459,1.3-.761,3.566,2.182,3.427,1.565-.075,1.055,1.257.95,2.147A52.921,52.921,0,0,1,163,124.862c-.955,1.192-1.588,2.075-3.142.5-9.767-9.891-19.624-19.694-30.148-30.222,4.527,0,8.19-.211,11.816.068,2.8.216,3.651-.9,3.423-3.415l8.084.1a10.448,10.448,0,0,1-1.582,1.826c-2.484,1.808-1.69,3.1.1,5.084,2.215,2.452,3.3,1.021,4.8-.5,2.386-2.423,4.851-4.767,7.283-7.144,2.427,1.33,5.043.4,7.561.633" transform="translate(-22.129 -15.552)" fill="#ecd084"/>
    <path id="Trazado_731210" data-name="Trazado 731210" d="M122.176,171.138c-2.176-2.264-4.226-4.669-6.565-6.75-1.94-1.727-2.224-2.869-.147-4.817,1.859-1.744,2.906-2.2,4.825-.061,2.919,3.246,6.226,6.143,9.368,9.187,1.985,2.083,4.059,4.091,5.924,6.279,1.312,1.539,2.938,1.218,4.54,1.218,17.094.012,34.187.043,51.28-.032,2.453-.011,3.969-.059,3.93,3.3-.036,3.147-1.166,3.444-3.812,3.429q-27.086-.16-54.175-.012a6.849,6.849,0,0,1-5.444-2.222c-3.142-3.269-6.473-6.355-9.726-9.517" transform="translate(-19.453 -26.969)" fill="#060607"/>
    <path id="Trazado_731211" data-name="Trazado 731211" d="M167.788,88.555c-2.432,2.377-4.9,4.722-7.283,7.144-1.5,1.523-2.587,2.953-4.8.5-1.795-1.986-2.588-3.276-.1-5.084a10.513,10.513,0,0,0,1.582-1.826c3.843-3.743,7.738-7.435,11.5-11.255a6.517,6.517,0,0,1,5.086-2.1c16.143.078,32.288.158,48.429-.052,3.3-.043,2.887,1.559,3.092,3.7.264,2.765-.9,3.093-3.276,3.075-13.659-.105-27.332.287-40.974-.21-5.861-.213-10.054,1.416-13.255,6.106" transform="translate(-26.278 -12.945)" fill="#060607"/>
    <path id="Trazado_731212" data-name="Trazado 731212" d="M131.535,159.823c-1.592-2.594-.827-4.01,1.859-5.525,9.052-5.107,8.978-5.237,1.777-12.439-7.691-7.693-15.3-15.469-23.124-23.027-2.2-2.128-2.822-3.713-.195-5.719,1.3-1.315,2.329-1.755,3.987-.068,10.722,10.908,21.564,21.7,32.407,32.491,2.114,2.1,2.043,3.962-.058,5.986a68.934,68.934,0,0,1-12.881,9.572c-2.179,1.291-2.885.237-3.771-1.27" transform="translate(-18.788 -19.098)" fill="#080a0b"/>
    <path id="Trazado_731213" data-name="Trazado 731213" d="M107.743,175.154c-.606-3.3,1.554-3.3,3.937-3.738,2.918-.537,2.65,1.359,3,2.988.712,3.045-.84,3.779-3.577,4.067-2.845.3-3.557-.877-3.36-3.317" transform="translate(-18.364 -29.228)" fill="#121516"/>
    <path id="Trazado_731214" data-name="Trazado 731214" d="M8,152.391q0-23.6,0-47.2c0-7.039,2.132-9.225,9.011-9.228,13.386-.008,26.775.133,40.158-.1,3.421-.058,4.136,1.064,3.938,4.143-.248,3.848-.007,7.725-.076,11.588-.052,2.941,1.254,4.315,4.221,4.271,4.277-.063,8.559.066,12.833-.051,1.977-.054,2.917.246,2.91,2.619-.085,27.738-.024,55.475-.09,83.213-.01,4.3-2.719,6.984-7.041,7q-29.394.111-58.789,0c-4.6-.019-7.052-2.855-7.061-7.824Q7.961,176.61,8,152.391m26.105,3.25c5.928,0,11.862-.168,17.78.07,2.99.121,2.544-1.616,2.535-3.381-.009-1.748.478-3.438-2.524-3.391q-17.365.269-34.736,0c-2.981-.046-2.542,1.616-2.533,3.381.009,1.748-.485,3.521,2.526,3.39,5.641-.245,11.3-.07,16.952-.07M44.5,122.489c-4.685,0-9.38.185-14.052-.067-2.955-.159-2.575,1.557-2.559,3.357.017,1.755-.469,3.464,2.506,3.406q14.051-.27,28.109,0c2.936.06,2.578-1.557,2.56-3.361-.018-1.756.471-3.551-2.511-3.4-4.674.235-9.368.062-14.053.062M57.511,168.9c4.823,0,9.653-.148,14.467.057,2.733.116,2.435-1.508,2.316-3.148-.113-1.555.919-3.645-2.283-3.593q-14.259.23-28.523,0c-2.73-.045-2.433,1.51-2.313,3.149.113,1.555-.926,3.726,2.283,3.59,4.677-.2,9.368-.051,14.053-.051M30.987,182.165c4.823,0,9.653-.148,14.466.058,2.737.118,2.434-1.509,2.315-3.147-.113-1.555.922-3.647-2.281-3.595q-14.259.23-28.524,0c-2.725-.044-2.433,1.51-2.314,3.15.113,1.556-.924,3.725,2.284,3.589,4.677-.2,9.368-.051,14.053-.051M27.5,142.38c3.581,0,7.18-.22,10.737.068,2.928.237,2.951-1.225,2.978-3.4.028-2.256-.171-3.474-3.018-3.371-6.6.24-13.221.175-19.828.027-2.567-.058-3.871.152-3.883,3.385-.012,3.307,1.424,3.464,3.926,3.333,3.021-.16,6.058-.038,9.088-.038m33.534,0c3.444,0,6.9-.216,10.324.066,2.869.236,3.031-1.125,3.013-3.368-.018-2.192-.077-3.514-2.983-3.406-6.6.246-13.22.164-19.828.032-2.51-.05-3.926.052-3.917,3.347.007,3.245,1.331,3.514,3.892,3.371,3.158-.177,6.332-.042,9.5-.042M24.6,168.9c2.477,0,4.972-.184,7.427.047,2.985.28,2.488-1.636,2.5-3.386.016-1.793.4-3.52-2.553-3.357-4.528.251-9.084.191-13.619.017-2.579-.1-3.859.168-3.873,3.387-.015,3.306,1.423,3.508,3.923,3.323,2.053-.153,4.126-.032,6.191-.032m-3.493-59.682c1.649,0,3.3.011,4.947,0,.8-.007,1.493.038,1.844-1.079,1.123-3.579-.226-5.535-4.007-5.542-1.924,0-3.858.119-5.77-.031-2.412-.19-3.632.191-3.619,3.19s.917,3.926,3.722,3.493a19.765,19.765,0,0,1,2.883-.027m46.386,46.421a21.388,21.388,0,0,1,3.294.027c2.915.459,3.579-.707,3.651-3.565.08-3.143-1.384-3.254-3.684-3.119a49.113,49.113,0,0,1-6.182,0c-2.36-.16-3.694.093-3.652,3.158.041,2.925.831,3.98,3.689,3.525a18.564,18.564,0,0,1,2.883-.023m-5.731,19.886H58.88c-2.254,0-4.461-.664-4.453,3.252.007,3.713,1.877,3.5,4.311,3.408a42.67,42.67,0,0,1,5.762.023c2.424.238,3.479-.392,3.261-3.09-.176-2.184.109-4.214-3.12-3.619a16.088,16.088,0,0,1-2.878.027m2.527,19.9c1.647,0,3.3-.031,4.942.01,1.13.028,1.613-.316,1.814-1.576.673-4.22.068-5.066-4.088-5.075a53.244,53.244,0,0,1-5.35-.035c-2.687-.278-3.848.373-3.83,3.465.016,2.949,1.165,3.516,3.632,3.232a26.457,26.457,0,0,1,2.88-.022m9.944-69.349c.465-2.462.08-3.931-3.013-3.678-2.256.185-3.913.028-3.628,3.176.2,2.253.036,3.946,3.182,3.615,2.184-.23,4.316.119,3.459-3.114" transform="translate(-1.364 -16.356)" fill="#f0d486"/>
    <path id="Trazado_731215" data-name="Trazado 731215" d="M87.418,110.31c-8.379-.056-7.8,2.276-7.194-7.449a20.945,20.945,0,0,1,7.194,7.449" transform="translate(-13.633 -17.548)" fill="#e5a71d"/>
    <path id="Trazado_731216" data-name="Trazado 731216" d="M122.186,57.774c-7.312,0-14.626-.094-21.935.056a4.4,4.4,0,0,1-4.523-2.592Q84.607,35.671,73.219,16.259c-1.152-1.967-1.17-2.949,1.132-3.916A53.179,53.179,0,0,1,148,55.539c.3,2.614-1.154,2.232-2.642,2.233q-11.589.007-23.178,0" transform="translate(-12.361 -1.38)" fill="#9eb715"/>
    <path id="Trazado_731217" data-name="Trazado 731217" d="M170.8,226.433c-4.972,0-9.944.032-14.917-.008-5.368-.045-7.893-2.511-7.962-7.772-.049-3.728-.06-7.459,0-11.186.081-4.849,2.594-7.5,7.352-7.532q15.745-.111,31.491,0c4.855.027,7.441,2.579,7.543,7.343.083,3.866.07,7.735,0,11.6-.086,5-2.649,7.5-7.769,7.548-5.248.053-10.5.012-15.745.012m-3.217-16.58c2.616,0,5.246-.171,7.843.046,2.749.231,2.419-1.51,2.3-3.136-.111-1.547.941-3.717-2.27-3.585-4.81.2-9.64.2-14.449-.009-2.511-.107-3.219.557-3.261,3.148-.046,2.9.727,3.937,3.647,3.584a51.818,51.818,0,0,1,6.188-.048m6.624,13.261c2.615,0,5.245-.171,7.842.047,2.74.23,2.436-1.495,2.31-3.129-.119-1.542.951-3.722-2.265-3.591-4.811.195-9.64.193-14.45-.009-2.5-.1-3.231.534-3.265,3.141-.038,2.884.71,3.946,3.639,3.59a51.83,51.83,0,0,1,6.189-.048m13.708-19.8c-2.536-.533-3.812.056-3.619,3.052.15,2.335.158,3.817,3.223,3.585,2.331-.177,3.85-.168,3.575-3.229-.2-2.26-.016-4.251-3.178-3.408M157.784,220.15c.387-2.39.227-4.061-2.972-3.737-2.172.22-4.014-.125-3.663,3.122.235,2.17-.117,4.045,3.126,3.651,2.109-.255,4.379.263,3.508-3.036" transform="translate(-25.229 -34.1)" fill="#74c1e0"/>
    <path id="Trazado_731218" data-name="Trazado 731218" d="M203.671,58.541c-3.862,0-7.723.027-11.584-.006-5.613-.048-8.127-2.5-8.185-7.991-.039-3.585-.049-7.172,0-10.756.073-5.066,2.6-7.706,7.576-7.747q12.2-.1,24.411,0c5.07.033,7.674,2.584,7.771,7.559.074,3.722.062,7.447,0,11.17-.081,5.226-2.646,7.709-8,7.767-4,.043-8,.008-12,.008m-3.312-16.579a26.305,26.305,0,0,1,3.306.023c2.6.332,3.55-.513,3.542-3.328-.007-2.787-.895-3.612-3.528-3.359a42.374,42.374,0,0,1-6.2.017c-2.279-.117-3.814-.057-3.763,3.122.046,2.964.913,3.974,3.751,3.547a19.663,19.663,0,0,1,2.892-.022m6.965,6.638a26.729,26.729,0,0,1-3.719-.03c-2.617-.37-3.215.731-3.223,3.221-.008,2.6.571,3.784,3.4,3.478a31.656,31.656,0,0,1,6.609,0c2.77.288,3.375-.8,3.448-3.441.081-2.961-1.146-3.528-3.619-3.245a25.5,25.5,0,0,1-2.894.018m9.94-6.775c3.082,1.137,3.069-.864,3.162-3.269.095-2.459-.5-3.406-3.168-3.306-2.428.091-3.76.3-3.621,3.3.119,2.535.476,4.043,3.628,3.279M190.748,48.68c-2.612-.555-3.7.22-3.639,3.136.058,2.615.622,3.629,3.421,3.493,2.278-.11,3.614-.283,3.373-3.1-.188-2.2.122-4.355-3.156-3.531" transform="translate(-31.368 -5.458)" fill="#116ea4"/>
    <path id="Trazado_731219" data-name="Trazado 731219" d="M35.466,166.557c-5.652,0-11.311-.175-16.952.07-3.012.131-2.517-1.641-2.526-3.39-.009-1.765-.449-3.427,2.533-3.381q17.365.265,34.736,0c3-.046,2.515,1.643,2.524,3.391.009,1.765.455,3.5-2.535,3.381-5.918-.239-11.852-.07-17.78-.07" transform="translate(-2.723 -27.272)" fill="#040506"/>
    <path id="Trazado_731220" data-name="Trazado 731220" d="M48.582,127.948c4.685,0,9.38.173,14.052-.062,2.982-.149,2.493,1.646,2.511,3.4.018,1.8.377,3.42-2.559,3.361q-14.05-.286-28.109,0c-2.975.057-2.49-1.651-2.506-3.406-.017-1.8-.4-3.516,2.559-3.357,4.672.252,9.367.067,14.052.067" transform="translate(-5.45 -21.815)" fill="#040506"/>
    <path id="Trazado_731221" data-name="Trazado 731221" d="M64.321,182.549c-4.685,0-9.376-.147-14.053.051-3.209.135-2.17-2.035-2.283-3.59-.119-1.638-.416-3.194,2.312-3.149q14.259.234,28.524,0c3.2-.051,2.17,2.038,2.283,3.594.119,1.64.417,3.264-2.316,3.148-4.815-.2-9.644-.057-14.467-.057" transform="translate(-8.174 -30.002)" fill="#040506"/>
    <path id="Trazado_731222" data-name="Trazado 731222" d="M32.341,198.539c-4.685,0-9.377-.147-14.053.051-3.208.136-2.171-2.033-2.284-3.589-.119-1.641-.411-3.195,2.314-3.15q14.26.231,28.524,0c3.2-.051,2.167,2.04,2.281,3.595.119,1.639.422,3.265-2.315,3.148-4.814-.207-9.643-.058-14.466-.058" transform="translate(-2.718 -32.73)" fill="#040506"/>
    <path id="Trazado_731223" data-name="Trazado 731223" d="M28.837,150.565c-3.03,0-6.066-.122-9.088.039-2.5.131-3.939-.026-3.926-3.333.013-3.234,1.316-3.443,3.883-3.385,6.607.147,13.226.212,19.828-.027,2.846-.1,3.046,1.114,3.017,3.37-.027,2.179-.05,3.641-2.978,3.4-3.558-.288-7.157-.068-10.737-.068" transform="translate(-2.699 -24.542)" fill="#040506"/>
    <path id="Trazado_731224" data-name="Trazado 731224" d="M69.192,150.565c-3.167,0-6.343-.134-9.5.042-2.56.144-3.883-.125-3.892-3.37-.007-3.294,1.408-3.4,3.918-3.347,6.608.132,13.226.215,19.828-.032,2.906-.108,2.966,1.214,2.983,3.406.018,2.244-.144,3.605-3.013,3.368-3.42-.281-6.882-.066-10.324-.066" transform="translate(-9.52 -24.541)" fill="#040506"/>
    <path id="Trazado_731225" data-name="Trazado 731225" d="M25.938,182.547c-2.064,0-4.138-.121-6.191.032-2.5.185-3.938-.017-3.923-3.323.014-3.22,1.295-3.486,3.872-3.387,4.535.173,9.092.234,13.62-.017,2.953-.163,2.569,1.563,2.553,3.357-.016,1.749.48,3.667-2.5,3.386-2.456-.231-4.95-.047-7.427-.047" transform="translate(-2.7 -29.999)" fill="#040506"/>
    <path id="Trazado_731226" data-name="Trazado 731226" d="M22.447,110.592a19.31,19.31,0,0,0-2.883.025c-2.805.432-3.709-.508-3.722-3.493s1.208-3.38,3.619-3.191c1.913.15,3.847.027,5.771.031,3.78.007,5.129,1.963,4.006,5.543-.35,1.116-1.04,1.072-1.843,1.078-1.65.015-3.3,0-4.948.007" transform="translate(-2.703 -17.724)" fill="#040506"/>
    <path id="Trazado_731227" data-name="Trazado 731227" d="M78.381,166.559a18.564,18.564,0,0,0-2.883.023c-2.858.455-3.648-.6-3.688-3.525-.042-3.064,1.291-3.317,3.651-3.158a49.11,49.11,0,0,0,6.182,0c2.3-.135,3.764-.025,3.684,3.118-.072,2.858-.736,4.024-3.651,3.565a21.386,21.386,0,0,0-3.294-.027" transform="translate(-12.251 -27.273)" fill="#040506"/>
    <path id="Trazado_731228" data-name="Trazado 731228" d="M71.314,191.885a16.087,16.087,0,0,0,2.878-.027c3.23-.595,2.944,1.436,3.121,3.62.217,2.7-.838,3.328-3.262,3.09a42.653,42.653,0,0,0-5.761-.023c-2.434.091-4.3.305-4.312-3.408-.007-3.916,2.2-3.255,4.453-3.252h2.883" transform="translate(-10.915 -32.714)" fill="#0d0c09"/>
    <path id="Trazado_731229" data-name="Trazado 731229" d="M74.53,214.526a26.049,26.049,0,0,0-2.88.02c-2.467.284-3.616-.283-3.632-3.232-.017-3.092,1.143-3.744,3.83-3.466a53.253,53.253,0,0,0,5.35.036c4.156.008,4.761.855,4.088,5.075-.2,1.259-.683,1.6-1.814,1.576-1.646-.041-3.294-.011-4.942-.008" transform="translate(-11.604 -35.449)" fill="#0d0c09"/>
    <path id="Trazado_731230" data-name="Trazado 731230" d="M86.487,131.534c.857,3.232-1.276,2.884-3.459,3.114-3.145.331-2.978-1.363-3.182-3.615-.285-3.148,1.372-2.991,3.628-3.176,3.094-.254,3.478,1.215,3.013,3.678" transform="translate(-13.617 -21.808)" fill="#040506"/>
    <path id="Trazado_731231" data-name="Trazado 731231" d="M169.614,210.527a51.832,51.832,0,0,0-6.189.048c-2.919.353-3.693-.686-3.646-3.584.041-2.591.75-3.255,3.26-3.148,4.81.2,9.639.206,14.45.009,3.211-.132,2.158,2.038,2.27,3.585.117,1.626.446,3.367-2.3,3.136-2.6-.217-5.228-.046-7.843-.046" transform="translate(-27.258 -34.774)" fill="#040506"/>
    <path id="Trazado_731232" data-name="Trazado 731232" d="M177.6,226.517a51.663,51.663,0,0,0-6.189.048c-2.929.356-3.678-.706-3.639-3.59.035-2.606.766-3.245,3.266-3.14,4.809.2,9.639.2,14.449.008,3.216-.13,2.146,2.049,2.265,3.591.126,1.635.43,3.36-2.309,3.129-2.6-.218-5.228-.046-7.843-.046" transform="translate(-28.622 -37.502)" fill="#040506"/>
    <path id="Trazado_731233" data-name="Trazado 731233" d="M195.4,203.975c3.162-.843,2.975,1.148,3.178,3.408.275,3.061-1.244,3.053-3.575,3.229-3.065.232-3.073-1.25-3.223-3.585-.192-3,1.083-3.585,3.619-3.052" transform="translate(-32.716 -34.765)" fill="#040506"/>
    <path id="Trazado_731234" data-name="Trazado 731234" d="M158.447,223.542c.871,3.3-1.4,2.78-3.508,3.036-3.243.394-2.891-1.481-3.126-3.651-.352-3.247,1.49-2.9,3.663-3.122,3.2-.323,3.359,1.347,2.972,3.737" transform="translate(-25.892 -37.492)" fill="#040506"/>
    <path id="Trazado_731235" data-name="Trazado 731235" d="M202.384,42.633a19.663,19.663,0,0,0-2.892.022c-2.837.427-3.7-.582-3.751-3.547-.051-3.179,1.484-3.239,3.763-3.122a42.491,42.491,0,0,0,6.2-.017c2.633-.254,3.521.571,3.528,3.358.007,2.815-.941,3.659-3.542,3.328a26.306,26.306,0,0,0-3.306-.023" transform="translate(-33.394 -6.129)" fill="#040506"/>
    <path id="Trazado_731236" data-name="Trazado 731236" d="M210.721,52a25.7,25.7,0,0,0,2.894-.017c2.472-.284,3.7.284,3.619,3.245-.073,2.642-.678,3.728-3.448,3.441a31.543,31.543,0,0,0-6.609,0c-2.827.305-3.406-.874-3.4-3.479.008-2.49.606-3.591,3.223-3.221a26.858,26.858,0,0,0,3.719.029" transform="translate(-34.765 -8.854)" fill="#040506"/>
    <path id="Trazado_731237" data-name="Trazado 731237" d="M223.386,42.494c-3.152.765-3.51-.745-3.628-3.279-.139-3,1.194-3.206,3.621-3.3,2.665-.1,3.263.847,3.167,3.305-.093,2.405-.08,4.407-3.161,3.27" transform="translate(-37.49 -6.127)" fill="#040506"/>
    <path id="Trazado_731238" data-name="Trazado 731238" d="M191.414,52.076c3.278-.824,2.968,1.329,3.156,3.531.241,2.816-1.1,2.988-3.373,3.1-2.8.135-3.363-.878-3.421-3.493-.065-2.916,1.027-3.691,3.639-3.136" transform="translate(-32.034 -8.854)" fill="#040506"/>
  </g>
</svg>
