<svg xmlns="http://www.w3.org/2000/svg" xmlns:xlink="http://www.w3.org/1999/xlink" width="197.778" height="194.388" viewBox="0 0 197.778 194.388">
  <defs>
    <clipPath id="clip-path">
      <rect id="Rectángulo_347603" data-name="Rectángulo 347603" width="197.778" height="194.388" fill="none"/>
    </clipPath>
  </defs>
  <g id="Grupo_991447" data-name="Grupo 991447" clip-path="url(#clip-path)">
    <path id="Trazado_730947" data-name="Trazado 730947" d="M28.864,145.731Q22.3,164.584,15.73,183.439c-1.54,4.428-8.908,6.944-12.814,4.374-1.607-1.057-1.372-2.566-1.176-4.128,1.389-11.091,2.5-22.223,4.2-33.266A250.131,250.131,0,0,0,9.083,106.63c-.118-5.209,1.047-9.939,4.9-13.738.606-.6,1.569-1.257.99-2.274C13.078,87.3,14.15,83.8,14.327,80.4c.341-6.58,3.842-9.7,10.451-9.482,2.3.077,3.711.526,2.86-3.061-.9-3.778-.451-7.949-.147-11.914.225-2.93,2.337-4.224,5.287-4.6,1.85-.236,4.2.651,5.479-1.641,1.332-2.392,1.629-4.346-.707-6.7-3.951-3.982-3.672-6.124.248-10.07q2.177-2.191,4.37-4.367c4.019-3.988,6.023-4.172,10.087-.4,1.843,1.711,3.358,2.222,5.751,1.061,1.792-.871,2.674-1.628,2.829-3.8.489-6.81,1.753-7.811,8.623-7.813h2.7c8.687,0,9.014.287,10.025,8.805.336,2.834,4.243,4.514,6.524,2.785,1.022-.776,1.966-1.654,2.983-2.437a4.929,4.929,0,0,1,6.969.34c2.081,1.917,4.043,3.964,6.031,5.98,3.8,3.852,3.857,5.8.354,9.865-1.267,1.468-2.9,2.462-1.817,5.173,1.051,2.639,2.785,2.9,4.967,3.164,5.9.7,6.663,1.584,6.686,7.569.007,1.672,0,3.344,0,5.376,3.177-1.775,6.466-1.237,9.688-1.237,4.511,0,5.629,1.063,6.122,5.563.152,1.387.213,2.785.327,4.323a5.379,5.379,0,0,0,1.125-.4c2.9-1.942,5.366-6.38,9.476-2.871,2.7,2.3,6.369,4.276,6.638,8.547.075,1.185.81,1.521,1.547,1.922q10.451,5.7,20.935,11.336c1.466-2.9,2.739-5.711,4.268-8.376,2.833-4.937,7.614-5.936,13.3-2.933,5.1,2.694,6.842,7.218,4.452,12.206-2.566,5.356-6.444,10.048-3,16.912,1.553,3.1.337,7.59.335,11.45a3.4,3.4,0,0,1-2.77,3.654c-2.275-.4-3.168-1.761-3.1-4.046.1-3.194.026-6.394.024-9.592,0-2.671-.676-5.025-3.077-6.573-11.165-6.88-22.985-12.56-34.728-19.255.453,4.51,2.912,7.064,6.194,9.056q11.644,7.071,23.277,14.162c1.487.911,2.75,2.106,1.717,4.08-.944,1.8-2.44,2.064-4.217,1.219a15.134,15.134,0,0,0-1.444-.51v11.338c-.711,3.287-.041,5.53,3.756,6.434,2.791.665,5.393,2.125,8.369,3.35a3.71,3.71,0,0,1,3.248-4.176c2.434.771,2.783,2.661,2.787,4.883.014,7.839-3.09,15.032-4.661,22.539a9.692,9.692,0,0,0,.836,7.322c3.435,6.154,6.644,12.435,9.854,18.711,1.847,3.611.8,5.142-3.238,5.469-4.6.373-8.2-.5-11.295-4.647-5.029-6.742-10.854-12.889-16.666-19.664-.544,6.629-1.265,12.848-1.488,19.085-.134,3.736-1.388,5.573-5.267,5.219-1.277-.117-2.573-.031-3.86-.027-2.1.006-3.429-.872-3.65-3.1-.926-9.336-1.887-18.669-2.779-28.007-.222-2.317.962-4.175,2.27-5.98,4.671-6.451,9.275-12.952,13.967-19.388a7.828,7.828,0,0,0,1.649-4.941c-.042-5.147.038-10.3.285-15.44.1-2.06-.4-3.471-2.3-4.333a7.034,7.034,0,0,1-1.639-1c-5.489-4.656-11.589-6.022-18.615-3.147,1.062,2.754,5.252,4.355,4.329,8.157-.8,3.3-3.791,5.114-6.116,7.237-4.746,4.335-7.068-1.271-10.528-2.981-1,2.877.369,6.448-2.389,8.569-2.689,2.068-5.974,1.1-8.99,1.092-4.546-.02-5.243-1.278-6.1-9.711-2,.213-2.892,1.98-4.208,3.035-2.523,2.024-4.843,2.137-7.162-.223q-1.218-1.239-2.45-2.464c-4.694-4.7-4.719-5.291-.585-10.529.535-.678,1.632-1.277,1.328-2.185-.424-1.267-1.79-.735-2.7-.711-3.928.1-6.72-.833-7.224-5.5a4.579,4.579,0,0,0-4.528-3.927c-2.328.1-4.227,1.306-4.23,4.669-.007,5.99-1.432,7.078-7.755,7.372-1.6.073-2.412.435-3.054,2.113-2.136,5.576-6.524,8.35-12.344,9.054-3.827.463-7.7.726-11.466,1.486-4.643.935-8.045-1.764-12.274-3.864,0,3.694.087,6.97-.036,10.238-.063,1.7,1.057,2.535,2.013,3.531,5.614,5.851,11.2,11.726,16.885,17.512,3.47,3.535,4.152,7.247,2.107,11.9-3.964,9.022-7.542,18.214-11.295,27.329-1.465,3.555-9.536,5.468-12.427,2.983-1.277-1.1-1.18-2.428-.849-3.88,1.567-6.874,2.9-13.809,4.735-20.61.895-3.325.721-5.823-2.083-8.07-1.833-1.468-3.419-3.293-1.893-5.958,1.741-1.225,3.144-.891,4.789.49,4.772,4.005,7.752,8.434,5,14.945a21.643,21.643,0,0,0-1.2,4.844c-.7,4.2-2.252,8.257-2.485,12.968.681-.478,1.117-.616,1.229-.887,3.788-9.124,7.514-18.273,11.332-27.384.875-2.085-.086-3.446-1.386-4.783-4.658-4.793-9.371-9.535-13.973-14.383-1.66-1.749-2.6-1.7-3.34.677-1.066,3.419-2.234,6.808-3.357,10.209m27.109-38.624c-1.661.061-3.416-.2-4.967.243-4.8,1.384-8.653-.234-12.492-2.994-4.142-2.977-8.569-5.56-12.89-8.287-2.076-1.31-4.308-1.984-6.365-.15-2.443,2.176-4.238,4.81-4.233,8.275.009,5.376.062,10.753.1,16.129-.894,3.276.468,4.39,3.642,3.862a15.218,15.218,0,0,1,2.287-.043c7.946-.1,8.052-.1,8.064-7.927,0-1.929,1.506-4.3-.979-5.874-1.409-.856-2.853-1.66-4.218-2.581A2.947,2.947,0,0,1,22.868,104c.619-1.575,2.091-1.858,3.552-1.407a33.773,33.773,0,0,1,3.812,1.676c3.415,1.981,6.914,3.833,10.217,5.986a11.075,11.075,0,0,0,8.035,1.543c3.546-.507,7.1-.937,10.646-1.463,2.276-.338,4.374-1.014,5.393-3.761-3.085-.192-5.849-.5-8.551.534M187.1,180.856l.763,1.027c.527-.564.234-1.073-.107-1.577l-3.276-6.526c-7.359-14.658-6.661-9.037-3.105-24.559,2.162-9.438,2.272-9.319-6.919-12.8-2.447-.928-3.17-.525-3.241,2.057-.184,6.8-.525,13.6-.838,20.4a5.609,5.609,0,0,0,1.293,4.273c5.172,5.877,10.291,11.8,15.431,17.707M102.4,97.007c4.98,1.395,6.369,6.511,3.018,10.625-.993,1.219-3.555,2.077-1.161,4.582,2.311,2.418,3.416.35,4.585-.853,2.27-2.335,4.361-2.508,7.5-1.309,3.68,1.407,3.3,4.19,3.594,6.86.188,1.705.276,2.772,2.54,2.763,2.358-.009,2.286-1.223,2.4-2.87.176-2.589-.146-5.109,3.172-6.714,3.577-1.731,5.861-.8,8.011,1.807,1.945,2.357,3.48,1.519,4.786-.488,1.23-1.888-.841-2.756-1.7-3.622-2.22-2.248-2.437-4.336-1.234-7.257,1.151-2.794,2.887-3.644,5.606-3.516.683.032,1.594.244,2.031-.94-1.52-1.2-2.009-3.381-3.944-4.4-4.881-2.56-5.653-6.624-2.259-10.793,1-1.229,3.5-2.119,1.074-4.581-2.619-2.661-3.583.088-4.832,1.186-2.06,1.81-3.863,2.172-6.6,1.191-3.381-1.214-4.094-3.421-4.153-6.476-.032-1.619.63-3.633-2.459-3.6-2.77.026-2.263,1.753-2.433,3.312a10.086,10.086,0,0,0-.172,1.532c.169,3.5-2.412,4.266-4.941,5.424-2.507,1.147-4.118.237-5.82-1.368a26.351,26.351,0,0,0-2.771-2.028c-3.62,1.315-3.944,2.233-1.714,4.843,3.868,4.524,3.857,4.514-.148,9.036-1.992,2.25-3.936,4.543-5.966,6.891,1.479,1.049,2.755.772,3.988.765M47.185,31.515a68.055,68.055,0,0,0-5.493,6c-1.182,1.627.85,2.511,1.717,3.3,2.887,2.624,3.835,5.322,1.318,8.7a4.606,4.606,0,0,0-.895,2.111c-.509,4.487-3.378,5.7-7.33,5.329-2.546-.242-3.526.759-3.194,3.283a14.622,14.622,0,0,1,0,3.469c-.215,1.954.455,2.866,2.521,2.73,4.664-.31,7.938,1.3,8.628,6.415a3.807,3.807,0,0,0,.8,1.739c2.086,2.648,1.591,4.992-.837,7.037-2.947,2.483-3.037,4.768.257,6.986a3.265,3.265,0,0,1,.815.818c1.475,2.1,2.81,2.3,4.725.262,1.334-1.419,2.77-3.777,4.934-3.235a39.031,39.031,0,0,1,9.9,3.925c2.208,1.272,1.618,4.2,1.623,6.428.005,2.263.86,2.938,2.941,2.674a9.725,9.725,0,0,1,2.7,0c2.931.459,4.316-.589,3.855-3.666-1.056-7.064,5.351-6.587,9.008-8.864,3.093-1.925,4.618.817,6.577,2.3.963.725,1.894,2.619,2.947,1.886a19.549,19.549,0,0,0,5.68-5.649c.75-1.257-1.4-2.772-2.536-3.823-2.43-2.249-2.539-4.507-.791-7.142a7.211,7.211,0,0,0,1.274-2.782c.558-3.974,3.009-5.473,6.691-5.165,5.864.492,3.782-3.787,4.162-6.646.5-3.8-2.308-3-4.267-2.942-3.467.1-5.645-1.168-6.28-4.732a6.129,6.129,0,0,0-.946-2.5C95.11,46.241,96.021,43.3,99.1,40.744c2.13-1.771,2.425-3.352-.048-5.07a10,10,0,0,1-2.174-2.182c-1.342-1.772-2.615-1.686-3.969-.063-3.008,3.606-6.365,4.363-10.29,1.369a5.76,5.76,0,0,0-2.5-.943c-2.848-.467-3.644-2.336-3.862-4.925-.445-5.3-.518-5.292-5.789-5.269-.643,0-1.292.057-1.929,0-1.375-.133-1.9.539-1.752,1.809.613,5.38-1.68,8.5-7.09,9.326a5.224,5.224,0,0,0-2.053,1.025c-2.453,1.739-4.5,1.188-6.462-.882-1.045-1.1-2.311-1.994-3.993-3.419M20.269,130.157a6.43,6.43,0,0,1-1.427-.014c-3.254-.394-4.661.568-4.891,4.282-.4,6.52-1.659,12.987-2.52,19.481-1.132,8.533-2.254,17.067-3.3,25.61-.1.851-.743,2.284.8,2.534,1.1.179,1.316-.984,1.6-1.836.2-.609.447-1.2.656-1.811q7.292-21.125,14.591-42.248c2.236-6.435,2.283-6.419-5.5-6m10.66-58.164c5.305,6.406,3.8,12.67,1.7,18.738-.647,1.869-.674,2.536.959,3.493a89.514,89.514,0,0,1,8.391,5.406,10.164,10.164,0,0,0,8.244,2.034c2.525-.425,5.121-.441,7.631-.923,1.115-.214,3.3.5,3.009-1.84-.224-1.811.527-3.866-2.317-5.018-2.731-1.107-4.123-.2-5.918,1.418-4,3.61-6.038,3.5-9.835-.227-1.557-1.53-3.093-3.081-4.627-4.633-3.923-3.97-4.216-6.017-.233-10.062,2.587-2.628,1.826-4.925.224-7.051-1.576-2.089-4.274-.486-7.227-1.334m133.92,69.447c-3.064,4.256-5.209,7.811-7.929,10.853-2.788,3.119-3.211,6.531-2.766,10.355a71.465,71.465,0,0,0,.883,8.023c.9,3.838.018,7.976,2.061,12.268a19.055,19.055,0,0,0,.735-2.788c.343-4.479.762-8.96.892-13.448.114-3.919,1.072-7.332,4.2-9.928.984-.814,1.935-1.7,1.927-3.18-.022-3.679-.007-7.358-.007-12.157m23.165-52.92c-.3-2.5-2.218-3.095-3.945-3.941-1.755-.859-3-.242-3.86,1.292-1.062,1.9-2.017,3.859-2.989,5.807a2.681,2.681,0,0,0,1.258,3.9c1.607.861,3.368,2.675,5.2.837,2.192-2.2,3.059-5.268,4.34-7.9m-168.3-3.212c-.691,4.227,3.152,4.029,5.283,3.8,5.347-.575,2.674-5.458,3.52-8.368.894-3.077-1.591-3.807-4.174-3.926-3.692-.169-4.346.965-4.629,8.494" transform="translate(-0.363 -3.995)" fill="#0d0e0f"/>
    <path id="Trazado_730948" data-name="Trazado 730948" d="M21.393,27.691C30.572,12.839,43.441,3.859,60.315.78,62.709.344,65.17.251,67.6.054,69.926-.134,72.4.019,72.424,3.016c.026,2.76-2.314,2.781-4.5,2.9C50.423,6.884,36.92,14.782,27.257,29.41c1.1.774,1.843-.058,2.678-.182a2.872,2.872,0,0,1,3.311,2.032,2.446,2.446,0,0,1-1.292,3.273A107.229,107.229,0,0,1,21.5,38.3c-1.852.537-3.043-.705-3.655-2.57-.839-2.553-1.941-5.018-2.8-7.562-.65-1.913-1.007-3.954,1.536-4.8,2.228-.736,3.295.633,3.9,2.578a12.483,12.483,0,0,0,.919,1.738" transform="translate(-3.303 0)" fill="#0f1010"/>
    <path id="Trazado_730949" data-name="Trazado 730949" d="M194.357,73.809c1.2-2.1,2.3-5.4,5.189-2.886,3.351,2.911-.292,6.4-.425,9.665-.07,1.709-.753,4.055-2.962,3.881a36.317,36.317,0,0,1-11.1-2.72c-1.372-.572-1.545-2.049-1.093-3.35.748-2.147,2.546-1.93,4.513-1.606-4.212-6-10.048-9.261-16.737-11.205a29.924,29.924,0,0,0-7.992-1.022c-2.035-.028-3.673-1.008-3.56-3.173.111-2.13,1.741-2.928,3.836-2.829a39.971,39.971,0,0,1,30.333,15.246" transform="translate(-36.32 -13.277)" fill="#0f1010"/>
    <path id="Trazado_730950" data-name="Trazado 730950" d="M36.858,179.748c1.124-3.4,2.291-6.789,3.357-10.209.742-2.379,1.68-2.426,3.34-.677,4.6,4.848,9.314,9.589,13.972,14.383,1.3,1.337,2.26,2.7,1.386,4.783-3.818,9.111-7.544,18.26-11.332,27.384-.112.271-.547.408-1.229.886.234-4.71,1.781-8.767,2.485-12.968a21.626,21.626,0,0,1,1.2-4.843c2.751-6.511-.229-10.939-5-14.946-1.645-1.381-3.047-1.714-4.789-.489-.928-1.309-1.8-2.672-3.39-3.306" transform="translate(-8.357 -38.011)" fill="#275068"/>
    <path id="Trazado_730951" data-name="Trazado 730951" d="M231.062,129.487c2.4,1.547,3.077,3.9,3.078,6.573,0,3.2.077,6.4-.025,9.592-.073,2.285.82,3.647,3.1,4.046q.01,2.744.023,5.488a3.712,3.712,0,0,0-3.248,4.177c-2.975-1.225-5.577-2.685-8.369-3.35-3.8-.9-4.466-3.147-3.756-6.434,6.241-.456,9.19-3.573,9.2-9.738.007-3.451,0-6.9,0-10.353" transform="translate(-50.248 -29.36)" fill="#4bb9e3"/>
    <path id="Trazado_730952" data-name="Trazado 730952" d="M8.721,243.508c1.792,0,3.586-.029,5.377.007,1.908.039,3.327.985,3.414,2.9.087,1.936-1.273,3.061-3.173,3.11q-5.566.14-11.137,0c-1.864-.048-3.255-1.015-3.2-3.064s1.474-2.868,3.343-2.939c1.789-.069,3.584-.015,5.376-.015" transform="translate(0 -55.209)" fill="#121312"/>
    <path id="Trazado_730953" data-name="Trazado 730953" d="M242.026,249.551c-1.921,0-3.845.082-5.76-.026s-3.221-1.192-3.154-3.138a2.893,2.893,0,0,1,3.06-2.841c3.838-.09,7.683-.1,11.519.024a2.785,2.785,0,0,1,2.942,2.914c0,2.046-1.362,2.945-3.231,3.049-1.787.1-3.584.021-5.376.019" transform="translate(-52.856 -55.206)" fill="#121312"/>
    <path id="Trazado_730954" data-name="Trazado 730954" d="M47.578,249.545c-1.926,0-3.858.087-5.777-.028-1.7-.1-2.968-.93-3.051-2.816-.091-2.089,1.2-3.1,3.086-3.157,3.72-.11,7.448-.1,11.17,0a2.806,2.806,0,0,1,3.053,2.812c.09,2.077-1.2,3.04-3.089,3.166-1.79.119-3.594.026-5.392.025" transform="translate(-8.785 -55.204)" fill="#121312"/>
    <path id="Trazado_730955" data-name="Trazado 730955" d="M197.353,243.508c1.8,0,3.6-.081,5.393.022,1.881.108,3.2,1,3.166,3.1a2.768,2.768,0,0,1-2.974,2.88c-3.849.109-7.709.13-11.556-.024a2.735,2.735,0,0,1-2.8-3.047,2.836,2.836,0,0,1,2.988-2.885c1.918-.123,3.852-.029,5.778-.029v-.013" transform="translate(-42.76 -55.206)" fill="#121312"/>
    <path id="Trazado_730956" data-name="Trazado 730956" d="M56.464,33.281C58.147,34.7,59.412,35.6,60.457,36.7c1.963,2.068,4.009,2.621,6.462.882a5.213,5.213,0,0,1,2.053-1.025c5.41-.827,7.7-3.946,7.09-9.326-.145-1.27.377-1.942,1.752-1.809a19.11,19.11,0,0,0,1.929,0c5.271-.022,5.344-.029,5.789,5.27.218,2.589,1.014,4.458,3.862,4.925a5.76,5.76,0,0,1,2.5.943c3.925,2.993,7.282,2.236,10.29-1.369,1.354-1.623,2.628-1.71,3.969.063a9.977,9.977,0,0,0,2.174,2.181c2.473,1.719,2.178,3.3.048,5.071-3.078,2.559-3.988,5.5-1.407,9.015a6.121,6.121,0,0,1,.946,2.5c.635,3.564,2.813,4.831,6.28,4.732,1.959-.056,4.771-.854,4.267,2.942-.38,2.86,1.7,7.138-4.162,6.646-3.682-.309-6.133,1.191-6.691,5.165a7.211,7.211,0,0,1-1.274,2.782c-1.748,2.635-1.639,4.892.791,7.142,1.136,1.051,3.286,2.566,2.536,3.823a19.549,19.549,0,0,1-5.68,5.649c-1.052.733-1.984-1.161-2.947-1.886-1.959-1.478-3.484-4.22-6.577-2.3C90.8,91,84.394,90.525,85.45,97.589c.46,3.078-.925,4.126-3.855,3.667a9.725,9.725,0,0,0-2.7,0c-2.082.264-2.936-.411-2.941-2.674-.005-2.232.585-5.156-1.623-6.428a39.025,39.025,0,0,0-9.905-3.925c-2.164-.542-3.6,1.816-4.933,3.235-1.915,2.037-3.25,1.84-4.725-.262a3.252,3.252,0,0,0-.815-.818c-3.294-2.219-3.2-4.5-.257-6.986,2.428-2.045,2.924-4.389.837-7.038a3.8,3.8,0,0,1-.8-1.738c-.69-5.11-3.964-6.725-8.628-6.415-2.066.137-2.736-.776-2.521-2.73a14.622,14.622,0,0,0,0-3.469c-.332-2.525.648-3.525,3.194-3.283,3.953.376,6.822-.841,7.33-5.329a4.606,4.606,0,0,1,.895-2.111c2.517-3.378,1.569-6.076-1.318-8.7-.868-.789-2.9-1.673-1.717-3.3a68.055,68.055,0,0,1,5.493-6M94.433,50.79c.765-2.521-.3-4.087-2.464-5.373a21.638,21.638,0,0,0-15.494-2.979C65.666,44.42,57.6,55.368,59.353,65.885,61.419,78.258,71.887,86.014,84.07,84.2c10.991-1.639,19.2-12.943,17.428-24.01-.4-2.495-1.521-4.1-4.392-3.5-.121-2.314-2.264-3.712-2.672-5.9" transform="translate(-9.642 -5.76)" fill="#94b9c7"/>
    <path id="Trazado_730957" data-name="Trazado 730957" d="M135.8,90.422a26.27,26.27,0,0,1,2.771,2.028c1.7,1.605,3.313,2.515,5.82,1.368,2.53-1.158,5.11-1.929,4.942-5.424a9.978,9.978,0,0,1,.171-1.531c.171-1.559-.336-3.286,2.433-3.312,3.089-.029,2.427,1.984,2.459,3.6.06,3.055.773,5.262,4.153,6.476,2.732.981,4.535.619,6.6-1.191,1.25-1.1,2.213-3.847,4.832-1.187,2.423,2.463-.073,3.351-1.074,4.582-3.394,4.169-2.621,8.232,2.26,10.792,1.935,1.015,2.423,3.193,3.944,4.4-.438,1.184-1.349.972-2.031.94-2.719-.128-4.456.722-5.606,3.516-1.2,2.921-.986,5.009,1.234,7.257.855.866,2.926,1.733,1.7,3.622-1.307,2.007-2.842,2.845-4.786.488-2.15-2.606-4.434-3.538-8.011-1.807-3.318,1.605-2.995,4.125-3.171,6.713-.112,1.647-.04,2.861-2.4,2.87-2.264.009-2.351-1.059-2.54-2.763-.3-2.67.086-5.453-3.594-6.861-3.134-1.2-5.226-1.025-7.494,1.31-1.17,1.2-2.275,3.271-4.586.853-2.394-2.505.168-3.363,1.161-4.582,3.351-4.114,1.962-9.23-3.018-10.625,1.648-1.768,3.324-3.511,4.937-5.31,3.423-3.819,3.634-7.689.6-11.729-1.018-1.356-1.968-2.68-1.7-4.5m15.873,7.545a11.291,11.291,0,0,0-11.2,11.367,11.657,11.657,0,0,0,11.209,11.123,11.226,11.226,0,0,0,11.242-11.322,10.942,10.942,0,0,0-11.252-11.167" transform="translate(-29.921 -18.944)" fill="#71a2ba"/>
    <path id="Trazado_730958" data-name="Trazado 730958" d="M22.12,163.11c7.787-.421,7.741-.437,5.5,6q-7.336,21.109-14.591,42.247c-.21.607-.455,1.2-.656,1.812-.281.853-.5,2.015-1.6,1.836-1.539-.25-.9-1.683-.795-2.534,1.043-8.543,2.165-17.077,3.3-25.61.861-6.494,2.116-12.96,2.52-19.481.23-3.715,1.637-4.676,4.891-4.282a6.427,6.427,0,0,0,1.427.014" transform="translate(-2.214 -36.949)" fill="#39627f"/>
    <path id="Trazado_730959" data-name="Trazado 730959" d="M236.582,215.559c-5.138-5.907-10.258-11.83-15.43-17.707a5.61,5.61,0,0,1-1.292-4.273c.312-6.8.654-13.6.838-20.4.07-2.583.793-2.986,3.241-2.058,9.191,3.482,9.08,3.363,6.919,12.8-3.555,15.522-4.254,9.9,3.1,24.559l3.276,6.526q-.328.276-.656.551" transform="translate(-49.849 -38.697)" fill="#39627f"/>
    <path id="Trazado_730960" data-name="Trazado 730960" d="M34.17,126.9a33.971,33.971,0,0,0-3.812-1.676c-1.461-.451-2.933-.168-3.552,1.407a2.946,2.946,0,0,0,1.05,3.759c1.365.922,2.808,1.726,4.218,2.581-1.987,6.393-6.563,9.411-13.015,9.983-.035-5.376-.088-10.752-.1-16.128-.005-3.466,1.791-6.1,4.233-8.275,2.058-1.834,4.29-1.159,6.365.15,4.321,2.727,8.749,5.31,12.891,8.288,3.839,2.759,7.688,4.377,12.492,2.993,1.55-.446,3.3-.182,4.967-.242-6.6,4.022-13.08,2.914-19.466-.5-2-1.069-3.753-2.706-6.274-2.34" transform="translate(-4.299 -26.625)" fill="#e36a93"/>
    <path id="Trazado_730961" data-name="Trazado 730961" d="M223.65,123.841c0,3.451.008,6.9,0,10.353-.012,6.164-2.961,9.281-9.2,9.738V132.594a15.056,15.056,0,0,1,1.444.51c1.777.844,3.273.584,4.217-1.219,1.033-1.974-.229-3.169-1.717-4.081q-11.615-7.119-23.277-14.161c-3.282-1.993-5.74-4.547-6.194-9.056,11.743,6.695,23.564,12.375,34.728,19.255" transform="translate(-42.836 -23.714)" fill="#6bc3ed"/>
    <path id="Trazado_730962" data-name="Trazado 730962" d="M209.537,177.749c0,4.8-.014,8.478.007,12.157.009,1.475-.943,2.365-1.926,3.18-3.133,2.6-4.091,6.008-4.2,9.928-.13,4.488-.549,8.968-.892,13.448a19.1,19.1,0,0,1-.735,2.788c-2.043-4.292-1.162-8.43-2.061-12.268a71.667,71.667,0,0,1-.883-8.023c-.445-3.825-.022-7.237,2.767-10.356,2.719-3.042,4.865-6.6,7.928-10.853" transform="translate(-45.051 -40.303)" fill="#275068"/>
    <path id="Trazado_730963" data-name="Trazado 730963" d="M19.007,147.511c6.452-.572,11.027-3.59,13.015-9.983,2.485,1.574.983,3.944.98,5.874-.013,7.83-.119,7.83-8.065,7.927a15.217,15.217,0,0,0-2.287.043c-3.174.528-4.536-.585-3.642-3.862" transform="translate(-4.249 -31.183)" fill="#dd4770"/>
    <path id="Trazado_730964" data-name="Trazado 730964" d="M239.4,108.041c-1.281,2.631-2.148,5.7-4.34,7.9-1.829,1.837-3.589.024-5.2-.838a2.68,2.68,0,0,1-1.258-3.9c.972-1.949,1.927-3.909,2.989-5.808.858-1.533,2.106-2.151,3.861-1.291,1.726.845,3.646,1.442,3.944,3.94" transform="translate(-51.744 -23.516)" fill="#f5ceb1"/>
    <path id="Trazado_730965" data-name="Trazado 730965" d="M25,102.663c.283-7.529.936-8.664,4.629-8.494,2.583.119,5.068.849,4.174,3.926-.846,2.91,1.827,7.794-3.52,8.368-2.131.229-5.973.428-5.283-3.8" transform="translate(-5.651 -21.348)" fill="#f5ceb1"/>
    <path id="Trazado_730966" data-name="Trazado 730966" d="M134.629,92.437c-.268,1.816.683,3.139,1.7,4.5,3.031,4.04,2.821,7.91-.6,11.729-1.613,1.8-3.289,3.542-4.937,5.31-1.233.008-2.509.284-3.988-.765,2.031-2.348,3.975-4.64,5.967-6.891,4-4.522,4.015-4.513.147-9.036-2.231-2.61-1.906-3.528,1.714-4.843" transform="translate(-28.751 -20.959)" fill="#4a7797"/>
    <path id="Trazado_730967" data-name="Trazado 730967" d="M38.629,129.66c2.522-.366,4.275,1.27,6.274,2.34,6.386,3.414,12.87,4.523,19.466.5,2.7-1.032,5.465-.727,8.55-.535-1.018,2.747-3.116,3.424-5.392,3.761-3.543.526-7.1.956-10.647,1.463a11.073,11.073,0,0,1-8.035-1.543c-3.3-2.153-6.8-4-10.216-5.986" transform="translate(-8.759 -29.387)" fill="#dd4770"/>
    <path id="Trazado_730968" data-name="Trazado 730968" d="M242.146,228.01c.342.5.634,1.013.107,1.577l-.763-1.026.656-.551" transform="translate(-54.756 -51.699)" fill="#39627f"/>
    <path id="Trazado_730969" data-name="Trazado 730969" d="M99.3,55.676c-1.943,1.472-3.584,1-5.568-.288-5.734-3.715-11.633-3.559-17.277.268a15.038,15.038,0,0,0-6.1,15.907c1.735,6.547,6.023,10.533,12.783,11.723,9.537,1.678,18.249-6.583,17.337-16.552-.183-2-.4-3.843,1.5-5.163,2.871-.6,3.993,1.008,4.392,3.5,1.77,11.067-6.437,22.37-17.428,24.01C76.751,90.9,66.284,83.144,64.217,70.771,62.461,60.254,70.53,49.306,81.339,47.324A21.638,21.638,0,0,1,96.833,50.3c2.167,1.286,3.229,2.853,2.464,5.373" transform="translate(-14.506 -10.646)" fill="#0f1010"/>
    <path id="Trazado_730970" data-name="Trazado 730970" d="M154.167,102.195a10.942,10.942,0,0,1,11.252,11.167,11.224,11.224,0,0,1-11.242,11.321,11.656,11.656,0,0,1-11.209-11.122,11.292,11.292,0,0,1,11.2-11.367m5.52,11.083a5.628,5.628,0,0,0-5.468-5.351,5.419,5.419,0,0,0-5.207,5.493,5.168,5.168,0,0,0,5.335,5.258,5.481,5.481,0,0,0,5.34-5.4" transform="translate(-32.416 -23.172)" fill="#0d0e0f"/>
  </g>
</svg>
