<svg xmlns="http://www.w3.org/2000/svg" xmlns:xlink="http://www.w3.org/1999/xlink" width="181" height="181" viewBox="0 0 181 181">
  <defs>
    <clipPath id="clip-path">
      <rect id="Rectángulo_347612" data-name="Rectángulo 347612" width="124.194" height="163.84" fill="none"/>
    </clipPath>
  </defs>
  <g id="Grupo_991493" data-name="Grupo 991493" transform="translate(-1022 -777)">
    <circle id="Elipse_5919" data-name="Elipse 5919" cx="90.5" cy="90.5" r="90.5" transform="translate(1022 777)" fill="#fff"/>
    <g id="Grupo_991466" data-name="Grupo 991466" transform="translate(1050.403 785.58)">
      <g id="Grupo_991465" data-name="Grupo 991465" clip-path="url(#clip-path)">
        <path id="Trazado_731114" data-name="Trazado 731114" d="M4.052,46.771q0-2.625,0-5.25c1.867-.7,2.443-2.1,2.4-4.02-.082-3.938.047-7.882-.056-11.819-.049-1.859.134-2.89,2.486-2.8,2.037.08,2.81.523,2.639,2.659a40.786,40.786,0,0,0,.07,6.7,7.24,7.24,0,0,0,6.631,6.639,7.489,7.489,0,0,0,7.689-5.43c.514-1.768.707-3.565-1.467-4.192-1.959-.564-2.876.658-3.155,2.561a2.269,2.269,0,0,1-2.735,2.045,2.412,2.412,0,0,1-2.274-2.6c-.075-2.128.072-4.265-.06-6.388-.1-1.6.53-1.934,2.007-1.929q37.689.106,75.377.127,0,9.874,0,19.747c-1.061.037-2.123.106-3.184.106q-37.335.01-74.669-.019c-2.589,0-4.32.476-4.289,3.627.089,9.254.036,18.51.03,27.765,0,1.331.166,2.56,1.532,3.232,1.12.934,2.454.508,3.686.51q36.867.04,73.731-.031c2.491-.009,3.267.646,3.249,3.2-.115,17.025-.069,34.051-.077,51.077-.53.036-1.06.089-1.591.1-4.533.109-6.042,1.655-6.064,6.238A47.868,47.868,0,0,0,86,144.385c.28,2.42-.558,2.969-2.945,2.96q-36.625-.147-73.248.015c-2.855.015-3.456-.72-3.446-3.492.109-30.711.064-61.422.079-92.135,0-2.074.134-4.138-2.39-4.962M62,87.6c9.063,0,18.125-.022,27.187.019,1.866.008,3.69-.214,3.693-2.449,0-2.27-1.918-2.462-3.727-2.461q-27.027.007-54.056.007c-1.764,0-3.661.047-3.638,2.487s1.884,2.409,3.672,2.406Q48.563,87.586,62,87.6m.286,9.978H89.47c1.74,0,3.425-.4,3.415-2.459-.01-2-1.558-2.467-3.38-2.449-5.437.055-10.876.02-16.313.02q-19.033,0-38.065-.013c-2.132,0-4.069.213-3.6,3.036.327,1.955,2.068,1.857,3.563,1.859q13.595.02,27.19.006M53.42,132.368c6.277,0,12.554-.01,18.832.008,1.845,0,3.58-.218,3.526-2.586-.05-2.173-1.744-2.4-3.431-2.4q-18.671-.012-37.343,0c-1.827,0-3.627.266-3.528,2.627s1.973,2.363,3.752,2.359c6.064-.017,12.129-.007,18.193-.008m.083-19.86c6.278,0,12.555-.01,18.832.007,1.726,0,3.367-.242,3.44-2.372.08-2.354-1.675-2.636-3.515-2.636q-18.674,0-37.346,0c-1.709,0-3.378.257-3.44,2.395-.069,2.347,1.657,2.618,3.515,2.613,6.171-.019,12.343-.008,18.513-.008M19.062,142.216c7.213,0,7.334.807,7.264-7.334-.064-7.487-.013-7.487-7.524-7.487-7.316,0-7.321,0-7.314,7.277.008,8.306-.7,7.521,7.574,7.544m-.318-19.9c7.711-.033,7.636.99,7.579-7.63-.047-7.172-.01-7.134-7.188-7.182-8.37-.056-7.643-.223-7.649,7.605-.006,8.12-.412,7.159,7.259,7.207M53.449,35.761c5,0,9.991-.035,14.986.018,1.837.019,3.311-.524,3.313-2.513,0-1.827-1.487-2.44-3.123-2.442q-14.987-.029-29.972,0c-1.617,0-3.129.55-3.147,2.407-.019,2.009,1.438,2.563,3.277,2.546,4.888-.045,9.778-.015,14.666-.015M48.525,117.6c-4.584,0-9.167.02-13.751-.01-1.749-.012-3.323.188-3.31,2.427.012,2.064,1.5,2.287,3.118,2.286,9.381-.006,18.761-.019,28.141.013,1.693.005,3.175-.458,3.209-2.283.039-2.034-1.523-2.475-3.339-2.453-4.689.055-9.379.019-14.069.019m0,19.866c-4.583,0-9.167.024-13.75-.013-1.765-.013-3.312.226-3.307,2.442,0,2.064,1.525,2.3,3.121,2.3,9.38,0,18.76-.008,28.14.012,1.679,0,3.179-.474,3.2-2.308.03-2.023-1.514-2.479-3.338-2.456-4.69.061-9.38.021-14.07.022M18.9,87.6c1.589,0,3.177-.012,4.765,0a2.321,2.321,0,0,0,2.543-2.285A2.265,2.265,0,0,0,23.889,82.8c-3.383-.093-6.773-.1-10.154.017A2.155,2.155,0,0,0,11.56,85.4a2.265,2.265,0,0,0,2.576,2.2H18.9m.081,5.1c-1.589,0-3.177.008-4.765,0-1.647-.01-2.627.752-2.661,2.437a2.224,2.224,0,0,0,2.411,2.393c3.173.1,6.353.071,9.528.026,1.586-.022,2.753-.891,2.709-2.493-.042-1.549-1.1-2.419-2.774-2.37-1.481.044-2.965.009-4.447.009" transform="translate(-1.457 -8.229)" fill="#e9f5fa"/>
        <path id="Trazado_731115" data-name="Trazado 731115" d="M2.594,38.542c2.525.823,2.391,2.888,2.39,4.962-.015,30.712.029,61.424-.079,92.135-.01,2.771.592,3.506,3.446,3.491q36.623-.2,73.248-.015c2.388.01,3.227-.54,2.945-2.96A48.14,48.14,0,0,1,84.5,130.4c.022-4.583,1.532-6.129,6.064-6.239.531-.013,1.061-.067,1.591-.1a25.468,25.468,0,0,1,3.5.142c3.1.541,3.789-.666,3.778-3.733-.127-32.944-.079-65.887-.079-98.831,0-7.186,0-7.186-7.209-6.794q-37.689-.05-75.378-.127c-1.477,0-2.106.333-2.007,1.931.131,2.122-.016,4.259.059,6.387a2.412,2.412,0,0,0,2.274,2.6,2.269,2.269,0,0,0,2.735-2.045c.279-1.9,1.2-3.125,3.155-2.561,2.175.626,1.982,2.424,1.467,4.192a7.49,7.49,0,0,1-7.688,5.431,7.242,7.242,0,0,1-6.632-6.64,40.786,40.786,0,0,1-.07-6.7c.171-2.136-.6-2.579-2.639-2.659-2.353-.093-2.536.937-2.486,2.8.1,3.937-.026,7.88.056,11.819.04,1.92-.535,3.316-2.4,4.02C.647,32.776-.049,31.537,0,29.516c.115-4.581.018-9.168.042-13.752.022-4.128,1.626-5.908,5.781-5.8,2.811.072,4.4-.206,4.439-3.706C10.308,2.574,13.741-.027,17.446,0a7.033,7.033,0,0,1,7.218,6.682c.1,3.029,1.3,3.274,3.793,3.265C51.374,9.864,74.291,9.9,97.209,9.9c5.847,0,7.233,1.249,7.036,7.123-.085,2.535.761,2.933,3.024,2.876,5.649-.142,7.021,1.183,6.849,6.87-.081,2.682.9,3.161,3.288,3.112,5.466-.111,6.76,1.29,6.762,6.709,0,11.194-.026,22.388.026,33.582.01,1.992-.241,3.625-2.518,4.129-2.386-.7-2.436-2.591-2.431-4.6.028-10.871-.026-21.742.05-32.612.013-1.858-.37-2.5-2.421-2.6-2.77-.145-2.767,1.224-2.765,3.261q.06,54.674.038,109.348c0,2.623.149,5.9-2.94,6.281-4.3.531-8.968,2.118-13.018-1.174-.152-.124-.206-.368-.305-.556.421-2.048,1.736-2.716,3.726-2.578,1.591.11,3.221-.158,4.789.062,2.632.368,3.074-.762,3.07-3.157q-.11-55.481-.051-110.962c0-2.665-.07-5.332.026-7.993.056-1.533-.213-2.226-2.027-2.312-2.451-.117-3.167.553-3.16,3.11.1,32.191.04,64.381.11,96.572a7.062,7.062,0,0,1-2.331,5.6q-6.121,5.855-11.973,11.989A6.288,6.288,0,0,1,85,144.034c-7.886-.1-15.773-.04-23.659-.04-14.6,0-29.2.051-43.8-.054-2.223-.016-2.8.526-2.851,2.778-.06,2.491,1.158,2.4,2.894,2.395q35.17-.046,70.339-.016c1.565,0,3.258-.36,4.331,1.3.44,3.094-1.431,3.5-3.878,3.489-11.291-.041-22.583-.017-33.875-.017-9.055,0-18.109.051-27.163-.041-1.935-.02-2.456.514-2.587,2.49-.188,2.839,1.341,2.718,3.3,2.716,27.163-.031,54.326,0,81.49-.05,3.152-.006,7.241,1.368,9.2-.636,1.807-1.849.49-5.892.5-8.964q.058-32.441.023-64.883c0-2.016-.311-4.213,2.49-4.775,2.418.433,2.435,2.215,2.433,4.131q-.037,29.574-.015,59.148c0,5.115.032,10.231-.012,15.346-.031,3.75-1.736,5.473-5.464,5.475q-46.671.025-93.342,0c-3.9,0-5.648-1.813-5.388-6.143.18-3-.535-4.019-3.721-3.834-4.74.277-6.37-1.333-6.143-5.956.154-3.123-.568-4.23-3.9-3.99-4.546.327-6.152-1.482-6.152-6.013Q.031,90.253.008,42.615c0-2.042.36-3.577,2.586-4.072M18.057,10c1.069.263,2.034-.086,1.9-2.117-.118-1.731-.676-2.951-2.519-2.949-2.009,0-2.556,1.363-2.69,3.179C14.567,10.5,16.216,9.864,18.057,10m71.6,125.778c1.352-1.525,2.159-2.461,2.993-3.371.884-.963,1.794-1.9,2.829-3-6.374-.756-6.374-.756-5.822,6.368" transform="translate(0 0)" fill="#0f1113"/>
        <path id="Trazado_731116" data-name="Trazado 731116" d="M111.778,171.012c.1.188.153.433.305.556,4.05,3.292,8.72,1.7,13.018,1.174,3.088-.381,2.941-3.659,2.94-6.281q-.022-54.674-.039-109.348c0-2.036,0-3.406,2.766-3.261,2.051.107,2.434.746,2.421,2.6-.076,10.87-.022,21.741-.05,32.612-.005,2.007.045,3.9,2.431,4.6q.037,2.712.074,5.425c-2.8.563-2.489,2.76-2.49,4.775q-.006,32.442-.023,64.884c-.005,3.072,1.312,7.115-.5,8.963-1.961,2-6.05.631-9.2.636-27.164.051-54.327.019-81.491.051-1.957,0-3.485.123-3.3-2.716.13-1.975.651-2.509,2.587-2.49,9.053.093,18.108.041,27.163.041,11.291,0,22.583-.024,33.874.017,2.447.009,4.318-.4,3.878-3.488,1.505,2.091,3.708,1.036,5.63,1.247" transform="translate(-13.895 -19.366)" fill="#84b7df"/>
        <path id="Trazado_731117" data-name="Trazado 731117" d="M17.187,88.735c-1.366-.672-1.533-1.9-1.532-3.232.006-9.255.059-18.511-.03-27.765-.03-3.15,1.7-3.631,4.289-3.627q37.335.06,74.669.019c1.061,0,2.122-.069,3.184-.105A3.413,3.413,0,0,1,99.9,57.546q-.1,13.916,0,27.834c.02,2.463-.947,3.467-3.39,3.462q-39.663-.088-79.326-.107M81.98,69.364c-.067,2.867-.179,5.735-.192,8.6-.029,6.305-.009,6.305,6.385,6,1.8.038,3.611.03,5.412.128,1.252.068,1.653-.436,1.636-1.661-.055-3.933-.031-7.868-.013-11.8,0-.946-.127-1.776-1.315-1.7-3.967.245-7.977-.639-11.912.438M45.433,63.591c.108.764.711.629,1.2.631,2.976.013,5.95.009,8.926.008,12.325,0,24.652-.048,36.977.026,1.97.012,2.7-.375,2.766-2.568.071-2.506-1.01-2.809-3-2.611-1.368.137-2.755.1-4.133.136q-19.341-.058-38.682-.113c-4.295-.011-4.295,0-4.059,4.491m-5.087,7.928c0-3.408-.066-6.819.029-10.225.044-1.577-.307-2.267-2.081-2.23-5.322.11-10.65.093-15.973.008-1.578-.026-1.959.542-1.945,2.025q.1,10.385,0,20.77c-.016,1.573.294,2.274,2.078,2.237,5.322-.111,10.65-.1,15.973-.006,1.593.026,1.982-.558,1.946-2.034-.085-3.513-.028-7.03-.026-10.545m18.2,5.43c0-2.539.993-5.909-.256-7.4-1.5-1.794-4.991-.415-7.611-.607-1.058-.077-2.135.073-3.187-.032-1.628-.162-2.305.378-2.2,2.11.133,2.225.032,4.465.032,6.7,0,6.353,0,6.353,6.447,6.353,6.976,0,6.976,0,6.778-7.118m18.092-.506h.195c0-1.7-.126-3.417.033-5.1.193-2.053-.691-2.54-2.571-2.447-2.759.136-5.535.134-8.295,0-1.907-.092-2.713.469-2.578,2.493.155,2.331.036,4.68.036,7.02,0,5.662,0,5.722,5.621,5.634,2.518-.04,5.861,1.135,7.313-.526,1.2-1.377.246-4.642.246-7.07" transform="translate(-5.62 -19.432)" fill="#0c0b0c"/>
        <path id="Trazado_731118" data-name="Trazado 731118" d="M18.065,77.566q39.663.044,79.326.107c2.443.006,3.411-1,3.39-3.462q-.116-13.916,0-27.833a3.413,3.413,0,0,0-2.137-3.522q0-9.874,0-19.747c7.208-.391,7.208-.391,7.208,6.8,0,32.944-.047,65.887.079,98.83.012,3.067-.674,4.275-3.777,3.734a25.475,25.475,0,0,0-3.5-.142c.007-17.025-.038-34.052.077-51.077.017-2.558-.758-3.212-3.25-3.2q-36.865.129-73.731.032c-1.232,0-2.566.425-3.686-.51" transform="translate(-6.498 -8.263)" fill="#c5ddee"/>
        <path id="Trazado_731119" data-name="Trazado 731119" d="M77.391,121.211q-13.434,0-26.868.007c-1.788,0-3.649.03-3.672-2.405s1.874-2.486,3.638-2.487q27.028-.011,54.056-.007c1.809,0,3.729.191,3.726,2.461,0,2.235-1.827,2.458-3.692,2.449-9.062-.041-18.125-.019-27.188-.019" transform="translate(-16.851 -41.838)" fill="#161819"/>
        <path id="Trazado_731120" data-name="Trazado 731120" d="M77.677,136.784q-13.595,0-27.189-.006c-1.5,0-3.236.1-3.563-1.859-.472-2.823,1.466-3.04,3.6-3.036q19.032.038,38.064.013c5.438,0,10.876.035,16.313-.02,1.822-.019,3.371.444,3.381,2.449.01,2.062-1.676,2.459-3.415,2.459H77.677" transform="translate(-16.853 -47.433)" fill="#161819"/>
        <path id="Trazado_731121" data-name="Trazado 731121" d="M68.822,191.073c-6.064,0-12.129-.01-18.193.006-1.778.005-3.652.007-3.752-2.359s1.7-2.626,3.528-2.627q18.672,0,37.343,0c1.687,0,3.381.224,3.431,2.4.055,2.369-1.681,2.591-3.526,2.585-6.277-.017-12.554-.006-18.831-.006" transform="translate(-16.859 -66.934)" fill="#131414"/>
        <path id="Trazado_731122" data-name="Trazado 731122" d="M68.907,160.045c-6.171,0-12.342-.012-18.513.007-1.859.005-3.584-.266-3.515-2.613.063-2.139,1.731-2.4,3.44-2.4q18.673,0,37.345,0c1.84,0,3.6.282,3.515,2.636-.072,2.13-1.713,2.376-3.44,2.372-6.278-.017-12.555-.006-18.832-.006" transform="translate(-16.861 -55.766)" fill="#131414"/>
        <path id="Trazado_731123" data-name="Trazado 731123" d="M23.233,200.925c-8.275-.024-7.566.763-7.574-7.544-.007-7.277,0-7.277,7.314-7.277,7.511,0,7.46,0,7.524,7.486.07,8.142-.052,7.333-7.264,7.335m2.227-7.245c.344-1.872-.247-2.7-2.3-2.654-1.889.038-2.91.313-2.794,2.564.091,1.764.341,2.691,2.42,2.634,1.887-.053,3.155-.286,2.671-2.544" transform="translate(-5.628 -66.938)" fill="#0e0f0f"/>
        <path id="Trazado_731124" data-name="Trazado 731124" d="M22.912,169.846c-7.671-.048-7.265.912-7.259-7.208.006-7.827-.721-7.661,7.649-7.6,7.179.048,7.141.01,7.188,7.183.057,8.62.132,7.6-7.578,7.629m2.549-7.2c.35-1.881-.266-2.741-2.342-2.646-1.685.077-2.814.127-2.757,2.35.05,1.945.371,2.918,2.625,2.831,1.879-.072,2.892-.476,2.474-2.536" transform="translate(-5.625 -55.758)" fill="#0e0f0f"/>
        <path id="Trazado_731125" data-name="Trazado 731125" d="M71.117,40.215c-4.889,0-9.778-.03-14.666.015-1.838.017-3.3-.537-3.277-2.546.017-1.858,1.528-2.4,3.147-2.407q14.985-.03,29.971,0c1.636,0,3.125.615,3.124,2.442,0,1.989-1.476,2.533-3.314,2.514-4.994-.052-9.99-.018-14.985-.018" transform="translate(-19.126 -12.684)" fill="#161819"/>
        <path id="Trazado_731126" data-name="Trazado 731126" d="M63.924,170.8c4.69,0,9.381.037,14.07-.019,1.815-.022,3.378.42,3.339,2.454-.035,1.824-1.516,2.288-3.209,2.282-9.38-.032-18.761-.019-28.141-.013-1.614,0-3.106-.222-3.118-2.286-.013-2.24,1.56-2.44,3.31-2.428,4.583.031,9.167.011,13.75.01" transform="translate(-16.856 -61.427)" fill="#070708"/>
        <path id="Trazado_731127" data-name="Trazado 731127" d="M63.926,201.826c4.69,0,9.381.04,14.07-.02,1.824-.024,3.367.432,3.339,2.456-.026,1.833-1.526,2.311-3.2,2.308-9.38-.02-18.759-.008-28.139-.012-1.6,0-3.118-.237-3.122-2.3,0-2.215,1.542-2.455,3.307-2.441,4.583.037,9.167.012,13.75.012" transform="translate(-16.858 -72.586)" fill="#070708"/>
        <path id="Trazado_731128" data-name="Trazado 731128" d="M23.112,121.217H18.347a2.267,2.267,0,0,1-2.577-2.2,2.155,2.155,0,0,1,2.175-2.576c3.382-.119,6.772-.111,10.155-.017a2.264,2.264,0,0,1,2.32,2.513,2.32,2.32,0,0,1-2.543,2.285c-1.588-.015-3.177,0-4.765,0" transform="translate(-5.667 -41.849)" fill="#161819"/>
        <path id="Trazado_731129" data-name="Trazado 731129" d="M23.2,131.906c1.482,0,2.966.035,4.447-.009,1.674-.049,2.732.821,2.774,2.37.044,1.6-1.122,2.472-2.709,2.494-3.175.045-6.355.07-9.528-.026a2.225,2.225,0,0,1-2.411-2.394c.033-1.685,1.014-2.447,2.661-2.437,1.589.009,3.177,0,4.765,0" transform="translate(-5.672 -47.44)" fill="#161819"/>
        <path id="Trazado_731130" data-name="Trazado 731130" d="M106.133,165.517c-1.922-.211-4.125.844-5.63-1.247-1.073-1.664-2.766-1.3-4.331-1.3q-35.17-.01-70.339.016c-1.736,0-2.954.1-2.894-2.395.054-2.251.628-2.794,2.851-2.778,14.6.106,29.2.054,43.8.054,7.886,0,15.774-.06,23.658.041a6.292,6.292,0,0,0,5.062-2.055q5.858-6.119,11.973-11.99a7.058,7.058,0,0,0,2.33-5.6c-.069-32.191-.014-64.381-.109-96.572-.008-2.557.709-3.226,3.16-3.11,1.813.086,2.083.779,2.027,2.312-.1,2.661-.026,5.329-.026,7.993q0,55.482.051,110.962c.005,2.395-.437,3.525-3.07,3.157-1.567-.22-3.2.048-4.788-.062-1.991-.138-3.3.53-3.726,2.578" transform="translate(-8.25 -13.871)" fill="#aecfef"/>
        <path id="Trazado_731131" data-name="Trazado 731131" d="M26.332,12.777c-1.841-.141-3.49.5-3.312-1.888.135-1.815.681-3.178,2.69-3.179,1.843,0,2.4,1.219,2.519,2.95.138,2.03-.827,2.38-1.9,2.117" transform="translate(-8.275 -2.773)" fill="#c5ddee"/>
        <path id="Trazado_731132" data-name="Trazado 731132" d="M139.892,208.294c-.552-7.124-.552-7.124,5.822-6.368-1.035,1.095-1.945,2.034-2.829,3-.834.911-1.642,1.846-2.993,3.371" transform="translate(-50.237 -72.512)" fill="#84b7df"/>
        <path id="Trazado_731133" data-name="Trazado 731133" d="M43.014,74.348c0,3.515-.059,7.031.027,10.545.036,1.477-.353,2.061-1.946,2.034-5.324-.089-10.651-.105-15.973.006-1.785.037-2.094-.664-2.078-2.237q.1-10.384,0-20.77c-.014-1.484.367-2.051,1.945-2.025,5.324.085,10.65.1,15.973-.008,1.774-.036,2.125.653,2.081,2.23-.1,3.406-.029,6.816-.03,10.225" transform="translate(-8.288 -22.261)" fill="#e7667b"/>
        <path id="Trazado_731134" data-name="Trazado 731134" d="M75.2,85.142c.2,7.118.2,7.118-6.778,7.118-6.447,0-6.447,0-6.447-6.353,0-2.233.1-4.473-.032-6.7-.1-1.732.573-2.272,2.2-2.11,1.053.105,2.13-.045,3.187.032,2.62.192,6.112-1.187,7.611.607,1.249,1.494.256,4.864.256,7.4" transform="translate(-22.276 -27.626)" fill="#aacbeb"/>
        <path id="Trazado_731135" data-name="Trazado 731135" d="M103.474,84.788c0,2.428.957,5.693-.246,7.07-1.452,1.662-4.795.487-7.313.526-5.621.088-5.621.028-5.621-5.634,0-2.34.119-4.69-.036-7.02-.135-2.025.671-2.585,2.578-2.493,2.76.133,5.536.136,8.295,0,1.88-.093,2.764.394,2.571,2.447-.159,1.687-.033,3.4-.033,5.1h-.195" transform="translate(-32.459 -27.777)" fill="#aacbeb"/>
        <path id="Trazado_731136" data-name="Trazado 731136" d="M62.133,66.441c-.236-4.492-.236-4.5,4.059-4.491q19.341.05,38.682.113c.028,4.382.028,4.385-4.179,4.385q-19.281,0-38.561-.008" transform="translate(-22.319 -22.282)" fill="#59abe2"/>
        <path id="Trazado_731137" data-name="Trazado 731137" d="M119.254,77.672c3.936-1.078,7.945-.194,11.912-.439,1.188-.073,1.32.756,1.315,1.7-.018,3.934-.042,7.869.013,11.8.017,1.224-.384,1.729-1.636,1.661-1.8-.1-3.608-.09-5.412-.128.009-2.732.024-5.464.026-8.2,0-6.273,0-6.273-6.218-6.4" transform="translate(-42.894 -27.74)" fill="#84b7df"/>
        <path id="Trazado_731138" data-name="Trazado 731138" d="M119.144,77.981c6.219.131,6.222.131,6.218,6.4,0,2.732-.017,5.464-.026,8.2-6.394.307-6.414.307-6.385-6,.013-2.868.125-5.735.192-8.6" transform="translate(-42.784 -28.048)" fill="#aecfef"/>
        <path id="Trazado_731139" data-name="Trazado 731139" d="M62.178,66.4q19.281,0,38.561.008c4.207,0,4.207,0,4.179-4.385,1.378-.039,2.764,0,4.133-.136,1.987-.2,3.068.106,3,2.611-.062,2.193-.8,2.58-2.766,2.568-12.325-.074-24.652-.03-36.977-.026-2.976,0-5.95,0-8.925-.008-.49,0-1.094.132-1.2-.632" transform="translate(-22.364 -22.242)" fill="#3796d5"/>
        <path id="Trazado_731140" data-name="Trazado 731140" d="M28.107,196.443c.485,2.258-.784,2.491-2.671,2.544-2.08.057-2.329-.87-2.42-2.634-.116-2.251.905-2.527,2.794-2.564,2.05-.041,2.641.782,2.3,2.654" transform="translate(-8.275 -69.702)" fill="#635764"/>
        <path id="Trazado_731141" data-name="Trazado 731141" d="M28.113,165.442c.419,2.059-.595,2.464-2.474,2.536-2.254.086-2.575-.887-2.625-2.831-.057-2.223,1.071-2.273,2.757-2.35,2.076-.095,2.692.765,2.342,2.646" transform="translate(-8.277 -58.552)" fill="#635764"/>
      </g>
    </g>
  </g>
</svg>
