<svg id="Grupo_991479" data-name="Grupo 991479" xmlns="http://www.w3.org/2000/svg" xmlns:xlink="http://www.w3.org/1999/xlink" width="197.742" height="185.935" viewBox="0 0 197.742 185.935">
  <defs>
    <clipPath id="clip-path">
      <rect id="Rectángulo_347618" data-name="Rectángulo 347618" width="197.742" height="185.934" fill="none"/>
    </clipPath>
  </defs>
  <g id="Grupo_991478" data-name="Grupo 991478" clip-path="url(#clip-path)">
    <path id="Trazado_731168" data-name="Trazado 731168" d="M50.758,108.187a3.292,3.292,0,0,1,3.126-2.859c19.122-1.979,27.93,9.892,27.161,23.335a31.558,31.558,0,0,1-.038,3.465c-.687,4,.876,5.029,4.865,5.006,3.744-.022,4.587-.964,4.536-4.649-.23-16.2-.171-32.4-.03-48.6.024-2.741-.72-3.42-3.4-3.362-4.084.088-8.2.483-12.278-.525A20.467,20.467,0,0,1,58.743,60.355c-.064-2.956-.1-5.917.015-8.87.069-1.838-.234-2.744-2.449-2.689-6.424.159-12.857.13-19.284.012-1.942-.035-2.339.677-2.308,2.441.1,5.5.035,11.012.035,16.988,3.212-2.553,6.183-4.645,10.25-3.316,6.133,2,8.789,9.068,4.523,13.849-5.807,6.509-12.083,12.633-18.5,18.551-3.455,3.186-8.191,2.52-11.8-1q-8.138-7.95-16.089-16.091C-.778,76.243-1.022,71.232,2.371,67.5c3.343-3.679,8.057-3.949,12.461-.7.506.373.978.791,2.109,1.71,0-7.308-.1-14.021.027-20.729a16.755,16.755,0,0,1,12.49-16.137,26.116,26.116,0,0,1,6.484-.632c6.685-.076,13.373-.117,20.056.022,2.231.046,2.79-.672,2.791-2.831,0-4.091-.468-8.2.544-12.28C61.553,6.953,68.686.476,77.912.258Q98.727-.234,119.561.21C130.1.434,137.48,7.593,139.2,18.351c0,7.17.1,14.347-.049,21.517-.049,2.354.6,3.089,2.994,3.034,6.79-.158,13.586-.049,20.38-.056,3.606,0,6.19,1.686,6.292,5.3.256,9.093.222,18.2.042,27.295-.061,3.088-2.631,4.014-5.18,2.184-.72-.517-1.361-1.144-2.038-1.721-1.127-1.215-2.232-2.453-3.389-3.64-1.394-1.428-2.855-2.7-4.907-1.011-2.126,1.637-1.474,3.314.058,4.838,5.428,5.4,10.907,10.751,16.367,16.12,1.789,1.759,3.413,1.137,4.933-.38C179.865,86.68,185,81.5,190.178,76.358c1.552-1.542,2.36-3.367.642-4.99-1.571-1.483-3.5-1.3-4.851.737-1.815,1.74-3.565,3.555-5.461,5.2-2.306,2-4.3,1.984-5.477-1.258.036-9.2.2-18.4.059-27.591-.094-5.915-3.643-9.986-9.061-11.11v.015c-5.364-1.514-10.821-.442-16.234-.583-2-.179-2.464-1.782-3.042-3.279a4.035,4.035,0,0,1,4.282-2.547c4.627.121,9.269-.1,13.884.168a16.692,16.692,0,0,1,15.786,16.37c.168,6.76.033,13.527.033,20.88,1.371-1.019,2.216-1.73,3.139-2.317a8.7,8.7,0,0,1,11.514,1.527,8.476,8.476,0,0,1,.117,11.585q-8.745,9.246-18.007,18a8.124,8.124,0,0,1-11.255-.141q-9.125-8.591-17.753-17.7a8.575,8.575,0,0,1,.1-11.888,8.767,8.767,0,0,1,11.872-1.117c.7.491,1.309,1.1,2.471,2.089,0-6.263-.049-11.975.031-17.685.023-1.614-.661-1.9-2.065-1.887-6.431.053-12.862.083-19.292-.014-1.864-.028-2.447.579-2.4,2.421.094,3.468.117,6.952-.107,10.411a20.332,20.332,0,0,1-19.732,18.936c-2.955.093-5.919.114-8.872-.009-1.881-.079-2.68.314-2.669,2.475q.137,25.657.012,51.314c-.007,1.912.367,2.628,2.491,2.668,6.847.128,7,.231,6.8-6.823-.2-7.023.622-13.583,5.976-18.8a19.962,19.962,0,0,1,14.147-6.04c13.375-.1,26.752-.138,40.127,0a20.346,20.346,0,0,1,20.223,20.484q.1,19.87,0,39.74c-.063,10.717-8.214,19.747-18.877,20.047q-21.393.6-42.814,0c-10.212-.275-18.205-8.839-18.655-19.021a92.5,92.5,0,0,1-.03-9.255c.127-2.267-.712-2.787-2.85-2.767q-15.432.151-30.866,0c-2.094-.022-2.535.672-2.536,2.617,0,4.226.385,8.463-.57,12.676-1.963,8.667-9.223,15.511-18.1,15.747q-21.012.558-42.047.1C8.834,185.483.735,177.146.441,165.376q-.492-19.664-.015-39.351c.29-12.477,9.1-20.647,21.623-20.693,5.53-.02,11.063.083,16.59-.045,2.383-.055,3.984.659,4.678,3.011-.784,2.537-2.662,3.094-5.085,3.064-6.034-.073-12.074-.131-18.106.044A14.134,14.134,0,0,0,6.3,125.176c-.181,13.61-.13,27.225-.015,40.836a14.778,14.778,0,0,0,9.6,13.178c1.777.569,2.861.54,2.767-1.9-.163-4.231-.046-8.474-.045-12.712,0-9.505,2.24-12.661,11.166-15.741-3.146-7.559-2.078-15.589,2.612-19.636a12.6,12.6,0,0,1,14.668-1.375,11.5,11.5,0,0,1,5.011,5.658c2.087,5.193,1.567,10.4-.361,15.561,6.52,1.531,10.424,5.177,11.009,11.838-.037,5.381.041,10.766-.158,16.142-.109,2.94,1.167,2.779,3.221,2a14.346,14.346,0,0,0,9.189-13.381c.065-12.562-.4-25.144.163-37.682.444-9.871-6.779-18.253-17.963-16.456-2.449-.5-5.761.652-6.4-3.327M98.838,43.568c4.228-.192,6.464-2.175,6.9-6.121.65-5.841-1.2-9.735-5.207-10.663-1.333-.309-2.808-.6-4,.561-5.109,1.839-4.094,6.224-4.008,10.061.086,3.916,2.174,5.765,6.312,6.163M40.2,132.256c-3.756-.041-5.565,2.259-6.112,5.554-1,6.044.273,8.866,4.473,10.8,2.9,1.547,5.324.352,7.082-1.8,2.7-3.3,2.072-7.317.94-10.94-.852-2.726-3.255-4.17-6.383-3.617m117.284.012c-4.014-.422-5.9,1.988-6.7,5.387-1.243,5.32.338,8.993,4.373,10.916,2.862,1.612,5.327.429,7.1-1.639,2.779-3.232,2.164-7.276,1.121-10.909a5.089,5.089,0,0,0-5.9-3.754m-45.544,16.2c1.813-.663,5.051,2.279,5.342-2.3.315-4.965-3.07-2.929-5.354-3.054-3.3-.408-6.988.374-9.308-3.037a13.544,13.544,0,0,1-.7-5.261c.02-16.533-.13-33.068.116-49.6.058-3.907-.9-5.386-4.757-4.468l-.721.1c-1.208,1.171-.541,2.652-.545,3.96-.061,17.889-.049,35.779-.054,53.668-1.063,3.324-3.552,4.458-6.8,4.444-2.05-.009-4.106.1-6.149-.021-2.679-.153-1.853,1.765-1.977,3.128-.138,1.518-.09,2.668,2.089,2.633,9.606-.151,19.213-.145,28.819-.2M32.516,36.942c-6.711,1.685-9.894,5.653-9.941,12.6-.055,8.212,0,16.425-.025,24.636,0,1.611.385,3.449-1.75,4.2-1.944.681-3.131-.5-4.313-1.733a6.777,6.777,0,0,0-.9-.676c-1.306-1.4-2.578-2.826-3.93-4.177C10.252,70.389,8.7,69.819,7,71.374c-1.635,1.59-1.233,3.2.162,4.593,5.492,5.474,11.047,10.885,16.579,16.32,1.867,1.766,3.444.952,4.947-.554q7.749-7.762,15.5-15.517c1.437-1.432,2.184-3.03.581-4.675-1.663-1.707-3.4-1.472-4.829.48q-2.506,2.37-5.014,4.739c-2.8,2.634-3.983,2.493-6.318-.74.042-3.187.024-6.377.14-9.562.249-6.866-.646-13.761.541-20.6,1.571-2.313,3.786-3.071,6.526-3.042,5.826.06,11.653-.061,17.481-.107,1.151.045,2.308.035,3.453.144,2.73.261,1.92-1.759,1.933-3.093.013-1.359.736-3.193-1.956-3.116-8.069.231-16.149-.34-24.215.3M44.138,155.493c-1.283,1.859-.33,3.945-.579,5.914-.242,1.909-1.029,3.32-3.048,3.194a2.754,2.754,0,0,1-2.669-3.137,12.339,12.339,0,0,1,.008-1.92c.713-3.8-.939-5.106-4.571-4.484-.748.128-1.538-.013-2.3.047-4.171.327-6.288,2.443-6.315,6.615-.039,5.891.086,11.783.141,17.675.108.622.545.761,1.094.761,9.609,0,19.22-.029,28.828.03,1.7.011,2.221-.649,2.2-2.257-.065-5.509.083-11.022-.1-16.526-.112-3.449-1.91-5.864-5.567-6.2-2.363-.219-4.791-.749-7.125.289m124.146,24.484c1.821-.544,5.069,1.981,5.238-2.059.229-5.49.2-11-.014-16.495-.161-4.079-2.429-5.882-6.771-6.01-5.889-.526-5.878-.525-6.289,5.2a8.223,8.223,0,0,1-.447,2.222,2.6,2.6,0,0,1-2.651,1.822,2.816,2.816,0,0,1-2.777-2.228,7.77,7.77,0,0,1-.133-3.045c.492-3.264-.561-4.854-4.082-4.21a22.925,22.925,0,0,1-2.682.049c-4.127.248-6.336,2.421-6.366,6.547-.044,5.88.072,11.761.119,17.642-.089.508.11.709.618.58l26.236-.016M121.306,64.391c-.044,2.566.023,5.139-.164,7.695s.943,2.29,2.709,1.655c5.844-2.1,9.6-7.682,9.629-14.786.052-11.945.022-23.891.014-35.836S127.132,5.28,115.067,5.981c-11.941-.049-23.885-.271-35.823-.086-8.029.125-14.3,6.123-14.391,13.663-.171,13.869-.131,27.742,0,41.611.055,5.78,4.187,10.765,9.6,12.676,2.1.743,2.7.391,2.655-1.837C77,66.872,77.019,61.733,77.087,56.6c.088-6.511,2.747-10.125,8.969-12.269,1.155-.4,2.293-.446,1.415-2.215-1.489-3-1.042-6.3-.944-9.477A12.655,12.655,0,0,1,98.4,20.65c6.011-.469,11.717,4.149,12.907,10.369a20.054,20.054,0,0,1-.45,10.274c-.685,2.027-.317,2.514,1.647,3.164,5.69,1.883,8.54,6.131,8.664,12.236.052,2.565.093,5.131.14,7.7m57.954,94.988.2,8.387q0,.762,0,1.523c-.048,2.429.007,4.865-.169,7.285-.239,3.279,1.206,3.391,3.652,2.223,5.766-2.752,8.726-7.261,8.73-13.669.008-12.3-.378-24.615.126-36.894.447-10.869-7.245-18.465-18.125-16.714-11.951-.058-23.9-.212-35.854-.141-8.512.05-14.71,5.855-14.886,14.391-.273,13.236-.234,26.483,0,39.72a14.193,14.193,0,0,0,8.516,13.177c2.485,1.206,4.065,1.391,3.841-2.242-.212-3.458.128-6.949-.08-10.408-.515-8.58,1.93-15.133,11.33-17.018-3.2-7.846-2-15.8,2.816-19.923a12.334,12.334,0,0,1,14.331-1.268,11.3,11.3,0,0,1,5.217,5.987A22.406,22.406,0,0,1,168.441,149c6.943,2.132,9.115,4.246,10.819,10.376M99.03,74.638v-.017c4.364,0,8.734-.124,13.091.05,2.291.092,3.144-.445,3.036-2.922-.211-4.868-.039-9.753-.069-14.631-.03-4.967-2.109-7.2-6.758-7.356-5.964-.2-6.01-.2-6.366,5.939-.11,1.913-.676,3.336-2.757,3.451-2.371.13-3.042-1.491-3.133-3.5a15.212,15.212,0,0,1,.01-3.075c.406-2.521-.772-3.135-3.014-2.854-1.137.143-2.308,0-3.462.033-4.19.129-6.673,2.444-6.788,6.7-.142,5.259.032,10.526-.076,15.787-.038,1.862.585,2.466,2.423,2.427,4.619-.1,9.241-.032,13.863-.032" transform="translate(0 0)" fill="#0c0e0e"/>
    <path id="Trazado_731169" data-name="Trazado 731169" d="M52.583,140.11c.642,3.98,3.954,2.824,6.4,3.327,3.934,3.891,6.781,8.476,6.871,14.073.209,13.012.066,26.031.066,39.359-1.368-1.318-.131-3.083-1.388-4.059-.585-6.661-4.488-10.307-11.009-11.838,1.928-5.163,2.449-10.369.361-15.56a11.5,11.5,0,0,0-5.011-5.658,12.594,12.594,0,0,0-14.668,1.374c-4.69,4.047-5.758,12.077-2.612,19.636C22.671,183.843,20.432,187,20.431,196.5c0,4.238-.118,8.481.045,12.712.093,2.438-.991,2.467-2.767,1.9a14.778,14.778,0,0,1-9.6-13.178C8,184.324,7.945,170.71,8.128,157.1A14.134,14.134,0,0,1,21.95,143.329c6.031-.175,12.071-.117,18.106-.043,2.423.029,4.3-.527,5.085-3.065l7.442-.111" transform="translate(-1.825 -31.923)" fill="#ca468d"/>
    <path id="Trazado_731170" data-name="Trazado 731170" d="M202.7,81.32c.677.577,1.318,1.2,2.038,1.721,2.549,1.83,5.119.9,5.18-2.184.178-9.1.213-18.2-.043-27.295-.1-3.616-2.686-5.305-6.292-5.3-6.794.007-13.59-.1-20.38.056-2.4.056-3.042-.679-2.994-3.033.147-7.171.05-14.347.049-21.517,1.244,3.454.652,7.048.459,10.52-.215,3.849.913,5.471,4.819,4.773a19.566,19.566,0,0,1,2.278-.144c.578,1.5,1.042,3.1,3.042,3.279,5.37,1.347,10.825.32,16.234.583v-.015A22.8,22.8,0,0,1,211,57.515c-.374,6.126-.088,12.293-.086,18.441,0,5.326,0,5.326,5.18,5.507,1.177,3.242,3.17,3.259,5.477,1.257,1.9-1.646,3.646-3.461,5.461-5.2,1.469,1.506,1.1,3.049-.106,4.413-4.98,5.624-9.789,11.432-16.1,15.7-5.46-5.37-10.938-10.72-16.367-16.121-1.531-1.523-2.183-3.2-.056-4.838,2.962,1.2,4.1,5.657,8.3,4.651" transform="translate(-41.059 -5.415)" fill="#75b6e4"/>
    <path id="Trazado_731171" data-name="Trazado 731171" d="M215.678,202.148q0-.761,0-1.523c.613-2.812.878-5.615-.2-8.387-1.7-6.13-3.875-8.244-10.818-10.376a22.415,22.415,0,0,0,.465-15.208,11.3,11.3,0,0,0-5.217-5.988,12.334,12.334,0,0,0-14.331,1.269c-4.82,4.127-6.017,12.077-2.817,19.922-9.4,1.885-11.844,8.439-11.329,17.019.207,3.458-.134,6.95.08,10.408.223,3.634-1.357,3.448-3.842,2.242a14.2,14.2,0,0,1-8.516-13.178c-.232-13.236-.273-26.484,0-39.72.176-8.536,6.374-14.341,14.886-14.391,11.951-.071,23.9.083,35.854.141,3.895,3.886,7.027,8.1,7,14-.069,13.5-.008,27-.053,40.5,0,1.153.652,2.689-1.158,3.262" transform="translate(-36.218 -32.859)" fill="#7fb24a"/>
    <path id="Trazado_731172" data-name="Trazado 731172" d="M140.408,66.109c-.046-2.566-.088-5.132-.14-7.7-.124-6.1-2.974-10.352-8.664-12.236-1.964-.65-2.332-1.137-1.647-3.164a20.055,20.055,0,0,0,.45-10.274c-1.191-6.22-6.9-10.838-12.907-10.369a12.654,12.654,0,0,0-11.87,11.985c-.1,3.181-.545,6.472.944,9.477.877,1.769-.261,1.818-1.415,2.215-6.223,2.144-8.881,5.758-8.969,12.269-.069,5.137-.09,10.277.017,15.412.046,2.228-.553,2.58-2.655,1.837-5.41-1.912-9.543-6.9-9.6-12.676-.13-13.869-.171-27.743,0-41.611.093-7.539,6.363-13.538,14.391-13.663,11.938-.185,23.881.037,35.823.086,5.787,4.732,7.293,10.893,7.046,18.177-.408,12.053-.1,24.129-.133,36.2,0,1.358.475,2.85-.674,4.038" transform="translate(-19.103 -1.718)" fill="#36a069"/>
    <path id="Trazado_731173" data-name="Trazado 731173" d="M155.259,66.139c1.149-1.188.669-2.679.674-4.038.037-12.066-.275-24.143.133-36.2.247-7.285-1.259-13.446-7.046-18.177,12.065-.7,18.418,5.2,18.426,17.139s.038,23.891-.013,35.836c-.031,7.1-3.785,12.686-9.63,14.786-1.766.635-2.9.9-2.71-1.656s.12-5.129.165-7.694" transform="translate(-33.953 -1.748)" fill="#299759"/>
    <path id="Trazado_731174" data-name="Trazado 731174" d="M123.445,89.292c-4.621,0-9.243-.066-13.863.032-1.838.039-2.461-.564-2.423-2.427.108-5.261-.066-10.528.076-15.787.115-4.255,2.6-6.57,6.788-6.7,1.154-.036,2.325.11,3.462-.033,2.242-.281,3.421.333,3.014,2.854a15.211,15.211,0,0,0-.01,3.075c.09,2.006.762,3.628,3.133,3.5,2.08-.114,2.646-1.537,2.757-3.451.356-6.139.4-6.136,6.366-5.939,4.649.154,6.728,2.39,6.758,7.356.029,4.878-.142,9.762.069,14.631.108,2.477-.745,3.014-3.036,2.922-4.357-.175-8.727-.05-13.091-.05Z" transform="translate(-24.415 -14.654)" fill="#cde6f8"/>
    <path id="Trazado_731175" data-name="Trazado 731175" d="M79.578,193.719c1.256.976.019,2.741,1.388,4.059,0-13.329.143-26.347-.066-39.359-.09-5.6-2.937-10.182-6.871-14.073,11.185-1.8,18.407,6.585,17.963,16.457-.564,12.538-.1,25.12-.163,37.682a14.346,14.346,0,0,1-9.189,13.381c-2.053.775-3.33.935-3.221-2.005.2-5.375.121-10.76.159-16.141" transform="translate(-16.867 -32.833)" fill="#bc3a87"/>
    <path id="Trazado_731176" data-name="Trazado 731176" d="M230.706,202.12c1.81-.572,1.154-2.109,1.158-3.262.046-13.5-.015-27,.053-40.5.03-5.905-3.1-10.118-7-14,10.879-1.751,18.571,5.845,18.125,16.714-.5,12.279-.119,24.595-.126,36.894,0,6.408-2.964,10.916-8.731,13.669-2.446,1.167-3.891,1.056-3.652-2.223.176-2.42.121-4.856.169-7.285" transform="translate(-51.247 -32.832)" fill="#67a62c"/>
    <path id="Trazado_731177" data-name="Trazado 731177" d="M183.123,225.159c-.047-5.881-.163-11.762-.119-17.643.031-4.126,2.239-6.3,6.366-6.547a22.59,22.59,0,0,0,2.682-.049c3.522-.643,4.574.947,4.083,4.21a7.76,7.76,0,0,0,.132,3.045,2.817,2.817,0,0,0,2.777,2.228,2.6,2.6,0,0,0,2.651-1.822,8.234,8.234,0,0,0,.447-2.223c.411-5.724.4-5.725,6.289-5.2a11.686,11.686,0,0,1,1.607,6.566c-.12,6-.053,12-.06,18l-26.236.017-.618-.58" transform="translate(-41.694 -45.746)" fill="#36a069"/>
    <path id="Trazado_731178" data-name="Trazado 731178" d="M32.073,225.11c-.055-5.892-.18-11.784-.141-17.675.028-4.171,2.144-6.287,6.315-6.614.765-.06,1.556.081,2.3-.047,3.631-.623,5.284.682,4.571,4.484a12.338,12.338,0,0,0-.008,1.92,2.754,2.754,0,0,0,2.67,3.136c2.018.126,2.807-1.286,3.048-3.194.249-1.968-.7-4.055.578-5.914,6.722-.377,7.607.632,7.648,7.971.023,4.09-.15,8.187.057,12.266.143,2.825-.738,3.811-3.656,3.742-7.792-.184-15.591-.069-23.387-.073" transform="translate(-7.274 -45.711)" fill="#e492bd"/>
    <path id="Trazado_731179" data-name="Trazado 731179" d="M30.364,86.922c2.336,3.233,3.519,3.373,6.318.739Q39.194,85.3,41.7,82.922c2.057,1.916.466,3.9-.595,4.994-5.071,5.218-9.872,10.732-15.611,15.272C19.959,97.753,14.4,92.341,8.912,86.868c-1.395-1.39-1.8-3-.162-4.593,2.82,1.612,4.343,5.648,8.588,4.6a6.849,6.849,0,0,1,.9.677c1.182,1.229,2.369,2.414,4.312,1.733,2.135-.749,1.745-2.586,1.75-4.2.025-8.212-.03-16.425.025-24.636.046-6.952,3.23-10.92,9.941-12.6,5.086,1.008,10.225.309,15.337.432,5.475.131,5.478.031,5.448,5.333-5.827.046-11.655.167-17.48.107-2.741-.028-4.955.73-6.527,3.043-5.3.125-5.3.125-5.3,5.351,0,6.649.164,13.3-.067,19.945-.124,3.572.866,5.417,4.69,4.868" transform="translate(-1.751 -10.901)" fill="#75b6e4"/>
    <path id="Trazado_731180" data-name="Trazado 731180" d="M125.988,104.493c3.861-.917,4.815.561,4.756,4.468-.245,16.529-.095,33.064-.116,49.6a13.559,13.559,0,0,0,.7,5.261c-5.316-.115-5.32-.115-5.322-5.377q-.012-26.975-.017-53.95" transform="translate(-28.706 -23.748)" fill="#55a3dc"/>
    <path id="Trazado_731181" data-name="Trazado 731181" d="M121.181,104.571q.008,26.975.017,53.95c0,5.262.007,5.262,5.322,5.377,2.321,3.411,6.009,2.63,9.309,3.037q.007,2.678.012,5.356c-9.606.051-19.214.045-28.819.2-2.178.034-2.227-1.115-2.089-2.633.124-1.363-.7-3.282,1.976-3.128,2.044.117,4.1.011,6.149.021,3.248.015,5.738-1.12,6.8-4.444.967-1.106.6-2.449.6-3.695q.028-26.967,0-53.934l.721-.1" transform="translate(-23.898 -23.826)" fill="#75b6e4"/>
    <path id="Trazado_731182" data-name="Trazado 731182" d="M224.023,87.068c-5.175-.18-5.177-.18-5.18-5.506,0-6.149-.289-12.316.086-18.442a22.8,22.8,0,0,0-3.909-14.753c5.418,1.123,8.966,5.2,9.06,11.11.147,9.195-.022,18.394-.058,27.591" transform="translate(-48.991 -11.02)" fill="#55a3dc"/>
    <path id="Trazado_731183" data-name="Trazado 731183" d="M32.117,225.1c7.8,0,15.6-.11,23.387.073,2.918.069,3.8-.917,3.656-3.742-.207-4.079-.034-8.176-.057-12.266-.041-7.339-.926-8.348-7.648-7.971,2.333-1.038,4.763-.507,7.125-.288,3.658.339,5.455,2.753,5.567,6.2.179,5.5.032,11.016.1,16.525.019,1.608-.5,2.268-2.2,2.258-9.609-.059-19.219-.031-28.828-.03-.55,0-.987-.139-1.095-.761" transform="translate(-7.318 -45.699)" fill="#cf71a3"/>
    <path id="Trazado_731184" data-name="Trazado 731184" d="M35.669,89.552c-3.824.548-4.814-1.3-4.69-4.868.231-6.641.063-13.3.067-19.945,0-5.226.007-5.226,5.3-5.351-1.185,6.84-.291,13.736-.541,20.6-.116,3.185-.1,6.375-.14,9.562" transform="translate(-7.056 -13.531)" fill="#55a3dc"/>
    <path id="Trazado_731185" data-name="Trazado 731185" d="M217.483,225.835c.008-6-.059-12,.06-18a11.67,11.67,0,0,0-1.607-6.566c4.342.128,6.611,1.931,6.771,6.01.216,5.492.243,11,.014,16.495-.168,4.04-3.418,1.515-5.238,2.059" transform="translate(-49.2 -45.859)" fill="#299759"/>
    <path id="Trazado_731186" data-name="Trazado 731186" d="M199.533,187.585c-4.035-1.923-5.616-5.6-4.373-10.916.795-3.4,2.684-5.81,6.7-5.387,1.723,3.543,1.849,7.345,1.493,11.125-.218,2.32-.541,4.943-3.819,5.177" transform="translate(-44.372 -39.015)" fill="#fcd9b1"/>
    <path id="Trazado_731187" data-name="Trazado 731187" d="M48.527,187.634c-4.2-1.933-5.477-4.754-4.472-10.8.547-3.3,2.357-5.6,6.112-5.554.556,1.144,1.167,2.262,1.658,3.433,2.156,5.145.615,11.121-3.3,12.92" transform="translate(-9.964 -39.025)" fill="#ffedd3"/>
    <path id="Trazado_731188" data-name="Trazado 731188" d="M126.1,51.636c-4.138-.4-6.226-2.246-6.312-6.163-.086-3.837-1.1-8.222,4.007-10.061,2.938-.093,3.708,1.92,3.824,4.238.2,4.068.395,8.17-1.519,11.985" transform="translate(-27.261 -8.068)" fill="#fcd9b1"/>
    <path id="Trazado_731189" data-name="Trazado 731189" d="M30.746,113.059c5.738-4.539,10.54-10.053,15.609-15.272,1.062-1.092,2.652-3.078.6-4.994,1.432-1.952,3.166-2.188,4.829-.48,1.6,1.645.855,3.242-.582,4.675q-7.767,7.743-15.5,15.517c-1.5,1.506-3.081,2.32-4.947.554" transform="translate(-7.005 -20.772)" fill="#55a3dc"/>
    <path id="Trazado_731190" data-name="Trazado 731190" d="M219.862,112.985c6.308-4.265,11.117-10.073,16.1-15.7,1.207-1.364,1.575-2.906.106-4.413,1.35-2.033,3.279-2.219,4.851-.736,1.718,1.622.91,3.448-.642,4.99C235.1,102.27,229.959,107.451,224.8,112.6c-1.52,1.517-3.144,2.138-4.933.38" transform="translate(-50.094 -20.772)" fill="#55a3dc"/>
    <path id="Trazado_731191" data-name="Trazado 731191" d="M127.322,51.39c1.913-3.815,1.722-7.918,1.519-11.985-.116-2.318-.886-4.331-3.824-4.238,1.194-1.164,2.669-.869,4-.561,4.005.928,5.857,4.823,5.207,10.663-.439,3.946-2.676,5.929-6.9,6.122" transform="translate(-28.484 -7.822)" fill="#f7c290"/>
    <path id="Trazado_731192" data-name="Trazado 731192" d="M49.943,187.6c3.913-1.8,5.453-7.775,3.3-12.92-.49-1.171-1.1-2.289-1.658-3.433,3.129-.553,5.532.89,6.383,3.617,1.132,3.623,1.764,7.636-.94,10.94-1.758,2.148-4.18,3.343-7.082,1.8" transform="translate(-11.379 -38.991)" fill="#fcd9b1"/>
    <path id="Trazado_731193" data-name="Trazado 731193" d="M200.946,187.58c3.279-.235,3.6-2.858,3.819-5.177.356-3.78.229-7.583-1.493-11.125a5.089,5.089,0,0,1,5.9,3.754c1.042,3.633,1.658,7.677-1.121,10.909-1.777,2.068-4.241,3.251-7.1,1.639" transform="translate(-45.784 -39.01)" fill="#f7c290"/>
    <path id="Trazado_731194" data-name="Trazado 731194" d="M62.9,53.514c.03-5.3.028-5.2-5.448-5.333-5.112-.123-10.25.577-15.337-.432,8.065-.641,16.146-.071,24.214-.3,2.693-.077,1.97,1.757,1.957,3.116-.012,1.334.8,3.353-1.933,3.093-1.145-.11-2.3-.1-3.453-.144" transform="translate(-9.595 -10.807)" fill="#55a3dc"/>
    <path id="Trazado_731195" data-name="Trazado 731195" d="M124.84,104.706q.007,26.967,0,53.934c0,1.245.371,2.59-.6,3.695.005-17.889-.007-35.779.054-53.669,0-1.307-.663-2.789.545-3.96" transform="translate(-28.279 -23.857)" fill="#55a3dc"/>
    <path id="Trazado_731196" data-name="Trazado 731196" d="M144.971,190.6q-.006-2.678-.012-5.356c2.284.125,5.669-1.911,5.354,3.054-.291,4.58-3.529,1.639-5.342,2.3" transform="translate(-33.028 -42.137)" fill="#55a3dc"/>
    <path id="Trazado_731197" data-name="Trazado 731197" d="M17.652,96.757c-4.245,1.052-5.768-2.984-8.587-4.6,1.7-1.555,3.252-.985,4.657.42,1.351,1.351,2.624,2.781,3.93,4.177" transform="translate(-2.065 -20.786)" fill="#55a3dc"/>
    <path id="Trazado_731198" data-name="Trazado 731198" d="M206.887,96.693c-4.2,1.006-5.333-3.452-8.3-4.651,2.051-1.689,3.513-.418,4.906,1.011,1.157,1.187,2.262,2.425,3.39,3.64" transform="translate(-45.248 -20.788)" fill="#55a3dc"/>
    <path id="Trazado_731199" data-name="Trazado 731199" d="M210.23,48.144c-5.409-.263-10.864.764-16.234-.583,5.413.141,10.87-.931,16.234.583" transform="translate(-44.201 -10.782)" fill="#55a3dc"/>
    <path id="Trazado_731200" data-name="Trazado 731200" d="M232.154,206.407c1.075,2.772.81,5.576.2,8.387l-.2-8.387" transform="translate(-52.895 -47.029)" fill="#67a62c"/>
    <path id="Trazado_731201" data-name="Trazado 731201" d="M183.155,232.353l.618.58c-.508.128-.707-.073-.618-.58" transform="translate(-41.726 -52.94)" fill="#299759"/>
  </g>
</svg>
