<svg xmlns="http://www.w3.org/2000/svg" xmlns:xlink="http://www.w3.org/1999/xlink" width="181" height="181" viewBox="0 0 181 181">
  <defs>
    <clipPath id="clip-path">
      <rect id="Rectángulo_347611" data-name="Rectángulo 347611" width="110.644" height="149.326" fill="none"/>
    </clipPath>
  </defs>
  <g id="Grupo_991492" data-name="Grupo 991492" transform="translate(-398 -777)">
    <circle id="Elipse_5918" data-name="Elipse 5918" cx="90.5" cy="90.5" r="90.5" transform="translate(398 777)" fill="#fff"/>
    <g id="Grupo_991464" data-name="Grupo 991464" transform="translate(433.178 792.838)">
      <g id="Grupo_991463" data-name="Grupo 991463" clip-path="url(#clip-path)">
        <path id="Trazado_731086" data-name="Trazado 731086" d="M109.993,23.636q0,2.8,0,5.608c-2.4.371-2.332,2.147-2.334,3.967q-.025,29.585-.09,59.171a45.731,45.731,0,0,0-3.507,3.414c-1.347,1.6-2.341,3.537-4.543,4.2l-.056-2.241c1.712-.274,2.087-1.5,2.1-2.969.013-2.032-.021-4.064.012-6.094.036-2.192-1.023-3.166-3.192-3.146-4.062.037-8.124.025-12.186,0a3.06,3.06,0,0,0-3.143,1.593c-.815.914-.473,2.03-.477,3.058-.03,6.961-.247,13.932.077,20.879.176,3.77-1.509,5.671-4.609,6.947-.032-5.714-.154-11.43-.054-17.142.044-2.49-.81-3.543-3.347-3.467-3.775.113-7.556.017-11.334.032-3.569.014-3.936.4-3.953,4.063q-.067,14.383-.126,28.766l-4.607,2.333c-.041-4.737-.12-9.473-.111-14.21.005-2.254-.82-3.39-3.257-3.323-4.06.112-8.127.105-12.186,0-2.422-.061-3.215,1-3.187,3.317.094,7.836.064,15.673.081,23.51-6.386,1.52-12.484,3.953-18.725,5.931-2.906.059-5.822,0-8.718.215-1.95.141-2.4-.543-2.38-2.412.1-8.253.015-16.507.064-24.761.011-1.816-.229-3.307-2.335-3.712q-.005-2.772-.008-5.543c2.353-.613,2.342-2.417,2.341-4.36-.026-32.161.022-64.322-.09-96.483C6.1,8.022,6.924,7.531,9.461,7.542c22.926.1,45.852.057,68.778.057,9.034,0,18.07.06,27.1-.048,1.949-.024,2.453.56,2.373,2.427-.145,3.4.016,6.8-.064,10.2-.043,1.792.5,3.023,2.343,3.458M27.978,65.56A16.916,16.916,0,1,0,11.122,48.7,16.971,16.971,0,0,0,27.978,65.56m28.954-39.1c7.481,0,14.961-.036,22.441.021,2.329.018,3.393-.886,3.293-3.286-.108-2.619-.055-5.246-.015-7.87.03-1.975-.948-2.815-2.848-2.814q-22.879.01-45.757,0c-1.9,0-2.873.849-2.841,2.822.043,2.525.125,5.059-.022,7.577-.156,2.684.991,3.617,3.6,3.583,7.382-.1,14.767-.033,22.15-.033M78.756,31.72c-6.884,0-13.768.026-20.65-.02-1.7-.011-3.366.195-3.353,2.222s1.744,2.256,3.4,2.256q20.651-.009,41.3,0c1.557,0,3.108-.245,3.169-2.164.068-2.129-1.518-2.314-3.22-2.3-6.883.036-13.767.015-20.651.015M21.524,143.1c2.133,0,4.266-.017,6.4,0,1.892.02,2.9-.806,2.881-2.776q-.037-4.217,0-8.435c.015-1.99-1.048-2.754-2.916-2.745-4.169.019-8.337.044-12.505-.01-2.065-.027-3.075.908-3.086,2.938q-.024,4.072,0,8.144c.015,2.05,1.074,2.959,3.121,2.894s4.071-.013,6.106-.014m15.58-63c6.11,0,12.22-.015,18.33.009,1.748.007,3.636-.1,3.655-2.283s-1.858-2.311-3.613-2.309q-18.477.028-36.953,0c-1.765,0-3.582.14-3.5,2.409.074,2.04,1.808,2.184,3.458,2.179C24.689,80.087,30.9,80.1,37.1,80.1m-.293,9.819q9.454,0,18.907,0c1.675,0,3.367-.292,3.381-2.29s-1.629-2.272-3.339-2.261c-6.5.041-12.993.016-19.489.016-6.108,0-12.217-.027-18.325.016-2.337.016-3.6,1.54-2.742,3.163.707,1.34,2,1.353,3.282,1.353q9.161,0,18.325,0M78.5,41.592c-6.794,0-13.587.022-20.38-.016-1.682-.009-3.369.136-3.347,2.207.019,1.854,1.588,2.112,3.186,2.11q20.816-.034,41.633-.005c1.608,0,3.082-.266,3.032-2.228-.05-1.98-1.59-2.087-3.162-2.08-6.988.029-13.975.013-20.962.013m.128,14.1q10.191,0,20.38,0c1.665,0,3.624.23,3.6-2.2-.022-2.211-1.848-2.091-3.436-2.091q-20.525.006-41.051-.009c-1.675,0-3.4.16-3.347,2.228s1.829,2.093,3.475,2.085c6.793-.034,13.586-.015,20.379-.015m-8.84,9.873c4.08,0,8.161-.02,12.241.011,1.507.011,2.808-.285,2.926-2.053.133-2.009-1.315-2.4-2.9-2.4-8.064-.021-16.128-.009-24.192-.013-1.6,0-3.118.417-3.115,2.259,0,1.818,1.423,2.243,3.088,2.217,3.982-.062,7.967-.02,11.95-.02M28.466,95.283c-3.579,0-7.159.024-10.737-.011-1.594-.015-2.724.579-2.713,2.258.009,1.58,1.224,2.074,2.609,2.078q10.59.027,21.182,0c1.406,0,2.545-.518,2.543-2.133,0-1.755-1.152-2.228-2.729-2.209-3.384.041-6.77.013-10.155.013" transform="translate(-1.608 -3.141)" fill="#e4effa"/>
        <path id="Trazado_731087" data-name="Trazado 731087" d="M2.26,132.653c2.106.4,2.346,1.9,2.336,3.712-.048,8.253.036,16.508-.064,24.761-.023,1.87.429,2.554,2.38,2.412,2.9-.21,5.811-.156,8.718-.214,9.029.061,18.057.162,27.085.174q30.313.04,60.627-.016c1.147,0,2.771.767,2.757-1.686-.1-17.975-.1-35.95-.135-53.925q.05-29.586.09-59.171c0-1.819-.064-3.6,2.334-3.967,2.186.407,2.245,2.044,2.244,3.781q-.023,17.786-.008,35.572,0,39.655,0,79.309c0,4.358-.211,4.561-4.635,4.561H4.539c-4.246,0-4.52-.261-4.522-4.38,0-9.039.017-18.078-.017-27.117-.006-1.778.166-3.331,2.261-3.805" transform="translate(0 -18.631)" fill="#151516"/>
        <path id="Trazado_731088" data-name="Trazado 731088" d="M108.393,20.5c-1.841-.436-2.385-1.667-2.343-3.458.08-3.4-.081-6.805.064-10.2.079-1.868-.424-2.452-2.373-2.428-9.033.109-18.068.048-27.1.048-22.926,0-45.852.04-68.778-.057-2.538-.011-3.359.48-3.35,3.237.112,32.16.065,64.322.09,96.482,0,1.943.012,3.747-2.34,4.36-2.089-.488-2.247-2.089-2.243-3.823q.019-9.614,0-19.228,0-40.5,0-80.993C.024.28.309,0,4.482,0Q55.457,0,106.432,0c3.792,0,4.189.386,4.2,4.113.011,4.273-.033,8.547.02,12.819.022,1.738-.432,3.055-2.258,3.563" transform="translate(-0.007)" fill="#151516"/>
        <path id="Trazado_731089" data-name="Trazado 731089" d="M117.122,149.195c.033,17.975.035,35.951.135,53.925.013,2.454-1.61,1.685-2.758,1.686q-30.313.051-60.627.016c-9.028-.012-18.056-.113-27.085-.174,6.241-1.979,12.338-4.411,18.725-5.931.782.515,1.416,1.221,2.516,1.208,4.427-.051,8.855-.009,13.283-.028,1.951-.008,2.7-1.18,2.729-2.979q.065-3.749.131-7.5l4.607-2.333c.043,3,.182,6.008.1,9.007-.074,2.665.872,3.955,3.712,3.85,3.776-.139,7.565-.123,11.343,0,2.61.081,3.633-.916,3.6-3.582-.088-7.173.026-14.348.06-21.522,3.1-1.276,4.785-3.177,4.61-6.947-.324-6.946-.107-13.917-.077-20.879,0-1.028-.338-2.143.477-3.058.01.484.029.969.029,1.454q-.008,25.2-.016,50.4c0,3.907.2,4.093,4.177,4.1,3.593.006,7.188-.083,10.777.03,2.467.078,3.562-.9,3.554-3.391q-.06-16.461,0-32.922c0-1.609-.407-2.866-2.064-3.425a.975.975,0,0,0-.126-.518q-.008-.849-.016-1.7l.159-1.178c2.2-.662,3.2-2.6,4.542-4.2a45.857,45.857,0,0,1,3.509-3.414" transform="translate(-11.157 -59.955)" fill="#bcd7f1"/>
        <path id="Trazado_731090" data-name="Trazado 731090" d="M156.03,159.063c1.657.558,2.067,1.816,2.064,3.425q-.037,16.461,0,32.922c.009,2.492-1.087,3.468-3.553,3.391-3.589-.113-7.184-.025-10.777-.03-3.977-.006-4.177-.192-4.177-4.1q0-25.2.015-50.4c0-.485-.019-.97-.029-1.455a3.061,3.061,0,0,1,3.143-1.592c4.062.022,8.124.034,12.185,0,2.169-.02,3.229.953,3.193,3.146-.033,2.031,0,4.063-.012,6.094-.01,1.466-.385,2.7-2.1,2.969a2.367,2.367,0,0,1-2.329-2.45c-.11-1.7.82-4.078-.469-4.921s-3.54-.3-5.368-.316c-1.158-.009-2.317.076-3.475.118-1.089.815-.479,1.969-.483,2.93-.049,12.733-.029,25.466-.026,38.2,0,7.37,0,7.3,7.483,7.282,1.936,0,2.414-.574,2.4-2.448-.089-9.719-.009-19.439-.074-29.159-.01-1.62.32-2.854,1.84-3.587l.273.056Z" transform="translate(-58.132 -58.816)" fill="#0c0e11"/>
        <path id="Trazado_731091" data-name="Trazado 731091" d="M33.16,82.824A16.916,16.916,0,1,1,50.195,65.848,16.974,16.974,0,0,1,33.16,82.824M31.074,60.258a41.2,41.2,0,0,1,.029-4.363c.254-2.371-.782-2.282-2.49-1.6-4.976,2-8.437,7.561-7.842,12.742.631,5.5,4.928,10.256,10.019,11.1A12.594,12.594,0,0,0,44.55,71.2c1.238-2.655,1.012-2.99-2.034-3-1.164-.005-2.328,0-3.493,0-8.9-.016-7.907.837-7.95-7.937m4.3-1.812c0,5.179,0,5.179,5.123,5.179,1.067,0,2.14-.078,3.2.018,1.611.145,1.847-.6,1.375-1.9A12.667,12.667,0,0,0,40.593,55.8c-1.4-1.033-3.17-2.445-4.648-1.856-1.341.534-.35,2.757-.574,4.214a1.923,1.923,0,0,0,0,.29" transform="translate(-6.79 -20.405)" fill="#0f0e0b"/>
        <path id="Trazado_731092" data-name="Trazado 731092" d="M76.423,30c-7.383,0-14.767-.061-22.149.033-2.608.033-3.755-.9-3.6-3.584.146-2.518.064-5.051.022-7.577-.033-1.972.937-2.823,2.84-2.822q22.879.009,45.758,0c1.9,0,2.878.84,2.848,2.815-.04,2.623-.093,5.25.016,7.869.1,2.4-.964,3.3-3.294,3.287C91.384,29.968,83.9,30,76.423,30m-.156-4.562c6.413,0,12.828-.081,19.239.047,2.021.04,2.422-.709,2.4-2.525-.018-1.679-.347-2.4-2.241-2.385q-19.239.116-38.48,0c-1.872-.011-2.25.668-2.256,2.37-.006,1.794.347,2.582,2.387,2.54,6.314-.131,12.632-.048,18.948-.048" transform="translate(-21.1 -6.686)" fill="#0c0e11"/>
        <path id="Trazado_731093" data-name="Trazado 731093" d="M117.564,182.167c-.034,7.174-.148,14.35-.06,21.522.033,2.667-.99,3.663-3.6,3.582-3.778-.118-7.566-.135-11.343,0-2.841.105-3.786-1.185-3.712-3.85.084-3-.055-6-.1-9.007q.062-14.383.126-28.766c.017-3.664.385-4.049,3.953-4.064,3.778-.015,7.559.081,11.334-.032,2.537-.076,3.391.976,3.347,3.467-.1,5.712.022,11.428.054,17.142M103.536,191.5c-.033,1.355-.092,2.709-.093,4.064-.009,7.245,0,7.245,7.233,7.086a4.391,4.391,0,0,1,.581,0c1.191.128,1.766-.272,1.738-1.6-.106-4.936-.131-9.874-.186-14.811.06-4.352.155-8.705.17-13.058.028-7.68.009-7.645-7.712-7.288-1.329.061-1.873.345-1.857,1.782.089,7.94.093,15.881.126,23.822" transform="translate(-41.129 -67.285)" fill="#150c10"/>
        <path id="Trazado_731094" data-name="Trazado 731094" d="M77.479,209.358q-.065,3.749-.13,7.5c-.032,1.8-.778,2.971-2.729,2.979-4.428.019-8.856-.024-13.284.028-1.1.013-1.733-.693-2.516-1.208-.018-7.837.013-15.674-.081-23.51-.027-2.317.765-3.378,3.186-3.317,4.06.1,8.127.109,12.187,0,2.437-.068,3.261,1.068,3.257,3.323-.009,4.737.069,9.473.111,14.21m-11.1,5.794a33.227,33.227,0,0,1,3.662.134c2.5.355,3.2-.743,2.658-3.01.036-3,.1-6,.1-9,.015-7.3.007-7.243-7.449-6.974-1.663.06-2.16.6-2.133,2.2.077,4.649.177,9.308-.033,13.949-.12,2.644.92,3.23,3.194,2.7" transform="translate(-24.464 -79.892)" fill="#0f0e0b"/>
        <path id="Trazado_731095" data-name="Trazado 731095" d="M115.081,48.962c6.884,0,13.768.022,20.652-.015,1.7-.009,3.287.175,3.22,2.305-.061,1.919-1.612,2.164-3.169,2.164q-20.652,0-41.3,0c-1.66,0-3.39-.232-3.4-2.256s1.65-2.232,3.352-2.221c6.883.045,13.767.019,20.651.019" transform="translate(-37.933 -20.384)" fill="#151516"/>
        <path id="Trazado_731096" data-name="Trazado 731096" d="M27.536,229.884c-2.036,0-4.073-.05-6.107.015s-3.107-.844-3.121-2.894q-.029-4.073,0-8.145c.012-2.03,1.022-2.965,3.087-2.938,4.167.054,8.337.029,12.505.011,1.868-.008,2.931.755,2.916,2.745q-.032,4.218,0,8.435c.017,1.97-.99,2.8-2.881,2.777-2.133-.023-4.265-.005-6.4-.005m.373-9.385a19.8,19.8,0,0,1-2.619-.019c-1.98-.267-2.615.4-2.661,2.5-.051,2.344,1.036,2.481,2.8,2.365a31.5,31.5,0,0,1,4.658.006c1.819.152,2.528-.347,2.546-2.361.019-2.13-.73-2.765-2.684-2.5a15.4,15.4,0,0,1-2.038.015" transform="translate(-7.619 -89.929)" fill="#0c0e11"/>
        <path id="Trazado_731097" data-name="Trazado 731097" d="M45.07,128.615c-6.207,0-12.415-.01-18.622.007-1.651,0-3.385-.139-3.458-2.179-.081-2.269,1.735-2.41,3.5-2.408q18.477.021,36.953,0c1.755,0,3.633.111,3.614,2.309s-1.908,2.29-3.655,2.283c-6.111-.024-12.221-.009-18.332-.009" transform="translate(-9.574 -51.658)" fill="#151516"/>
        <path id="Trazado_731098" data-name="Trazado 731098" d="M44.717,145.467H26.391c-1.282,0-2.573-.012-3.281-1.352-.857-1.623.406-3.147,2.742-3.164,6.108-.043,12.217-.015,18.326-.015,6.5,0,12.992.025,19.489-.016,1.71-.011,3.354.248,3.339,2.261-.015,2-1.707,2.293-3.381,2.29q-9.454-.016-18.907,0" transform="translate(-9.513 -58.692)" fill="#151516"/>
        <path id="Trazado_731099" data-name="Trazado 731099" d="M114.831,65.884c6.988,0,13.975.016,20.962-.013,1.573-.006,3.112.1,3.163,2.081.05,1.962-1.425,2.229-3.033,2.227q-20.816-.023-41.633.005c-1.6,0-3.167-.256-3.187-2.109-.022-2.071,1.666-2.216,3.348-2.207,6.793.038,13.586.016,20.38.016" transform="translate(-37.944 -27.433)" fill="#060707"/>
        <path id="Trazado_731100" data-name="Trazado 731100" d="M114.959,87c-6.793,0-13.586-.019-20.38.015-1.647.008-3.417-.028-3.475-2.085S92.777,82.7,94.452,82.7q20.526.03,41.051.009c1.588,0,3.415-.12,3.436,2.091.024,2.431-1.935,2.2-3.6,2.2q-10.19-.007-20.38,0" transform="translate(-37.944 -34.444)" fill="#060707"/>
        <path id="Trazado_731101" data-name="Trazado 731101" d="M147.757,148.97c1.158-.043,2.317-.127,3.475-.118,1.828.013,4.065-.536,5.368.316s.358,3.222.469,4.921a2.367,2.367,0,0,0,2.328,2.45l.056,2.241q-.079.589-.159,1.178c-2.031.508-2.87,2.471-4.4,3.592-2.325,1.709-4.135,4.124-7.142,5.609Z" transform="translate(-61.539 -61.928)" fill="#c4d05f"/>
        <path id="Trazado_731102" data-name="Trazado 731102" d="M106.1,103.808c-3.984,0-7.968-.043-11.95.02-1.665.026-3.085-.4-3.088-2.217,0-1.843,1.513-2.26,3.115-2.259,8.064,0,16.128-.006,24.192.013,1.583,0,3.031.39,2.9,2.4-.117,1.769-1.419,2.064-2.925,2.053-4.08-.03-8.162-.011-12.242-.011" transform="translate(-37.928 -41.379)" fill="#151516"/>
        <path id="Trazado_731103" data-name="Trazado 731103" d="M36.428,157.9c3.385,0,6.771.029,10.155-.013,1.577-.019,2.727.455,2.729,2.209,0,1.615-1.137,2.13-2.543,2.133q-10.592.023-21.182,0c-1.385,0-2.6-.5-2.609-2.078-.011-1.678,1.119-2.273,2.713-2.257,3.578.035,7.157.011,10.737.01" transform="translate(-9.57 -65.757)" fill="#060707"/>
        <path id="Trazado_731104" data-name="Trazado 731104" d="M147.293,149.17v20.189c3.007-1.485,4.817-3.9,7.142-5.609,1.525-1.121,2.364-3.084,4.4-3.592l.016,1.7-.416.531c-1.519.733-1.85,1.967-1.839,3.587.064,9.719-.016,19.44.073,29.159.018,1.874-.461,2.444-2.4,2.448-7.482.014-7.482.088-7.483-7.282,0-12.733-.022-25.466.026-38.2,0-.961-.606-2.115.483-2.93" transform="translate(-61.076 -62.128)" fill="#b0c133"/>
        <path id="Trazado_731105" data-name="Trazado 731105" d="M166.844,171.442l.416-.531a.973.973,0,0,1,.126.519l-.27.068-.273-.056" transform="translate(-69.489 -71.183)" fill="#c4d05f"/>
        <path id="Trazado_731106" data-name="Trazado 731106" d="M34.215,63.745c.043,8.774-.955,7.921,7.95,7.937,1.164,0,2.328,0,3.493,0,3.045.013,3.271.349,2.034,3A12.593,12.593,0,0,1,33.93,81.624c-5.091-.841-9.388-5.6-10.019-11.1-.6-5.181,2.866-10.742,7.842-12.742,1.707-.687,2.744-.775,2.49,1.6a41.057,41.057,0,0,0-.029,4.364" transform="translate(-9.931 -23.891)" fill="#dc7e2f"/>
        <path id="Trazado_731107" data-name="Trazado 731107" d="M48.876,61.879a1.923,1.923,0,0,1,0-.29c.223-1.457-.767-3.68.574-4.214,1.478-.589,3.25.823,4.648,1.856a12.667,12.667,0,0,1,4.473,5.948c.472,1.295.236,2.041-1.375,1.9-1.058-.1-2.132-.018-3.2-.018-5.123,0-5.123,0-5.123-5.179" transform="translate(-20.297 -23.839)" fill="#beca5b"/>
        <path id="Trazado_731108" data-name="Trazado 731108" d="M79.315,28.671c-6.316,0-12.634-.083-18.948.048-2.041.042-2.394-.746-2.387-2.54.006-1.7.384-2.381,2.256-2.37q19.239.114,38.48,0c1.894-.012,2.223.706,2.241,2.385.02,1.816-.382,2.565-2.4,2.525-6.41-.128-12.826-.047-19.239-.047" transform="translate(-24.148 -9.916)" fill="#235da8"/>
        <path id="Trazado_731109" data-name="Trazado 731109" d="M106.862,194.522c-.033-7.941-.037-15.882-.126-23.822-.016-1.437.529-1.721,1.857-1.782,7.722-.357,7.74-.392,7.712,7.288-.016,4.353-.111,8.706-.17,13.059-3.507,1.017-5.934,3.942-9.273,5.257" transform="translate(-44.454 -70.304)" fill="#ce407e"/>
        <path id="Trazado_731110" data-name="Trazado 731110" d="M106.885,209.13c3.339-1.315,5.766-4.24,9.273-5.257.055,4.936.08,9.874.186,14.81.028,1.326-.547,1.726-1.738,1.6a4.391,4.391,0,0,0-.581,0c-7.238.159-7.243.159-7.233-7.086,0-1.355.061-2.709.093-4.064" transform="translate(-44.477 -84.911)" fill="#cd206b"/>
        <path id="Trazado_731111" data-name="Trazado 731111" d="M69.548,218.288c-2.274.53-3.313-.056-3.194-2.7.211-4.641.11-9.3.033-13.949-.027-1.6.47-2.144,2.133-2.2,7.456-.27,7.464-.324,7.449,6.974-.006,3-.067,6-.1,9a17.423,17.423,0,0,0-6.319,2.877" transform="translate(-27.632 -83.027)" fill="#dc7e2f"/>
        <path id="Trazado_731112" data-name="Trazado 731112" d="M71.834,229.752a17.423,17.423,0,0,1,6.319-2.877c.546,2.268-.156,3.366-2.658,3.01a33.22,33.22,0,0,0-3.662-.134" transform="translate(-29.918 -94.491)" fill="#dd6f15"/>
        <path id="Trazado_731113" data-name="Trazado 731113" d="M31,223.713a15.5,15.5,0,0,0,2.038-.014c1.954-.262,2.7.373,2.684,2.5-.018,2.014-.726,2.513-2.546,2.361a31.5,31.5,0,0,0-4.658-.005c-1.762.115-2.85-.022-2.8-2.366.046-2.1.682-2.765,2.661-2.5a19.8,19.8,0,0,0,2.619.019" transform="translate(-10.712 -93.143)" fill="#235da8"/>
      </g>
    </g>
  </g>
</svg>
