<svg id="Grupo_991462" data-name="Grupo 991462" xmlns="http://www.w3.org/2000/svg" xmlns:xlink="http://www.w3.org/1999/xlink" width="183.978" height="185.539" viewBox="0 0 183.978 185.539">
  <defs>
    <clipPath id="clip-path">
      <rect id="Rectángulo_347610" data-name="Rectángulo 347610" width="183.978" height="185.539" fill="none"/>
    </clipPath>
  </defs>
  <g id="Grupo_991461" data-name="Grupo 991461" clip-path="url(#clip-path)">
    <path id="Trazado_731044" data-name="Trazado 731044" d="M127.507,155.735q13.113,3.957,26.225,7.916c4.528,1.373,6.424,3.519,6.383,7.134-.039,3.48-1.9,5.616-6.191,6.908-8.169,2.457-16.368,4.812-24.518,7.327a14.025,14.025,0,0,1-4.27.505q-54.706.011-109.413.013c-6.7,0-11.628-2.889-14.342-9.017C-1.3,170.459.01,164.915,4.593,160.285c1.436-1.451,1.352-2.945,1.352-4.6q.005-63.582.009-127.162a14.248,14.248,0,0,1,.374-4.668c1.154-3.433,3.714-4.328,7.057-4.322,25.6.048,51.2,0,76.807.073a6.3,6.3,0,0,0,5.441-2.484c5.365-6.318,12.331-9.354,20.678-9.348,9.889.008,19.8.429,29.628-1.239,7.134-1.211,13.9-3.592,21.107-6.538-1.038,5.32-1.821,10.169-2.984,14.926-.539,2.2.025,2.993,2.085,3.535,2.531.667,4.971,1.68,7.726,2.639a64.21,64.21,0,0,0-11.969,22.7c-.741,2.608-.5,4.383,1.6,6.309,4.27,3.911,8.2,8.194,12.376,12.209,1.452,1.394,2.121,2.346.2,3.937a6.738,6.738,0,0,0-1.945,8.2,6.9,6.9,0,0,0,7.227,4.394c2-.1,2.546.8,2.547,2.521.006,8.452,0,16.906.067,25.358.015,1.756-.9,1.982-2.281,1.886-3.49-.244-6.264,1.036-7.572,4.339a7.059,7.059,0,0,0,2.2,8.488c1.219,1.034,1.172,1.827.109,2.893q-9.207,9.231-18.356,18.52c-.848.862-1.364.833-2.365.073-7.3-5.554-12.035-3.768-13.218,5.034-.258,1.919-1.266,2.027-2.675,2.039q-6.154.057-12.308.132c-3.861-.04-7.728-.246-11.578-.061-2.453.118-3.341-.524-3.293-3.093a6.592,6.592,0,0,0-4.494-6.763c-2.938-1.047-5.824-.68-7.89,1.867-1.577,1.946-2.726,1.225-4.06-.109-5.378-5.378-10.709-10.8-16.186-16.08-1.959-1.886-3.177-3.181-.36-5.526,2.17-1.808,2.467-4.663,1.355-7.345-.975-2.352-2.781-4.483-5.347-4.217-4.788.495-4.6-2.409-4.535-5.528a15.789,15.789,0,0,1,.018-2.17c.553-3.47-.467-5.029-4.368-4.6-3.7.4-7.477.025-11.218.114-1.545.038-1.994-.44-2.111-2.024-.215-2.9.271-4.631,3.776-4.019a22.875,22.875,0,0,0,5.061.033c2.861-.15,6.629,1.25,8.313-.584,1.409-1.535.652-5.261.47-7.992-.172-2.563.69-3.259,3.2-3.228a6.72,6.72,0,0,0,6.756-4.536,6.586,6.586,0,0,0-1.892-7.883c-1.891-1.571-1.31-2.654.08-4.027,4.038-3.985,8.028-8.02,12.032-12.04.821-.824,1.769-1.4.924-2.988-3.677-6.918-4.011-14.207-1.639-21.843H86.615c-23.543,0-47.085.068-70.627-.08-3.174-.019-3.98.722-3.97,3.941.124,39.719.08,79.439.08,119.158,0,7.32,0,7.324,7.48,7.319l107.927-.09m2.1-118.709.444.29-.258-.479a10.311,10.311,0,0,0-2.867-7.235c-2.305-2.636.215-3.585,1.457-4.893,1.948-2.054,2.773.233,3.5,1.294,1.492,2.167,2.133,5.356,4.1,6.668,3.726,2.489,7.921,4.337,11.722,7.609a13.524,13.524,0,0,0-3.244-11.065c-2.186-2.653.61-3.27,1.607-4.515,1.513-1.886,2.386-.284,3.3.851a23.751,23.751,0,0,1,4.259,8.7c1.237,4.454.257,9.025.954,14.374,1.763-8.53,4.291-15.882,8.468-22.574.9-1.442.507-2-.919-2.618-5.289-2.288-5.275-2.329-4.2-8.178.194-1.064.45-2.118.655-3.182.316-1.637-.347-2.354-1.959-1.829-13.005,4.23-26.441,3.507-39.817,3.528-11.656.018-20.294,7.48-21.711,19.075-.739,6.04,1.754,11.214,5.479,16.98.088-1.716.132-2.315.146-2.912.313-12.879,12-19.365,23.19-12.917,1.859,1.072,3.486,2.616,5.7,3.029M89.481,61.094c-3.768,2.776-3.768,2.776-2.518,6.8A12.873,12.873,0,0,1,79.6,83.686c-1.735.761-2.381,1.526-2.331,3.381.122,4.462.133,8.934-.007,13.4-.055,1.763.669,2.457,2.159,3.146,7.193,3.327,9.891,9.948,6.939,17.341-.691,1.732-.244,2.549.886,3.64,3.125,3.019,6.256,6.041,9.192,9.239,1.378,1.5,2.453,1.595,4.307.833,5.67-2.331,12.648-.832,15.212,4.52,2.449,5.113,5.923,5.169,10.279,4.921a58.789,58.789,0,0,1,7.6.017c1.975.144,2.916-.53,3.707-2.373,2.5-5.831,8.382-9.684,13.838-7.7,5.3,1.925,7.831-.456,10.731-3.745a68.515,68.515,0,0,1,5.636-5.623,2.94,2.94,0,0,0,.923-3.949c-2.885-7-.1-13.959,6.852-17.063a3.365,3.365,0,0,0,2.343-3.776q-.187-6.15,0-12.309c.062-2.034-.407-3.192-2.529-4.017-4.077-1.585-6.393-4.825-7.485-9.1a12.808,12.808,0,0,1,1.082-8.759c1.061-2.341-1.407-2.657-2.169-3.942-.3-.511-1.116-.914-1.423-.139-1.623,4.093-5.327,5.05-9.2,5.866,15.739,19.008,10.992,42.064-2.364,54.461a38.659,38.659,0,0,1-50.353,1.769A37.08,37.08,0,0,1,89.458,99.595C87.631,87.511,91.052,76.823,99.3,67.272c-4.758-.321-8.176-1.961-9.823-6.178M82.9,179.666c12.907,0,25.814-.057,38.72.052,2.349.02,3.133-.6,3.023-3-.193-4.213-.117-8.443-.024-12.662.037-1.694-.468-2.317-2.239-2.315q-39.082.067-78.165-.012c-2.233-.005-2.578.979-2.537,2.841.086,3.978.174,7.968-.027,11.938-.13,2.564.748,3.233,3.252,3.209,12.665-.12,25.331-.055,38-.055m53.521-139.72c0,2.365-.078,4.145.02,5.916.128,2.344-.711,2.365-2.446,1.3-4.708-2.9-9.394-5.85-14.237-8.509-5.9-3.238-12.44.373-12.782,7.082a119.641,119.641,0,0,0,.095,14.086c.694,10.336,8.67,18.07,19.285,19.017,9.2.822,18.724-5.894,21.069-15.275,1.158-4.632,2.193-9.725-.006-14.115-2.1-4.185-6.067-7.049-11-9.5m14.482,31.148a27.92,27.92,0,0,1-11.263,10.8c-.7.358-1.634.524-1.388,1.734a2.342,2.342,0,0,0,1.751,1.984c9.271,3.275,15.036,9.818,17.557,19.393,5.3-9.329,2.374-24.313-6.657-33.909M97.485,105.165c2.539-9.647,8.173-16.074,17.181-19.42a2.874,2.874,0,0,0,2.181-2.043c.3-1.064-.369-1.349-.931-1.608-5.1-2.347-8.745-6.267-11.756-10.894-8.929,9.155-11.849,23.791-6.675,33.965M23.849,170.789c0-2.288-.011-4.577.005-6.865.008-1.141.025-2.228-1.613-2.138-3.115.171-6.264-.4-9.35.4a8.2,8.2,0,0,0-6.536,6.861c-1.014,5.581,2.68,10.117,8.546,10.588,8.949.719,8.949.719,8.949-7.4q0-.723,0-1.446M106.6,118.178c-.1-3.188.841-6.161-.694-8.583-2.033-3.206.784-4.4,2.3-5.3,2.028-1.208,2.464,1.447,3.169,2.66a13,13,0,0,1,1.494,6.611c0,2.288.179,4.6-.042,6.864-.293,2.995,1.978,3.345,3.832,3.791,2.178.522,1.472-1.75,1.849-2.7.97-2.44,1.457-5.066,2.283-7.571.809-2.448.227-4.724-.493-7.032-.175-.559-.286-1.477-1.013-1.01-2.974,1.908-2.78-.943-3.391-2.265a66.416,66.416,0,0,1-2.927-7.35c-.809-2.5-1.7-2.182-3.362-.662-4.027,3.695-5.505,8.483-6.905,13.563-1.144,4.147.175,6.6,3.9,8.983m42.225-.336c1.621-1.677,4.466-2.546,4.047-5.274-.917-5.971-2.169-11.825-6.787-16.36-2.312-2.27-3.441-2.365-4.31,1.044a33.46,33.46,0,0,1-2.589,6.329c-.637,1.3-.306,4.164-3.367,2.389-.932-.54-.893.7-1.141,1.312-2.155,5.276.937,9.832,2.048,14.645.207.895-.277,2.97,1.8,2.278,1.555-.519,3.766-.574,3.7-3.175-.058-2.414-.044-4.83,0-7.243a14.151,14.151,0,0,1,2.047-7.931c.576-.848,1.068-2.873,2.449-1.742,1.321,1.083,4.169,1.93,2.753,4.6-1.583,2.984-.888,6.013-.651,9.13M29.721,170.787c0,2.283.1,4.571-.025,6.847-.146,2.732,1.8,1.887,3.191,2.012,1.539.14,2.792.127,2.722-2.116-.143-4.562-.083-9.131-.02-13.7.021-1.545-.541-1.968-2.081-2.11-2.877-.265-4.248.52-3.832,3.663a41.782,41.782,0,0,1,.044,5.4m100.849,7.295c5.784-.84,5.519-.85,5.849-10.113.173-4.866-3.288-3.811-5.849-4.857ZM127.777,126c.679-.769,3.589,1.656,3.235-1.422-.352-3.054-1.587-6.011-2.487-9a1.628,1.628,0,0,0-.856-1.009c-.779-.22-.952.489-1.12,1.062a66.9,66.9,0,0,1-2.042,6.892c-1.31,3.176-.294,4.153,3.27,3.471m14.668,44.067c-.006,4.895-.005,4.9,4.354,3.574,1.938-.588,3.864-1.21,5.806-1.779.711-.209,1.5-.47,1.368-1.287-.063-.4-.806-.822-1.323-.995-2.143-.721-4.367-1.223-6.468-2.044-3.08-1.2-4.433-.507-3.737,2.531M132.512,85.5c-.135-.145-.427-.739-.737-.748a79.69,79.69,0,0,0-8.293.011c-1.154.087-1.468,1.318-.558,2.123a18.535,18.535,0,0,0,3.878,2.619c1.366.69,5.885-2.336,5.71-4.006m21.846-27.317c.384.719-1.22,2.939,1.779,2.811,2.033-.086,3.789-.491,3.889-2.763.1-2.246-1.562-2.93-3.61-3.139-2.271-.233-2.274,1.086-2.058,3.091m-53.619.262c-.275-1.335.986-3.6-2.091-3.346-2.072.172-3.671.946-3.606,3.132C95.1,60.2,96.575,60.9,98.552,61c2.035.1,2.573-.709,2.186-2.555m26.745,50.305c1.565-1.95,1.574-4.063,2.074-5.969.4-1.522-.881-2.226-2.143-2.119-1.185.1-2.458.732-1.884,2.362.626,1.777.592,3.77,1.953,5.726M123.928,95.2a16.14,16.14,0,0,0-6.21-3.953c1.947,7.3,1.947,7.3,6.21,3.953m7.139.068c1.354.877,2.992,2.878,3.862,2.077,1.494-1.377,2.088-3.747,2.553-6.587-2.5,1.644-4.634,2.672-6.415,4.51" transform="translate(0 0)" fill="#100e0c"/>
    <path id="Trazado_731045" data-name="Trazado 731045" d="M132.063,165.367q-53.963.045-107.927.089c-7.48.006-7.48,0-7.48-7.318,0-39.72.043-79.44-.08-119.159-.01-3.22.8-3.961,3.969-3.941,23.542.148,47.085.08,70.628.08h3.907c-2.373,7.635-2.038,14.924,1.639,21.842.846,1.592-.1,2.162-.923,2.987-4,4.02-7.994,8.055-12.032,12.041-1.391,1.373-1.972,2.455-.08,4.027A6.586,6.586,0,0,1,85.573,83.9a6.719,6.719,0,0,1-6.756,4.537c-2.51-.032-3.371.663-3.2,3.227.183,2.73.939,6.457-.469,7.992-1.684,1.835-5.453.435-8.314.585a22.874,22.874,0,0,1-5.061-.033c-3.5-.611-3.99,1.12-3.776,4.02.117,1.584.566,2.061,2.111,2.025,3.741-.089,7.52.289,11.218-.115,3.9-.427,4.921,1.133,4.367,4.6a16.044,16.044,0,0,0-.018,2.171c-.061,3.117-.252,6.021,4.536,5.526,2.566-.265,4.372,1.866,5.347,4.217,1.112,2.682.815,5.538-1.356,7.346-2.816,2.345-1.6,3.64.36,5.527,5.477,5.275,10.808,10.7,16.186,16.08,1.334,1.334,2.483,2.054,4.06.108,2.066-2.547,4.952-2.914,7.891-1.866a6.591,6.591,0,0,1,4.494,6.763c-.048,2.569.84,3.212,3.294,3.093,3.849-.186,7.717.021,11.577.061q0,2.8,0,5.606M87.682,58.958q-.014-5.986-.028-11.97c.038-1.326.018-2.657.127-3.977.133-1.62-.625-2.062-2.133-2.059-18.961.033-37.923-.026-56.884.066-4.021.02-6.153,2.415-6.237,6.415-.067,3.259-.029,6.522-.014,9.782.026,5.723,1.836,7.533,7.577,7.536q26.087.014,52.174,0c5.665,0,5.665,0,5.417-5.8M22.512,109.3c0,2.652-.033,5.3.007,7.956.07,4.666,2.194,6.807,6.863,6.847,5.183.046,10.367.036,15.55,0,4.991-.031,7.211-2.261,7.274-7.322.049-3.857.154-7.722-.04-11.569-.131-2.6.349-4.738,2.579-6.255,2.441-1.66,2.058-3.079.022-4.963-1.521-1.407-2.424-1.562-3.66.08-.487.647-1.049,1.289-2.1,1.047-6.659-1.532-13.416-.441-20.124-.656-4.085-.131-6.237,2.114-6.348,6.152-.08,2.891-.016,5.786-.021,8.679m.013,35.61h-.012c0,2.771-.052,5.543.012,8.312.1,4.206,2.272,6.358,6.538,6.406,5.3.06,10.6.038,15.9.009,4.981-.026,7.182-2.247,7.243-7.326.046-3.854.157-7.717-.042-11.561a6.985,6.985,0,0,1,2.539-6.308c1.028-.863,3.384-1.8,1.024-3.84-1.546-1.333-2.806-3.793-4.919-.645a1.653,1.653,0,0,1-1.886.7c-6.774-1.592-13.649-.447-20.474-.655-3.59-.109-5.776,2.275-5.9,5.874-.105,3.008-.021,6.022-.021,9.034M46.194,88.581c6.991,0,13.988-.169,20.971.081,2.908.1,2.585-1.4,2.714-3.286.149-2.178-.458-2.871-2.761-2.852q-20.972.172-41.945,0c-2.384-.021-2.8.816-2.716,2.9.077,1.964-.049,3.333,2.766,3.236,6.982-.239,13.979-.079,20.97-.079M57.757,76.724c5.177,0,10.359-.138,15.529.058,2.6.1,2.616-1.242,2.566-3.109-.046-1.747.208-3.205-2.486-3.165q-15.347.227-30.7.005c-2.541-.034-2.635,1.187-2.6,3.09.028,1.814-.1,3.263,2.527,3.172,5.05-.176,10.111-.051,15.168-.051m12.128,65.1c3.141,0,6.29-.15,9.419.046,2.617.165,2.588-1.314,2.552-3.16-.033-1.666.1-3.028-2.36-2.97-6.4.15-12.806.174-19.2,0-2.965-.083-2.078,1.83-2.238,3.342-.192,1.814.1,2.94,2.412,2.795,3.128-.2,6.278-.049,9.418-.049M63.963,118.26c1.326,0,2.657-.062,3.979.017,1.374.083,1.856-.425,1.952-1.839.192-2.837.074-5.021-3.816-4.4a32.264,32.264,0,0,1-6.14.04c-1.386-.049-1.843.469-1.94,1.87-.194,2.829-.063,5.121,3.8,4.336a11.243,11.243,0,0,1,2.167-.022M28.374,76.717c1.447,0,2.893.005,4.341,0,.756,0,1.309-.14,1.6-1.06,1.032-3.32-.209-5.08-3.71-5.085-1.929,0-3.863.08-5.786-.025-1.621-.088-2.293.325-2.4,2.149-.162,2.887.272,4.76,3.789,4.051a11.716,11.716,0,0,1,2.166-.027m35.56,77.066a22.058,22.058,0,0,1,3.234.027c2.386.357,2.674-.822,2.735-2.867.073-2.387-.394-3.55-3.086-3.249a40.829,40.829,0,0,1-6.47.023c-1.608-.077-2.257.281-2.364,2.13-.17,2.939.382,4.649,3.8,3.956a11.06,11.06,0,0,1,2.154-.02m17.853-3.178c.643-2.658-.821-2.89-3-2.982-2.59-.11-3.214.8-3.223,3.283-.009,2.5.895,2.954,3.16,2.98,2.521.028,3.692-.644,3.064-3.28" transform="translate(-4.556 -9.631)" fill="#dbdfe5"/>
    <path id="Trazado_731046" data-name="Trazado 731046" d="M118.769,84.252c1.647,4.217,5.066,5.858,9.823,6.178-8.252,9.551-11.672,20.24-9.846,32.324a37.076,37.076,0,0,0,13.969,24.121,38.658,38.658,0,0,0,50.353-1.767c13.357-12.4,18.1-35.454,2.364-54.462,3.873-.816,7.577-1.774,9.2-5.866.307-.774,1.122-.371,1.424.139.761,1.285,3.23,1.6,2.169,3.943a12.8,12.8,0,0,0-1.082,8.758c1.091,4.278,3.407,7.518,7.484,9.1,2.122.825,2.591,1.983,2.529,4.017q-.187,6.15,0,12.309a3.366,3.366,0,0,1-2.344,3.776c-6.953,3.1-9.737,10.065-6.852,17.064a2.941,2.941,0,0,1-.923,3.949,68.638,68.638,0,0,0-5.637,5.624c-2.9,3.288-5.436,5.67-10.731,3.745-5.456-1.984-11.336,1.869-13.837,7.7-.79,1.843-1.732,2.518-3.707,2.373a58.805,58.805,0,0,0-7.6-.019c-4.356.248-7.829.192-10.278-4.921-2.564-5.351-9.541-6.85-15.212-4.52-1.853.762-2.929.666-4.307-.834-2.937-3.2-6.069-6.219-9.193-9.238-1.129-1.091-1.576-1.909-.885-3.639,2.952-7.395.254-14.015-6.939-17.342-1.49-.689-2.215-1.382-2.16-3.146.14-4.462.128-8.933.007-13.4-.051-1.856.6-2.621,2.331-3.381a12.872,12.872,0,0,0,7.36-15.795c-1.249-4.022-1.249-4.022,2.519-6.8" transform="translate(-29.288 -23.159)" fill="#fec957"/>
    <path id="Trazado_731047" data-name="Trazado 731047" d="M98.69,240.976c-12.665,0-25.331-.065-38,.055-2.505.023-3.383-.645-3.253-3.21.2-3.97.113-7.96.027-11.938-.041-1.862.3-2.846,2.537-2.84q39.083.1,78.165.012c1.771,0,2.276.621,2.238,2.314-.093,4.22-.169,8.449.024,12.662.109,2.4-.674,3.018-3.022,3-12.906-.109-25.814-.052-38.721-.052m-8.81-11.97c-2.24-.584-3.112.306-3.083,2.8.027,2.328.371,3.56,3.138,3.417,2.161-.112,3.354-.353,3.241-2.952-.1-2.263-.287-3.923-3.3-3.264m-20.629,3.146c.567-2.2-.022-3.428-2.8-3.313-2.139.088-3.314.348-3.177,2.93.115,2.16.138,3.635,3,3.45,2.109-.136,3.608-.277,2.974-3.067m11.743.048c.524-2.419-.26-3.42-2.926-3.376-2.344.039-3.056.685-3.009,3.049.046,2.27.293,3.474,3.044,3.357,2.279-.1,3.444-.567,2.89-3.03m23.789.03c.459-2.1.161-3.556-2.736-3.392-2.083.118-3.375.257-3.191,2.884.144,2.064-.052,3.734,2.924,3.493,2.036-.165,3.661-.157,3-2.985" transform="translate(-15.786 -61.309)" fill="#aac467"/>
    <path id="Trazado_731048" data-name="Trazado 731048" d="M165.609,40.846c-2.215-.413-3.841-1.958-5.7-3.03-11.189-6.449-22.878.038-23.19,12.917-.014.6-.059,1.2-.146,2.913-3.725-5.766-6.217-10.94-5.479-16.979,1.417-11.6,10.055-19.058,21.711-19.075,13.376-.02,26.812.7,39.817-3.529,1.613-.524,2.275.193,1.959,1.829-.2,1.063-.46,2.117-.655,3.182-1.07,5.848-1.084,5.89,4.2,8.178,1.426.616,1.82,1.175.919,2.618-4.177,6.691-6.705,14.044-8.468,22.573-.7-5.349.283-9.92-.954-14.373a23.745,23.745,0,0,0-4.259-8.7c-.91-1.136-1.784-2.737-3.3-.851-1,1.244-3.794,1.861-1.608,4.515A13.525,13.525,0,0,1,183.708,44.1c-3.8-3.273-8-5.121-11.722-7.61-1.964-1.312-2.606-4.5-4.1-6.668-.731-1.062-1.555-3.349-3.5-1.3-1.242,1.31-3.763,2.258-1.457,4.894a10.308,10.308,0,0,1,2.867,7.235Z" transform="translate(-35.998 -3.819)" fill="#a36333"/>
    <path id="Trazado_731049" data-name="Trazado 731049" d="M176.917,54.14c4.929,2.448,8.9,5.314,11,9.5,2.2,4.391,1.165,9.484.006,14.116-2.345,9.38-11.874,16.1-21.069,15.275-10.614-.948-18.591-8.683-19.285-19.019a119.64,119.64,0,0,1-.095-14.086c.342-6.708,6.884-10.32,12.783-7.081,4.843,2.659,9.53,5.608,14.237,8.508,1.735,1.069,2.574,1.049,2.446-1.3-.1-1.771-.019-3.552-.019-5.916m-9.245,33.1a12.41,12.41,0,0,0,9.956-4.639c.711-.919,2.868-2.175,1.051-3.337-1.447-.927-3.2-3.729-5.66-.582-2.575,3.29-7.286,3.462-9.722.241-2.5-3.307-4.43-.743-5.9.371-1.808,1.368.495,2.592,1.293,3.6,2.3,2.91,5.57,4.046,8.982,4.345m-8.385-21.124c-.5-1.481-1.269-2.759-3.209-2.661a2.674,2.674,0,0,0-2.794,3.051,2.646,2.646,0,0,0,3.041,2.789c1.919-.071,2.665-1.326,2.962-3.178M179.234,69.3c2.428.09,3.491-1.013,3.6-2.717a2.7,2.7,0,0,0-2.673-3.123,2.772,2.772,0,0,0-3.275,2.9,2.644,2.644,0,0,0,2.347,2.94" transform="translate(-40.491 -14.195)" fill="#eac1a2"/>
    <path id="Trazado_731050" data-name="Trazado 731050" d="M203.3,98.043c9.031,9.6,11.958,24.581,6.657,33.909-2.521-9.574-8.287-16.117-17.557-19.393a2.341,2.341,0,0,1-1.751-1.982c-.246-1.212.69-1.377,1.388-1.734a27.922,27.922,0,0,0,11.263-10.8" transform="translate(-52.394 -26.95)" fill="#f1f3f4"/>
    <path id="Trazado_731051" data-name="Trazado 731051" d="M133.471,132.155c-5.174-10.174-2.255-24.81,6.675-33.964,3.011,4.626,6.661,8.547,11.756,10.893.562.259,1.231.544.93,1.608a2.871,2.871,0,0,1-2.181,2.043c-9.008,3.346-14.641,9.773-17.18,19.42" transform="translate(-35.986 -26.99)" fill="#f1f3f4"/>
    <path id="Trazado_731052" data-name="Trazado 731052" d="M26.195,232.1q0,.722,0,1.445c0,8.117,0,8.117-8.95,7.4-5.866-.471-9.559-5.007-8.546-10.588a8.2,8.2,0,0,1,6.536-6.86c3.087-.8,6.235-.228,9.35-.4,1.638-.089,1.621,1,1.613,2.138-.016,2.288-.005,4.577,0,6.866" transform="translate(-2.345 -61.314)" fill="#b9c0c9"/>
    <path id="Trazado_731053" data-name="Trazado 731053" d="M145.387,153.984c-3.724-2.387-5.042-4.836-3.9-8.983,1.4-5.079,2.879-9.868,6.906-13.562,1.657-1.52,2.552-1.837,3.361.661a66.22,66.22,0,0,0,2.928,7.35c.611,1.322.416,4.172,3.391,2.265.727-.466.838.452,1.012,1.009.721,2.308,1.3,4.585.494,7.033-.827,2.5-1.313,5.13-2.284,7.57-.377.948.33,3.221-1.849,2.7-1.854-.445-4.125-.8-3.832-3.791.222-2.267.043-4.575.042-6.865a12.987,12.987,0,0,0-1.494-6.609c-.7-1.214-1.141-3.868-3.169-2.66-1.518.9-4.333,2.094-2.3,5.3,1.536,2.423.6,5.4.694,8.583" transform="translate(-38.782 -35.805)" fill="#e66659"/>
    <path id="Trazado_731054" data-name="Trazado 731054" d="M199.6,153.7c-.237-3.118-.932-6.146.65-9.131,1.416-2.67-1.431-3.518-2.753-4.6-1.381-1.131-1.873.893-2.449,1.742A14.153,14.153,0,0,0,193,149.64c-.045,2.414-.059,4.83,0,7.243.062,2.6-2.149,2.657-3.7,3.176-2.072.692-1.589-1.384-1.795-2.278-1.111-4.813-4.2-9.369-2.048-14.645.249-.609.21-1.852,1.141-1.312,3.061,1.775,2.731-1.091,3.367-2.389a33.481,33.481,0,0,0,2.589-6.329c.869-3.41,2-3.315,4.31-1.044,4.618,4.535,5.87,10.388,6.787,16.36.418,2.728-2.426,3.6-4.047,5.275" transform="translate(-50.772 -35.855)" fill="#e66659"/>
    <path id="Trazado_731055" data-name="Trazado 731055" d="M40.942,232.074a41.654,41.654,0,0,0-.044-5.4c-.417-3.143.955-3.927,3.832-3.662,1.539.141,2.1.565,2.08,2.11-.064,4.565-.123,9.134.02,13.7.07,2.243-1.183,2.255-2.721,2.117-1.389-.125-3.338.719-3.192-2.012.122-2.276.025-4.565.025-6.847" transform="translate(-11.222 -61.287)" fill="#fada8e"/>
    <path id="Trazado_731056" data-name="Trazado 731056" d="M180.065,239.913v-14.97c2.56,1.046,6.022-.009,5.849,4.857-.33,9.264-.065,9.274-5.849,10.113" transform="translate(-49.496 -61.831)" fill="#b9c0c9"/>
    <path id="Trazado_731057" data-name="Trazado 731057" d="M174.767,169.415c-3.563.682-4.58-.3-3.27-3.472a66.881,66.881,0,0,0,2.042-6.892c.167-.574.341-1.281,1.12-1.062a1.625,1.625,0,0,1,.855,1.009c.9,2.984,2.136,5.941,2.487,9,.354,3.077-2.556.653-3.234,1.421" transform="translate(-46.99 -43.416)" fill="#dbdfe5"/>
    <path id="Trazado_731058" data-name="Trazado 731058" d="M196.374,233.362c-.7-3.038.657-3.734,3.736-2.53,2.1.821,4.325,1.323,6.469,2.043.516.173,1.26.6,1.323.995.129.817-.656,1.078-1.368,1.287-1.943.57-3.869,1.191-5.806,1.779-4.359,1.323-4.36,1.32-4.354-3.575" transform="translate(-53.929 -63.297)" fill="#b9c0c9"/>
    <path id="Trazado_731059" data-name="Trazado 731059" d="M178.909,117.587c.175,1.671-4.343,4.7-5.71,4.006a18.537,18.537,0,0,1-3.878-2.62c-.911-.8-.6-2.036.558-2.123a80.5,80.5,0,0,1,8.293-.011c.309.009.6.6.737.748" transform="translate(-46.397 -32.087)" fill="#e7be9f"/>
    <path id="Trazado_731060" data-name="Trazado 731060" d="M212.836,79.057c-.215-2.006-.213-3.324,2.058-3.092,2.049.21,3.709.894,3.611,3.139-.1,2.273-1.856,2.678-3.89,2.764-3,.127-1.4-2.093-1.779-2.811" transform="translate(-58.478 -20.874)" fill="#e7be9f"/>
    <path id="Trazado_731061" data-name="Trazado 731061" d="M136.766,79.325c.387,1.846-.152,2.655-2.187,2.555-1.977-.1-3.452-.8-3.51-2.77-.065-2.186,1.534-2.96,3.605-3.132,3.078-.255,1.817,2.012,2.092,3.346" transform="translate(-36.027 -20.879)" fill="#e7be9f"/>
    <path id="Trazado_731062" data-name="Trazado 731062" d="M175.015,146.905c-1.361-1.956-1.328-3.948-1.953-5.725-.574-1.629.7-2.262,1.884-2.362,1.262-.107,2.543.6,2.144,2.12-.5,1.906-.509,4.019-2.074,5.968" transform="translate(-47.531 -38.155)" fill="#b9c0c9"/>
    <path id="Trazado_731063" data-name="Trazado 731063" d="M168.552,129.794c-4.263,3.349-4.263,3.349-6.21-3.953a16.146,16.146,0,0,1,6.21,3.953" transform="translate(-44.624 -34.591)" fill="#de503d"/>
    <path id="Trazado_731064" data-name="Trazado 731064" d="M180.751,129.678c1.782-1.837,3.914-2.866,6.415-4.51-.465,2.84-1.059,5.21-2.553,6.587-.87.8-2.508-1.2-3.862-2.077" transform="translate(-49.684 -34.406)" fill="#de503d"/>
    <path id="Trazado_731065" data-name="Trazado 731065" d="M178.929,50.8l.258.48-.444-.29.186-.19" transform="translate(-49.132 -13.964)" fill="#a36333"/>
    <path id="Trazado_731066" data-name="Trazado 731066" d="M89.923,61.2c.248,5.8.248,5.8-5.417,5.8q-26.087,0-52.173,0c-5.741,0-7.551-1.814-7.578-7.536-.015-3.26-.054-6.522.014-9.782.083-4,2.217-6.4,6.237-6.415,18.961-.092,37.923-.033,56.884-.066,1.508,0,2.266.439,2.133,2.059-.108,1.32-.089,2.65-.126,3.977q-25.538.077-51.074.149c-8.187.019-8.06.006-8.226,8.257-.056,2.813.666,3.587,3.538,3.569,18.6-.118,37.192-.028,55.789-.005" transform="translate(-6.798 -11.873)" fill="#100e0c"/>
    <path id="Trazado_731067" data-name="Trazado 731067" d="M24.758,131.227c0-2.893-.062-5.788.018-8.679.112-4.038,2.264-6.283,6.348-6.152,6.709.215,13.466-.876,20.125.656,1.051.241,1.614-.4,2.1-1.048,1.236-1.642,2.139-1.487,3.66-.08,2.035,1.885,2.418,3.3-.023,4.963-2.229,1.517-2.709,3.658-2.579,6.255.194,3.848.088,7.712.04,11.569-.063,5.061-2.283,7.29-7.274,7.322-5.184.033-10.368.042-15.551,0-4.668-.041-6.792-2.181-6.862-6.847-.04-2.652-.007-5.3,0-7.956M46.579,123l-.536-.774c-4.331,0-8.663.044-12.993-.023-1.551-.024-2.471.189-2.423,2.106.113,4.578.084,9.161.011,13.741-.025,1.6.611,2.075,2.134,2.051,4.46-.069,8.92-.026,13.381-.025,1,0,2.092-.011,2.061-1.371-.063-2.763.492-5.584-.553-8.939-.974,1.171-1.537,1.967-2.217,2.647-6.093,6.1-6.039,6.031-12.1-.078-1.554-1.567-1.736-2.525,0-3.973,1.384-1.156,2.386-2.937,4.222-.506.677.9,1.5,2.491,3.114.84,1.911-1.951,3.927-3.8,5.9-5.7" transform="translate(-6.799 -31.561)" fill="#100e0c"/>
    <path id="Trazado_731068" data-name="Trazado 731068" d="M24.768,180.305c0-3.011-.083-6.026.022-9.034.125-3.6,2.311-5.983,5.9-5.874,6.825.207,13.7-.938,20.474.656a1.654,1.654,0,0,0,1.886-.7c2.114-3.148,3.374-.688,4.919.645,2.362,2.035,0,2.977-1.024,3.84a6.985,6.985,0,0,0-2.539,6.308c.2,3.845.088,7.707.042,11.562-.061,5.078-2.262,7.3-7.243,7.326-5.3.028-10.6.051-15.9-.009-4.266-.048-6.438-2.2-6.538-6.406-.064-2.769-.012-5.541-.012-8.312Zm23.258-1.547c-2.683,2.724-4.855,4.929-7.026,7.137-.766.78-1.428,1.7-2.618.438-1.9-2.012-3.941-3.9-5.863-5.9C30.747,178.6,33,178,33.76,177.119c.71-.829,1.659-2.779,3.027-.869,2.283,3.186,3.875,1.752,5.8-.368a35.776,35.776,0,0,1,4.338-3.546l-.8-1.081c-2.126,0-4.252-.033-6.377.008-2.871.055-6.652-.917-8.377.534-2.049,1.722-.632,5.647-.669,8.605-.107,8.717-.038,8.718,8.749,8.718,9.36,0,9.36,0,8.577-10.361" transform="translate(-6.799 -45.029)" fill="#100e0c"/>
    <path id="Trazado_731069" data-name="Trazado 731069" d="M92.146,63.487c-18.6-.022-37.193-.113-55.789.005-2.871.018-3.594-.756-3.538-3.569.165-8.251.038-8.238,8.226-8.257q25.537-.06,51.074-.149.013,5.986.027,11.97" transform="translate(-9.02 -14.161)" fill="#afc96a"/>
    <path id="Trazado_731070" data-name="Trazado 731070" d="M48.42,106.581c-6.991,0-13.988-.16-20.971.078-2.816.1-2.689-1.271-2.766-3.236-.082-2.086.332-2.924,2.716-2.9q20.971.187,41.945,0c2.3-.019,2.909.674,2.761,2.851-.129,1.883.193,3.39-2.715,3.286-6.981-.251-13.979-.081-20.97-.081" transform="translate(-6.782 -27.631)" fill="#100e0c"/>
    <path id="Trazado_731071" data-name="Trazado 731071" d="M66.658,90.169c-5.056,0-10.118-.125-15.168.051-2.624.092-2.5-1.358-2.527-3.171-.03-1.9.065-3.124,2.6-3.09q15.347.2,30.7-.005c2.695-.04,2.44,1.419,2.486,3.165.049,1.866.033,3.207-2.566,3.109-5.169-.2-10.352-.058-15.529-.058" transform="translate(-13.458 -23.077)" fill="#1a1b1c"/>
    <path id="Trazado_731072" data-name="Trazado 731072" d="M85.59,179.993c-3.141,0-6.29-.149-9.418.049-2.315.146-2.6-.981-2.412-2.795.16-1.512-.727-3.425,2.238-3.342,6.4.178,12.8.154,19.2,0,2.465-.058,2.327,1.3,2.36,2.971.037,1.846.066,3.324-2.552,3.159-3.127-.2-6.277-.046-9.418-.046" transform="translate(-20.262 -47.802)" fill="#100e0c"/>
    <path id="Trazado_731073" data-name="Trazado 731073" d="M79.645,147.409a11.129,11.129,0,0,0-2.167.021c-3.862.785-3.992-1.508-3.8-4.336.1-1.4.553-1.92,1.94-1.871a32.147,32.147,0,0,0,6.14-.04c3.89-.619,4.008,1.566,3.815,4.4-.1,1.415-.577,1.922-1.952,1.839-1.321-.079-2.652-.017-3.978-.016" transform="translate(-20.238 -38.779)" fill="#1a1b1c"/>
    <path id="Trazado_731074" data-name="Trazado 731074" d="M30.578,90.177a11.479,11.479,0,0,0-2.167.023c-3.518.708-3.951-1.164-3.789-4.051.1-1.824.774-2.237,2.4-2.149,1.924.1,3.856.022,5.785.025,3.5.005,4.742,1.765,3.71,5.086-.286.92-.839,1.057-1.595,1.06-1.448.007-2.895,0-4.341.005" transform="translate(-6.76 -23.087)" fill="#1a1b1c"/>
    <path id="Trazado_731075" data-name="Trazado 731075" d="M79.621,196.471a11.06,11.06,0,0,0-2.154.02c-3.415.693-3.966-1.017-3.8-3.956.107-1.849.756-2.207,2.364-2.13a40.819,40.819,0,0,0,6.47-.023c2.692-.3,3.159.861,3.087,3.249-.062,2.046-.35,3.225-2.735,2.867a22.058,22.058,0,0,0-3.234-.027" transform="translate(-20.243 -52.319)" fill="#100e0c"/>
    <path id="Trazado_731076" data-name="Trazado 731076" d="M104.147,193.281c.628,2.636-.544,3.308-3.064,3.28-2.265-.025-3.17-.478-3.16-2.98.009-2.484.633-3.393,3.223-3.283,2.18.093,3.644.324,3,2.982" transform="translate(-26.917 -52.306)" fill="#1a1b1c"/>
    <path id="Trazado_731077" data-name="Trazado 731077" d="M101.012,231.2c3.009-.659,3.2,1,3.3,3.264.114,2.6-1.08,2.84-3.241,2.952-2.766.144-3.111-1.089-3.138-3.418-.029-2.493.843-3.383,3.083-2.8" transform="translate(-26.918 -63.504)" fill="#151c0f"/>
    <path id="Trazado_731078" data-name="Trazado 731078" d="M71.462,234.346c.634,2.79-.864,2.93-2.974,3.067-2.864.184-2.888-1.29-3-3.45-.136-2.581,1.038-2.841,3.177-2.93,2.776-.115,3.366,1.111,2.8,3.313" transform="translate(-17.998 -63.503)" fill="#151c0f"/>
    <path id="Trazado_731079" data-name="Trazado 731079" d="M87.676,234.391c.553,2.463-.611,2.934-2.89,3.03-2.75.117-3-1.087-3.044-3.357-.048-2.363.665-3.01,3.009-3.049,2.666-.044,3.449.957,2.925,3.376" transform="translate(-22.468 -63.5)" fill="#151c0f"/>
    <path id="Trazado_731080" data-name="Trazado 731080" d="M120.481,234.422c.658,2.827-.967,2.82-3,2.985-2.976.241-2.78-1.428-2.924-3.493-.183-2.626,1.108-2.766,3.191-2.884,2.9-.164,3.195,1.293,2.736,3.392" transform="translate(-31.483 -63.501)" fill="#151c0f"/>
    <path id="Trazado_731081" data-name="Trazado 731081" d="M171.24,96.94c-3.412-.3-6.678-1.434-8.982-4.345-.8-1.009-3.1-2.232-1.294-3.6,1.471-1.114,3.4-3.679,5.9-.371,2.435,3.221,7.147,3.048,9.722-.241,2.462-3.147,4.212-.344,5.66.582,1.816,1.162-.341,2.418-1.052,3.338a12.407,12.407,0,0,1-9.955,4.639" transform="translate(-44.059 -23.894)" fill="#100e0c"/>
    <path id="Trazado_731082" data-name="Trazado 731082" d="M161.551,70.594c-.3,1.853-1.043,3.107-2.962,3.178a2.647,2.647,0,0,1-3.042-2.789,2.675,2.675,0,0,1,2.795-3.051c1.94-.1,2.708,1.18,3.209,2.661" transform="translate(-42.755 -18.672)" fill="#151c0f"/>
    <path id="Trazado_731083" data-name="Trazado 731083" d="M190.446,73.774a2.644,2.644,0,0,1-2.347-2.94,2.772,2.772,0,0,1,3.275-2.9,2.7,2.7,0,0,1,2.673,3.123c-.109,1.7-1.173,2.807-3.6,2.717" transform="translate(-51.703 -18.67)" fill="#1a1b1c"/>
    <path id="Trazado_731084" data-name="Trazado 731084" d="M48.811,125.8c-1.97,1.894-3.986,3.745-5.9,5.7-1.616,1.65-2.438.055-3.114-.84-1.837-2.431-2.838-.65-4.222.506-1.735,1.448-1.552,2.406,0,3.973,6.058,6.109,6,6.175,12.1.078.68-.68,1.244-1.476,2.217-2.647,1.046,3.354.49,6.176.553,8.939.031,1.36-1.064,1.371-2.061,1.371-4.461,0-8.922-.044-13.381.025-1.523.024-2.159-.447-2.134-2.051.073-4.58.1-9.163-.011-13.741-.047-1.917.872-2.13,2.423-2.106,4.33.067,8.662.023,12.993.023l.536.774" transform="translate(-9.031 -34.36)" fill="#e66659"/>
    <path id="Trazado_731085" data-name="Trazado 731085" d="M50.118,181.479c.783,10.361.783,10.361-8.577,10.361-8.788,0-8.856,0-8.749-8.718.036-2.959-1.381-6.883.669-8.605,1.725-1.45,5.506-.479,8.377-.534,2.125-.041,4.251-.008,6.377-.008l.8,1.081a35.78,35.78,0,0,0-4.338,3.546c-1.92,2.12-3.512,3.554-5.8.368-1.368-1.91-2.317.041-3.027.869-.756.883-3.014,1.478-1.242,3.317,1.922,2,3.958,3.885,5.863,5.9,1.191,1.258,1.852.342,2.618-.438,2.17-2.207,4.343-4.412,7.026-7.137" transform="translate(-8.892 -47.75)" fill="#e66659"/>
  </g>
</svg>
