<svg xmlns="http://www.w3.org/2000/svg" xmlns:xlink="http://www.w3.org/1999/xlink" width="122" height="122" viewBox="0 0 122 122">
  <defs>
    <clipPath id="clip-path">
      <rect id="Rectángulo_346575" data-name="Rectángulo 346575" width="101.472" height="103.296" fill="none"/>
    </clipPath>
  </defs>
  <g id="Grupo_991491" data-name="Grupo 991491" transform="translate(6777 11025)">
    <circle id="Elipse_5909" data-name="Elipse 5909" cx="61" cy="61" r="61" transform="translate(-6777 -11025)" fill="#06d1d1"/>
    <g id="Grupo_988726" data-name="Grupo 988726" transform="translate(-6766.736 -11015.648)">
      <g id="Grupo_988725" data-name="Grupo 988725" clip-path="url(#clip-path)">
        <path id="Trazado_729779" data-name="Trazado 729779" d="M183.968,90.112c0-2.692.058-5.386-.02-8.076a3.871,3.871,0,0,1,2.413-4c.791-.367,1.563-.772,2.343-1.162,2.423-1.213,3.109-2.913,1.77-5.379a11.624,11.624,0,0,1-1.254-6.518,5.245,5.245,0,0,1,10.469-.018,11.205,11.205,0,0,1-1.145,6.323c-1.492,2.7-.838,4.345,1.847,5.69.909.456,1.828.9,2.719,1.385a3.265,3.265,0,0,1,1.831,3c.01,5.821-.01,11.642.017,17.463.007,1.574-.959,2.543-1.986,3.471a4.792,4.792,0,0,0-1.674,3.351c-.92,9.546-2.006,19.076-2.942,28.621-.189,1.934-.564,2.913-2.913,2.785-4.524-.248-4.49-.075-4.956-4.517-.962-9.177-2.014-18.345-2.925-27.526a4.2,4.2,0,0,0-1.782-2.832,5.193,5.193,0,0,1-1.843-4.43c.119-2.541.03-5.092.03-7.638" transform="translate(-103.487 -33.789)" fill="#349f64"/>
        <path id="Trazado_729780" data-name="Trazado 729780" d="M59.792,39.694C53.2,33.112,46.532,26.6,40.053,19.9c-1.656-1.711-2.465-1.459-3.986.086C26.821,29.375,17.447,38.638,8.175,48c-1.169,1.18-1.836,1.335-3.074.051-3.659-3.793-3.719-3.735.072-7.526q15.675-15.675,31.32-31.38c1.3-1.311,1.981-1.238,3.231.037C46.249,15.834,52.9,22.366,59.438,29c1.037,1.052,1.609,1.186,2.72.053q9.1-9.276,18.376-18.378c1.1-1.085,1.162-1.747-.026-2.712-1.275-1.035-2.437-2.208-3.649-3.321l.316-.557c4.692,0,9.385.007,14.078-.008.73,0,1.044.255,1.041,1.015-.019,4.7-.009,9.394-.491,14.358-1.286-1.34-2.594-2.659-3.849-4.028-.614-.669-1.06-.768-1.763-.056Q75.375,26.319,64.509,37.219a6.127,6.127,0,0,0-4.717,2.475" transform="translate(-1.318 -2.295)" fill="#2a59a5"/>
        <path id="Trazado_729781" data-name="Trazado 729781" d="M125.959,82.328a6.127,6.127,0,0,1,4.717-2.475c5.065.651,5.8,4.976,4.639,9.593a16.737,16.737,0,0,1-1,2.175c-1,2.389-.433,3.946,1.8,5.063.845.423,1.683.86,2.534,1.269a3.812,3.812,0,0,1,2.345,3.818q-.081,6.33,0,12.662a4.1,4.1,0,0,1-1.455,3.69c-1.833,1.334-2.233,3.241-2.476,5.292-.9,7.575-1.848,15.145-2.733,22.722-.168,1.433-.592,2.233-2.272,2.021-1.575-.2-3.5.429-4.7-.281-1.313-.78-.766-2.919-.975-4.461q-1.46-10.8-2.743-21.62a4.041,4.041,0,0,0-1.542-2.96,5.7,5.7,0,0,1-2.151-5.171c.142-3.851.106-7.714.014-11.569a4.042,4.042,0,0,1,2.655-4.282c.669-.279,1.3-.639,1.955-.964,2.69-1.345,3.276-2.944,1.832-5.716a10.133,10.133,0,0,1-.448-8.806" transform="translate(-67.486 -44.929)" fill="#349f64"/>
        <path id="Trazado_729782" data-name="Trazado 729782" d="M55.917,127.213c0-.218,0-.437,0-.655.15-7.279-1.237-7.113,5.932-10.327,1.3-.583,1.648-2.9.564-4.8a11.125,11.125,0,0,1-1.241-6.521,5.245,5.245,0,0,1,10.469.07,11.31,11.31,0,0,1-1.171,6.319c-1.488,2.713-.838,4.3,1.913,5.673.845.422,1.695.835,2.532,1.274a3.49,3.49,0,0,1,1.989,3.36c-.019,3.784-.046,7.569.01,11.353.03,2.006-1.224,3.026-2.726,3.857a4.717,4.717,0,0,0-2.752,4.416c-.218,5.442-.9,10.864-1.282,16.3-.112,1.6-.69,2-2.256,1.979-5.128-.077-5.074-.011-5.45-5.319-.345-4.858-.84-9.705-1.237-14.56-.057-.7-.133-1.353-.839-1.625-4.53-1.745-4.867-5.435-4.46-9.491.043-.433.006-.873.006-1.309" transform="translate(-31.386 -56.282)" fill="#349f64"/>
        <path id="Trazado_729783" data-name="Trazado 729783" d="M.052,148.665v-2.4c0-4.4,0-4.4,4.172-6.176,1.252-.534,1.689-2.63.627-4.541a11.507,11.507,0,0,1-1.3-6.514,5.172,5.172,0,0,1,5.263-5.014,5.151,5.151,0,0,1,5.226,5.049,11.466,11.466,0,0,1-1.225,6.312c-1.414,2.612-.73,4.133,2.046,5.182a3.673,3.673,0,0,1,2.685,3.777c-.028,2.84-.048,5.681.009,8.52a3.549,3.549,0,0,1-2.146,3.7,2.359,2.359,0,0,0-1.492,2.345c-.363,3.982-.877,7.949-1.28,11.928-.149,1.472-.524,2.248-2.335,2.2-4.857-.133-4.884-.021-5.531-4.858C4.345,165,4,161.819,3.622,158.643c-.075-.635.077-1.407-.708-1.683-2.789-.982-3.048-3.2-2.872-5.674.062-.869.01-1.747.01-2.621" transform="translate(0 -69.777)" fill="#349f64"/>
        <path id="Trazado_729784" data-name="Trazado 729784" d="M126.883,13.993c-1.335.233-1.626-.416-1.655-1.6-.086-3.489-.132-3.557-3.521-3.58-1.361-.01-1.74-.471-1.736-1.776,0-1.288.343-1.924,1.725-1.766.647.074,1.315-.041,1.964.023,1.259.123,1.715-.435,1.6-1.645-.06-.65.052-1.317-.022-1.964C125.075.251,125.817.03,127.049,0c1.365-.031,1.877.472,1.7,1.779a1.455,1.455,0,0,0,0,.218c.058,3.238.063,3.373,3.217,3.235,1.948-.085,2.156.819,2.042,2.34-.059.8-.305,1.236-1.155,1.2-.436-.017-.874,0-1.311,0-2.781.011-2.792.011-2.788,2.835,0,1.33.278,2.835-1.871,2.379" transform="translate(-67.501 0)" fill="#ffd98a"/>
        <path id="Trazado_729785" data-name="Trazado 729785" d="M.081,26.794c-.182-1.086.287-1.655,1.562-1.543.723.063,1.459-.039,2.183.02,1.145.093,1.6-.393,1.506-1.521-.054-.651.045-1.315-.019-1.965C5.187,20.511,5.6,19.98,7,19.972c1.443-.008,1.865.46,1.856,1.882-.02,3.285.052,3.351,3.5,3.376,1.344.009,1.762.437,1.75,1.761-.012,1.27-.313,1.941-1.712,1.78-.647-.075-1.315.04-1.964-.023-1.243-.12-1.733.4-1.616,1.63.062.649-.052,1.317.022,1.964C9,33.757,8.29,34.02,7.038,34.04,5.7,34.061,5.3,33.6,5.292,32.276c-.024-3.43-.087-3.429-3.391-3.519-1.8-.049-1.85-.1-1.82-1.964" transform="translate(-0.024 -11.237)" fill="#ffd98a"/>
        <path id="Trazado_729786" data-name="Trazado 729786" d="M81.974,62.993c.2,1.228-.209,1.854-1.512,1.735-.723-.066-1.459.036-2.183-.02-1.118-.086-1.629.343-1.528,1.5.057.65-.041,1.315.018,1.965.115,1.247-.238,1.834-1.662,1.836s-2.049-.415-1.85-1.861c.039-.286-.038-.59.012-.872.387-2.172-.581-2.781-2.648-2.622-.845.065-2.341.863-2.589-.987-.21-1.567-.027-2.586,2.076-2.5,3.54.15,3.154.484,3.136-3.076-.007-1.3.016-2.171,1.779-2.177,1.808-.007,1.757.942,1.75,2.2-.016,3.061.015,3.1,3.167,3.085,1.318-.006,2.418.042,2.033,1.789" transform="translate(-38.241 -31.461)" fill="#ffd98a"/>
      </g>
    </g>
  </g>
</svg>
