<svg xmlns="http://www.w3.org/2000/svg" xmlns:xlink="http://www.w3.org/1999/xlink" width="122" height="129.279" viewBox="0 0 122 129.279">
  <defs>
    <clipPath id="clip-path">
      <rect id="Rectángulo_346572" data-name="Rectángulo 346572" width="122" height="122.053" fill="none"/>
    </clipPath>
  </defs>
  <g id="Grupo_991488" data-name="Grupo 991488" transform="translate(-743 -685.721)">
    <circle id="Elipse_5889" data-name="Elipse 5889" cx="61" cy="61" r="61" transform="translate(743 693)" fill="#06d1d1"/>
    <g id="Grupo_988720" data-name="Grupo 988720" transform="translate(743 685.721)">
      <g id="Grupo_988719" data-name="Grupo 988719" clip-path="url(#clip-path)">
        <path id="Trazado_729723" data-name="Trazado 729723" d="M92.62,101.084c5.332-5.327,10.214-10.223,15.125-15.09.624-.618.591-1.047-.014-1.616-.582-.547-1.091-1.172-1.881-2.036,3.794-1.029,7.271-1.936,10.723-2.93,1.266-.364,1.525.128,1.243,1.191-.925,3.5-1.886,6.987-2.828,10.463-.3-.032-.5.008-.588-.071-2.452-2.206-2.45-2.207-4.846.187l-13.312,13.3c5.042,0,9.429.039,13.815-.022,1.424-.02,1.038-1.26,1.045-2.082.011-1.286.34-1.679,1.578-.941,3.114,1.854,6.266,3.644,9.736,5.652-3.524,2.041-6.764,3.944-10.033,5.8-1.467.832-1.3-.425-1.233-1.153.168-1.7-.607-2.086-2.161-2.08q-18.842.068-37.685,0c-1.533-.006-2.365.336-2.175,2.049.163,1.468-.357,1.756-1.669.966-3.036-1.829-6.129-3.563-9.6-5.565,3.575-2.071,6.845-4.031,10.183-5.867,1.3-.714,1.133.529,1.066,1.147-.2,1.858.725,2.189,2.342,2.152,3.945-.089,7.893-.029,12.518-.029-1.544-1.572-2.661-2.723-3.793-3.857Q75.543,96,70.892,91.356c-2.549-2.549-2.549-2.548-5.533-.019-1.013-3.756-2-7.359-2.946-10.974-.2-.782.01-1.308,1.022-1.028,3.548.981,7.1,1.937,10.725,2.921-2.119,3.232-2.118,3.23.629,5.981,4.13,4.137,8.258,8.276,12.859,12.886V87.777c0-2.231-.1-4.468.03-6.692.1-1.8-.248-2.893-2.361-2.517a8.023,8.023,0,0,1-1.572-.1l6.37-11.079,6.367,10.956c-3.862.48-3.862.48-3.862,4.2v18.538" transform="translate(-29.153 -33.95)" fill="#5775ad"/>
        <path id="Trazado_729724" data-name="Trazado 729724" d="M100.317,185.663c-5.85-2.825-8.355-7.014-7.308-11.84a9.951,9.951,0,0,1,19.449-.175c1.167,4.848-1.265,9.012-6.994,11.926,1.048.807,2.364.712,3.512,1.133,7.777,2.854,12.182,8.427,13.557,16.535.321,1.889-.311,2.378-2.2,2.364-11.653-.085-23.307-.126-34.959.023-2.563.032-2.632-1.04-2.307-2.938a19.95,19.95,0,0,1,15.452-16.5c.472-.111.933-.273,1.8-.529" transform="translate(-41.781 -83.576)" fill="#5473ac"/>
        <path id="Trazado_729725" data-name="Trazado 729725" d="M107.964,12.206c-3.586-2.528-4.627-4.716-3.675-7.73a6.25,6.25,0,0,1,12.029.155c.872,2.92-.271,5.255-3.824,7.6,1.4.626,2.751,1.13,4.008,1.817,3.409,1.862,5.23,4.9,6.1,8.585.361,1.534-.142,2.218-1.885,2.2-6.924-.082-13.85-.105-20.773.007-2.2.036-2.3-1.028-1.889-2.6a12.61,12.61,0,0,1,7.933-9.129c.609-.237,1.219-.47,1.825-.715.066-.026.1-.12.155-.183" transform="translate(-49.302 0)" fill="#ffe8ce"/>
        <path id="Trazado_729726" data-name="Trazado 729726" d="M184.265,43.284c-3.724-2.379-4.875-4.743-4-7.744a6.222,6.222,0,0,1,11.947-.155c.95,3.047-.2,5.469-3.726,7.785.782.832,1.926.8,2.859,1.246a12.68,12.68,0,0,1,7.2,9.2c.335,1.488.021,2.229-1.8,2.2-6.936-.1-13.875-.124-20.81.008-2.2.042-2.288-.952-1.889-2.545a12.517,12.517,0,0,1,7.912-9.164c.679-.265,1.373-.5,2.313-.832" transform="translate(-87.587 -15.608)" fill="#ffdc3d"/>
        <path id="Trazado_729727" data-name="Trazado 729727" d="M14.333,123.288c5.2,1.427,8.681,4.27,10.06,9.3.812,2.962.7,3.132-2.25,3.134-6.607,0-13.216-.093-19.819.052-2.354.052-2.616-.845-2.1-2.767a12.646,12.646,0,0,1,8.064-9.04c.6-.233,1.226-.42,2.209-.754-1.7-.946-3.038-1.831-3.733-3.388a6.111,6.111,0,0,1-.259-4.8,6.23,6.23,0,0,1,6.152-4.1,6.075,6.075,0,0,1,5.734,4.624c.841,2.973-.313,5.305-4.054,7.736" transform="translate(0 -55.883)" fill="#ffdc3d"/>
        <path id="Trazado_729728" data-name="Trazado 729728" d="M36.339,43.295c4.213,1.275,7.517,3.287,9.251,7.221.166.378.355.747.5,1.133,1.34,3.614,1,4.126-2.744,4.126-6.358,0-12.719-.092-19.075.048-2.407.053-2.633-.949-2.086-2.835a12.732,12.732,0,0,1,7.892-8.906c.61-.236,1.218-.475,1.823-.723.062-.025.094-.123.139-.187-3.666-2.55-4.679-4.915-3.532-8.249a6.212,6.212,0,0,1,6.006-3.941,6.038,6.038,0,0,1,5.748,4.266c.957,3.279-.1,5.614-3.92,8.047" transform="translate(-11.052 -15.608)" fill="#f29e9c"/>
        <path id="Trazado_729729" data-name="Trazado 729729" d="M206.157,123.231c-3.75-2.458-4.785-4.716-3.863-7.973a6.038,6.038,0,0,1,5.947-4.327,6.1,6.1,0,0,1,5.864,4.12c1.038,3.312,0,5.664-3.689,8.119,1.253.551,2.442,1.025,3.588,1.587,3.6,1.767,5.518,4.841,6.487,8.594.4,1.542.1,2.44-1.879,2.412q-10.4-.148-20.809,0c-2.032.03-2.227-.962-1.839-2.443,1.135-4.32,3.583-7.562,7.856-9.225.682-.265,1.372-.508,2.338-.863" transform="translate(-98.643 -55.886)" fill="#f29e9c"/>
      </g>
    </g>
  </g>
</svg>
