<svg id="Grupo_991454" data-name="Grupo 991454" xmlns="http://www.w3.org/2000/svg" xmlns:xlink="http://www.w3.org/1999/xlink" width="180" height="179.95" viewBox="0 0 180 179.95">
  <defs>
    <clipPath id="clip-path">
      <rect id="Rectángulo_347606" data-name="Rectángulo 347606" width="180" height="179.951" fill="none"/>
    </clipPath>
  </defs>
  <g id="Grupo_991453" data-name="Grupo 991453" clip-path="url(#clip-path)">
    <path id="Trazado_730998" data-name="Trazado 730998" d="M37.452,65.64c-4.025-4.023-7.875-7.871-11.722-11.72C18.666,46.855,11.561,39.831,4.555,32.711c-6.073-6.172-6.057-14.1-.048-20.275C7.293,9.572,10.088,6.712,13,3.973a13.56,13.56,0,0,1,19.19.011c3.147,3,6.073,6.233,9.887,10.175,0-3.956.091-6.87-.024-9.777C41.93,1.419,43.07.04,46.175.043q64.811.063,129.621,0C178.854.04,180,1.3,180,4.313q-.062,80.358-.052,160.717a14.745,14.745,0,0,1-15.027,14.889q-59.94.063-119.881,0A14.8,14.8,0,0,1,30.1,164.935c-.069-7.866,0-15.734-.036-23.6-.005-1.033.545-2.345-.876-2.962-1.468-.637-1.987.751-2.679,1.471-5.832,6.076-5.64,5.152-11-.216-2.558-2.562-5.068-5.179-7.706-7.656-2.211-2.075-2.128-3.834-.038-6.021,1.453-1.521,4.693-2.746,3.728-4.927-1.021-2.313-4.236-.881-6.465-.987C.6,119.828.121,119.485.109,115,.1,110,.164,105,.083,100.011c-.046-2.856,1.2-4.148,4.047-4.026,1.745.075,3.5.026,5.244.008.837-.009,1.732.226,2.279-.8.592-1.1-.263-1.571-.8-2.2-5.521-6.459-5.519-6.458.58-12.558,2.206-2.208,4.474-4.36,6.6-6.643,2.015-2.165,3.789-2.338,6.013-.172,1.522,1.483,2.825,4.654,4.925,3.822,2.45-.971.95-4.193,1.058-6.4.219-4.44.081-4.447,7.428-5.4M48.071,76.379c0,22.2.047,43.681-.062,65.156C48,144.01,49.1,144,50.912,143.99c11.239-.055,22.479.009,33.717-.054,2.708-.015,6.264,1.188,7.875-.538,1.335-1.43.539-4.946.5-7.535-.039-2.934,1.393-4,4.169-3.912,2.87.093,5.75-.09,8.615.06,1.851.1,2.364-.563,2.258-2.328-.288-4.812,1.635-10.287-4.227-13.326a.578.578,0,0,1-.217-.3c-1.289-3.282-4.22-2.245-6.361-1.928-2.414.357-.87,2.812-1.164,4.3a16.9,16.9,0,0,0-.041,3.737c.086,2.682-1.207,3.836-3.863,3.824-9.367-.042-18.733-.056-28.1.007-2.852.019-4.071-1.188-4.042-4.041.071-7.242.09-14.487-.009-21.729-.041-3.018,1.153-4.293,4.208-4.264,9.241.088,18.483.073,27.723.007,2.817-.02,4.2,1.1,4.088,3.989-.075,1.995-.052,4,.005,5.993.022.763-.424,2.08.949,1.962,2.353-.2,4.811,1.073,6.8-2.052a8.463,8.463,0,0,1,14.448.022c1.992,3.123,4.557,2.239,6.787,1.915,2.1-.306.67-2.7.926-4.13A17.19,17.19,0,0,0,126,99.936c-.133-2.906,1.306-3.982,4.106-3.962,9.241.066,18.483.08,27.724-.007,3.074-.028,4.226,1.291,4.184,4.29-.1,7.117-.118,14.238.007,21.354.056,3.241-1.27,4.454-4.463,4.4-7.741-.118-15.485-.078-23.228-.028-8.729.056-8.4.45-8.37-8.342,0-1.2.849-3.368-.808-3.464-2.051-.119-4.738-1.638-6.331,1.269a8.07,8.07,0,0,1-3.418,3.37,2.167,2.167,0,0,0-1.412,2.274c.082,3,.091,6,0,8.99-.045,1.462.442,2.04,1.91,1.9.991-.092,2-.017,3-.017,9.783,0,9.848,0,10.056,9.543.043,1.941.522,2.532,2.495,2.494,6.367-.124,12.738-.049,19.106-.045,5.091,0,5.422.322,5.429,5.227.008,5,.039,9.992-.014,14.986a9.5,9.5,0,0,0,1.992,6.269,8.564,8.564,0,0,0,9.682,3c4.259-1.431,6.322-4.607,6.322-9.878q.01-76.991.082-153.982c.006-3.046-.905-3.58-3.706-3.573-37.464.091-74.93.046-112.394.088-3.2,0-7.581-1.426-9.288.6-1.623,1.922-.568,6.157-.568,9.374,0,1.787-.361,3.531,1.308,5.147,7.083,6.862,13.988,13.91,20.976,20.874.583.581,1.2,1.8,2.069,1.242,4.3-2.768,8.984-.648,13.44-1.26,2.243-.308,4.154.466,4.081,3.093C89.9,47.533,88.128,48.1,86,48.054c-3.025-.07-6.051-.017-8.934-.017,1.711,5.711,5.612,6.586,10.514,6.062a95.628,95.628,0,0,1,10.109-.068c6.244,0,12.488.018,18.732-.009,2.055-.008,3.494.826,3.533,2.948s-1.342,3.075-3.415,3.058c-1-.008-2,0-3,0H83.232c.624,5.994.624,5.994,6.047,5.994,8.993,0,17.983.024,26.975-.019,1.844-.009,3.207.566,3.682,2.423a2.75,2.75,0,0,1-1.777,3.33,7.774,7.774,0,0,1-2.949.253c-9.593.016-19.185.009-29.073.009.856,3.19,1.777,6.025,2.346,8.928.457,2.33,1.414,3.162,3.923,3.13q17.979-.229,35.966-.005c2.79.034,3.742-.505,3.716-3.569-.163-19.231-.022-38.464-.136-57.7-.021-3.589,1.282-4.891,4.839-4.8,6.989.177,13.987.12,20.979.021,3.031-.043,4.256,1.186,4.245,4.229q-.1,25.85-.007,51.7c.007,2.827-1.129,4.131-4.006,4.078-4.37-.082-8.742-.021-13.112-.021-6.85,0-6.85,0-6.888,7-.024,4.5-.487,4.986-4.917,4.991-11.365.011-22.734-.209-34.092.075-8.178.205-16.139-.468-23.894-3.141-8.955-3.086-18.909-3.5-27.028-10.557m104.686,97.56c-1.889-3.378-2.917-6.361-2.8-9.716.141-3.989-.049-7.989.07-11.979.053-1.774-.453-2.38-2.283-2.323-4.114.128-8.235.04-12.353.04q-47.923,0-95.844-.032c-2.187,0-3.815-.131-3.536,2.971.311,3.467.061,6.982.073,10.477.027,7.053,3.509,10.55,10.567,10.558q22.463.022,44.926,0h61.181M155.986,48.32c0-6.862-.207-13.733.091-20.582.142-3.282-.949-3.968-3.937-3.745A81.556,81.556,0,0,1,141.292,24c-2.5-.147-3.391.407-3.36,3.166q.233,20.958,0,41.919c-.027,2.6.862,3.078,3.165,2.976a92.578,92.578,0,0,1,11.594.03c3.024.248,3.42-.955,3.351-3.563-.176-6.733-.059-13.473-.059-20.21M42.078,78.073c0-.749-.016-1.5,0-2.247.054-2.109.483-3.961-3.007-3.962s-3.046,1.864-3,3.965c.02.874-.041,1.751.01,2.622.273,4.623-4.1,3.893-6.4,5.544-1.737,1.25-3.168.565-4.625-.794-4.133-3.851-4.175-3.8-8.229.249A8.184,8.184,0,0,1,15.766,84.5c-2.552,1.746-2.3,3.5.088,5.063,4.3,2.82,2.083,5.941.883,9.374-1.146,3.277-3.441,3.36-5.933,3.006-3.95-.559-4.987.939-4.8,4.8.334,6.825.088,6.977,6.776,7.2,4.366.145,3.646,4.111,5.239,6.319,1.207,1.672.752,3.138-.641,4.655-3.911,4.261-3.856,4.312.323,8.491a9.584,9.584,0,0,1,1.05,1.067c1.481,2.043,2.723,2.21,4.6.159,3.374-3.678,7.62-3.659,11.542-.369a3.462,3.462,0,0,1,1.187,3c-.046,1.5.1,3.008-.037,4.493-.183,1.9.7,2.153,2.373,2.283,2.834.221,4.134-.545,3.7-3.611a24.8,24.8,0,0,1-.019-5.237c.152-2.127-.184-3.066-2.822-3.418-11.989-1.6-20.789-11.18-21.178-22.518-.422-12.267,7.2-22.26,19.472-24.6,3.9-.744,5.238-2.136,4.507-5.824a4.019,4.019,0,0,1-.005-.748M78.2,119.979c3.244,0,6.491-.072,9.731.03,1.645.051,2.163-.535,2.135-2.152-.084-4.616-.094-9.234,0-13.849.036-1.75-.757-2.043-2.25-2.031-6.488.052-12.978.076-19.464-.014-1.8-.025-2.37.565-2.326,2.346.106,4.24.2,8.493-.03,12.723-.145,2.644.937,3.114,3.222,2.988,2.986-.164,5.986-.04,8.981-.041m65.941,0c3.246,0,6.494-.072,9.737.031,1.637.052,2.169-.509,2.138-2.139-.088-4.619-.1-9.241,0-13.858.038-1.746-.732-2.049-2.237-2.036-6.492.055-12.986.079-19.477-.013-1.8-.025-2.382.539-2.328,2.334.113,3.867.231,7.753-.029,11.607-.21,3.111.431,4.6,3.962,4.146a64.921,64.921,0,0,1,8.232-.071M73.549,54.387,54.425,73.505a20.992,20.992,0,0,0,12.186,4.487c2.97.169,4.408-3.573,6.627-5.452,1.418-1.2,2.643-2.631,3.987-3.922a2.429,2.429,0,0,0,.919-2.609c-1.1-4.044-1.842-8.225-4.6-11.622M31.031,27.242A44.594,44.594,0,0,0,27.44,31.13c-.721.967.519,1.511,1.068,2.063,8.963,9.007,18.014,17.928,26.9,27.013,2.157,2.205,2.92.237,4.037-.838,1.156-1.114,2.919-1.929.757-4.042-9.091-8.877-18.013-17.928-27.009-26.9-.5-.5-.9-1.234-2.16-1.18M24.087,107.71a17.92,17.92,0,0,0,13.794,17.66c4.345,1.087,4.358,1,4.251-3.316-.04-1.576-.463-2.055-2.037-2.238a10.48,10.48,0,0,1-5.68-2.605c-3.578-3.132-5.1-7.1-4.073-11.718a11.321,11.321,0,0,1,9.581-9.278c3.995-.675,2.039-3.431,2-5.09-.052-2.15-2.051-.972-3.142-.744A17.991,17.991,0,0,0,24.087,107.71M6.1,22.887c.151,1.8.661,4.16,2.553,5.135,1.686.869,2.547-1.452,3.6-2.475,4.733-4.58,9.353-9.278,14.006-13.94C29.1,8.766,28.875,7.886,24.92,6.557a7.69,7.69,0,0,0-2.534-.465c-4.674.1-16.252,11.816-16.288,16.8m33.227-3.312a5.4,5.4,0,0,0-2.875,2.4c-.919,1.21.5,1.735,1.1,2.344C46.42,33.241,55.345,42.11,64.2,51.047c1.239,1.251,2.024,1.8,3.553.238,1.441-1.47,1.216-2.238-.121-3.557-8.949-8.843-17.82-17.766-26.719-26.659-.519-.518-1.069-1.006-1.588-1.495M21.886,36.146c-.455.527-1.234,1.327-1.89,2.217-.935,1.268.4,1.768,1,2.377,8.957,9.01,17.97,17.966,26.908,27,1.218,1.231,1.958,1.414,3.282.1,1.358-1.353,1.474-2.136.033-3.555-9.048-8.918-18-17.938-26.993-26.909a2.647,2.647,0,0,0-2.342-1.22m88.79,107.816c3.235,0,6.485-.2,9.7.061,2.647.212,2.658-1.119,2.691-3.084.035-2.061-.193-3.128-2.743-3.037-5.965.211-11.944.157-17.913.022-2.328-.053-3.493.155-3.507,3.067-.016,3,1.317,3.116,3.562,3,2.73-.138,5.473-.032,8.21-.033M35,14.636c-.6-.334-1.029-.6-1.478-.81-.936-.442-1.341.379-1.825.86q-8.451,8.408-16.857,16.859c-.637.64-1.784,1.233-.606,2.394s1.763-.027,2.391-.651q8.46-8.4,16.865-16.852c.413-.415.758-.9,1.51-1.8m7.094,93.629a10.381,10.381,0,0,0-.029-2.235c-.3-1.311.987-3.437-.88-3.8-1.645-.317-3.242,1.061-4.183,2.666a5.649,5.649,0,0,0,.815,7.2c.925,1.024,2.253,2.051,3.557,1.658,1.525-.46.485-2.138.694-3.258a12.5,12.5,0,0,0,.026-2.237M82.03,82.25c.118-.409.276-.655.229-.853-.283-1.208-.607-2.408-.928-3.607-1.024-3.825-1.066-3.864-3.767-1.079-1.007,1.039-2.984,1.89-2.632,3.339.376,1.546,2.607.946,3.938,1.563a13.356,13.356,0,0,0,3.161.637m32.053,28.263c-.553-1.281-1.326-2.671-3.285-2.484a2.957,2.957,0,0,0,.269,5.905c1.875-.019,2.8-1.255,3.016-3.422" transform="translate(0 0)" fill="#060708"/>
    <path id="Trazado_730999" data-name="Trazado 730999" d="M64,78.25c8.118,7.053,18.073,7.471,27.028,10.557,7.755,2.673,15.715,3.346,23.894,3.141,11.357-.284,22.727-.064,34.091-.075,4.43,0,4.893-.495,4.918-4.991.038-7,.038-7,6.886-7,4.371,0,8.743-.061,13.113.021,2.877.053,4.013-1.251,4.006-4.078q-.071-25.851.007-51.7c.011-3.042-1.214-4.272-4.245-4.229-6.992.1-13.989.156-20.978-.021-3.558-.09-4.86,1.213-4.839,4.8.112,19.232-.027,38.465.135,57.7.026,3.065-.927,3.6-3.717,3.569q-17.98-.223-35.965.005c-2.508.032-3.466-.8-3.923-3.13-.568-2.9-1.49-5.738-2.346-8.927,9.889,0,19.481.006,29.074-.009a7.778,7.778,0,0,0,2.949-.254,2.748,2.748,0,0,0,1.776-3.33c-.474-1.857-1.836-2.432-3.681-2.424-8.991.043-17.983.019-26.974.019-5.425,0-5.425,0-6.049-5.993h30.313c1,0,2-.008,3,0,2.073.016,3.455-.939,3.416-3.058s-1.479-2.956-3.534-2.947c-6.244.026-12.488.009-18.732.008a95.629,95.629,0,0,0-10.109.068c-4.9.524-8.8-.351-10.514-6.062,2.883,0,5.91-.052,8.934.018,2.127.049,3.9-.522,3.968-2.891.073-2.627-1.838-3.4-4.082-3.093-4.455.612-9.144-1.508-13.44,1.26-.866.559-1.486-.661-2.07-1.242C79.321,37,72.417,29.948,65.332,23.086c-1.668-1.616-1.307-3.36-1.307-5.147,0-3.218-1.055-7.452.567-9.374,1.708-2.023,6.085-.593,9.288-.6,37.465-.043,74.93,0,112.394-.088,2.8-.007,3.712.527,3.705,3.573q-.162,76.992-.082,153.983c0,5.269-2.063,8.446-6.322,9.877a8.562,8.562,0,0,1-9.682-3,9.495,9.495,0,0,1-1.992-6.269c.052-4.994.022-9.99.014-14.986-.007-4.905-.339-5.223-5.43-5.227-6.369,0-12.739-.078-19.106.045-1.974.038-2.452-.552-2.495-2.494-.21-9.544-.274-9.542-10.057-9.543-1,0-2-.075-3,.017-1.468.136-1.955-.441-1.911-1.9.092-2.994.082-5.995,0-8.99a2.165,2.165,0,0,1,1.411-2.274,8.082,8.082,0,0,0,3.419-3.371c1.592-2.907,4.279-1.388,6.33-1.269,1.657.1.812,2.269.808,3.464-.028,8.792-.36,8.4,8.37,8.342,7.743-.049,15.487-.09,23.227.028,3.192.049,4.52-1.164,4.463-4.4-.124-7.116-.106-14.237-.007-21.355.042-3-1.111-4.319-4.184-4.289-9.24.086-18.483.072-27.723.006-2.8-.02-4.241,1.056-4.107,3.962a17.1,17.1,0,0,1-.034,3.738c-.255,1.433,1.174,3.825-.926,4.13-2.229.324-4.794,1.207-6.787-1.915a8.462,8.462,0,0,0-14.447-.022c-1.992,3.124-4.45,1.85-6.8,2.052-1.375.117-.928-1.2-.949-1.963-.058-2-.081-4-.005-5.993.109-2.889-1.27-4.008-4.088-3.988-9.241.065-18.483.08-27.724-.007-3.057-.029-4.25,1.246-4.208,4.264.1,7.242.079,14.486.008,21.729-.028,2.853,1.192,4.061,4.043,4.041,9.365-.064,18.732-.049,28.1-.007,2.656.012,3.95-1.141,3.863-3.824a16.8,16.8,0,0,1,.042-3.737c.294-1.491-1.25-3.946,1.164-4.3,2.139-.317,5.072-1.354,6.36,1.928a.582.582,0,0,0,.217.3c5.863,3.039,3.939,8.513,4.228,13.326.106,1.765-.408,2.425-2.259,2.328-2.865-.149-5.745.033-8.614-.06-2.775-.089-4.209.979-4.169,3.913.035,2.589.831,6.1-.5,7.534-1.612,1.726-5.167.523-7.875.538-11.239.063-22.479,0-33.718.054-1.813.009-2.916.021-2.9-2.454.109-21.476.063-42.953.063-65.157m47.722-40.333c6.727,0,13.455-.033,20.181.019,2.118.016,3.894-.516,3.972-2.875.086-2.613-1.782-3.165-4.054-3.159q-19.807.054-39.615,0c-2.235-.006-4.187.427-4.155,3.056s2.026,3,4.237,2.979c6.478-.055,12.956-.019,19.434-.019M124.289,49.91c2.735,0,5.47-.005,8.206,0,2.064,0,3.41-.951,3.4-3.059-.01-1.892-1.231-2.924-3.138-2.932-5.844-.025-11.687-.015-17.531-.006-1.906,0-3.152.976-3.209,2.865-.063,2.1,1.25,3.119,3.322,3.126,2.984.011,5.968,0,8.952,0m-21.21-29.961c-2.111,0-4.228-.1-6.331.031a2.726,2.726,0,0,0-2.736,2.931,2.685,2.685,0,0,0,2.7,2.957c4.094.124,8.2.112,12.291.024a2.756,2.756,0,0,0,2.915-3.132,2.758,2.758,0,0,0-2.88-2.8c-1.983-.081-3.973-.019-5.959-.009m24.135-.01c-2.111,0-4.224-.061-6.332.019a2.753,2.753,0,0,0-2.881,2.8,2.754,2.754,0,0,0,2.911,3.134c4.1.088,8.2.1,12.291-.024a2.688,2.688,0,0,0,2.7-2.955,2.731,2.731,0,0,0-2.735-2.932c-1.978-.13-3.971-.031-5.958-.04" transform="translate(-15.929 -1.871)" fill="#e2e9ef"/>
    <path id="Trazado_731000" data-name="Trazado 731000" d="M164.756,223.941h-61.18q-22.464,0-44.927,0c-7.058-.008-10.54-3.5-10.566-10.558-.013-3.494.238-7.01-.073-10.477-.278-3.1,1.35-2.974,3.537-2.971q47.921.069,95.844.032c4.118,0,8.239.088,12.354-.04,1.829-.057,2.336.549,2.283,2.323-.119,3.99.07,7.99-.07,11.979-.118,3.356.91,6.339,2.8,9.716" transform="translate(-12 -50.002)" fill="#d2d4d6"/>
    <path id="Trazado_731001" data-name="Trazado 731001" d="M201.99,56.309c0,6.737-.117,13.478.059,20.21.068,2.609-.328,3.811-3.352,3.563a92.436,92.436,0,0,0-11.594-.029c-2.3.1-3.191-.375-3.164-2.976q.215-20.958,0-41.919c-.031-2.759.861-3.314,3.362-3.166a81.544,81.544,0,0,0,10.846-.01c2.988-.223,4.079.463,3.937,3.745-.3,6.85-.09,13.72-.09,20.582" transform="translate(-46.004 -7.989)" fill="#d2d4d6"/>
    <path id="Trazado_731002" data-name="Trazado 731002" d="M44.074,102.042a3.954,3.954,0,0,0,.006.748c.73,3.688-.609,5.08-4.507,5.824-12.274,2.343-19.9,12.335-19.474,24.6.39,11.337,9.19,20.918,21.179,22.518,2.638.352,2.973,1.291,2.821,3.417a24.945,24.945,0,0,0,.018,5.237c.436,3.066-.865,3.833-3.7,3.612-1.678-.13-2.555-.385-2.373-2.283.142-1.486-.009-3,.038-4.493a3.462,3.462,0,0,0-1.187-3c-3.923-3.29-8.169-3.31-11.543.369-1.881,2.05-3.122,1.884-4.6-.16a9.643,9.643,0,0,0-1.049-1.067c-4.18-4.178-4.235-4.23-.323-8.49,1.393-1.518,1.848-2.983.641-4.655-1.594-2.208-.874-6.174-5.239-6.319-6.688-.223-6.442-.376-6.777-7.2-.19-3.86.848-5.358,4.8-4.8,2.493.352,4.787.27,5.933-3.006,1.2-3.432,3.417-6.554-.883-9.374-2.388-1.567-2.64-3.316-.088-5.063a8.224,8.224,0,0,0,1.066-1.048c4.054-4.055,4.1-4.1,8.228-.25,1.459,1.359,2.89,2.043,4.626.794,2.292-1.65,6.67-.92,6.4-5.543-.051-.871.01-1.748-.01-2.622-.047-2.1-.5-3.966,3-3.965s3.06,1.854,3.006,3.962c-.019.749,0,1.5,0,2.247" transform="translate(-1.996 -23.969)" fill="#207ec3"/>
    <path id="Trazado_731003" data-name="Trazado 731003" d="M100.206,153.987c-2.994,0-6-.123-8.981.041-2.285.125-3.368-.344-3.222-2.988.234-4.229.136-8.484.03-12.723-.045-1.78.524-2.37,2.326-2.346,6.487.09,12.976.065,19.464.014,1.494-.012,2.286.281,2.25,2.031-.1,4.615-.086,9.234,0,13.849.029,1.617-.49,2.2-2.134,2.152-3.241-.1-6.487-.03-9.731-.029" transform="translate(-22.007 -34.007)" fill="#e02930"/>
    <path id="Trazado_731004" data-name="Trazado 731004" d="M188.135,153.987a64.635,64.635,0,0,0-8.232.07c-3.531.457-4.172-1.036-3.962-4.147.26-3.853.142-7.739.028-11.606-.052-1.794.535-2.358,2.329-2.334,6.492.092,12.985.068,19.478.013,1.505-.013,2.274.289,2.236,2.035-.1,4.618-.09,9.24,0,13.858.031,1.63-.5,2.191-2.137,2.139-3.243-.1-6.492-.03-9.738-.029" transform="translate(-43.996 -34.007)" fill="#4ca76e"/>
    <path id="Trazado_731005" data-name="Trazado 731005" d="M91.7,72.526c2.754,3.4,3.494,7.578,4.6,11.622a2.428,2.428,0,0,1-.919,2.609c-1.345,1.291-2.568,2.721-3.987,3.922-2.219,1.879-3.657,5.621-6.627,5.452a20.986,20.986,0,0,1-12.185-4.487L91.7,72.526" transform="translate(-18.152 -18.139)" fill="#f5ddca"/>
    <path id="Trazado_731006" data-name="Trazado 731006" d="M40.11,36.328c1.261-.054,1.655.676,2.16,1.18,9,8.975,17.917,18.025,27.008,26.9,2.163,2.112.4,2.928-.756,4.041-1.118,1.076-1.881,3.045-4.037.839C55.6,60.207,46.55,51.285,37.586,42.278c-.548-.552-1.788-1.095-1.067-2.063a44.806,44.806,0,0,1,3.591-3.887" transform="translate(-9.079 -9.085)" fill="#0063a5"/>
    <path id="Trazado_731007" data-name="Trazado 731007" d="M32.121,137.68A17.989,17.989,0,0,1,46.815,120.35c1.09-.228,3.089-1.406,3.141.744.04,1.659,2,4.415-2,5.09a11.321,11.321,0,0,0-9.581,9.278c-1.023,4.614.5,8.586,4.073,11.718a10.479,10.479,0,0,0,5.681,2.6c1.573.184,2,.663,2.036,2.239.107,4.319.094,4.4-4.251,3.316a17.92,17.92,0,0,1-13.793-17.66" transform="translate(-8.033 -29.969)" fill="#dde3e8"/>
    <path id="Trazado_731008" data-name="Trazado 731008" d="M8.134,24.919c.034-4.979,11.614-16.7,16.287-16.795a7.684,7.684,0,0,1,2.535.464C30.91,9.918,31.135,10.8,28.3,13.64,23.644,18.3,19.024,23,14.291,27.58c-1.057,1.023-1.918,3.344-3.6,2.475-1.892-.976-2.4-3.332-2.552-5.135" transform="translate(-2.034 -2.032)" fill="#d8282e"/>
    <path id="Trazado_731009" data-name="Trazado 731009" d="M51.383,26.1c.52.488,1.069.976,1.588,1.495,8.9,8.893,17.77,17.816,26.72,26.659,1.336,1.32,1.562,2.088.12,3.557-1.528,1.558-2.314,1.012-3.553-.238C67.4,48.639,58.477,39.77,49.61,30.845c-.605-.609-2.022-1.135-1.1-2.344a5.4,5.4,0,0,1,2.875-2.4" transform="translate(-12.057 -6.529)" fill="#1b7abf"/>
    <path id="Trazado_731010" data-name="Trazado 731010" d="M28.446,48.2a2.645,2.645,0,0,1,2.342,1.22c9,8.971,17.945,17.991,26.994,26.91,1.44,1.418,1.324,2.2-.033,3.554-1.324,1.32-2.064,1.135-3.282-.1C45.528,70.761,36.516,61.806,27.558,52.8c-.605-.61-1.938-1.109-1-2.377.657-.89,1.435-1.69,1.89-2.217" transform="translate(-6.561 -12.055)" fill="#1b7abf"/>
    <path id="Trazado_731011" data-name="Trazado 731011" d="M143.663,189.955c-2.737,0-5.479-.1-8.21.033-2.245.113-3.578,0-3.562-3,.014-2.912,1.18-3.12,3.507-3.068,5.969.135,11.948.189,17.913-.022,2.55-.09,2.778.976,2.743,3.038-.033,1.965-.044,3.3-2.691,3.084-3.214-.258-6.465-.061-9.7-.061" transform="translate(-32.987 -45.993)" fill="#ffc826"/>
    <path id="Trazado_731012" data-name="Trazado 731012" d="M39.571,19.206c-.752.9-1.1,1.386-1.51,1.8Q29.642,29.447,21.2,37.859c-.628.623-1.2,1.82-2.391.651s-.03-1.754.606-2.394q8.4-8.454,16.858-16.859c.484-.482.889-1.3,1.825-.86.449.212.874.476,1.478.809" transform="translate(-4.576 -4.569)" fill="#eab120"/>
    <path id="Trazado_731013" data-name="Trazado 731013" d="M54.116,142.348a12.427,12.427,0,0,1-.025,2.237c-.208,1.12.832,2.8-.694,3.258-1.3.393-2.632-.634-3.557-1.658a5.651,5.651,0,0,1-.815-7.2c.942-1.6,2.538-2.983,4.184-2.666,1.866.359.582,2.485.879,3.8a10.382,10.382,0,0,1,.028,2.235" transform="translate(-12.027 -34.083)" fill="#0063a5"/>
    <path id="Trazado_731014" data-name="Trazado 731014" d="M107.008,107.183a13.319,13.319,0,0,1-3.161-.638c-1.333-.617-3.564-.017-3.939-1.563-.351-1.449,1.625-2.3,2.633-3.339,2.7-2.785,2.743-2.745,3.767,1.079.321,1.2.646,2.4.928,3.608.047.2-.112.444-.229.853" transform="translate(-24.978 -24.932)" fill="#2f3336"/>
    <path id="Trazado_731015" data-name="Trazado 731015" d="M150.127,146.537c-.217,2.167-1.141,3.4-3.016,3.422a2.957,2.957,0,0,1-.269-5.905c1.959-.187,2.733,1.2,3.285,2.484" transform="translate(-36.045 -36.025)" fill="#1b7abf"/>
    <path id="Trazado_731016" data-name="Trazado 731016" d="M119.848,46.063c-6.478,0-12.957-.035-19.434.019-2.21.019-4.2-.349-4.237-2.979s1.92-3.062,4.155-3.056q19.808.057,39.616,0c2.271-.007,4.139.545,4.053,3.159-.078,2.359-1.854,2.892-3.971,2.875-6.727-.052-13.455-.019-20.182-.019" transform="translate(-24.055 -10.016)" fill="#060708"/>
    <path id="Trazado_731017" data-name="Trazado 731017" d="M140.407,62.057c-2.984,0-5.968.008-8.952,0-2.072-.007-3.385-1.021-3.321-3.126.057-1.89,1.3-2.862,3.208-2.865,5.844-.009,11.688-.019,17.532.006,1.907.007,3.126,1.039,3.138,2.931.012,2.108-1.334,3.064-3.4,3.059-2.736-.006-5.47,0-8.206,0" transform="translate(-32.047 -14.019)" fill="#090a0a"/>
    <path id="Trazado_731018" data-name="Trazado 731018" d="M113.193,24.091c1.986,0,3.976-.067,5.959.014a2.758,2.758,0,0,1,2.88,2.8,2.756,2.756,0,0,1-2.915,3.132c-4.1.088-8.2.1-12.291-.024a2.685,2.685,0,0,1-2.7-2.957,2.726,2.726,0,0,1,2.736-2.931c2.1-.128,4.22-.031,6.331-.035" transform="translate(-26.043 -6.017)" fill="#090a0a"/>
    <path id="Trazado_731019" data-name="Trazado 731019" d="M145.328,24.09c1.986.005,3.98-.094,5.958.035a2.732,2.732,0,0,1,2.735,2.933,2.687,2.687,0,0,1-2.7,2.955c-4.094.124-8.195.112-12.291.024a2.754,2.754,0,0,1-2.911-3.133A2.753,2.753,0,0,1,139,24.1c2.108-.081,4.221-.019,6.332-.014" transform="translate(-34.042 -6.017)" fill="#090a0a"/>
  </g>
</svg>
